G04 Layer_Color=32896*
%FSLAX44Y44*%
%MOMM*%
G71*
G01*
G75*
%ADD55C,0.2540*%
D55*
X345500Y907735D02*
Y892500D01*
X337882D01*
X335343Y895039D01*
Y897578D01*
X337882Y900117D01*
X345500D01*
X337882D01*
X335343Y902657D01*
Y905196D01*
X337882Y907735D01*
X345500D01*
X330265Y892500D02*
Y907735D01*
X322647D01*
X320108Y905196D01*
Y900117D01*
X322647Y897578D01*
X330265D01*
X315030Y889961D02*
X304873D01*
X299795Y892500D02*
Y907735D01*
X294716Y902657D01*
X289638Y907735D01*
Y892500D01*
X282020D02*
X276942D01*
X274403Y895039D01*
Y900117D01*
X276942Y902657D01*
X282020D01*
X284560Y900117D01*
Y895039D01*
X282020Y892500D01*
X266785Y905196D02*
Y902657D01*
X269325D01*
X264246D01*
X266785D01*
Y895039D01*
X264246Y892500D01*
X254090D02*
X249011D01*
X246472Y895039D01*
Y900117D01*
X249011Y902657D01*
X254090D01*
X256629Y900117D01*
Y895039D01*
X254090Y892500D01*
X241394Y902657D02*
Y892500D01*
Y897578D01*
X238855Y900117D01*
X236315Y902657D01*
X233776D01*
X216002Y907735D02*
Y892500D01*
X223619D01*
X226159Y895039D01*
Y900117D01*
X223619Y902657D01*
X216002D01*
X210924D02*
Y892500D01*
Y897578D01*
X208384Y900117D01*
X205845Y902657D01*
X203306D01*
X195688Y892500D02*
X190610D01*
X193149D01*
Y902657D01*
X195688D01*
X182993D02*
X177914Y892500D01*
X172836Y902657D01*
X160140Y892500D02*
X165218D01*
X167757Y895039D01*
Y900117D01*
X165218Y902657D01*
X160140D01*
X157601Y900117D01*
Y897578D01*
X167757D01*
X152522Y902657D02*
Y892500D01*
Y897578D01*
X149983Y900117D01*
X147444Y902657D01*
X144905D01*
X137287Y889961D02*
X127131D01*
X122052Y892500D02*
Y907735D01*
X114435D01*
X111896Y905196D01*
Y900117D01*
X114435Y897578D01*
X122052D01*
X116974D02*
X111896Y892500D01*
X99200D02*
X104278D01*
X106817Y895039D01*
Y900117D01*
X104278Y902657D01*
X99200D01*
X96660Y900117D01*
Y897578D01*
X106817D01*
X91582Y902657D02*
X86504Y892500D01*
X81425Y902657D01*
X76347Y892500D02*
X71269D01*
X73808D01*
Y907735D01*
X76347Y905196D01*
X346000Y932235D02*
Y917000D01*
X338382D01*
X335843Y919539D01*
Y922078D01*
X338382Y924617D01*
X346000D01*
X338382D01*
X335843Y927157D01*
Y929696D01*
X338382Y932235D01*
X346000D01*
X323147D02*
X328226D01*
X330765Y929696D01*
Y919539D01*
X328226Y917000D01*
X323147D01*
X320608Y919539D01*
Y929696D01*
X323147Y932235D01*
X315530D02*
X305373D01*
X310452D01*
Y917000D01*
X300295Y932235D02*
X290138D01*
X295216D01*
Y917000D01*
X277442Y932235D02*
X282521D01*
X285060Y929696D01*
Y919539D01*
X282521Y917000D01*
X277442D01*
X274903Y919539D01*
Y929696D01*
X277442Y932235D01*
X269825Y917000D02*
Y932235D01*
X264746Y927157D01*
X259668Y932235D01*
Y917000D01*
M02*
