G04 Layer_Color=16711935*
%FSLAX44Y44*%
%MOMM*%
G71*
G01*
G75*
%ADD117C,2.4032*%
%ADD118C,1.7032*%
%ADD119C,1.0032*%
%ADD120C,2.0032*%
%ADD121C,2.2032*%
%ADD122C,2.7032*%
%ADD123C,8.2032*%
%ADD124C,0.8032*%
D117*
X47000Y665100D02*
D03*
Y715900D02*
D03*
X216500Y770000D02*
D03*
Y695000D02*
D03*
D118*
X719000Y980000D02*
D03*
X693600D02*
D03*
X744400D02*
D03*
X1459380Y980550D02*
D03*
X1433980D02*
D03*
X1484780D02*
D03*
X1373020D02*
D03*
X1347620D02*
D03*
X1398420D02*
D03*
X1286660D02*
D03*
X1261260D02*
D03*
X1312060D02*
D03*
X1202840D02*
D03*
X1177440D02*
D03*
X1228240D02*
D03*
X1026310D02*
D03*
X1000910D02*
D03*
X1051710D02*
D03*
X1115210D02*
D03*
X1089810D02*
D03*
X1140610D02*
D03*
X778000Y962000D02*
D03*
X803400D02*
D03*
X1332000Y609400D02*
D03*
X1332000Y584000D02*
D03*
X1332000Y681400D02*
D03*
X1332000Y656000D02*
D03*
X1407000Y608400D02*
D03*
Y583000D02*
D03*
Y681000D02*
D03*
Y655600D02*
D03*
X1482000Y608400D02*
D03*
Y583000D02*
D03*
Y680400D02*
D03*
Y655000D02*
D03*
X1333000Y750400D02*
D03*
Y725000D02*
D03*
X1407000Y750400D02*
D03*
Y725000D02*
D03*
X1482000Y751000D02*
D03*
Y725600D02*
D03*
X1002900Y725300D02*
D03*
X952100D02*
D03*
X977500Y725300D02*
D03*
Y750700D02*
D03*
X952100Y750700D02*
D03*
X1002900D02*
D03*
X1072000Y748200D02*
D03*
Y697400D02*
D03*
Y722800D02*
D03*
Y773600D02*
D03*
Y799000D02*
D03*
D119*
X1479700Y856970D02*
D03*
Y888970D02*
D03*
X1428900D02*
D03*
Y856970D02*
D03*
X1479700Y910970D02*
D03*
Y932970D02*
D03*
X1428900D02*
D03*
Y910970D02*
D03*
X1342540D02*
D03*
Y932970D02*
D03*
X1393340D02*
D03*
Y910970D02*
D03*
X1342540Y856970D02*
D03*
Y888970D02*
D03*
X1393340D02*
D03*
Y856970D02*
D03*
X1308250D02*
D03*
Y888970D02*
D03*
X1257450D02*
D03*
Y856970D02*
D03*
X1308250Y910970D02*
D03*
Y932970D02*
D03*
X1257450D02*
D03*
Y910970D02*
D03*
X1172360D02*
D03*
Y932970D02*
D03*
X1223160D02*
D03*
Y910970D02*
D03*
X1172360Y856970D02*
D03*
Y888970D02*
D03*
X1223160D02*
D03*
Y856970D02*
D03*
X403000Y698000D02*
D03*
X393500D02*
D03*
Y707500D02*
D03*
X403000D02*
D03*
X412500D02*
D03*
Y698000D02*
D03*
Y717000D02*
D03*
X403000D02*
D03*
X393500D02*
D03*
Y726500D02*
D03*
X403000D02*
D03*
Y736000D02*
D03*
X393500D02*
D03*
X412500Y726500D02*
D03*
Y736000D02*
D03*
X49730Y80270D02*
D03*
Y20270D02*
D03*
X79730Y50270D02*
D03*
X19730D02*
D03*
X29730Y70270D02*
D03*
X69730D02*
D03*
Y30270D02*
D03*
X29730D02*
D03*
X49000Y993500D02*
D03*
Y933500D02*
D03*
X79000Y963500D02*
D03*
X19000D02*
D03*
X29000Y983500D02*
D03*
X69000D02*
D03*
Y943500D02*
D03*
X29000D02*
D03*
X1541500Y76000D02*
D03*
Y16000D02*
D03*
X1571500Y46000D02*
D03*
X1511500D02*
D03*
X1521500Y66000D02*
D03*
X1561500D02*
D03*
Y26000D02*
D03*
X1521500D02*
D03*
X1542000Y995000D02*
D03*
Y935000D02*
D03*
X1572000Y965000D02*
D03*
X1512000D02*
D03*
X1522000Y985000D02*
D03*
X1562000D02*
D03*
Y945000D02*
D03*
X1522000D02*
D03*
D120*
X717000Y809500D02*
D03*
X691600D02*
D03*
X534500Y792200D02*
D03*
Y766800D02*
D03*
D121*
X299000Y79500D02*
D03*
X264000D02*
D03*
X229000D02*
D03*
X194000D02*
D03*
X798500Y80000D02*
D03*
X763500D02*
D03*
X728500D02*
D03*
X693500D02*
D03*
X1295500Y79000D02*
D03*
X1260500D02*
D03*
X1225500D02*
D03*
X1190500D02*
D03*
D122*
X428800Y198000D02*
D03*
Y148000D02*
D03*
X927460Y148000D02*
D03*
Y198000D02*
D03*
X1424460Y197500D02*
D03*
Y147500D02*
D03*
D123*
X49730Y50270D02*
D03*
X49000Y963500D02*
D03*
X1541500Y46000D02*
D03*
X1542000Y965000D02*
D03*
D124*
X1249860Y314500D02*
D03*
X1242360Y281000D02*
D03*
X1262860D02*
D03*
Y298500D02*
D03*
X1250860Y247500D02*
D03*
X1234360D02*
D03*
X1261860D02*
D03*
X1223360Y247000D02*
D03*
X1242360Y264500D02*
D03*
Y298500D02*
D03*
X1234360Y332500D02*
D03*
X1222360D02*
D03*
X1249360D02*
D03*
X1222860Y314500D02*
D03*
X1221360Y298000D02*
D03*
X1221860Y281000D02*
D03*
X1234860Y314500D02*
D03*
X1221860Y264500D02*
D03*
X1261860Y230000D02*
D03*
X1250860D02*
D03*
X1262860Y264500D02*
D03*
X255200Y248000D02*
D03*
X266200Y230500D02*
D03*
X267200Y281500D02*
D03*
Y265000D02*
D03*
X266200Y248000D02*
D03*
X255200Y230500D02*
D03*
X266200Y333000D02*
D03*
X292700Y220000D02*
D03*
Y236000D02*
D03*
X282200Y228500D02*
D03*
X201700Y237000D02*
D03*
Y221000D02*
D03*
X212200Y228500D02*
D03*
X200700Y343000D02*
D03*
Y327000D02*
D03*
X211200Y334500D02*
D03*
X281700Y334000D02*
D03*
X292200Y341500D02*
D03*
Y325500D02*
D03*
X227200Y315000D02*
D03*
X254200D02*
D03*
X266200D02*
D03*
X238700Y248000D02*
D03*
X227700Y247500D02*
D03*
X227200Y230000D02*
D03*
X238700D02*
D03*
X225700Y298500D02*
D03*
X246700Y299000D02*
D03*
X267200D02*
D03*
X226200Y281500D02*
D03*
Y265000D02*
D03*
X246700D02*
D03*
Y281500D02*
D03*
X765860Y265000D02*
D03*
X745360Y281500D02*
D03*
Y265000D02*
D03*
X724860D02*
D03*
Y281500D02*
D03*
X765860D02*
D03*
Y299000D02*
D03*
X745360D02*
D03*
X724360Y298500D02*
D03*
X737360Y230000D02*
D03*
X725860D02*
D03*
X726360Y247500D02*
D03*
X737360Y248000D02*
D03*
X753860D02*
D03*
Y230500D02*
D03*
X764860D02*
D03*
Y248000D02*
D03*
Y315000D02*
D03*
X752860D02*
D03*
X752360Y333000D02*
D03*
X764860D02*
D03*
X737360D02*
D03*
X725360D02*
D03*
X725860Y315000D02*
D03*
X737860D02*
D03*
X790860Y325500D02*
D03*
Y341500D02*
D03*
X780360Y334000D02*
D03*
X709860Y334500D02*
D03*
X699360Y327000D02*
D03*
Y343000D02*
D03*
X710860Y228500D02*
D03*
X700360Y221000D02*
D03*
Y237000D02*
D03*
X780860Y228500D02*
D03*
X791360Y236000D02*
D03*
Y220000D02*
D03*
X1288360Y219500D02*
D03*
Y235500D02*
D03*
X1277860Y228000D02*
D03*
X1197360Y236500D02*
D03*
Y220500D02*
D03*
X1207860Y228000D02*
D03*
X1196360Y342500D02*
D03*
Y326500D02*
D03*
X1206860Y334000D02*
D03*
X1277360Y333500D02*
D03*
X1287860Y341000D02*
D03*
Y325000D02*
D03*
X1261860Y332500D02*
D03*
Y314500D02*
D03*
X1222860Y229500D02*
D03*
X1234360D02*
D03*
X226700Y333000D02*
D03*
X239200Y315000D02*
D03*
X238700Y333000D02*
D03*
X253700D02*
D03*
X1100000Y879500D02*
D03*
Y890500D02*
D03*
X1111000Y879500D02*
D03*
Y890500D02*
D03*
M02*
