G04 Layer_Color=255*
%FSLAX44Y44*%
%MOMM*%
G71*
G01*
G75*
%ADD47C,1.0000*%
%ADD57C,1.8000*%
%ADD58C,1.5000*%
%ADD59C,8.0000*%
%ADD60C,2.5000*%
%ADD61C,2.0000*%
%ADD62C,2.2000*%
D47*
X1223160Y856970D02*
D03*
Y888970D02*
D03*
X1172360D02*
D03*
Y856970D02*
D03*
X1223160Y910970D02*
D03*
Y932970D02*
D03*
X1172360D02*
D03*
Y910970D02*
D03*
X1257450D02*
D03*
Y932970D02*
D03*
X1308250D02*
D03*
Y910970D02*
D03*
X1257450Y856970D02*
D03*
Y888970D02*
D03*
X1308250D02*
D03*
Y856970D02*
D03*
X1393340D02*
D03*
Y888970D02*
D03*
X1342540D02*
D03*
Y856970D02*
D03*
X1393340Y910970D02*
D03*
Y932970D02*
D03*
X1342540D02*
D03*
Y910970D02*
D03*
X1428900D02*
D03*
Y932970D02*
D03*
X1479700D02*
D03*
Y910970D02*
D03*
X1428900Y856970D02*
D03*
Y888970D02*
D03*
X1479700D02*
D03*
Y856970D02*
D03*
D57*
X534500Y766800D02*
D03*
Y792200D02*
D03*
X691600Y809500D02*
D03*
X717000D02*
D03*
D58*
X1072000Y799000D02*
D03*
Y773600D02*
D03*
Y722800D02*
D03*
Y697400D02*
D03*
Y748200D02*
D03*
X1002900Y750700D02*
D03*
X952100D02*
D03*
X977500Y750700D02*
D03*
Y725300D02*
D03*
X952100Y725300D02*
D03*
X1002900D02*
D03*
X1482000Y725600D02*
D03*
Y751000D02*
D03*
X1407000Y725000D02*
D03*
Y750400D02*
D03*
X1333000Y725000D02*
D03*
Y750400D02*
D03*
X1482000Y655000D02*
D03*
Y680400D02*
D03*
Y583000D02*
D03*
Y608400D02*
D03*
X1407000Y655600D02*
D03*
Y681000D02*
D03*
Y583000D02*
D03*
Y608400D02*
D03*
X1332000Y656000D02*
D03*
X1332000Y681400D02*
D03*
X1332000Y584000D02*
D03*
X1332000Y609400D02*
D03*
X803400Y962000D02*
D03*
X778000D02*
D03*
X1140610Y980550D02*
D03*
X1089810D02*
D03*
X1115210D02*
D03*
X1051710D02*
D03*
X1000910D02*
D03*
X1026310D02*
D03*
X1228240D02*
D03*
X1177440D02*
D03*
X1202840D02*
D03*
X1312060D02*
D03*
X1261260D02*
D03*
X1286660D02*
D03*
X1398420D02*
D03*
X1347620D02*
D03*
X1373020D02*
D03*
X1484780D02*
D03*
X1433980D02*
D03*
X1459380D02*
D03*
X744400Y980000D02*
D03*
X693600D02*
D03*
X719000D02*
D03*
D59*
X1542000Y965000D02*
D03*
X1541500Y46000D02*
D03*
X49000Y963500D02*
D03*
X49730Y50270D02*
D03*
D60*
X1424460Y147500D02*
D03*
Y197500D02*
D03*
X927460Y198000D02*
D03*
Y148000D02*
D03*
X428800Y148000D02*
D03*
Y198000D02*
D03*
D61*
X1190500Y79000D02*
D03*
X1225500D02*
D03*
X1260500D02*
D03*
X1295500D02*
D03*
X693500Y80000D02*
D03*
X728500D02*
D03*
X763500D02*
D03*
X798500D02*
D03*
X194000Y79500D02*
D03*
X229000D02*
D03*
X264000D02*
D03*
X299000D02*
D03*
D62*
X216500Y695000D02*
D03*
Y770000D02*
D03*
X47000Y715900D02*
D03*
Y665100D02*
D03*
M02*
