G04 Layer_Color=32768*
%FSLAX44Y44*%
%MOMM*%
G71*
G01*
G75*
%ADD52C,0.2540*%
%ADD69C,0.2000*%
%ADD123C,0.1000*%
%ADD124C,0.0500*%
D52*
X1488468Y172500D02*
G03*
X1488468Y172500I-64008J0D01*
G01*
X991468Y173000D02*
G03*
X991468Y173000I-64008J0D01*
G01*
X492808Y173000D02*
G03*
X492808Y173000I-64008J0D01*
G01*
X296500Y732500D02*
G03*
X296500Y732500I-80000J0D01*
G01*
X1377460Y243000D02*
X1393460Y243000D01*
X1377460Y243000D02*
X1377460Y272000D01*
X1393460D01*
X1393460Y243000D01*
X1359460D02*
X1375460D01*
X1359460D02*
Y272000D01*
X1375460D01*
Y243000D02*
Y272000D01*
X1327460Y277000D02*
X1343460D01*
Y248000D02*
Y277000D01*
X1327460Y248000D02*
X1343460D01*
X1327460D02*
Y277000D01*
X1067960Y337000D02*
Y353000D01*
X1096960Y353000D01*
X1096960Y337000D01*
X1067960Y337000D02*
X1096960Y337000D01*
X1111460Y380500D02*
X1127460D01*
X1111460D02*
X1111460Y409500D01*
X1127460D01*
Y380500D02*
Y409500D01*
X1111460Y349500D02*
X1127460D01*
X1111460D02*
Y378500D01*
X1127460Y378500D01*
X1127460Y349500D02*
X1127460Y378500D01*
X1111460Y348500D02*
X1127460D01*
Y319500D02*
Y348500D01*
X1111460Y319500D02*
X1127460D01*
X1111460D02*
Y348500D01*
X1102960Y299000D02*
X1102960Y315000D01*
X1131960Y315000D01*
X1131960Y299000D01*
X1102960D02*
X1131960D01*
X1102960Y281000D02*
Y297000D01*
X1131960D01*
Y281000D02*
Y297000D01*
X1102960Y281000D02*
X1131960D01*
X1102960Y279000D02*
X1102960Y263000D01*
X1102960Y279000D02*
X1131960Y279000D01*
Y263000D02*
Y279000D01*
X1102960Y263000D02*
X1131960D01*
X1088960Y239000D02*
X1088960Y223000D01*
X1088960Y239000D02*
X1117960Y239000D01*
Y223000D02*
Y239000D01*
X1088960Y223000D02*
X1117960D01*
X1153460Y218000D02*
Y230000D01*
X1125460Y218000D02*
X1153460D01*
X1125460D02*
Y230000D01*
X1153460Y230000D01*
X1050460Y172000D02*
Y221000D01*
Y172000D02*
X1118460D01*
X1118460Y221000D01*
X1050460D02*
X1118460D01*
X1084460Y191000D02*
Y201000D01*
X1079460Y196000D02*
X1089460D01*
X1277460Y196000D02*
X1293460D01*
Y167000D02*
Y196000D01*
X1277460Y167000D02*
X1293460D01*
X1277460D02*
Y196000D01*
X1192460D02*
X1208460Y196000D01*
X1208460Y167000D02*
X1208460Y196000D01*
X1192460Y167000D02*
X1208460D01*
X1192460Y196000D02*
X1192460Y167000D01*
X1277460Y365000D02*
X1293460D01*
X1277460D02*
Y394000D01*
X1293460Y394000D01*
X1293460Y365000D01*
X1191460Y364000D02*
X1207460D01*
X1191460D02*
X1191460Y393000D01*
X1207460D01*
Y364000D02*
Y393000D01*
X694460Y364500D02*
X710460D01*
X694460Y393500D02*
X694460Y364500D01*
X694460Y393500D02*
X710460Y393500D01*
Y364500D02*
Y393500D01*
X780460Y365500D02*
X796460D01*
X780460Y394500D02*
X780460Y365500D01*
X780460Y394500D02*
X796460Y394500D01*
Y365500D02*
Y394500D01*
X880460Y243500D02*
X896460Y243500D01*
X880460Y243500D02*
X880460Y272500D01*
X896460D01*
Y243500D02*
Y272500D01*
X862460Y243500D02*
X878460D01*
X862460D02*
Y272500D01*
X878460D01*
Y243500D02*
Y272500D01*
X830460Y277500D02*
X846460D01*
Y248500D02*
Y277500D01*
X830460Y248500D02*
X846460D01*
X830460D02*
Y277500D01*
X780460Y196500D02*
X796460D01*
Y167500D02*
Y196500D01*
X780460Y167500D02*
X796460Y167500D01*
X780460Y167500D02*
X780460Y196500D01*
X695460Y196500D02*
X711460D01*
X711460Y167500D02*
X711460Y196500D01*
X695460Y167500D02*
X711460D01*
X695460Y196500D02*
X695460Y167500D01*
X591960Y223500D02*
Y239500D01*
X620960D01*
Y223500D02*
Y239500D01*
X591960Y223500D02*
X620960D01*
X656460Y218500D02*
Y230500D01*
X628460Y218500D02*
X656460Y218500D01*
X628460Y218500D02*
Y230500D01*
X656460D01*
X553460Y221500D02*
X553460Y172500D01*
X621460D01*
X621460Y221500D02*
X621460Y172500D01*
X553460Y221500D02*
X621460Y221500D01*
X587460Y191500D02*
Y201500D01*
X582460Y196500D02*
X592460D01*
X605960Y299500D02*
X605960Y315500D01*
X634960D01*
X634960Y299500D02*
X634960Y315500D01*
X605960Y299500D02*
X634960Y299500D01*
X605960Y281500D02*
Y297500D01*
X634960D01*
Y281500D02*
Y297500D01*
X605960Y281500D02*
X634960Y281500D01*
X605960Y263500D02*
Y279500D01*
X634960Y279500D01*
Y263500D02*
Y279500D01*
X605960Y263500D02*
X634960Y263500D01*
X614460Y349000D02*
X630460D01*
Y320000D02*
Y349000D01*
X614460Y320000D02*
X630460D01*
X614460Y349000D02*
X614460Y320000D01*
X614460Y350000D02*
X630460D01*
X614460Y379000D02*
X614460Y350000D01*
X614460Y379000D02*
X630460Y379000D01*
Y350000D02*
Y379000D01*
X614460Y381000D02*
X630460D01*
X614460Y410000D02*
X614460Y381000D01*
X614460Y410000D02*
X630460Y410000D01*
Y381000D02*
Y410000D01*
X281800Y365500D02*
X297800Y365500D01*
X281800Y365500D02*
X281800Y394500D01*
X297800Y394500D01*
X297800Y365500D02*
X297800Y394500D01*
X195800Y364500D02*
X211800D01*
X195800D02*
Y393500D01*
X211800D01*
X211800Y364500D01*
X382000Y243500D02*
X398000Y243500D01*
X382000Y243500D02*
Y272500D01*
X398000Y272500D01*
X398000Y243500D01*
X363800Y243500D02*
X379800D01*
X363800D02*
X363800Y272500D01*
X379800D01*
X379800Y243500D01*
X331800Y277500D02*
X347800D01*
X347800Y248500D02*
X347800Y277500D01*
X331800Y248500D02*
X347800D01*
X331800Y277500D02*
X331800Y248500D01*
X281800Y196500D02*
X297800D01*
Y167500D02*
Y196500D01*
X281800Y167500D02*
X297800D01*
X281800Y196500D02*
X281800Y167500D01*
X196800Y196500D02*
X212800D01*
X212800Y167500D02*
X212800Y196500D01*
X196800Y167500D02*
X212800D01*
X196800Y196500D02*
X196800Y167500D01*
X157800Y230500D02*
X157800Y218500D01*
X129800Y218500D02*
X157800Y218500D01*
X129800Y218500D02*
Y230500D01*
X157800Y230500D01*
X93300Y223500D02*
Y239500D01*
X122300D01*
X122300Y223500D01*
X93300Y223500D02*
X122300Y223500D01*
X54800Y172500D02*
Y221500D01*
Y172500D02*
X122800D01*
X122800Y221500D02*
X122800Y172500D01*
X54800Y221500D02*
X122800D01*
X88800Y191500D02*
Y201500D01*
X83800Y196500D02*
X93800D01*
X107300Y263500D02*
Y279500D01*
X136300D01*
Y263500D02*
Y279500D01*
X107300Y263500D02*
X136300Y263500D01*
X107300Y281500D02*
X107300Y297500D01*
X136300Y297500D01*
Y281500D02*
Y297500D01*
X107300Y281500D02*
X136300Y281500D01*
X107300Y299500D02*
Y315500D01*
X136300Y315500D01*
X136300Y299500D02*
X136300Y315500D01*
X107300Y299500D02*
X136300D01*
X115800Y349000D02*
X131800Y349000D01*
X131800Y320000D02*
X131800Y349000D01*
X115800Y320000D02*
X131800D01*
X115800Y349000D02*
X115800Y320000D01*
X72300Y337500D02*
Y353500D01*
X101300Y353500D01*
X101300Y337500D02*
X101300Y353500D01*
X72300Y337500D02*
X101300Y337500D01*
X115800Y381000D02*
X131800D01*
X115800D02*
Y410000D01*
X131800D01*
X131800Y381000D01*
X115800Y350000D02*
X131800D01*
X115800D02*
Y379000D01*
X131800Y379000D01*
X131800Y350000D01*
X1269000Y756000D02*
X1297000D01*
X1269000Y744000D02*
X1269000Y756000D01*
X1269000Y744000D02*
X1297000Y744000D01*
X1297000Y756000D02*
X1297000Y744000D01*
X1296000Y603000D02*
Y615000D01*
X1268000Y603000D02*
X1296000Y603000D01*
X1268000Y603000D02*
Y615000D01*
X1296000D01*
X1269000Y688000D02*
X1297000Y688000D01*
X1269000Y676000D02*
Y688000D01*
Y676000D02*
X1297000Y676000D01*
X1297000Y688000D01*
X1441000Y638000D02*
X1469000D01*
X1441000Y626000D02*
Y638000D01*
Y626000D02*
X1469000Y626000D01*
Y638000D01*
X1366000Y639000D02*
X1394000D01*
X1366000Y627000D02*
Y639000D01*
Y627000D02*
X1394000Y627000D01*
Y639000D01*
X1362000Y710000D02*
X1390000Y710000D01*
X1362000Y698000D02*
Y710000D01*
Y698000D02*
X1390000D01*
X1390000Y710000D01*
X1442000Y710000D02*
X1470000Y710000D01*
X1442000Y698000D02*
X1442000Y710000D01*
X1442000Y698000D02*
X1470000D01*
X1470000Y710000D02*
X1470000Y698000D01*
X1365000Y782000D02*
X1393000Y782000D01*
X1365000Y782000D02*
X1365000Y770000D01*
X1393000D01*
Y782000D01*
X1442000Y783000D02*
X1470000Y783000D01*
X1442000Y771000D02*
X1442000Y783000D01*
X1442000Y771000D02*
X1470000D01*
X1470000Y783000D01*
X1491000Y835000D02*
X1503000D01*
X1491000D02*
Y863000D01*
X1503000D01*
Y835000D02*
Y863000D01*
X1461750Y829000D02*
Y841000D01*
X1488750D01*
Y829000D02*
Y841000D01*
X1461750Y829000D02*
X1488750D01*
X1456500Y811000D02*
Y840000D01*
X1440500D02*
X1456500D01*
X1440500Y811000D02*
Y840000D01*
Y811000D02*
X1456500D01*
X1405000Y835000D02*
X1417000D01*
X1405000D02*
Y863000D01*
X1417000D01*
Y835000D02*
Y863000D01*
X1375750Y829000D02*
Y841000D01*
X1402750D01*
Y829000D02*
Y841000D01*
X1375750Y829000D02*
X1402750D01*
X1370500Y811000D02*
Y840000D01*
X1354500D02*
X1370500D01*
X1354500Y811000D02*
Y840000D01*
Y811000D02*
X1370500D01*
X1320000Y835000D02*
X1332000D01*
X1320000D02*
Y863000D01*
X1332000D01*
Y835000D02*
Y863000D01*
X1290750Y829000D02*
Y841000D01*
X1317750D01*
Y829000D02*
Y841000D01*
X1290750Y829000D02*
X1317750D01*
X1282000Y811000D02*
Y840000D01*
X1266000D02*
X1282000D01*
X1266000Y811000D02*
Y840000D01*
Y811000D02*
X1282000D01*
X1234000Y835000D02*
X1246000D01*
X1234000D02*
Y863000D01*
X1246000D01*
Y835000D02*
Y863000D01*
X1204750Y829000D02*
Y841000D01*
X1231750D01*
Y829000D02*
Y841000D01*
X1204750Y829000D02*
X1231750D01*
X1198000Y810500D02*
Y839500D01*
X1182000D02*
X1198000D01*
X1182000Y810500D02*
Y839500D01*
Y810500D02*
X1198000D01*
X1055000Y893000D02*
X1067000D01*
X1055000D02*
Y921000D01*
X1067000D01*
Y893000D02*
Y921000D01*
X834000Y679000D02*
X846000Y679000D01*
Y651000D02*
Y679000D01*
X834000Y651000D02*
X846000D01*
X834000D02*
Y679000D01*
X848000Y679000D02*
X860000D01*
Y651000D02*
Y679000D01*
X848000Y651000D02*
X860000D01*
X848000D02*
Y679000D01*
X862000Y679000D02*
X874000Y679000D01*
X874000Y651000D02*
X874000Y679000D01*
X862000Y651000D02*
X874000D01*
X862000D02*
Y679000D01*
X852000Y607000D02*
Y619000D01*
X880000Y619000D01*
Y607000D02*
Y619000D01*
X852000Y607000D02*
X880000D01*
X890000Y664000D02*
X949000Y664000D01*
X890000Y586000D02*
Y664000D01*
Y586000D02*
X949000Y586000D01*
Y664000D01*
X914000Y625000D02*
X924000D01*
X919000Y620000D02*
Y630000D01*
X836000Y567000D02*
Y579000D01*
X864000D01*
Y567000D02*
Y579000D01*
X836000Y567000D02*
X864000D01*
X784000Y503000D02*
X796000Y503000D01*
X784000Y503000D02*
Y531000D01*
X796000Y531000D01*
X796000Y503000D01*
X799000Y503000D02*
X811000Y503000D01*
X799000Y503000D02*
Y531000D01*
X811000D01*
Y503000D02*
Y531000D01*
X813000Y531000D02*
X825000Y531000D01*
Y503000D02*
Y531000D01*
X813000Y503000D02*
X825000D01*
X813000Y531000D02*
X813000Y503000D01*
X799000Y485000D02*
X827000D01*
Y497000D01*
X799000D02*
X827000D01*
X799000Y485000D02*
Y497000D01*
X717000Y521000D02*
X717000Y533000D01*
X689000Y521000D02*
X717000D01*
X689000Y533000D02*
X689000Y521000D01*
X689000Y533000D02*
X717000Y533000D01*
X689000Y507000D02*
Y519000D01*
X717000D01*
Y507000D02*
Y519000D01*
X689000Y507000D02*
X717000D01*
X689750Y493000D02*
Y505000D01*
X716750D01*
Y493000D02*
Y505000D01*
X689750Y493000D02*
X716750D01*
X663599Y561000D02*
X663599Y549000D01*
X663599Y561000D02*
X691599Y561000D01*
Y549000D02*
Y561000D01*
X663599Y549000D02*
X691599D01*
X660000Y591000D02*
X660000Y603000D01*
X688000D01*
Y591000D02*
Y603000D01*
X660000Y591000D02*
X688000D01*
X665000Y643000D02*
X693000D01*
X665000Y631000D02*
Y643000D01*
Y631000D02*
X693000D01*
Y643000D01*
X746340Y685540D02*
Y697540D01*
X774340Y697540D01*
Y685540D02*
Y697540D01*
X746340Y685540D02*
X774340D01*
X783000Y685000D02*
X795000Y685000D01*
X783000Y685000D02*
Y713000D01*
X795000Y713000D01*
X795000Y685000D01*
X763000Y705000D02*
X775000Y705000D01*
X763000Y705000D02*
Y733000D01*
X775000Y733000D01*
X775000Y705000D01*
X700000D02*
X712000Y705000D01*
X700000Y705000D02*
X700000Y733000D01*
X712000D01*
X712000Y705000D01*
X751000Y744000D02*
Y756000D01*
X723000Y744000D02*
X751000D01*
X723000D02*
Y756000D01*
X751000D01*
X742880Y780300D02*
X751880D01*
X747380Y776300D02*
Y784300D01*
X725880Y770300D02*
X768880Y770300D01*
X725880Y790300D02*
X725880Y770300D01*
X725880Y790300D02*
X768880D01*
Y770300D02*
Y790300D01*
X734650Y815510D02*
X734650Y803510D01*
X734650Y815510D02*
X762650Y815510D01*
X762650Y803510D01*
X734650D02*
X762650D01*
X781640Y826370D02*
Y838370D01*
X809640Y838370D01*
Y826370D02*
Y838370D01*
X781640Y826370D02*
X809640Y826370D01*
X762650Y826370D02*
Y838370D01*
X734650Y826370D02*
X762650D01*
X734650D02*
Y838370D01*
X762650Y838370D01*
X712000Y843000D02*
Y871000D01*
Y843000D02*
X724000D01*
Y871000D01*
X712000D02*
X724000D01*
X685500Y766000D02*
X697500D01*
X685500D02*
Y794000D01*
X697500D01*
Y766000D02*
Y794000D01*
X347000Y710000D02*
Y738000D01*
Y710000D02*
X359000D01*
Y738000D01*
X347000D02*
X359000D01*
X460000Y709000D02*
X476000D01*
X476000Y680000D02*
X476000Y709000D01*
X460000Y680000D02*
X476000D01*
X460000Y709000D02*
X460000Y680000D01*
X381000Y758000D02*
X409000D01*
X381000Y746000D02*
Y758000D01*
Y746000D02*
X409000D01*
Y758000D01*
X381000Y759500D02*
X409000D01*
Y771500D01*
X381000D02*
X409000D01*
X381000Y759500D02*
Y771500D01*
X462000Y716000D02*
Y744000D01*
Y716000D02*
X474000D01*
Y744000D01*
X462000D02*
X474000D01*
X351500Y746000D02*
X379500D01*
Y758000D01*
X351500D02*
X379500D01*
X351500Y746000D02*
Y758000D01*
X448000Y724000D02*
Y752000D01*
Y724000D02*
X460000D01*
Y752000D01*
X448000D02*
X460000D01*
X1454660Y243250D02*
Y270250D01*
X1442660D02*
X1454660D01*
X1442660Y243250D02*
Y270250D01*
Y243250D02*
X1454660D01*
X957660Y243750D02*
Y270750D01*
X945660D02*
X957660D01*
X945660Y243750D02*
Y270750D01*
Y243750D02*
X957660D01*
X459000Y243750D02*
Y270750D01*
X447000D02*
X459000D01*
X447000Y243750D02*
Y270750D01*
Y243750D02*
X459000D01*
X1036000Y910500D02*
Y919500D01*
X1032000Y915000D02*
X1040000D01*
X1046000Y893500D02*
Y936500D01*
X1026000Y893500D02*
X1046000D01*
X1026000D02*
Y936500D01*
X1046000D01*
X1006500Y869000D02*
X1018500D01*
X1006500D02*
Y897000D01*
X1018500D01*
Y869000D02*
Y897000D01*
X627500Y603180D02*
X639500D01*
Y575180D02*
Y603180D01*
X627500Y575180D02*
X639500D01*
X627500D02*
Y603180D01*
X913560Y850060D02*
Y862060D01*
X885560Y850060D02*
X913560D01*
X885560D02*
Y862060D01*
X913560D01*
X928800Y879840D02*
X928800Y867840D01*
X900800D02*
X928800D01*
X900800D02*
Y879840D01*
X928800D01*
X899590Y867840D02*
X899590Y879840D01*
X871590Y867840D02*
X899590Y867840D01*
X871590Y867840D02*
Y879840D01*
X899590Y879840D01*
X854190Y880220D02*
X866190Y880220D01*
Y852220D02*
Y880220D01*
X854190Y852220D02*
X866190D01*
X854190D02*
Y880220D01*
X873240Y886510D02*
X885240Y886510D01*
X873240Y886510D02*
X873240Y914510D01*
X885240D01*
X885240Y886510D02*
X885240Y914510D01*
X887210Y886510D02*
X899210D01*
X887210D02*
Y914510D01*
X899210D01*
Y886510D02*
Y914510D01*
X901180Y886510D02*
X913180Y886510D01*
X901180Y886510D02*
Y914510D01*
X913180Y914510D01*
X913180Y886510D01*
X915150Y886510D02*
X927150D01*
X915150D02*
Y914510D01*
X927150D01*
Y886510D02*
Y914510D01*
X596500Y891500D02*
X608500D01*
X608500Y863500D01*
X596500Y863500D02*
X608500Y863500D01*
X596500Y863500D02*
Y891500D01*
X577500D02*
X589500D01*
Y863500D02*
Y891500D01*
X577500Y863500D02*
X589500D01*
X577500D02*
Y891500D01*
X638000Y922000D02*
Y934000D01*
X610000Y922000D02*
X638000D01*
X610000D02*
Y934000D01*
X638000D01*
X547000Y922000D02*
Y934000D01*
X575000D01*
Y922000D02*
Y934000D01*
X547000Y922000D02*
X575000D01*
X524000Y943000D02*
X536000D01*
X524000D02*
Y971000D01*
X536000D01*
Y943000D02*
Y971000D01*
X952000Y501000D02*
X964000D01*
X952000D02*
Y529000D01*
X964000D01*
Y501000D02*
Y529000D01*
X1406660Y260000D02*
Y272000D01*
X1434660D01*
Y260000D02*
Y272000D01*
X1406660Y260000D02*
X1434660D01*
X909660Y260500D02*
Y272500D01*
X937660D01*
Y260500D02*
Y272500D01*
X909660Y260500D02*
X937660D01*
X411000Y260500D02*
Y272500D01*
X439000D01*
Y260500D02*
Y272500D01*
X411000Y260500D02*
X439000D01*
X937500Y531250D02*
Y558250D01*
Y531250D02*
X949500D01*
Y558250D01*
X937500D02*
X949500D01*
X937500Y529000D02*
X949500D01*
Y501000D02*
Y529000D01*
X937500Y501000D02*
X949500D01*
X937500D02*
Y529000D01*
X966500Y501000D02*
X978500D01*
X966500D02*
Y529000D01*
X978500D01*
Y501000D02*
Y529000D01*
X908000Y787500D02*
X920000D01*
Y759500D02*
Y787500D01*
X908000Y759500D02*
X920000D01*
X908000D02*
Y787500D01*
X836000Y554000D02*
X864000D01*
Y566000D01*
X836000D02*
X864000D01*
X836000Y554000D02*
Y566000D01*
X582000Y606000D02*
Y626000D01*
X572000Y616000D02*
X592000Y616000D01*
X617000Y590000D02*
Y641000D01*
X547000D02*
X617000D01*
X547000Y590000D02*
Y641000D01*
Y590000D02*
X617000D01*
X1097000Y927000D02*
Y943000D01*
X1068000Y927000D02*
X1097000Y927000D01*
X1068000Y927000D02*
Y943000D01*
X1097000Y943000D01*
X570960Y337500D02*
Y353500D01*
X599960Y353500D01*
X599960Y337500D01*
X570960Y337500D02*
X599960Y337500D01*
X551000Y584000D02*
X579000D01*
X551000Y572000D02*
Y584000D01*
Y572000D02*
X579000D01*
Y584000D01*
D69*
X521800Y804900D02*
X547200D01*
Y754100D02*
Y804900D01*
X521800Y754100D02*
X547200D01*
X521800D02*
Y804900D01*
X1084700Y684700D02*
Y811700D01*
X1059300D02*
X1084700D01*
X1059300Y684700D02*
Y811700D01*
Y684700D02*
X1084700D01*
X892560Y966550D02*
X905560D01*
X899560Y959550D02*
Y972550D01*
X867560Y926550D02*
Y1005550D01*
X932560Y1005550D01*
X932560Y926550D02*
X932560Y1005550D01*
X867560Y926550D02*
X932560D01*
X1066460Y302000D02*
X1098460Y302000D01*
X1066460Y302000D02*
Y334000D01*
X1098460Y334000D01*
Y302000D02*
Y334000D01*
X1222460Y109500D02*
X1262460D01*
X1222460Y189500D02*
X1222460Y109500D01*
X1222460Y189500D02*
X1262460Y189500D01*
Y109500D02*
Y189500D01*
X1236460Y149500D02*
X1248460Y149500D01*
X1242460Y143500D02*
Y155500D01*
X725460Y110000D02*
X765460D01*
X725460Y190000D02*
X725460Y110000D01*
X725460Y190000D02*
X765460Y190000D01*
X765460Y110000D02*
X765460Y190000D01*
X739460Y150000D02*
X751460D01*
X745460Y144000D02*
Y156000D01*
X569460Y302500D02*
X601460Y302500D01*
X569460Y302500D02*
Y334500D01*
X601460D01*
X601460Y302500D02*
X601460Y334500D01*
X226800Y110000D02*
X266800Y110000D01*
X226800Y110000D02*
Y190000D01*
X266800Y190000D01*
Y110000D02*
Y190000D01*
X240800Y150000D02*
X252800D01*
X246800Y144000D02*
Y156000D01*
X70800Y302500D02*
X102800D01*
X70800D02*
X70800Y334500D01*
X102800Y334500D01*
Y302500D02*
Y334500D01*
X1318500Y-1000D02*
Y91000D01*
X1167500Y-1000D02*
X1318500D01*
X1167500D02*
Y91000D01*
X1318500D01*
X821500Y-0D02*
Y92000D01*
X670500Y-0D02*
X821500D01*
X670500D02*
Y92000D01*
X821500D01*
X479000Y665000D02*
X513000D01*
X479000Y617000D02*
Y665000D01*
Y617000D02*
X513000D01*
Y665000D01*
X477000Y596500D02*
Y678500D01*
X401000D02*
X477000D01*
X401000Y596500D02*
Y678500D01*
Y596500D02*
X477000D01*
X363500Y690000D02*
Y744000D01*
Y690000D02*
X441500D01*
Y744000D01*
X363500D02*
X441500D01*
X26935Y583000D02*
X192935D01*
Y473000D02*
Y583000D01*
X26935Y473000D02*
X192935D01*
X26935D02*
Y583000D01*
X207500Y607000D02*
Y637000D01*
X137500Y607000D02*
X207500D01*
X137500D02*
Y637000D01*
X207500D01*
X158450Y618000D02*
Y626000D01*
X154450Y622000D02*
X162450D01*
X1015600Y712600D02*
Y763400D01*
X939400D02*
X1015600D01*
X939400Y712600D02*
X1015600D01*
X939400D02*
Y763400D01*
X322000Y-500D02*
Y91500D01*
X171000Y-500D02*
X322000D01*
X171000D02*
Y91500D01*
X322000D01*
X729700Y796800D02*
Y822200D01*
X678900Y796800D02*
X729700D01*
X678900D02*
Y822200D01*
X729700D01*
X541500Y1010500D02*
X645500D01*
X541500Y947500D02*
Y1010500D01*
Y947500D02*
X645500D01*
Y1010500D01*
X1514000Y713600D02*
Y764600D01*
X1455000D02*
X1514000D01*
X1455000Y713600D02*
Y764600D01*
Y713600D02*
X1514000D01*
X1439000Y713000D02*
Y764000D01*
X1380000D02*
X1439000D01*
X1380000Y713000D02*
X1380000Y764000D01*
X1380000Y713000D02*
X1439000Y713000D01*
X1365000D02*
Y764000D01*
X1306000D02*
X1365000D01*
X1306000Y713000D02*
X1306000Y764000D01*
X1306000Y713000D02*
X1365000Y713000D01*
X1514000Y643000D02*
Y694000D01*
X1455000Y694000D02*
X1514000Y694000D01*
X1455000Y643000D02*
Y694000D01*
Y643000D02*
X1514000Y643000D01*
Y571000D02*
Y622000D01*
X1455000Y622000D02*
X1514000Y622000D01*
X1455000Y571000D02*
Y622000D01*
Y571000D02*
X1514000Y571000D01*
X1439000Y643600D02*
Y694600D01*
X1380000Y694600D02*
X1439000Y694600D01*
X1380000Y643600D02*
Y694600D01*
Y643600D02*
X1439000D01*
Y571000D02*
Y622000D01*
X1380000Y622000D02*
X1439000Y622000D01*
X1380000Y571000D02*
Y622000D01*
Y571000D02*
X1439000D01*
X1364000Y644000D02*
Y695000D01*
X1305000Y695000D02*
X1364000Y695000D01*
X1305000Y644000D02*
Y695000D01*
Y644000D02*
X1364000Y644000D01*
Y572000D02*
Y623000D01*
X1305000Y623000D02*
X1364000Y623000D01*
X1305000Y572000D02*
Y623000D01*
Y572000D02*
X1364000Y572000D01*
X1167360Y944970D02*
X1228360D01*
X1167360Y844970D02*
Y944970D01*
Y844970D02*
X1228360D01*
Y944970D01*
X1313450Y844970D02*
Y944970D01*
X1252450Y844970D02*
X1313450D01*
X1252450D02*
Y944970D01*
X1313450D01*
X1337540D02*
X1398540D01*
X1337540Y844970D02*
Y944970D01*
Y844970D02*
X1398540D01*
Y944970D01*
X1484900Y844970D02*
Y944970D01*
X1423900Y844970D02*
X1484900D01*
X1423900D02*
Y944970D01*
X1484900D01*
X1235360Y281000D02*
X1249360D01*
X1242360Y275000D02*
Y287000D01*
X1182160Y356400D02*
X1302860D01*
X1182160Y205400D02*
Y356400D01*
Y205400D02*
X1302860D01*
Y356400D01*
X805860Y205900D02*
Y356900D01*
X685160Y205900D02*
X805860D01*
X685160D02*
Y356900D01*
X805860D01*
X745360Y275500D02*
Y287500D01*
X738360Y281500D02*
X752360D01*
X239700Y281500D02*
X253700D01*
X246700Y275500D02*
Y287500D01*
X186500Y356900D02*
X307200D01*
X186500Y205900D02*
Y356900D01*
Y205900D02*
X307200D01*
Y356900D01*
X817780Y851440D02*
Y918440D01*
X727780Y851440D02*
X817780D01*
X727780D02*
X727780Y918440D01*
X817780D01*
X772780Y879440D02*
Y889440D01*
X766780Y884440D02*
X778780D01*
X1221960Y450500D02*
X1261960Y450500D01*
Y370500D02*
Y450500D01*
X1221960Y370500D02*
X1261960D01*
X1221960Y450500D02*
X1221960Y370500D01*
X1235960Y410500D02*
X1247960Y410500D01*
X1241960Y404500D02*
Y416500D01*
X724960Y451000D02*
X764960Y451000D01*
Y371000D02*
Y451000D01*
X724960Y371000D02*
X764960D01*
X724960D02*
Y451000D01*
X738960Y411000D02*
X750960Y411000D01*
X744960Y405000D02*
Y417000D01*
X226300Y451000D02*
X266300Y451000D01*
X266300Y371000D01*
X226300Y371000D02*
X266300Y371000D01*
X226300Y451000D02*
X226300Y371000D01*
X240300Y411000D02*
X252300D01*
X246300Y405000D02*
Y417000D01*
X757480Y703480D02*
Y735480D01*
X717480Y703480D02*
X757480D01*
X717480D02*
Y735480D01*
X757480Y735480D01*
X737480Y715480D02*
Y723480D01*
X733480Y719480D02*
X741480D01*
X766000Y1092000D02*
X766000Y949000D01*
X766000Y1092000D02*
X816000D01*
Y949000D02*
Y1092000D01*
X766000Y949000D02*
X816000Y949000D01*
X1077110Y1010550D02*
X1153310D01*
X1077110Y970550D02*
Y1010550D01*
Y970550D02*
X1153310D01*
Y1010550D01*
X988210D02*
X1064410D01*
X988210Y970550D02*
Y1010550D01*
Y970550D02*
X1064410D01*
Y1010550D01*
X1164740D02*
X1240940D01*
X1164740Y970550D02*
Y1010550D01*
Y970550D02*
X1240940D01*
Y1010550D01*
X1248560D02*
X1324760D01*
X1248560Y970550D02*
Y1010550D01*
Y970550D02*
X1324760D01*
Y1010550D01*
X1334920D02*
X1411120D01*
X1334920Y970550D02*
Y1010550D01*
Y970550D02*
X1411120D01*
Y1010550D01*
X1421280D02*
X1497480D01*
X1421280Y970550D02*
Y1010550D01*
Y970550D02*
X1497480D01*
Y1010550D01*
X680900Y1010000D02*
X757100D01*
X680900Y970000D02*
Y1010000D01*
Y970000D02*
X757100D01*
Y1010000D01*
X674500Y922500D02*
Y926500D01*
X672500Y924500D02*
X676500D01*
X656500Y894500D02*
Y954500D01*
Y894500D02*
X692500D01*
Y954500D01*
X656500D02*
X692500D01*
X577000Y897000D02*
Y935000D01*
X608000D01*
Y897000D02*
Y935000D01*
X577000Y897000D02*
X608000D01*
X47000Y682500D02*
Y698500D01*
X40000Y690500D02*
X55000D01*
X95000Y639500D02*
Y741500D01*
X0D02*
X95000D01*
X0Y639500D02*
Y741500D01*
Y639500D02*
X95000D01*
D123*
X1385460Y255000D02*
Y260000D01*
X1382960Y257500D02*
X1387960D01*
X1367460Y255000D02*
Y260000D01*
X1364960Y257500D02*
X1369960D01*
X1335460Y260000D02*
Y265000D01*
X1332960Y262500D02*
X1337960D01*
X1079960Y345000D02*
X1084960D01*
X1082460Y342500D02*
Y347500D01*
X1119460Y392500D02*
Y397500D01*
X1116960Y395000D02*
X1121960D01*
X1119460Y361500D02*
Y366500D01*
X1116960Y364000D02*
X1121960D01*
X1119460Y331500D02*
Y336500D01*
X1116960Y334000D02*
X1121960D01*
X1114960Y307000D02*
X1119960D01*
X1117460Y304500D02*
Y309500D01*
X1114960Y289000D02*
X1119960D01*
X1117460Y286500D02*
Y291500D01*
X1114960Y271000D02*
X1119960D01*
X1117460Y268500D02*
Y273500D01*
X1100960Y231000D02*
X1105960D01*
X1103460Y228500D02*
Y233500D01*
X1136960Y224000D02*
X1141960D01*
X1139460Y221500D02*
Y226500D01*
X1285460Y179000D02*
Y184000D01*
X1282960Y181500D02*
X1287960D01*
X1200460Y179000D02*
Y184000D01*
X1197960Y181500D02*
X1202960D01*
X1285460Y377000D02*
Y382000D01*
X1282960Y379500D02*
X1287960D01*
X1199460Y376000D02*
Y381000D01*
X1196960Y378500D02*
X1201960D01*
X702460Y376500D02*
Y381500D01*
X699960Y379000D02*
X704960D01*
X788460Y377500D02*
Y382500D01*
X785960Y380000D02*
X790960D01*
X888460Y255500D02*
Y260500D01*
X885960Y258000D02*
X890960D01*
X870460Y255500D02*
Y260500D01*
X867960Y258000D02*
X872960D01*
X838460Y260500D02*
Y265500D01*
X835960Y263000D02*
X840960D01*
X788460Y184500D02*
X788460Y179500D01*
X785960Y182000D02*
X790960Y182000D01*
X703460Y179500D02*
Y184500D01*
X700960Y182000D02*
X705960D01*
X603960Y231500D02*
X608960D01*
X606460Y229000D02*
Y234000D01*
X639960Y224500D02*
X644960D01*
X642460Y222000D02*
Y227000D01*
X617960Y307500D02*
X622960D01*
X620460Y305000D02*
Y310000D01*
X617960Y289500D02*
X622960D01*
X620460Y287000D02*
Y292000D01*
X617960Y271500D02*
X622960D01*
X620460Y269000D02*
Y274000D01*
X622460Y332000D02*
Y337000D01*
X619960Y334500D02*
X624960D01*
X622460Y362000D02*
Y367000D01*
X619960Y364500D02*
X624960D01*
X622460Y393000D02*
Y398000D01*
X619960Y395500D02*
X624960D01*
X289800Y377500D02*
Y382500D01*
X287300Y380000D02*
X292300D01*
X203800Y376500D02*
Y381500D01*
X201300Y379000D02*
X206300D01*
X390000Y255500D02*
Y260500D01*
X387500Y258000D02*
X392500D01*
X371800Y255500D02*
Y260500D01*
X369300Y258000D02*
X374300D01*
X339800Y260500D02*
Y265500D01*
X337300Y263000D02*
X342300D01*
X289800Y179500D02*
Y184500D01*
X287300Y182000D02*
X292300D01*
X204800Y179500D02*
Y184500D01*
X202300Y182000D02*
X207300D01*
X141300Y224500D02*
X146300D01*
X143800Y222000D02*
Y227000D01*
X105300Y231500D02*
X110300Y231500D01*
X107800Y229000D02*
X107800Y234000D01*
X119300Y271500D02*
X124300D01*
X121800Y269000D02*
Y274000D01*
X119300Y289500D02*
X124300D01*
X121800Y287000D02*
Y292000D01*
X119300Y307500D02*
X124300D01*
X121800Y305000D02*
Y310000D01*
X123800Y332000D02*
Y337000D01*
X121300Y334500D02*
X126300D01*
X84300Y345500D02*
X89300D01*
X86800Y343000D02*
Y348000D01*
X123800Y393000D02*
Y398000D01*
X121300Y395500D02*
X126300D01*
X123800Y362000D02*
Y367000D01*
X121300Y364500D02*
X126300D01*
X1283000Y747500D02*
Y752500D01*
X1280500Y750000D02*
X1285500D01*
X1279500Y609000D02*
X1284500D01*
X1282000Y606500D02*
Y611500D01*
X1283000Y679500D02*
Y684500D01*
X1280500Y682000D02*
X1285500D01*
X1100500Y885000D02*
X1110500D01*
X1105500Y880000D02*
Y890000D01*
X1455000Y629500D02*
Y634500D01*
X1452500Y632000D02*
X1457500D01*
X1380000Y630500D02*
Y635500D01*
X1377500Y633000D02*
X1382500D01*
X1376000Y706500D02*
X1376000Y701500D01*
X1373500Y704000D02*
X1378500D01*
X1456000Y701500D02*
Y706500D01*
X1453500Y704000D02*
X1458500D01*
X1379000Y773500D02*
Y778500D01*
X1376500Y776000D02*
X1381500D01*
X1456000Y774500D02*
Y779500D01*
X1453500Y777000D02*
X1458500D01*
X1497000Y846500D02*
Y851500D01*
X1494500Y849000D02*
X1499500D01*
X1473750Y835000D02*
X1478750D01*
X1476250Y832500D02*
Y837500D01*
X1446000Y825500D02*
X1451000D01*
X1448500Y823000D02*
Y828000D01*
X1411000Y846500D02*
Y851500D01*
X1408500Y849000D02*
X1413500D01*
X1387750Y835000D02*
X1392750D01*
X1390250Y832500D02*
Y837500D01*
X1360000Y825500D02*
X1365000D01*
X1362500Y823000D02*
Y828000D01*
X1326000Y846500D02*
Y851500D01*
X1323500Y849000D02*
X1328500D01*
X1302750Y835000D02*
X1307750D01*
X1305250Y832500D02*
Y837500D01*
X1271500Y825500D02*
X1276500D01*
X1274000Y823000D02*
Y828000D01*
X1240000Y846500D02*
Y851500D01*
X1237500Y849000D02*
X1242500D01*
X1216750Y835000D02*
X1221750D01*
X1219250Y832500D02*
Y837500D01*
X1187500Y825000D02*
X1192500D01*
X1190000Y822500D02*
Y827500D01*
X1061000Y904500D02*
Y909500D01*
X1058500Y907000D02*
X1063500D01*
X840000Y662500D02*
Y667500D01*
X837500Y665000D02*
X842500D01*
X854000Y662500D02*
Y667500D01*
X851500Y665000D02*
X856500D01*
X868000Y662500D02*
Y667500D01*
X865500Y665000D02*
X870500D01*
X863500Y613000D02*
X868500D01*
X866000Y610500D02*
Y615500D01*
X847500Y573000D02*
X852500D01*
X850000Y570500D02*
Y575500D01*
X790000Y514500D02*
Y519500D01*
X787500Y517000D02*
X792500D01*
X805000Y514500D02*
Y519500D01*
X802500Y517000D02*
X807500D01*
X819000Y514500D02*
Y519500D01*
X816500Y517000D02*
X821500D01*
X813000Y488500D02*
Y493500D01*
X810500Y491000D02*
X815500D01*
X700500Y527000D02*
X705500D01*
X703000Y524500D02*
Y529500D01*
X700500Y513000D02*
X705500D01*
X703000Y510500D02*
Y515500D01*
X701750Y499000D02*
X706750D01*
X704250Y496500D02*
Y501500D01*
X760420Y605180D02*
X770420D01*
X765420Y600180D02*
Y610180D01*
X675099Y555000D02*
X680099D01*
X677599Y552500D02*
Y557500D01*
X671500Y597000D02*
X676500D01*
X674000Y594500D02*
Y599500D01*
X679000Y634500D02*
Y639500D01*
X676500Y637000D02*
X681500D01*
X757840Y691540D02*
X762840D01*
X760340Y689040D02*
Y694040D01*
X789000Y696500D02*
Y701500D01*
X786500Y699000D02*
X791500D01*
X769000Y716500D02*
Y721500D01*
X766500Y719000D02*
X771500D01*
X706000Y716500D02*
Y721500D01*
X703500Y719000D02*
X708500D01*
X734500Y750000D02*
X739500D01*
X737000Y747500D02*
Y752500D01*
X746150Y809510D02*
X751150D01*
X748650Y807010D02*
Y812010D01*
X793140Y832370D02*
X798140D01*
X795640Y829870D02*
Y834870D01*
X746150Y832370D02*
X751150D01*
X748650Y829870D02*
Y834870D01*
X715500Y857000D02*
X720500D01*
X718000Y854500D02*
Y859500D01*
X691500Y777500D02*
Y782500D01*
X689000Y780000D02*
X694000D01*
X350500Y724000D02*
X355500D01*
X353000Y721500D02*
Y726500D01*
X468000Y692000D02*
Y697000D01*
X465500Y694500D02*
X470500D01*
X395000Y749500D02*
Y754500D01*
X392500Y752000D02*
X397500D01*
X395000Y763000D02*
Y768000D01*
X392500Y765500D02*
X397500D01*
X465500Y730000D02*
X470500D01*
X468000Y727500D02*
Y732500D01*
X365500Y749500D02*
Y754500D01*
X363000Y752000D02*
X368000D01*
X451500Y738000D02*
X456500D01*
X454000Y735500D02*
Y740500D01*
X1446160Y257750D02*
X1451160D01*
X1448660Y255250D02*
Y260250D01*
X949160Y258250D02*
X954160D01*
X951660Y255750D02*
Y260750D01*
X450500Y258250D02*
X455500D01*
X453000Y255750D02*
Y260750D01*
X1012500Y880500D02*
Y885500D01*
X1010000Y883000D02*
X1015000D01*
X633500Y586680D02*
Y591680D01*
X631000Y589180D02*
X636000D01*
X897060Y856060D02*
X902060D01*
X899560Y853560D02*
Y858560D01*
X912300Y873840D02*
X917300D01*
X914800Y871340D02*
Y876340D01*
X883090Y873840D02*
X888090D01*
X885590Y871340D02*
Y876340D01*
X860190Y863720D02*
Y868720D01*
X857690Y866220D02*
X862690D01*
X879240Y898010D02*
Y903010D01*
X876740Y900510D02*
X881740D01*
X893210Y898010D02*
Y903010D01*
X890710Y900510D02*
X895710D01*
X907180Y898010D02*
Y903010D01*
X904680Y900510D02*
X909680D01*
X921150Y898010D02*
Y903010D01*
X918650Y900510D02*
X923650D01*
X602500Y875000D02*
Y880000D01*
X600000Y877500D02*
X605000D01*
X583500Y875000D02*
Y880000D01*
X581000Y877500D02*
X586000D01*
X621500Y928000D02*
X626500D01*
X624000Y925500D02*
Y930500D01*
X558500Y928000D02*
X563500D01*
X561000Y925500D02*
Y930500D01*
X530000Y954500D02*
Y959500D01*
X527500Y957000D02*
X532500D01*
X958000Y512500D02*
Y517500D01*
X955500Y515000D02*
X960500D01*
X1418160Y266000D02*
X1423160D01*
X1420660Y263500D02*
Y268500D01*
X921160Y266500D02*
X926160D01*
X923660Y264000D02*
Y269000D01*
X422500Y266500D02*
X427500D01*
X425000Y264000D02*
Y269000D01*
X941000Y543750D02*
X946000D01*
X943500Y541250D02*
Y546250D01*
Y512500D02*
Y517500D01*
X941000Y515000D02*
X946000D01*
X972500Y512500D02*
Y517500D01*
X970000Y515000D02*
X975000D01*
X914000Y771000D02*
Y776000D01*
X911500Y773500D02*
X916500D01*
X850000Y557500D02*
Y562500D01*
X847500Y560000D02*
X852500D01*
X1080000Y935000D02*
X1085000D01*
X1082500Y932500D02*
Y937500D01*
X582960Y345500D02*
X587960D01*
X585460Y343000D02*
Y348000D01*
X565000Y575500D02*
Y580500D01*
X562500Y578000D02*
X567500D01*
D124*
X1131500Y859000D02*
Y911000D01*
X1079500Y859000D02*
Y911000D01*
X1131500D01*
X1079500Y859000D02*
X1131500D01*
X832670Y537930D02*
Y672430D01*
X698170Y537930D02*
Y672430D01*
Y537930D02*
X832670D01*
X698170Y672430D02*
X832670D01*
M02*
