G04 Layer_Color=8421504*
%FSLAX44Y44*%
%MOMM*%
G71*
G01*
G75*
%ADD16R,1.0000X0.9500*%
%ADD17R,0.4000X1.4000*%
%ADD18R,1.8000X1.9000*%
%ADD19R,2.3000X1.9000*%
%ADD20R,3.2000X1.5000*%
%ADD21R,0.6000X1.2000*%
%ADD22R,1.3000X0.7000*%
%ADD23R,0.9500X1.0000*%
%ADD24C,1.0000*%
%ADD25C,1.1000*%
%ADD26R,0.7800X0.2000*%
%ADD27R,0.2000X0.7800*%
%ADD28R,5.6000X4.8000*%
%ADD29R,2.4000X3.1000*%
%ADD30R,1.3000X1.0000*%
%ADD31R,3.2500X3.2500*%
G04:AMPARAMS|DCode=32|XSize=0.35mm|YSize=0.95mm|CornerRadius=0.0875mm|HoleSize=0mm|Usage=FLASHONLY|Rotation=90.000|XOffset=0mm|YOffset=0mm|HoleType=Round|Shape=RoundedRectangle|*
%AMROUNDEDRECTD32*
21,1,0.3500,0.7750,0,0,90.0*
21,1,0.1750,0.9500,0,0,90.0*
1,1,0.1750,0.3875,0.0875*
1,1,0.1750,0.3875,-0.0875*
1,1,0.1750,-0.3875,-0.0875*
1,1,0.1750,-0.3875,0.0875*
%
%ADD32ROUNDEDRECTD32*%
%ADD33R,0.9500X0.3500*%
%ADD34R,0.3500X0.9500*%
%ADD35R,3.4000X5.0000*%
%ADD36R,1.5000X0.4500*%
G04:AMPARAMS|DCode=37|XSize=0.45mm|YSize=1.5mm|CornerRadius=0.1125mm|HoleSize=0mm|Usage=FLASHONLY|Rotation=270.000|XOffset=0mm|YOffset=0mm|HoleType=Round|Shape=RoundedRectangle|*
%AMROUNDEDRECTD37*
21,1,0.4500,1.2750,0,0,270.0*
21,1,0.2250,1.5000,0,0,270.0*
1,1,0.2250,-0.6375,-0.1125*
1,1,0.2250,-0.6375,0.1125*
1,1,0.2250,0.6375,0.1125*
1,1,0.2250,0.6375,-0.1125*
%
%ADD37ROUNDEDRECTD37*%
%ADD38R,0.8000X1.0000*%
%ADD39R,1.6000X2.8000*%
%ADD40O,1.5000X0.5500*%
%ADD41O,0.5500X1.5000*%
%ADD42R,1.9800X0.5300*%
%ADD43O,1.9800X0.5300*%
%ADD44R,0.7600X1.2500*%
%ADD45R,1.4000X1.7000*%
%ADD46R,2.3000X1.4000*%
%ADD47R,2.5000X1.7000*%
%ADD48R,2.4000X1.5000*%
%ADD49R,2.9500X1.4000*%
%ADD50R,0.8000X0.8000*%
%ADD51R,0.7000X1.3000*%
%ADD52R,1.7000X1.4000*%
%ADD53R,3.7000X2.4500*%
%ADD54R,0.8000X0.9000*%
%ADD55R,0.8500X1.2000*%
%ADD56R,1.7020X0.9140*%
%ADD57R,2.5000X1.6000*%
%ADD58C,0.7870*%
%ADD59R,3.5040X1.0160*%
%ADD60R,8.3800X10.4900*%
G36*
X1294160Y239500D02*
X1300860Y239500D01*
Y217200D01*
X1294260D01*
Y214500D01*
X1293060D01*
Y207200D01*
X1277760D01*
Y214500D01*
X1272260D01*
Y243400D01*
X1294160D01*
Y239500D01*
D02*
G37*
G36*
X298700Y239500D02*
X305400Y239500D01*
Y217200D01*
X298800D01*
Y214500D01*
X297600D01*
Y207200D01*
X282300D01*
Y214500D01*
X276800D01*
Y243400D01*
X298700D01*
Y239500D01*
D02*
G37*
G36*
X1262860Y207100D02*
X1250260D01*
Y220100D01*
X1262860D01*
Y207100D01*
D02*
G37*
G36*
X1212460Y214500D02*
X1206960D01*
Y207200D01*
X1191660D01*
Y214500D01*
X1190460D01*
Y217200D01*
X1183860Y217200D01*
Y239500D01*
X1190560Y239500D01*
Y243400D01*
X1212460D01*
Y214500D01*
D02*
G37*
G36*
X217000Y214500D02*
X211500D01*
Y207200D01*
X196200D01*
Y214500D01*
X195000D01*
Y217200D01*
X188400Y217200D01*
Y239500D01*
X195100Y239500D01*
Y243400D01*
X217000D01*
Y214500D01*
D02*
G37*
G36*
X715390Y214120D02*
X709890D01*
Y206820D01*
X694590D01*
Y214120D01*
X693390D01*
Y216820D01*
X686790Y216820D01*
Y239120D01*
X693490Y239120D01*
Y243020D01*
X715390D01*
Y214120D01*
D02*
G37*
G36*
X797090Y239120D02*
X803790Y239120D01*
Y216820D01*
X797190D01*
Y214120D01*
X795990D01*
Y206820D01*
X780690D01*
Y214120D01*
X775190D01*
Y243020D01*
X797090D01*
Y239120D01*
D02*
G37*
G36*
X765790Y206720D02*
X753190D01*
Y219720D01*
X765790D01*
Y206720D01*
D02*
G37*
G36*
X737390D02*
X724790D01*
Y219720D01*
X737390D01*
Y206720D01*
D02*
G37*
G36*
X1234460Y207100D02*
X1221860D01*
Y220100D01*
X1234460D01*
Y207100D01*
D02*
G37*
G36*
X267400Y207100D02*
X254800D01*
Y220100D01*
X267400D01*
Y207100D01*
D02*
G37*
G36*
X239000D02*
X226400D01*
Y220100D01*
X239000D01*
Y207100D01*
D02*
G37*
G36*
X239000Y342900D02*
X226400D01*
Y355900D01*
X239000D01*
Y342900D01*
D02*
G37*
G36*
X765790Y342520D02*
X753190D01*
Y355520D01*
X765790D01*
Y342520D01*
D02*
G37*
G36*
X737390Y342520D02*
X724790D01*
Y355520D01*
X737390D01*
Y342520D01*
D02*
G37*
G36*
X1262860Y342900D02*
X1250260D01*
Y355900D01*
X1262860D01*
Y342900D01*
D02*
G37*
G36*
X1234460Y342900D02*
X1221860D01*
Y355900D01*
X1234460D01*
Y342900D01*
D02*
G37*
G36*
X267400Y342900D02*
X254800D01*
Y355900D01*
X267400D01*
Y342900D01*
D02*
G37*
G36*
X211500Y348500D02*
X217000D01*
Y319600D01*
X195100D01*
Y323500D01*
X188400Y323500D01*
Y345800D01*
X195000D01*
Y348500D01*
X196200D01*
Y355800D01*
X211500D01*
Y348500D01*
D02*
G37*
G36*
X795990Y348120D02*
X797190D01*
Y345420D01*
X803790D01*
Y323120D01*
X797090D01*
Y319220D01*
X775190D01*
Y348120D01*
X780690D01*
Y355420D01*
X795990D01*
Y348120D01*
D02*
G37*
G36*
X709890D02*
X715390D01*
Y319220D01*
X693490D01*
Y323120D01*
X686790Y323120D01*
Y345420D01*
X693390D01*
Y348120D01*
X694590D01*
Y355420D01*
X709890D01*
Y348120D01*
D02*
G37*
G36*
X1293060Y348500D02*
X1294260D01*
Y345800D01*
X1300860D01*
Y323500D01*
X1294160D01*
Y319600D01*
X1272260D01*
Y348500D01*
X1277760D01*
Y355800D01*
X1293060D01*
Y348500D01*
D02*
G37*
G36*
X1206960D02*
X1212460D01*
Y319600D01*
X1190560D01*
Y323500D01*
X1183860Y323500D01*
Y345800D01*
X1190460D01*
Y348500D01*
X1191660D01*
Y355800D01*
X1206960D01*
Y348500D01*
D02*
G37*
G36*
X297600Y348500D02*
X298800D01*
Y345800D01*
X305400D01*
Y323500D01*
X298700D01*
Y319600D01*
X276800D01*
Y348500D01*
X282300D01*
Y355800D01*
X297600D01*
Y348500D01*
D02*
G37*
D16*
X718000Y865000D02*
D03*
Y849000D02*
D03*
X454000Y729500D02*
D03*
Y745500D02*
D03*
X789000Y707000D02*
D03*
Y691000D02*
D03*
X819000Y509000D02*
D03*
Y525000D02*
D03*
X790000Y525000D02*
D03*
Y509000D02*
D03*
X805000Y525000D02*
D03*
Y509000D02*
D03*
X769000Y727000D02*
D03*
Y711000D02*
D03*
X706000Y727000D02*
D03*
Y711000D02*
D03*
X840000Y657000D02*
D03*
Y673000D02*
D03*
X854000Y657000D02*
D03*
Y673000D02*
D03*
X868000Y657000D02*
D03*
Y673000D02*
D03*
X958000Y523000D02*
D03*
Y507000D02*
D03*
X860190Y858220D02*
D03*
Y874220D02*
D03*
X893210Y908510D02*
D03*
Y892510D02*
D03*
X907180Y908510D02*
D03*
Y892510D02*
D03*
X879240Y908510D02*
D03*
Y892510D02*
D03*
X921150Y908510D02*
D03*
X921150Y892510D02*
D03*
X530000Y965000D02*
D03*
Y949000D02*
D03*
X602500Y869500D02*
D03*
Y885500D02*
D03*
X583500Y869500D02*
D03*
Y885500D02*
D03*
X468500Y721500D02*
D03*
Y737500D02*
D03*
X1497000Y857000D02*
D03*
Y841000D02*
D03*
X1411000Y857000D02*
D03*
Y841000D02*
D03*
X1326000Y857000D02*
D03*
Y841000D02*
D03*
X1240000Y857000D02*
D03*
Y841000D02*
D03*
X1061000Y915000D02*
D03*
Y899000D02*
D03*
X691500Y788000D02*
D03*
Y772000D02*
D03*
X1012500Y891000D02*
D03*
Y875000D02*
D03*
D17*
X593500Y956250D02*
D03*
X587000Y956250D02*
D03*
X600000Y956250D02*
D03*
X606500D02*
D03*
X580500D02*
D03*
D18*
X606500Y984750D02*
D03*
X580500D02*
D03*
D19*
X632500D02*
D03*
X554500D02*
D03*
D20*
X674500Y903500D02*
D03*
X674500Y945500D02*
D03*
D21*
X583500Y904500D02*
D03*
X593000D02*
D03*
X602500D02*
D03*
Y927500D02*
D03*
X593000D02*
D03*
X583500D02*
D03*
D22*
X1448500Y816000D02*
D03*
Y835000D02*
D03*
X1362500Y816000D02*
D03*
Y835000D02*
D03*
X1274000Y816000D02*
D03*
Y835000D02*
D03*
X1190000Y815500D02*
D03*
Y834500D02*
D03*
X468000Y684500D02*
D03*
Y703500D02*
D03*
X124000Y325000D02*
D03*
Y344000D02*
D03*
X204000Y388500D02*
D03*
Y369500D02*
D03*
X205000Y172500D02*
D03*
X205000Y191500D02*
D03*
X290000Y389500D02*
D03*
X290000Y370500D02*
D03*
X290000Y172500D02*
D03*
Y191500D02*
D03*
X124000Y374000D02*
D03*
Y355000D02*
D03*
Y405000D02*
D03*
Y386000D02*
D03*
X372000Y267500D02*
D03*
Y248500D02*
D03*
X390000Y267500D02*
D03*
Y248500D02*
D03*
X340000Y253500D02*
D03*
Y272500D02*
D03*
X622460Y325000D02*
D03*
Y344000D02*
D03*
X704460Y388500D02*
D03*
Y369500D02*
D03*
X703460Y172500D02*
D03*
Y191500D02*
D03*
X785460Y388500D02*
D03*
Y369500D02*
D03*
X788460Y172500D02*
D03*
Y191500D02*
D03*
X622460Y374000D02*
D03*
Y355000D02*
D03*
Y405000D02*
D03*
Y386000D02*
D03*
X870460Y267500D02*
D03*
X870460Y248500D02*
D03*
X888460Y267500D02*
D03*
X888460Y248500D02*
D03*
X838460Y253500D02*
D03*
Y272500D02*
D03*
X1119460Y325000D02*
D03*
Y344000D02*
D03*
X1201460Y388500D02*
D03*
X1201460Y369500D02*
D03*
X1200460Y172500D02*
D03*
X1200460Y191500D02*
D03*
X1282460Y388500D02*
D03*
Y369500D02*
D03*
X1285460Y172500D02*
D03*
X1285460Y191500D02*
D03*
X1119460Y374000D02*
D03*
Y355000D02*
D03*
X1119460Y405000D02*
D03*
X1119460Y386000D02*
D03*
X1367460Y267500D02*
D03*
Y248500D02*
D03*
X1385460Y267500D02*
D03*
X1385460Y248500D02*
D03*
X1335460Y253500D02*
D03*
Y272500D02*
D03*
D23*
X842000Y560000D02*
D03*
X858000D02*
D03*
X1291000Y750000D02*
D03*
X1275000D02*
D03*
X1463000Y632000D02*
D03*
X1447000D02*
D03*
X1388000Y633000D02*
D03*
X1372000D02*
D03*
X1387000Y776000D02*
D03*
X1371000Y776000D02*
D03*
X1464000Y704000D02*
D03*
X1448000D02*
D03*
X1384000D02*
D03*
X1368000D02*
D03*
X1291000Y682000D02*
D03*
X1275000D02*
D03*
X1464000Y777000D02*
D03*
X1448000D02*
D03*
X1274000Y609000D02*
D03*
X1290000D02*
D03*
X695000Y527000D02*
D03*
X711000D02*
D03*
X874000Y613000D02*
D03*
X858000D02*
D03*
X711000Y513000D02*
D03*
X695000D02*
D03*
X768340Y691540D02*
D03*
X752340D02*
D03*
X685599Y555000D02*
D03*
X669599D02*
D03*
X682000Y597000D02*
D03*
X666000D02*
D03*
X729000Y750000D02*
D03*
X745000D02*
D03*
X877590Y873840D02*
D03*
X893590D02*
D03*
X891560Y856060D02*
D03*
X907560D02*
D03*
X906800Y873840D02*
D03*
X922800D02*
D03*
X858000Y573000D02*
D03*
X842000D02*
D03*
X756650Y809510D02*
D03*
X740650Y809510D02*
D03*
X803640Y832370D02*
D03*
X787640D02*
D03*
X740650Y832370D02*
D03*
X756650D02*
D03*
X569000Y928000D02*
D03*
X553000D02*
D03*
X616000D02*
D03*
X632000D02*
D03*
X373500Y752000D02*
D03*
X357500D02*
D03*
X404000D02*
D03*
X388000D02*
D03*
X136000Y224500D02*
D03*
X152000D02*
D03*
X634460Y224500D02*
D03*
X650460D02*
D03*
X1131460Y224500D02*
D03*
X1147460D02*
D03*
X687000Y637000D02*
D03*
X671000D02*
D03*
X573000Y578000D02*
D03*
X557000D02*
D03*
X805000Y491000D02*
D03*
X821000D02*
D03*
D24*
X25500Y990000D02*
D03*
X48000Y56000D02*
D03*
X1466000Y51000D02*
D03*
X1283360Y228500D02*
D03*
X1282360Y336500D02*
D03*
X1201360Y334500D02*
D03*
X1202360Y228500D02*
D03*
X705290Y228120D02*
D03*
X704290Y334120D02*
D03*
X785290Y336120D02*
D03*
X786290Y228120D02*
D03*
X287900Y228500D02*
D03*
X286900Y336500D02*
D03*
X205900Y334500D02*
D03*
X206900Y228500D02*
D03*
D25*
X495000Y592500D02*
D03*
X1366460Y311000D02*
D03*
X869460D02*
D03*
X371000Y311000D02*
D03*
D26*
X1187360Y289500D02*
D03*
Y314200D02*
D03*
Y308000D02*
D03*
Y300800D02*
D03*
Y296900D02*
D03*
Y248800D02*
D03*
Y255000D02*
D03*
Y259000D02*
D03*
Y263000D02*
D03*
Y281500D02*
D03*
X1187560Y270200D02*
D03*
X1187360Y285500D02*
D03*
Y277500D02*
D03*
X1297360Y314200D02*
D03*
Y308000D02*
D03*
Y303500D02*
D03*
Y299500D02*
D03*
Y295500D02*
D03*
Y291500D02*
D03*
Y255000D02*
D03*
Y259500D02*
D03*
Y263500D02*
D03*
Y267500D02*
D03*
Y271500D02*
D03*
Y275500D02*
D03*
Y279500D02*
D03*
Y287500D02*
D03*
Y283500D02*
D03*
Y248800D02*
D03*
X800290Y248420D02*
D03*
Y283120D02*
D03*
Y287120D02*
D03*
Y279120D02*
D03*
Y275120D02*
D03*
Y271120D02*
D03*
Y267120D02*
D03*
Y263120D02*
D03*
Y259120D02*
D03*
Y254620D02*
D03*
Y291120D02*
D03*
Y295120D02*
D03*
Y299120D02*
D03*
Y303120D02*
D03*
Y307620D02*
D03*
Y313820D02*
D03*
X690290Y277120D02*
D03*
Y285120D02*
D03*
X690490Y269820D02*
D03*
X690290Y281120D02*
D03*
Y262620D02*
D03*
Y258620D02*
D03*
Y254620D02*
D03*
Y248420D02*
D03*
Y296520D02*
D03*
Y300420D02*
D03*
Y307620D02*
D03*
Y313820D02*
D03*
Y289120D02*
D03*
X191900Y289500D02*
D03*
Y314200D02*
D03*
Y308000D02*
D03*
Y300800D02*
D03*
Y296900D02*
D03*
Y248800D02*
D03*
Y255000D02*
D03*
Y259000D02*
D03*
Y263000D02*
D03*
Y281500D02*
D03*
X192100Y270200D02*
D03*
X191900Y285500D02*
D03*
Y277500D02*
D03*
X301900Y314200D02*
D03*
Y308000D02*
D03*
Y303500D02*
D03*
Y299500D02*
D03*
Y295500D02*
D03*
Y291500D02*
D03*
Y255000D02*
D03*
Y259500D02*
D03*
Y263500D02*
D03*
Y267500D02*
D03*
Y271500D02*
D03*
Y275500D02*
D03*
Y279500D02*
D03*
Y287500D02*
D03*
Y283500D02*
D03*
Y248800D02*
D03*
D27*
X1267460Y211500D02*
D03*
X1245460D02*
D03*
X1239260D02*
D03*
X1217160D02*
D03*
X1217260Y351500D02*
D03*
X1239160D02*
D03*
X1245560D02*
D03*
X1267460D02*
D03*
X1260360Y211500D02*
D03*
X1256460D02*
D03*
X1252460D02*
D03*
X1232160D02*
D03*
X1228160D02*
D03*
X1224160D02*
D03*
Y351500D02*
D03*
X1228160D02*
D03*
X1232160D02*
D03*
X1252460D02*
D03*
X1256560D02*
D03*
X1260560D02*
D03*
X763490Y351120D02*
D03*
X759490D02*
D03*
X755390D02*
D03*
X735090D02*
D03*
X731090D02*
D03*
X727090D02*
D03*
Y211120D02*
D03*
X731090D02*
D03*
X735090D02*
D03*
X755390D02*
D03*
X759390D02*
D03*
X763290D02*
D03*
X770390Y351120D02*
D03*
X748490D02*
D03*
X742090D02*
D03*
X720190D02*
D03*
X720090Y211120D02*
D03*
X742190D02*
D03*
X748390D02*
D03*
X770390D02*
D03*
X272000Y211500D02*
D03*
X250000D02*
D03*
X243800D02*
D03*
X221700D02*
D03*
X221800Y351500D02*
D03*
X243700D02*
D03*
X250100D02*
D03*
X272000D02*
D03*
X264900Y211500D02*
D03*
X261000D02*
D03*
X257000D02*
D03*
X236700D02*
D03*
X232700D02*
D03*
X228700D02*
D03*
Y351500D02*
D03*
X232700D02*
D03*
X236700D02*
D03*
X257000D02*
D03*
X261100D02*
D03*
X265100D02*
D03*
D28*
X1242360Y281500D02*
D03*
X745290Y281120D02*
D03*
X246900Y281500D02*
D03*
D29*
X1256160Y324200D02*
D03*
X1228560D02*
D03*
X1256160Y238800D02*
D03*
X1228560D02*
D03*
X731490Y238420D02*
D03*
X759090D02*
D03*
X731490Y323820D02*
D03*
X759090D02*
D03*
X260700Y324200D02*
D03*
X233100D02*
D03*
X260700Y238800D02*
D03*
X233100D02*
D03*
D30*
X748480Y728480D02*
D03*
X726480D02*
D03*
Y710480D02*
D03*
X748480D02*
D03*
D31*
X1107000Y882000D02*
D03*
D32*
X1081000Y895000D02*
D03*
D33*
Y888500D02*
D03*
Y882000D02*
D03*
Y875500D02*
D03*
Y869000D02*
D03*
X1133000D02*
D03*
X1133000Y875500D02*
D03*
X1133000Y882000D02*
D03*
X1133000Y888500D02*
D03*
X1133000Y895000D02*
D03*
D34*
X1094000Y856000D02*
D03*
X1100500Y856000D02*
D03*
X1107000Y856000D02*
D03*
X1113500D02*
D03*
X1120000D02*
D03*
Y908000D02*
D03*
X1113500D02*
D03*
X1107000D02*
D03*
X1100500Y908000D02*
D03*
X1094000Y908000D02*
D03*
D35*
X403000Y717000D02*
D03*
D36*
X374000Y726750D02*
D03*
Y694250D02*
D03*
Y700750D02*
D03*
Y707250D02*
D03*
Y713750D02*
D03*
Y720250D02*
D03*
Y733250D02*
D03*
Y739750D02*
D03*
X432000D02*
D03*
Y733250D02*
D03*
Y726750D02*
D03*
Y720250D02*
D03*
Y713750D02*
D03*
Y707250D02*
D03*
Y700750D02*
D03*
D37*
Y694250D02*
D03*
D38*
X535500Y712000D02*
D03*
X525500D02*
D03*
D39*
X919000Y603000D02*
D03*
Y647000D02*
D03*
D40*
X822920Y565180D02*
D03*
Y573180D02*
D03*
Y581180D02*
D03*
Y589180D02*
D03*
Y597180D02*
D03*
Y605180D02*
D03*
Y613180D02*
D03*
Y621180D02*
D03*
Y629180D02*
D03*
Y637180D02*
D03*
Y645180D02*
D03*
X707920Y645180D02*
D03*
Y637180D02*
D03*
Y629180D02*
D03*
Y621180D02*
D03*
Y613180D02*
D03*
Y605180D02*
D03*
Y597180D02*
D03*
Y589180D02*
D03*
Y581180D02*
D03*
Y573180D02*
D03*
Y565180D02*
D03*
D41*
X805420Y662680D02*
D03*
X797420D02*
D03*
X789420D02*
D03*
X781420D02*
D03*
X773420D02*
D03*
X765420D02*
D03*
X757420D02*
D03*
X749420D02*
D03*
X741420D02*
D03*
X733420D02*
D03*
X725420D02*
D03*
X725420Y547680D02*
D03*
X733420D02*
D03*
X741420D02*
D03*
X749420Y547680D02*
D03*
X757420D02*
D03*
X765420Y547680D02*
D03*
X773420D02*
D03*
X781420D02*
D03*
X789420Y547680D02*
D03*
X797420D02*
D03*
X805420D02*
D03*
D42*
X557350Y596950D02*
D03*
Y609650D02*
D03*
Y622350D02*
D03*
Y635050D02*
D03*
X606650D02*
D03*
Y622350D02*
D03*
Y609650D02*
D03*
D43*
Y596950D02*
D03*
D44*
X880510Y997300D02*
D03*
X893210D02*
D03*
X905910D02*
D03*
X918610D02*
D03*
Y935800D02*
D03*
X905910D02*
D03*
X893210D02*
D03*
X880510D02*
D03*
D45*
X762750Y780300D02*
D03*
X732010D02*
D03*
D46*
X804280Y864440D02*
D03*
X741280Y864440D02*
D03*
X741280Y904440D02*
D03*
X804280Y904440D02*
D03*
D47*
X192500Y622000D02*
D03*
X152500D02*
D03*
D48*
X439000Y666500D02*
D03*
Y603500D02*
D03*
D49*
X495000Y624500D02*
D03*
Y654500D02*
D03*
D50*
X1483250Y835000D02*
D03*
X1466750D02*
D03*
X1397250D02*
D03*
X1380750D02*
D03*
X1312250D02*
D03*
X1295750D02*
D03*
X1226250D02*
D03*
X1209750D02*
D03*
X711250Y499000D02*
D03*
X694750D02*
D03*
D51*
X1073000Y935000D02*
D03*
X1092000D02*
D03*
X96500Y345500D02*
D03*
X77500D02*
D03*
X131500Y307500D02*
D03*
X112500Y307500D02*
D03*
X131500Y289500D02*
D03*
X112500D02*
D03*
X131500Y271500D02*
D03*
X112500D02*
D03*
X117500Y231500D02*
D03*
X98500Y231500D02*
D03*
X594960Y345500D02*
D03*
X575960D02*
D03*
X629960Y307500D02*
D03*
X610960D02*
D03*
X629960Y289500D02*
D03*
X610960D02*
D03*
X629960Y271500D02*
D03*
X610960Y271500D02*
D03*
X615960Y231500D02*
D03*
X596960D02*
D03*
X1091960Y345500D02*
D03*
X1072960D02*
D03*
X1126960Y307500D02*
D03*
X1107960Y307500D02*
D03*
X1126960Y289500D02*
D03*
X1107960D02*
D03*
X1126960Y271500D02*
D03*
X1107960D02*
D03*
X1112960Y231500D02*
D03*
X1093960Y231500D02*
D03*
D52*
X1036000Y930370D02*
D03*
Y899630D02*
D03*
D53*
X247000Y124250D02*
D03*
Y175750D02*
D03*
X246500Y436750D02*
D03*
Y385250D02*
D03*
X745460Y124250D02*
D03*
Y175750D02*
D03*
X744960Y436750D02*
D03*
Y385250D02*
D03*
X1242460Y124250D02*
D03*
Y175750D02*
D03*
X1241960Y436750D02*
D03*
Y385250D02*
D03*
D54*
X78000Y328500D02*
D03*
X96000D02*
D03*
X87000Y308500D02*
D03*
X576460Y328500D02*
D03*
X594460D02*
D03*
X585460Y308500D02*
D03*
X1073460Y328500D02*
D03*
X1091460D02*
D03*
X1082460Y308500D02*
D03*
D55*
X39750Y252500D02*
D03*
X70250D02*
D03*
X538210Y252500D02*
D03*
X568710D02*
D03*
X1035210D02*
D03*
X1065710D02*
D03*
D56*
X94000Y282870D02*
D03*
Y252130D02*
D03*
X592460Y282870D02*
D03*
Y252130D02*
D03*
X1089460Y282870D02*
D03*
Y252130D02*
D03*
D57*
X108000Y196500D02*
D03*
X70000Y196500D02*
D03*
X606460Y196500D02*
D03*
X568460D02*
D03*
X1103460D02*
D03*
X1065460D02*
D03*
D58*
X892550Y760190D02*
D03*
X905250D02*
D03*
X892550Y747490D02*
D03*
X905250D02*
D03*
X892550Y734790D02*
D03*
X905250D02*
D03*
D59*
X46935Y504600D02*
D03*
Y555400D02*
D03*
D60*
X149065Y530000D02*
D03*
M02*
