G04 Layer_Color=65535*
%FSLAX44Y44*%
%MOMM*%
G71*
G01*
G75*
%ADD10C,0.2540*%
%ADD11C,0.2000*%
%ADD12C,0.2500*%
%ADD13C,0.6000*%
%ADD14C,0.3000*%
%ADD15C,0.1500*%
D10*
X574414Y900000D02*
G03*
X574414Y900000I-1414J0D01*
G01*
X1316774Y200500D02*
G03*
X1316774Y200500I-1414J0D01*
G01*
X819704Y200120D02*
G03*
X819704Y200120I-1414J0D01*
G01*
X321314Y200500D02*
G03*
X321314Y200500I-1414J0D01*
G01*
X1079000Y910000D02*
G03*
X1079000Y910000I-1000J0D01*
G01*
X445000Y686000D02*
G03*
X445000Y686000I-1000J0D01*
G01*
X1162110Y972550D02*
G03*
X1162110Y972550I-1270J0D01*
G01*
X1245930D02*
G03*
X1245930Y972550I-1270J0D01*
G01*
X1332290D02*
G03*
X1332290Y972550I-1270J0D01*
G01*
X1418650D02*
G03*
X1418650Y972550I-1270J0D01*
G01*
X678270Y972000D02*
G03*
X678270Y972000I-1270J0D01*
G01*
X588000Y601000D02*
G03*
X588000Y601000I-1000J0D01*
G01*
X788780Y884440D02*
G03*
X788780Y884440I-16000J0D01*
G01*
X1074480Y972550D02*
G03*
X1074480Y972550I-1270J0D01*
G01*
X985580D02*
G03*
X985580Y972550I-1270J0D01*
G01*
X38162Y580000D02*
G03*
X38162Y580000I-3162J0D01*
G01*
X36414D02*
G03*
X36414Y580000I-1414J0D01*
G01*
X1482460Y173500D02*
G03*
X1482460Y173500I-64000J0D01*
G01*
X985460Y173500D02*
G03*
X985460Y173500I-64000J0D01*
G01*
X493000Y173000D02*
G03*
X493000Y173000I-64000J0D01*
G01*
X304500Y721000D02*
G03*
X304500Y721000I-83000J0D01*
G01*
X194710Y400970D02*
G03*
X194710Y400970I-1270J0D01*
G01*
X693710Y401970D02*
G03*
X693710Y401970I-1270J0D01*
G01*
X1191210Y401470D02*
G03*
X1191210Y401470I-1270J0D01*
G01*
X677630Y795530D02*
G03*
X677630Y795530I-1270J0D01*
G01*
X1350800Y124940D02*
G03*
X1350800Y124940I-1270J0D01*
G01*
X851800Y126440D02*
G03*
X851800Y126440I-1270J0D01*
G01*
X352800Y127440D02*
G03*
X352800Y127440I-1270J0D01*
G01*
X946000Y610000D02*
Y652000D01*
X893000Y609000D02*
Y652000D01*
X946000Y608000D02*
Y610000D01*
X937000Y599000D02*
X946000Y608000D01*
X893000D02*
Y609000D01*
Y608000D02*
X902000Y599000D01*
X572000Y596000D02*
X592000D01*
X572000Y636000D02*
X592000D01*
Y596000D02*
Y636000D01*
X572000Y596000D02*
Y636000D01*
X743380Y787300D02*
X751380D01*
X743380Y773300D02*
X751380D01*
X768380Y768300D02*
X776380Y768300D01*
X768380Y792300D02*
X776380Y792300D01*
X1029000Y911000D02*
Y919000D01*
X1043000Y911000D02*
Y919000D01*
X1048000Y936000D02*
Y944000D01*
X1024000Y936000D02*
Y944000D01*
X87000Y261500D02*
X87000Y273500D01*
X101000D02*
X101000Y261500D01*
X100000Y218500D02*
X110000Y208500D01*
X66000Y218500D02*
X100000Y218500D01*
Y175500D02*
X110000Y185500D01*
X66000Y175500D02*
X100000Y175500D01*
X585460Y261500D02*
Y273500D01*
X599460D02*
X599460Y261500D01*
X598460Y218500D02*
X608460Y208500D01*
X564460Y218500D02*
X598460Y218500D01*
Y175500D02*
X608460Y185500D01*
X564460Y175500D02*
X598460D01*
X1082460Y261500D02*
X1082460Y273500D01*
X1096460D02*
X1096460Y261500D01*
X1095460Y218500D02*
X1105460Y208500D01*
X1061460Y218500D02*
X1095460D01*
Y175500D02*
X1105460Y185500D01*
X1061460Y175500D02*
X1095460Y175500D01*
X535000Y908157D02*
Y900539D01*
X537539Y898000D01*
X545157D01*
Y908157D01*
X560392Y913235D02*
X555313Y910696D01*
X550235Y905618D01*
Y900539D01*
X552774Y898000D01*
X557853D01*
X560392Y900539D01*
Y903078D01*
X557853Y905618D01*
X550235D01*
X546265Y702000D02*
X561500D01*
Y709617D01*
X558961Y712157D01*
X556422D01*
X553882D01*
X551343Y709617D01*
Y702000D01*
X561500Y717235D02*
Y722313D01*
Y719774D01*
X546265D01*
X548804Y717235D01*
X656039Y960000D02*
Y972696D01*
Y967617D01*
X653500D01*
X658578D01*
X656039D01*
Y972696D01*
X658578Y975235D01*
X666196Y960000D02*
X671274D01*
X668735D01*
Y975235D01*
X666196Y972696D01*
X704157Y745539D02*
Y755696D01*
X701618Y758235D01*
X696539D01*
X694000Y755696D01*
Y745539D01*
X696539Y743000D01*
X701618D01*
X699078Y748078D02*
X704157Y743000D01*
X701618D02*
X704157Y745539D01*
X709235Y743000D02*
X714313D01*
X711774D01*
Y758235D01*
X709235Y755696D01*
X317070Y355037D02*
Y347419D01*
X319609Y344880D01*
X327227D01*
Y355037D01*
X332305Y344880D02*
X337383D01*
X334844D01*
Y360115D01*
X332305Y357576D01*
X345001Y342341D02*
X355158D01*
X360236Y344880D02*
X365314D01*
X362775D01*
Y360115D01*
X360236Y357576D01*
X815460Y354657D02*
Y347039D01*
X817999Y344500D01*
X825617D01*
Y354657D01*
X830695Y344500D02*
X835773D01*
X833234D01*
Y359735D01*
X830695Y357196D01*
X843391Y341961D02*
X853548D01*
X868783Y344500D02*
X858626D01*
X868783Y354657D01*
Y357196D01*
X866244Y359735D01*
X861165D01*
X858626Y357196D01*
X1312530Y355037D02*
Y347419D01*
X1315069Y344880D01*
X1322687D01*
Y355037D01*
X1327765Y344880D02*
X1332843D01*
X1330304D01*
Y360115D01*
X1327765Y357576D01*
X1340461Y342341D02*
X1350618D01*
X1355696Y357576D02*
X1358235Y360115D01*
X1363313D01*
X1365853Y357576D01*
Y355037D01*
X1363313Y352498D01*
X1360774D01*
X1363313D01*
X1365853Y349958D01*
Y347419D01*
X1363313Y344880D01*
X1358235D01*
X1355696Y347419D01*
X548370Y660745D02*
Y653127D01*
X550909Y650588D01*
X558527D01*
Y660745D01*
X563605Y663284D02*
X566144Y665823D01*
X571223D01*
X573762Y663284D01*
Y660745D01*
X571223Y658205D01*
X568683D01*
X571223D01*
X573762Y655666D01*
Y653127D01*
X571223Y650588D01*
X566144D01*
X563605Y653127D01*
X399500Y773157D02*
Y765539D01*
X402039Y763000D01*
X409657D01*
Y773157D01*
X424892Y778235D02*
X414735D01*
Y770618D01*
X419813Y773157D01*
X422353D01*
X424892Y770618D01*
Y765539D01*
X422353Y763000D01*
X417274D01*
X414735Y765539D01*
X1424538Y955620D02*
Y970855D01*
Y960698D02*
X1432156Y965777D01*
X1424538Y960698D02*
X1432156Y955620D01*
X1439773D02*
X1444852D01*
X1442312D01*
Y970855D01*
X1439773Y968316D01*
X1338178Y955620D02*
Y970855D01*
Y960698D02*
X1345796Y965777D01*
X1338178Y960698D02*
X1345796Y955620D01*
X1363570D02*
X1353413D01*
X1363570Y965777D01*
Y968316D01*
X1361031Y970855D01*
X1355952D01*
X1353413Y968316D01*
X1253088Y955620D02*
Y970855D01*
Y960698D02*
X1260706Y965777D01*
X1253088Y960698D02*
X1260706Y955620D01*
X1268323Y968316D02*
X1270862Y970855D01*
X1275941D01*
X1278480Y968316D01*
Y965777D01*
X1275941Y963238D01*
X1273401D01*
X1275941D01*
X1278480Y960698D01*
Y958159D01*
X1275941Y955620D01*
X1270862D01*
X1268323Y958159D01*
X1167998Y955620D02*
Y970855D01*
Y960698D02*
X1175616Y965777D01*
X1167998Y960698D02*
X1175616Y955620D01*
X1190851D02*
Y970855D01*
X1183233Y963238D01*
X1193390D01*
X173978Y101672D02*
Y116907D01*
X181595D01*
X184135Y114368D01*
Y109289D01*
X181595Y106750D01*
X173978D01*
X189213Y119446D02*
X191752Y121985D01*
X196831D01*
X199370Y119446D01*
Y116907D01*
X196831Y114368D01*
X194291D01*
X196831D01*
X199370Y111828D01*
Y109289D01*
X196831Y106750D01*
X191752D01*
X189213Y109289D01*
X671980Y100674D02*
Y115909D01*
X679597D01*
X682137Y113370D01*
Y108291D01*
X679597Y105752D01*
X671980D01*
X694833D02*
Y120987D01*
X687215Y113370D01*
X697372D01*
X1169030Y99500D02*
Y114735D01*
X1176647D01*
X1179187Y112196D01*
Y107117D01*
X1176647Y104578D01*
X1169030D01*
X1194422Y119813D02*
X1184265D01*
Y112196D01*
X1189343Y114735D01*
X1191883D01*
X1194422Y112196D01*
Y107117D01*
X1191883Y104578D01*
X1186804D01*
X1184265Y107117D01*
X379231Y326982D02*
Y324443D01*
X376692D01*
X381770D01*
X379231D01*
Y316825D01*
X381770Y314286D01*
X389388Y309208D02*
Y324443D01*
X397005D01*
X399544Y321904D01*
Y316825D01*
X397005Y314286D01*
X389388D01*
X414779D02*
X404623D01*
X414779Y324443D01*
Y326982D01*
X412240Y329521D01*
X407162D01*
X404623Y326982D01*
X419858Y311747D02*
X430014D01*
X435093Y314286D02*
X440171D01*
X437632D01*
Y329521D01*
X435093Y326982D01*
X878571Y323696D02*
Y321157D01*
X876032D01*
X881111D01*
X878571D01*
Y313539D01*
X881111Y311000D01*
X888728Y305922D02*
Y321157D01*
X896346D01*
X898885Y318618D01*
Y313539D01*
X896346Y311000D01*
X888728D01*
X914120D02*
X903963D01*
X914120Y321157D01*
Y323696D01*
X911581Y326235D01*
X906502D01*
X903963Y323696D01*
X919198Y308461D02*
X929355D01*
X944590Y311000D02*
X934433D01*
X944590Y321157D01*
Y323696D01*
X942051Y326235D01*
X936973D01*
X934433Y323696D01*
X1375347Y325397D02*
Y322858D01*
X1372808D01*
X1377887D01*
X1375347D01*
Y315240D01*
X1377887Y312701D01*
X1385504Y307623D02*
Y322858D01*
X1393122D01*
X1395661Y320319D01*
Y315240D01*
X1393122Y312701D01*
X1385504D01*
X1410896D02*
X1400739D01*
X1410896Y322858D01*
Y325397D01*
X1408357Y327936D01*
X1403278D01*
X1400739Y325397D01*
X1415974Y310162D02*
X1426131D01*
X1431209Y325397D02*
X1433748Y327936D01*
X1438827D01*
X1441366Y325397D01*
Y322858D01*
X1438827Y320319D01*
X1436288D01*
X1438827D01*
X1441366Y317779D01*
Y315240D01*
X1438827Y312701D01*
X1433748D01*
X1431209Y315240D01*
X500825Y610888D02*
Y608348D01*
X498286D01*
X503364D01*
X500825D01*
Y600731D01*
X503364Y598192D01*
X510982Y593113D02*
Y608348D01*
X518600D01*
X521139Y605809D01*
Y600731D01*
X518600Y598192D01*
X510982D01*
X526217D02*
X531295D01*
X528756D01*
Y613427D01*
X526217Y610888D01*
X1113500Y930657D02*
Y923039D01*
X1116039Y920500D01*
X1123657D01*
Y930657D01*
X1138892Y920500D02*
X1128735D01*
X1138892Y930657D01*
Y933196D01*
X1136353Y935735D01*
X1131274D01*
X1128735Y933196D01*
X510000Y991422D02*
Y1006657D01*
X517617D01*
X520157Y1004118D01*
Y999039D01*
X517617Y996500D01*
X510000D01*
X525235D02*
X530313D01*
X527774D01*
Y1011735D01*
X525235Y1009196D01*
X629000Y796422D02*
Y811657D01*
X636618D01*
X639157Y809118D01*
Y804039D01*
X636618Y801500D01*
X629000D01*
X654392D02*
X644235D01*
X654392Y811657D01*
Y814196D01*
X651853Y816735D01*
X646774D01*
X644235Y814196D01*
X667088Y801500D02*
Y816735D01*
X659470Y809118D01*
X669627D01*
X141748Y411120D02*
Y426355D01*
X149366D01*
X151905Y423816D01*
Y418738D01*
X149366Y416198D01*
X141748D01*
X167140D02*
X156983D01*
X167140Y426355D01*
Y428894D01*
X164601Y431433D01*
X159522D01*
X156983Y428894D01*
X182375Y431433D02*
X172218D01*
Y423816D01*
X177297Y426355D01*
X179836D01*
X182375Y423816D01*
Y418738D01*
X179836Y416198D01*
X174757D01*
X172218Y418738D01*
X187453Y413659D02*
X197610D01*
X202688Y416198D02*
X207767D01*
X205228D01*
Y431433D01*
X202688Y428894D01*
X640556Y412120D02*
Y427355D01*
X648174D01*
X650713Y424816D01*
Y419738D01*
X648174Y417198D01*
X640556D01*
X665948D02*
X655791D01*
X665948Y427355D01*
Y429894D01*
X663409Y432434D01*
X658330D01*
X655791Y429894D01*
X681183Y432434D02*
X671026D01*
Y424816D01*
X676105Y427355D01*
X678644D01*
X681183Y424816D01*
Y419738D01*
X678644Y417198D01*
X673565D01*
X671026Y419738D01*
X686261Y414659D02*
X696418D01*
X711653Y417198D02*
X701496D01*
X711653Y427355D01*
Y429894D01*
X709114Y432434D01*
X704035D01*
X701496Y429894D01*
X1138126Y411624D02*
Y426859D01*
X1145743D01*
X1148283Y424319D01*
Y419241D01*
X1145743Y416702D01*
X1138126D01*
X1163518D02*
X1153361D01*
X1163518Y426859D01*
Y429398D01*
X1160979Y431937D01*
X1155900D01*
X1153361Y429398D01*
X1178753Y431937D02*
X1168596D01*
Y424319D01*
X1173674Y426859D01*
X1176214D01*
X1178753Y424319D01*
Y419241D01*
X1176214Y416702D01*
X1171135D01*
X1168596Y419241D01*
X1183831Y414163D02*
X1193988D01*
X1199066Y429398D02*
X1201606Y431937D01*
X1206684D01*
X1209223Y429398D01*
Y426859D01*
X1206684Y424319D01*
X1204145D01*
X1206684D01*
X1209223Y421780D01*
Y419241D01*
X1206684Y416702D01*
X1201606D01*
X1199066Y419241D01*
X407000Y75722D02*
Y90957D01*
X414618D01*
X417157Y88418D01*
Y83339D01*
X414618Y80800D01*
X407000D01*
X432392D02*
X422235D01*
X432392Y90957D01*
Y93496D01*
X429853Y96035D01*
X424774D01*
X422235Y93496D01*
X447627Y96035D02*
X442548Y93496D01*
X437470Y88418D01*
Y83339D01*
X440009Y80800D01*
X445088D01*
X447627Y83339D01*
Y85878D01*
X445088Y88418D01*
X437470D01*
X452705Y78261D02*
X462862D01*
X467940Y80800D02*
X473019D01*
X470480D01*
Y96035D01*
X467940Y93496D01*
X860000Y45422D02*
Y60657D01*
X867617D01*
X870157Y58117D01*
Y53039D01*
X867617Y50500D01*
X860000D01*
X885392D02*
X875235D01*
X885392Y60657D01*
Y63196D01*
X882853Y65735D01*
X877774D01*
X875235Y63196D01*
X900627Y65735D02*
X895548Y63196D01*
X890470Y58117D01*
Y53039D01*
X893009Y50500D01*
X898088D01*
X900627Y53039D01*
Y55578D01*
X898088Y58117D01*
X890470D01*
X905705Y47961D02*
X915862D01*
X931097Y50500D02*
X920940D01*
X931097Y60657D01*
Y63196D01*
X928558Y65735D01*
X923480D01*
X920940Y63196D01*
X1355500Y42922D02*
Y58157D01*
X1363118D01*
X1365657Y55617D01*
Y50539D01*
X1363118Y48000D01*
X1355500D01*
X1380892D02*
X1370735D01*
X1380892Y58157D01*
Y60696D01*
X1378353Y63235D01*
X1373274D01*
X1370735Y60696D01*
X1396127Y63235D02*
X1391048Y60696D01*
X1385970Y55617D01*
Y50539D01*
X1388509Y48000D01*
X1393588D01*
X1396127Y50539D01*
Y53078D01*
X1393588Y55617D01*
X1385970D01*
X1401205Y45461D02*
X1411362D01*
X1416440Y60696D02*
X1418979Y63235D01*
X1424058D01*
X1426597Y60696D01*
Y58157D01*
X1424058Y55617D01*
X1421519D01*
X1424058D01*
X1426597Y53078D01*
Y50539D01*
X1424058Y48000D01*
X1418979D01*
X1416440Y50539D01*
X74000Y966735D02*
Y951500D01*
X81617D01*
X84157Y954039D01*
Y956578D01*
X81617Y959118D01*
X74000D01*
X81617D01*
X84157Y961657D01*
Y964196D01*
X81617Y966735D01*
X74000D01*
X89235Y951500D02*
Y966735D01*
X96853D01*
X99392Y964196D01*
Y959118D01*
X96853Y956578D01*
X89235D01*
X104470Y948961D02*
X114627D01*
X119705Y951500D02*
Y966735D01*
X124784Y961657D01*
X129862Y966735D01*
Y951500D01*
X137479D02*
X142558D01*
X145097Y954039D01*
Y959118D01*
X142558Y961657D01*
X137479D01*
X134940Y959118D01*
Y954039D01*
X137479Y951500D01*
X152715Y964196D02*
Y961657D01*
X150175D01*
X155254D01*
X152715D01*
Y954039D01*
X155254Y951500D01*
X165410D02*
X170489D01*
X173028Y954039D01*
Y959118D01*
X170489Y961657D01*
X165410D01*
X162871Y959118D01*
Y954039D01*
X165410Y951500D01*
X178106Y961657D02*
Y951500D01*
Y956578D01*
X180646Y959118D01*
X183185Y961657D01*
X185724D01*
X203498Y966735D02*
Y951500D01*
X195881D01*
X193341Y954039D01*
Y959118D01*
X195881Y961657D01*
X203498D01*
X208577D02*
Y951500D01*
Y956578D01*
X211116Y959118D01*
X213655Y961657D01*
X216194D01*
X223811Y951500D02*
X228890D01*
X226351D01*
Y961657D01*
X223811D01*
X236507D02*
X241586Y951500D01*
X246664Y961657D01*
X259360Y951500D02*
X254282D01*
X251742Y954039D01*
Y959118D01*
X254282Y961657D01*
X259360D01*
X261899Y959118D01*
Y956578D01*
X251742D01*
X266978Y961657D02*
Y951500D01*
Y956578D01*
X269517Y959118D01*
X272056Y961657D01*
X274595D01*
X282213Y948961D02*
X292369D01*
X297448Y951500D02*
Y966735D01*
X305065D01*
X307604Y964196D01*
Y959118D01*
X305065Y956578D01*
X297448D01*
X302526D02*
X307604Y951500D01*
X320300D02*
X315222D01*
X312683Y954039D01*
Y959118D01*
X315222Y961657D01*
X320300D01*
X322840Y959118D01*
Y956578D01*
X312683D01*
X327918Y961657D02*
X332996Y951500D01*
X338075Y961657D01*
X343153Y951500D02*
X348231D01*
X345692D01*
Y966735D01*
X343153Y964196D01*
X73500Y992735D02*
X83657D01*
X78578D01*
Y977500D01*
X96353Y992735D02*
X91274D01*
X88735Y990196D01*
Y980039D01*
X91274Y977500D01*
X96353D01*
X98892Y980039D01*
Y990196D01*
X96353Y992735D01*
X103970Y977500D02*
Y992735D01*
X111588D01*
X114127Y990196D01*
Y985117D01*
X111588Y982578D01*
X103970D01*
D11*
X1197360Y856970D02*
G03*
X1188360Y856970I-4500J-0D01*
G01*
X1205860D02*
G03*
X1196860Y856970I-4500J0D01*
G01*
X1290950D02*
G03*
X1281950Y856970I-4500J0D01*
G01*
X1282450D02*
G03*
X1273450Y856970I-4500J-0D01*
G01*
X1367540D02*
G03*
X1358540Y856970I-4500J-0D01*
G01*
X1376040D02*
G03*
X1367040Y856970I-4500J0D01*
G01*
X1462400D02*
G03*
X1453400Y856970I-4500J0D01*
G01*
X1453900D02*
G03*
X1444900Y856970I-4500J-0D01*
G01*
X647500Y945500D02*
Y994500D01*
X539500Y945500D02*
X647500D01*
X539500D02*
Y994500D01*
X1307360Y202500D02*
Y212500D01*
X1297360Y202500D02*
X1307360D01*
X1177360D02*
Y212500D01*
Y202500D02*
X1187360D01*
X1177360Y360500D02*
X1187360D01*
X1177360Y350500D02*
Y360500D01*
X1307360Y350500D02*
Y360500D01*
X1297360D02*
X1307360D01*
X800290Y360120D02*
X810290D01*
Y350120D02*
Y360120D01*
X680290Y350120D02*
Y360120D01*
X690290D01*
X680290Y202120D02*
X690290D01*
X680290D02*
Y212120D01*
X800290Y202120D02*
X810290D01*
Y212120D01*
X311900Y202500D02*
Y212500D01*
X301900Y202500D02*
X311900D01*
X181900D02*
Y212500D01*
Y202500D02*
X191900D01*
X181900Y360500D02*
X191900D01*
X181900Y350500D02*
Y360500D01*
X311900Y350500D02*
Y360500D01*
X301900D02*
X311900D01*
X1180360Y856970D02*
X1188360D01*
X1206360D02*
X1214360D01*
X1231760Y876970D02*
Y946970D01*
X1163760D02*
X1231760D01*
X1163760Y876970D02*
Y946970D01*
X1248850Y876970D02*
Y946970D01*
X1316850D01*
Y876970D02*
Y946970D01*
X1291450Y856970D02*
X1299450D01*
X1265450D02*
X1273450D01*
X1350540D02*
X1358540D01*
X1376540D02*
X1384540D01*
X1401940Y876970D02*
Y946970D01*
X1333940D02*
X1401940D01*
X1333940Y876970D02*
Y946970D01*
X1420300Y876970D02*
Y946970D01*
X1488300D01*
Y876970D02*
Y946970D01*
X1462900Y856970D02*
X1470900D01*
X1436900D02*
X1444900D01*
X1164740Y1010550D02*
X1164840Y993550D01*
X1240940D02*
Y1010550D01*
X1248560D02*
X1248660Y993550D01*
X1324760D02*
Y1010550D01*
X1334920D02*
X1335020Y993550D01*
X1411120D02*
Y1010550D01*
X1421280D02*
X1421380Y993550D01*
X1497480D02*
Y1010550D01*
X680900Y1010000D02*
X681000Y993000D01*
X757100D02*
Y1010000D01*
X817000Y950000D02*
Y1011000D01*
X765000D02*
X817000D01*
X765000Y950000D02*
Y1011000D01*
X811420Y559180D02*
Y651180D01*
X719420Y559180D02*
Y651180D01*
Y559180D02*
X811420D01*
X719420Y651180D02*
X811420D01*
X875560Y946550D02*
X925560D01*
Y986550D01*
X875560D02*
X925560D01*
X875560D02*
X875560Y946550D01*
X878560Y972550D02*
X882560D01*
X882560Y960550D01*
X878560D02*
X882560D01*
X878560D02*
Y972550D01*
X891560Y960550D02*
Y972550D01*
Y960550D02*
X895560D01*
Y972550D01*
X891560D02*
X895560D01*
X903560Y960550D02*
Y972550D01*
Y960550D02*
X907560D01*
X907560Y972550D02*
X907560Y960550D01*
X903560Y972550D02*
X907560D01*
X916560Y960550D02*
X920560D01*
X920560Y972550D02*
X920560Y960550D01*
X916560Y972550D02*
X920560D01*
X916560Y960550D02*
Y972550D01*
X150500Y606750D02*
X190500D01*
X150500Y637000D02*
X190500Y637000D01*
X176450Y607000D02*
Y637000D01*
X401000Y597000D02*
Y672000D01*
X477000Y597000D02*
Y673000D01*
X1077110Y1010550D02*
X1077210Y993550D01*
X1153310D02*
Y1010550D01*
X988210D02*
X988310Y993550D01*
X1064410D02*
Y1010550D01*
X80000Y260500D02*
X80000Y244500D01*
X61000D02*
Y260500D01*
X578460Y244500D02*
Y260500D01*
X559460Y244500D02*
Y260500D01*
X1075460D02*
X1075460Y244500D01*
X1056460Y244500D02*
Y260500D01*
X1167500Y91000D02*
X1167500Y11000D01*
X1318500D01*
Y91000D01*
X670500Y12000D02*
Y92000D01*
Y12000D02*
X821500D01*
Y92000D01*
X172500Y93000D02*
X172500Y13000D01*
X323500D01*
Y93000D01*
X1303000Y696000D02*
X1344000Y696000D01*
X1303000Y696000D02*
X1303000Y643000D01*
X1344000Y643000D01*
X1378000Y695600D02*
X1419000D01*
X1378000Y642600D02*
Y695600D01*
Y642600D02*
X1419000D01*
X1453000Y695000D02*
X1494000D01*
X1453000Y642000D02*
X1453000Y695000D01*
X1453000Y642000D02*
X1494000Y642000D01*
X1378000Y765000D02*
X1419000Y765000D01*
X1378000Y712000D02*
Y765000D01*
Y712000D02*
X1419000Y712000D01*
X1303000Y624000D02*
X1344000Y624000D01*
X1303000Y571000D02*
Y624000D01*
Y571000D02*
X1344000D01*
X1378000Y623000D02*
X1419000D01*
X1378000Y570000D02*
Y623000D01*
Y570000D02*
X1419000Y570000D01*
X1453000Y623000D02*
X1494000D01*
X1453000Y570000D02*
X1453000Y623000D01*
X1453000Y570000D02*
X1494000Y570000D01*
X1304000Y765000D02*
X1345000Y765000D01*
X1304000Y712000D02*
Y765000D01*
Y712000D02*
X1345000Y712000D01*
X1453000Y765600D02*
X1494000Y765600D01*
X1453000Y712600D02*
Y765600D01*
Y712600D02*
X1494000Y712600D01*
X1406460Y235500D02*
X1427460D01*
X1401460Y234500D02*
X1435460D01*
X1394460Y232500D02*
X1441460D01*
X1390460Y230500D02*
X1446460D01*
X1387460Y228500D02*
X1449460D01*
X1383460Y226500D02*
X1453460D01*
X886460Y226500D02*
X956460D01*
X890460Y228500D02*
X952460D01*
X893460Y230500D02*
X949460D01*
X897460Y232500D02*
X944460D01*
X904460Y234500D02*
X938460D01*
X909460Y235500D02*
X930460D01*
X417000Y235000D02*
X438000D01*
X412000Y234000D02*
X446000D01*
X405000Y232000D02*
X452000D01*
X401000Y230000D02*
X457000D01*
X398000Y228000D02*
X460000D01*
X394000Y226000D02*
X464000D01*
X183500Y794000D02*
X260500D01*
X185500Y796000D02*
X256500D01*
X192500Y797500D02*
X251500Y798018D01*
X196500Y799500D02*
X246500Y800000D01*
X203500Y801500D02*
X237500D01*
X208500Y802500D02*
X229500D01*
X140200Y378000D02*
X144200Y374000D01*
X140200Y378000D02*
Y396000D01*
X187200Y400000D02*
X191200Y396000D01*
Y378000D02*
Y396000D01*
X187200Y374000D02*
X191200Y378000D01*
X144200Y374000D02*
X187200D01*
X144200Y400000D02*
X187200D01*
X140200Y396000D02*
X144200Y400000D01*
X639200Y379000D02*
X643200Y375000D01*
X639200Y379000D02*
Y397000D01*
X686200Y401000D02*
X690200Y397000D01*
Y379000D02*
Y397000D01*
X686200Y375000D02*
X690200Y379000D01*
X643200Y375000D02*
X686200D01*
X643200Y401000D02*
X686200D01*
X639200Y397000D02*
X643200Y401000D01*
X1136700Y378500D02*
X1140700Y374500D01*
X1136700Y378500D02*
Y396500D01*
X1183700Y400500D02*
X1187700Y396500D01*
Y378500D02*
Y396500D01*
X1183700Y374500D02*
X1187700Y378500D01*
X1140700Y374500D02*
X1183700D01*
X1140700Y400500D02*
X1183700D01*
X1136700Y396500D02*
X1140700Y400500D01*
X725600Y822500D02*
X729600Y818500D01*
Y800500D02*
Y818500D01*
X678600Y800500D02*
X682600Y796500D01*
X678600Y800500D02*
Y818500D01*
X682600Y822500D01*
X725600D01*
X682600Y796500D02*
X725600D01*
X729600Y800500D01*
X1372500Y71700D02*
X1376500Y75700D01*
X1354500Y71700D02*
X1372500D01*
X1350500Y118700D02*
X1354500Y122700D01*
X1372500D01*
X1376500Y118700D01*
Y75700D02*
Y118700D01*
X1350500Y75700D02*
Y118700D01*
Y75700D02*
X1354500Y71700D01*
X873500Y73200D02*
X877500Y77200D01*
X855500Y73200D02*
X873500D01*
X851500Y120200D02*
X855500Y124200D01*
X873500D01*
X877500Y120200D01*
Y77200D02*
Y120200D01*
X851500Y77200D02*
Y120200D01*
Y77200D02*
X855500Y73200D01*
X374500Y74200D02*
X378500Y78200D01*
X356500Y74200D02*
X374500D01*
X352500Y121200D02*
X356500Y125200D01*
X374500D01*
X378500Y121200D01*
Y78200D02*
Y121200D01*
X352500Y78200D02*
Y121200D01*
Y78200D02*
X356500Y74200D01*
D12*
X824170Y556930D02*
G03*
X824170Y556930I-1250J0D01*
G01*
X751380Y773300D02*
X751380Y787300D01*
X776380Y768300D02*
X776380Y792300D01*
X1029000Y919000D02*
X1043000D01*
X1024000Y944000D02*
X1048000D01*
D13*
X804420Y569180D02*
G03*
X804420Y569180I-3000J0D01*
G01*
D14*
X622000Y591000D02*
G03*
X622000Y591000I-1000J0D01*
G01*
D15*
X1443500Y823000D02*
Y828000D01*
X1453500Y823000D02*
Y828000D01*
X1357500Y823000D02*
Y828000D01*
X1367500Y823000D02*
Y828000D01*
X1269000Y823000D02*
Y828000D01*
X1279000Y823000D02*
Y828000D01*
X1185000Y822500D02*
Y827500D01*
X1195000Y822500D02*
Y827500D01*
X463000Y691500D02*
Y696500D01*
X473000Y691500D02*
Y696500D01*
X1473500Y831000D02*
Y839000D01*
X1387500Y831000D02*
Y839000D01*
X1302500Y831000D02*
Y839000D01*
X1216500Y831000D02*
Y839000D01*
X1080000Y940000D02*
X1085000Y940000D01*
X1080000Y930000D02*
X1085000Y930000D01*
X119000Y332000D02*
Y337000D01*
X129000Y332000D02*
Y337000D01*
X209000Y376500D02*
Y381500D01*
X199000Y376500D02*
Y381500D01*
X200000Y179500D02*
Y184500D01*
X210000Y179500D02*
Y184500D01*
X295000Y382500D02*
X295000Y377500D01*
X285000D02*
Y382500D01*
Y184500D02*
X285000Y179500D01*
X295000Y179500D02*
Y184500D01*
X129000Y362000D02*
Y367000D01*
X119000Y362000D02*
Y367000D01*
X129000Y393000D02*
Y398000D01*
X119000Y393000D02*
Y398000D01*
X377000Y255500D02*
Y260500D01*
X367000Y255500D02*
Y260500D01*
X395000Y255500D02*
Y260500D01*
X385000Y255500D02*
Y260500D01*
X84500Y340500D02*
X89500D01*
X84500Y350500D02*
X89500D01*
X119500Y302500D02*
X124500D01*
X119500Y312500D02*
X124500Y312500D01*
X119500Y284500D02*
X124500D01*
X119500Y294500D02*
X124500D01*
X119500Y266500D02*
X124500Y266500D01*
X119500Y276500D02*
X124500Y276500D01*
X335000Y260500D02*
Y265500D01*
X345000Y260500D02*
Y265500D01*
X105500Y226500D02*
X110500D01*
X105500Y236500D02*
X110500D01*
X617460Y332000D02*
Y337000D01*
X627460Y332000D02*
Y337000D01*
X709460Y376500D02*
X709460Y381500D01*
X699460Y376500D02*
Y381500D01*
X698460Y179500D02*
Y184500D01*
X708460Y179500D02*
Y184500D01*
X790460Y376500D02*
Y381500D01*
X780460Y376500D02*
Y381500D01*
X783460Y179500D02*
Y184500D01*
X793460Y179500D02*
Y184500D01*
X627460Y362000D02*
Y367000D01*
X617460Y362000D02*
Y367000D01*
X627460Y393000D02*
X627460Y398000D01*
X617460Y393000D02*
Y398000D01*
X875460Y255500D02*
Y260500D01*
X865460Y255500D02*
Y260500D01*
X893460Y255500D02*
Y260500D01*
X883460Y255500D02*
Y260500D01*
X582960Y340500D02*
X587960D01*
X582960Y350500D02*
X587960D01*
X617960Y302500D02*
X622960D01*
X617960Y312500D02*
X622960D01*
X617960Y284500D02*
X622960D01*
X617960Y294500D02*
X622960D01*
X617960Y266500D02*
X622960D01*
X617960Y276500D02*
X622960D01*
X833460Y260500D02*
Y265500D01*
X843460Y260500D02*
Y265500D01*
X603960Y226500D02*
X608960Y226500D01*
X603960Y236500D02*
X608960D01*
X1114460Y332000D02*
Y337000D01*
X1124460Y332000D02*
Y337000D01*
X1206460Y376500D02*
Y381500D01*
X1196460Y376500D02*
Y381500D01*
X1195460Y179500D02*
Y184500D01*
X1205460Y179500D02*
Y184500D01*
X1287460Y376500D02*
Y381500D01*
X1277460Y376500D02*
Y381500D01*
X1280460Y179500D02*
Y184500D01*
X1290460Y179500D02*
Y184500D01*
X1124460Y367000D02*
X1124460Y362000D01*
X1114460D02*
Y367000D01*
X1124460Y393000D02*
Y398000D01*
X1114460Y393000D02*
Y398000D01*
X1372460Y255500D02*
Y260500D01*
X1362460Y255500D02*
Y260500D01*
X1390460Y255500D02*
Y260500D01*
X1380460Y255500D02*
Y260500D01*
X1079960Y340500D02*
X1084960D01*
X1079960Y350500D02*
X1084960D01*
X1114960Y302500D02*
X1119960D01*
X1114960Y312500D02*
X1119960D01*
X1114960Y284500D02*
X1119960D01*
X1114960Y294500D02*
X1119960D01*
X1114960Y266500D02*
X1119960D01*
X1114960Y276500D02*
X1119960D01*
X1330460Y260500D02*
Y265500D01*
X1340460Y260500D02*
Y265500D01*
X1100960Y226500D02*
X1105960D01*
X1100960Y236500D02*
X1105960D01*
X701500Y495000D02*
Y503000D01*
M02*
