G04 Layer_Color=32896*
%FSLAX44Y44*%
%MOMM*%
G71*
G01*
G75*
%ADD54C,0.2540*%
%ADD125C,2.0000*%
D54*
X1230000Y836022D02*
X1221430D01*
X1218574Y836974D01*
X1217622Y837926D01*
X1216669Y839830D01*
Y842687D01*
X1217622Y844591D01*
X1218574Y845544D01*
X1221430Y846496D01*
X1230000D01*
Y826500D01*
X1212194Y839830D02*
Y826500D01*
Y834117D02*
X1211242Y836974D01*
X1209338Y838878D01*
X1207433Y839830D01*
X1204577D01*
X1198007D02*
X1199911Y838878D01*
X1201816Y836974D01*
X1202768Y834117D01*
Y832213D01*
X1201816Y829357D01*
X1199911Y827452D01*
X1198007Y826500D01*
X1195150D01*
X1193246Y827452D01*
X1191342Y829357D01*
X1190389Y832213D01*
Y834117D01*
X1191342Y836974D01*
X1193246Y838878D01*
X1195150Y839830D01*
X1198007D01*
X1182201Y846496D02*
X1181248Y845544D01*
X1180296Y846496D01*
X1181248Y847448D01*
X1182201Y846496D01*
X1181248Y839830D02*
Y823643D01*
X1182201Y820787D01*
X1184105Y819835D01*
X1186009D01*
X1176583Y834117D02*
X1165157D01*
Y836022D01*
X1166109Y837926D01*
X1167061Y838878D01*
X1168966Y839830D01*
X1171822D01*
X1173726Y838878D01*
X1175631Y836974D01*
X1176583Y834117D01*
Y832213D01*
X1175631Y829357D01*
X1173726Y827452D01*
X1171822Y826500D01*
X1168966D01*
X1167061Y827452D01*
X1165157Y829357D01*
X1149446Y836974D02*
X1151350Y838878D01*
X1153254Y839830D01*
X1156111D01*
X1158015Y838878D01*
X1159920Y836974D01*
X1160872Y834117D01*
Y832213D01*
X1159920Y829357D01*
X1158015Y827452D01*
X1156111Y826500D01*
X1153254D01*
X1151350Y827452D01*
X1149446Y829357D01*
X1142305Y846496D02*
Y830309D01*
X1141352Y827452D01*
X1139448Y826500D01*
X1137544D01*
X1145161Y839830D02*
X1138496D01*
X1118976D02*
X1113263Y826500D01*
X1107550Y839830D02*
X1113263Y826500D01*
X1092887Y839830D02*
Y826500D01*
Y836974D02*
X1094791Y838878D01*
X1096695Y839830D01*
X1099552D01*
X1101456Y838878D01*
X1103361Y836974D01*
X1104313Y834117D01*
Y832213D01*
X1103361Y829357D01*
X1101456Y827452D01*
X1099552Y826500D01*
X1096695D01*
X1094791Y827452D01*
X1092887Y829357D01*
X1087554Y839830D02*
Y826500D01*
Y836022D02*
X1084698Y838878D01*
X1082793Y839830D01*
X1079937D01*
X1078033Y838878D01*
X1077080Y836022D01*
Y826500D01*
X1056133Y846496D02*
Y826500D01*
Y846496D02*
X1047563D01*
X1044706Y845544D01*
X1043754Y844591D01*
X1042802Y842687D01*
Y840783D01*
X1043754Y838878D01*
X1044706Y837926D01*
X1047563Y836974D01*
X1056133D01*
X1049467D02*
X1042802Y826500D01*
X1033566Y839830D02*
X1035470Y838878D01*
X1037375Y836974D01*
X1038327Y834117D01*
Y832213D01*
X1037375Y829357D01*
X1035470Y827452D01*
X1033566Y826500D01*
X1030709D01*
X1028805Y827452D01*
X1026901Y829357D01*
X1025948Y832213D01*
Y834117D01*
X1026901Y836974D01*
X1028805Y838878D01*
X1030709Y839830D01*
X1033566D01*
X1021569Y846496D02*
Y826500D01*
Y836974D02*
X1019664Y838878D01*
X1017760Y839830D01*
X1014903D01*
X1012999Y838878D01*
X1011095Y836974D01*
X1010142Y834117D01*
Y832213D01*
X1011095Y829357D01*
X1012999Y827452D01*
X1014903Y826500D01*
X1017760D01*
X1019664Y827452D01*
X1021569Y829357D01*
X1005858Y846496D02*
Y826500D01*
Y836974D02*
X1003953Y838878D01*
X1002049Y839830D01*
X999192D01*
X997288Y838878D01*
X995384Y836974D01*
X994431Y834117D01*
Y832213D01*
X995384Y829357D01*
X997288Y827452D01*
X999192Y826500D01*
X1002049D01*
X1003953Y827452D01*
X1005858Y829357D01*
X988242Y846496D02*
X987290Y845544D01*
X986338Y846496D01*
X987290Y847448D01*
X988242Y846496D01*
X987290Y839830D02*
Y826500D01*
X982815Y834117D02*
X971389D01*
Y836022D01*
X972341Y837926D01*
X973293Y838878D01*
X975198Y839830D01*
X978054D01*
X979958Y838878D01*
X981863Y836974D01*
X982815Y834117D01*
Y832213D01*
X981863Y829357D01*
X979958Y827452D01*
X978054Y826500D01*
X975198D01*
X973293Y827452D01*
X971389Y829357D01*
X938063Y843639D02*
X939967Y845544D01*
X942823Y846496D01*
X946632D01*
X949489Y845544D01*
X951393Y843639D01*
Y841735D01*
X950441Y839830D01*
X949489Y838878D01*
X947584Y837926D01*
X941871Y836022D01*
X939967Y835070D01*
X939015Y834117D01*
X938063Y832213D01*
Y829357D01*
X939967Y827452D01*
X942823Y826500D01*
X946632D01*
X949489Y827452D01*
X951393Y829357D01*
X933587Y839830D02*
Y826500D01*
Y836022D02*
X930731Y838878D01*
X928826Y839830D01*
X925970D01*
X924065Y838878D01*
X923113Y836022D01*
Y826500D01*
Y836022D02*
X920257Y838878D01*
X918353Y839830D01*
X915496D01*
X913592Y838878D01*
X912639Y836022D01*
Y826500D01*
X906355Y834117D02*
X894929D01*
Y836022D01*
X895881Y837926D01*
X896833Y838878D01*
X898738Y839830D01*
X901594D01*
X903499Y838878D01*
X905403Y836974D01*
X906355Y834117D01*
Y832213D01*
X905403Y829357D01*
X903499Y827452D01*
X901594Y826500D01*
X898738D01*
X896833Y827452D01*
X894929Y829357D01*
X879218Y846496D02*
Y826500D01*
Y836974D02*
X881122Y838878D01*
X883027Y839830D01*
X885883D01*
X887788Y838878D01*
X889692Y836974D01*
X890644Y834117D01*
Y832213D01*
X889692Y829357D01*
X887788Y827452D01*
X885883Y826500D01*
X883027D01*
X881122Y827452D01*
X879218Y829357D01*
X871029Y846496D02*
Y830309D01*
X870077Y827452D01*
X868173Y826500D01*
X866268D01*
X873886Y839830D02*
X867221D01*
X852938Y836974D02*
X853890Y838878D01*
X856747Y839830D01*
X859603D01*
X862460Y838878D01*
X863412Y836974D01*
X862460Y835070D01*
X860555Y834117D01*
X855795Y833165D01*
X853890Y832213D01*
X852938Y830309D01*
Y829357D01*
X853890Y827452D01*
X856747Y826500D01*
X859603D01*
X862460Y827452D01*
X863412Y829357D01*
X815898Y838878D02*
X816850Y837926D01*
X815898Y836974D01*
X814946Y837926D01*
Y838878D01*
X815898Y839830D01*
X816850D01*
X817803Y838878D01*
X818755Y836974D01*
X820659Y832213D01*
X822563Y829357D01*
X824468Y827452D01*
X826372Y826500D01*
X829229D01*
X832085Y827452D01*
X833037Y829357D01*
Y832213D01*
X832085Y834117D01*
X826372Y837926D01*
X824468Y839830D01*
X823516Y841735D01*
Y843639D01*
X824468Y845544D01*
X826372Y846496D01*
X828277Y845544D01*
X829229Y843639D01*
Y841735D01*
X828277Y838878D01*
X826372Y836022D01*
X821611Y829357D01*
X819707Y827452D01*
X816850Y826500D01*
X815898D01*
X814946Y827452D01*
Y828404D01*
X829229Y826500D02*
X831133Y827452D01*
X832085Y829357D01*
Y832213D01*
X831133Y834117D01*
X829229Y836022D01*
Y841735D02*
X828277Y839830D01*
X820659Y829357D01*
X818755Y827452D01*
X816850Y826500D01*
X794284Y846496D02*
X786666Y826500D01*
X779049Y846496D02*
X786666Y826500D01*
X774574Y846496D02*
X773622Y845544D01*
X772669Y846496D01*
X773622Y847448D01*
X774574Y846496D01*
X773622Y839830D02*
Y826500D01*
X769146Y839830D02*
Y826500D01*
Y836022D02*
X766290Y838878D01*
X764385Y839830D01*
X761529D01*
X759624Y838878D01*
X758672Y836022D01*
Y826500D01*
X742009Y836974D02*
X743914Y838878D01*
X745818Y839830D01*
X748674D01*
X750579Y838878D01*
X752483Y836974D01*
X753435Y834117D01*
Y832213D01*
X752483Y829357D01*
X750579Y827452D01*
X748674Y826500D01*
X745818D01*
X743914Y827452D01*
X742009Y829357D01*
X737725Y834117D02*
X726298D01*
Y836022D01*
X727251Y837926D01*
X728203Y838878D01*
X730107Y839830D01*
X732964D01*
X734868Y838878D01*
X736772Y836974D01*
X737725Y834117D01*
Y832213D01*
X736772Y829357D01*
X734868Y827452D01*
X732964Y826500D01*
X730107D01*
X728203Y827452D01*
X726298Y829357D01*
X722014Y839830D02*
Y826500D01*
Y836022D02*
X719157Y838878D01*
X717253Y839830D01*
X714396D01*
X712492Y838878D01*
X711540Y836022D01*
Y826500D01*
X703446Y846496D02*
Y830309D01*
X702494Y827452D01*
X700590Y826500D01*
X698685D01*
X706303Y839830D02*
X699637D01*
X664883Y826500D02*
X672500Y846496D01*
X680118Y826500D01*
X677261Y833165D02*
X667739D01*
X648791Y839830D02*
Y824596D01*
X649743Y821739D01*
X650695Y820787D01*
X652600Y819835D01*
X655456D01*
X657361Y820787D01*
X648791Y836974D02*
X650695Y838878D01*
X652600Y839830D01*
X655456D01*
X657361Y838878D01*
X659265Y836974D01*
X660217Y834117D01*
Y832213D01*
X659265Y829357D01*
X657361Y827452D01*
X655456Y826500D01*
X652600D01*
X650695Y827452D01*
X648791Y829357D01*
X643459Y834117D02*
X632033D01*
Y836022D01*
X632985Y837926D01*
X633937Y838878D01*
X635842Y839830D01*
X638698D01*
X640602Y838878D01*
X642507Y836974D01*
X643459Y834117D01*
Y832213D01*
X642507Y829357D01*
X640602Y827452D01*
X638698Y826500D01*
X635842D01*
X633937Y827452D01*
X632033Y829357D01*
X627748Y839830D02*
Y826500D01*
Y836022D02*
X624892Y838878D01*
X622987Y839830D01*
X620131D01*
X618226Y838878D01*
X617274Y836022D01*
Y826500D01*
Y836022D02*
X614418Y838878D01*
X612513Y839830D01*
X609657D01*
X607752Y838878D01*
X606800Y836022D01*
Y826500D01*
X589090Y839830D02*
Y826500D01*
Y836974D02*
X590994Y838878D01*
X592898Y839830D01*
X595755D01*
X597659Y838878D01*
X599564Y836974D01*
X600516Y834117D01*
Y832213D01*
X599564Y829357D01*
X597659Y827452D01*
X595755Y826500D01*
X592898D01*
X590994Y827452D01*
X589090Y829357D01*
X583758Y839830D02*
Y826500D01*
Y836022D02*
X580901Y838878D01*
X578997Y839830D01*
X576140D01*
X574236Y838878D01*
X573284Y836022D01*
Y826500D01*
X557573Y836974D02*
X558525Y838878D01*
X561381Y839830D01*
X564238D01*
X567094Y838878D01*
X568046Y836974D01*
X567094Y835070D01*
X565190Y834117D01*
X560429Y833165D01*
X558525Y832213D01*
X557573Y830309D01*
Y829357D01*
X558525Y827452D01*
X561381Y826500D01*
X564238D01*
X567094Y827452D01*
X568046Y829357D01*
X418500Y881495D02*
Y866500D01*
X411002D01*
X408503Y868999D01*
Y871498D01*
X411002Y873998D01*
X418500D01*
X411002D01*
X408503Y876497D01*
Y878996D01*
X411002Y881495D01*
X418500D01*
X403505Y866500D02*
Y881495D01*
X396007D01*
X393508Y878996D01*
Y873998D01*
X396007Y871498D01*
X403505D01*
X388510Y864001D02*
X378513D01*
X373515Y866500D02*
Y881495D01*
X368516Y876497D01*
X363518Y881495D01*
Y866500D01*
X356020D02*
X351022D01*
X348523Y868999D01*
Y873998D01*
X351022Y876497D01*
X356020D01*
X358519Y873998D01*
Y868999D01*
X356020Y866500D01*
X341025Y878996D02*
Y876497D01*
X343524D01*
X338526D01*
X341025D01*
Y868999D01*
X338526Y866500D01*
X328529D02*
X323531D01*
X321032Y868999D01*
Y873998D01*
X323531Y876497D01*
X328529D01*
X331028Y873998D01*
Y868999D01*
X328529Y866500D01*
X316033Y876497D02*
Y866500D01*
Y871498D01*
X313534Y873998D01*
X311035Y876497D01*
X308536D01*
X291041Y881495D02*
Y866500D01*
X298539D01*
X301038Y868999D01*
Y873998D01*
X298539Y876497D01*
X291041D01*
X286043D02*
Y866500D01*
Y871498D01*
X283544Y873998D01*
X281045Y876497D01*
X278545D01*
X271048Y866500D02*
X266049D01*
X268549D01*
Y876497D01*
X271048D01*
X258552D02*
X253553Y866500D01*
X248555Y876497D01*
X236059Y866500D02*
X241057D01*
X243557Y868999D01*
Y873998D01*
X241057Y876497D01*
X236059D01*
X233560Y873998D01*
Y871498D01*
X243557D01*
X228561Y876497D02*
Y866500D01*
Y871498D01*
X226062Y873998D01*
X223563Y876497D01*
X221064D01*
X213566Y864001D02*
X203570D01*
X198571Y866500D02*
Y881495D01*
X191074D01*
X188575Y878996D01*
Y873998D01*
X191074Y871498D01*
X198571D01*
X193573D02*
X188575Y866500D01*
X176078D02*
X181077D01*
X183576Y868999D01*
Y873998D01*
X181077Y876497D01*
X176078D01*
X173579Y873998D01*
Y871498D01*
X183576D01*
X168581Y876497D02*
X163582Y866500D01*
X158584Y876497D01*
X143589Y866500D02*
X153586D01*
X143589Y876497D01*
Y878996D01*
X146088Y881495D01*
X151087D01*
X153586Y878996D01*
X419000Y905995D02*
Y891000D01*
X411502D01*
X409003Y893499D01*
Y895998D01*
X411502Y898498D01*
X419000D01*
X411502D01*
X409003Y900997D01*
Y903496D01*
X411502Y905995D01*
X419000D01*
X396507D02*
X401506D01*
X404005Y903496D01*
Y893499D01*
X401506Y891000D01*
X396507D01*
X394008Y893499D01*
Y903496D01*
X396507Y905995D01*
X389010D02*
X379013D01*
X384011D01*
Y891000D01*
X374015Y905995D02*
X364018D01*
X369016D01*
Y891000D01*
X351522Y905995D02*
X356520D01*
X359019Y903496D01*
Y893499D01*
X356520Y891000D01*
X351522D01*
X349023Y893499D01*
Y903496D01*
X351522Y905995D01*
X344024Y891000D02*
Y905995D01*
X339026Y900997D01*
X334027Y905995D01*
Y891000D01*
X1047669Y958836D02*
X1046003Y960502D01*
Y963834D01*
X1047669Y965500D01*
X1054334D01*
X1056000Y963834D01*
Y960502D01*
X1054334Y958836D01*
X1056000Y953837D02*
Y950505D01*
X1054334Y948839D01*
X1051002D01*
X1049335Y950505D01*
Y953837D01*
X1051002Y955503D01*
X1054334D01*
X1056000Y953837D01*
Y945506D02*
X1049335D01*
Y943840D01*
X1051002Y942174D01*
X1056000D01*
X1051002D01*
X1049335Y940508D01*
X1051002Y938842D01*
X1056000D01*
Y935510D02*
X1049335D01*
Y933844D01*
X1051002Y932177D01*
X1056000D01*
X1051002D01*
X1049335Y930511D01*
X1051002Y928845D01*
X1056000D01*
Y923847D02*
Y920515D01*
X1054334Y918848D01*
X1051002D01*
X1049335Y920515D01*
Y923847D01*
X1051002Y925513D01*
X1054334D01*
X1056000Y923847D01*
Y915516D02*
X1049335D01*
Y910518D01*
X1051002Y908852D01*
X1056000D01*
X1137169Y960335D02*
X1135503Y962002D01*
Y965334D01*
X1137169Y967000D01*
X1143834D01*
X1145500Y965334D01*
Y962002D01*
X1143834Y960335D01*
X1145500Y955337D02*
Y952005D01*
X1143834Y950339D01*
X1140502D01*
X1138836Y952005D01*
Y955337D01*
X1140502Y957003D01*
X1143834D01*
X1145500Y955337D01*
Y947006D02*
X1138836D01*
Y945340D01*
X1140502Y943674D01*
X1145500D01*
X1140502D01*
X1138836Y942008D01*
X1140502Y940342D01*
X1145500D01*
Y937010D02*
X1138836D01*
Y935343D01*
X1140502Y933677D01*
X1145500D01*
X1140502D01*
X1138836Y932011D01*
X1140502Y930345D01*
X1145500D01*
Y925347D02*
Y922014D01*
X1143834Y920348D01*
X1140502D01*
X1138836Y922014D01*
Y925347D01*
X1140502Y927013D01*
X1143834D01*
X1145500Y925347D01*
Y917016D02*
X1138836D01*
Y912018D01*
X1140502Y910352D01*
X1145500D01*
X1197669Y959836D02*
X1196003Y961502D01*
Y964834D01*
X1197669Y966500D01*
X1204334D01*
X1206000Y964834D01*
Y961502D01*
X1204334Y959836D01*
X1206000Y954837D02*
Y951505D01*
X1204334Y949839D01*
X1201002D01*
X1199335Y951505D01*
Y954837D01*
X1201002Y956503D01*
X1204334D01*
X1206000Y954837D01*
Y946506D02*
X1199335D01*
Y944840D01*
X1201002Y943174D01*
X1206000D01*
X1201002D01*
X1199335Y941508D01*
X1201002Y939842D01*
X1206000D01*
Y936510D02*
X1199335D01*
Y934844D01*
X1201002Y933177D01*
X1206000D01*
X1201002D01*
X1199335Y931511D01*
X1201002Y929845D01*
X1206000D01*
Y924847D02*
Y921515D01*
X1204334Y919848D01*
X1201002D01*
X1199335Y921515D01*
Y924847D01*
X1201002Y926513D01*
X1204334D01*
X1206000Y924847D01*
Y916516D02*
X1199335D01*
Y911518D01*
X1201002Y909852D01*
X1206000D01*
X1283669Y960835D02*
X1282003Y962502D01*
Y965834D01*
X1283669Y967500D01*
X1290334D01*
X1292000Y965834D01*
Y962502D01*
X1290334Y960835D01*
X1292000Y955837D02*
Y952505D01*
X1290334Y950839D01*
X1287002D01*
X1285336Y952505D01*
Y955837D01*
X1287002Y957503D01*
X1290334D01*
X1292000Y955837D01*
Y947506D02*
X1285336D01*
Y945840D01*
X1287002Y944174D01*
X1292000D01*
X1287002D01*
X1285336Y942508D01*
X1287002Y940842D01*
X1292000D01*
Y937510D02*
X1285336D01*
Y935844D01*
X1287002Y934177D01*
X1292000D01*
X1287002D01*
X1285336Y932511D01*
X1287002Y930845D01*
X1292000D01*
Y925847D02*
Y922514D01*
X1290334Y920848D01*
X1287002D01*
X1285336Y922514D01*
Y925847D01*
X1287002Y927513D01*
X1290334D01*
X1292000Y925847D01*
Y917516D02*
X1285336D01*
Y912518D01*
X1287002Y910852D01*
X1292000D01*
X1368669Y960335D02*
X1367003Y962002D01*
Y965334D01*
X1368669Y967000D01*
X1375334D01*
X1377000Y965334D01*
Y962002D01*
X1375334Y960335D01*
X1377000Y955337D02*
Y952005D01*
X1375334Y950339D01*
X1372002D01*
X1370336Y952005D01*
Y955337D01*
X1372002Y957003D01*
X1375334D01*
X1377000Y955337D01*
Y947006D02*
X1370336D01*
Y945340D01*
X1372002Y943674D01*
X1377000D01*
X1372002D01*
X1370336Y942008D01*
X1372002Y940342D01*
X1377000D01*
Y937010D02*
X1370336D01*
Y935343D01*
X1372002Y933677D01*
X1377000D01*
X1372002D01*
X1370336Y932011D01*
X1372002Y930345D01*
X1377000D01*
Y925347D02*
Y922014D01*
X1375334Y920348D01*
X1372002D01*
X1370336Y922014D01*
Y925347D01*
X1372002Y927013D01*
X1375334D01*
X1377000Y925347D01*
Y917016D02*
X1370336D01*
Y912018D01*
X1372002Y910352D01*
X1377000D01*
X1455169Y959335D02*
X1453503Y961002D01*
Y964334D01*
X1455169Y966000D01*
X1461834D01*
X1463500Y964334D01*
Y961002D01*
X1461834Y959335D01*
X1463500Y954337D02*
Y951005D01*
X1461834Y949339D01*
X1458502D01*
X1456835Y951005D01*
Y954337D01*
X1458502Y956003D01*
X1461834D01*
X1463500Y954337D01*
Y946006D02*
X1456835D01*
Y944340D01*
X1458502Y942674D01*
X1463500D01*
X1458502D01*
X1456835Y941008D01*
X1458502Y939342D01*
X1463500D01*
Y936010D02*
X1456835D01*
Y934343D01*
X1458502Y932677D01*
X1463500D01*
X1458502D01*
X1456835Y931011D01*
X1458502Y929345D01*
X1463500D01*
Y924347D02*
Y921014D01*
X1461834Y919348D01*
X1458502D01*
X1456835Y921014D01*
Y924347D01*
X1458502Y926013D01*
X1461834D01*
X1463500Y924347D01*
Y916016D02*
X1456835D01*
Y911018D01*
X1458502Y909352D01*
X1463500D01*
X1174169Y960335D02*
X1172503Y962002D01*
Y965334D01*
X1174169Y967000D01*
X1175835D01*
X1177502Y965334D01*
Y962002D01*
X1179168Y960335D01*
X1180834D01*
X1182500Y962002D01*
Y965334D01*
X1180834Y967000D01*
X1172503Y957003D02*
X1182500D01*
X1179168Y953671D01*
X1182500Y950339D01*
X1172503D01*
X1182500Y947006D02*
Y943674D01*
Y945340D01*
X1172503D01*
X1174169Y947006D01*
X1257169Y959836D02*
X1255503Y961502D01*
Y964834D01*
X1257169Y966500D01*
X1258836D01*
X1260502Y964834D01*
Y961502D01*
X1262168Y959836D01*
X1263834D01*
X1265500Y961502D01*
Y964834D01*
X1263834Y966500D01*
X1255503Y956503D02*
X1265500D01*
X1262168Y953171D01*
X1265500Y949839D01*
X1255503D01*
X1265500Y946506D02*
Y943174D01*
Y944840D01*
X1255503D01*
X1257169Y946506D01*
X1343669Y958836D02*
X1342003Y960502D01*
Y963834D01*
X1343669Y965500D01*
X1345336D01*
X1347002Y963834D01*
Y960502D01*
X1348668Y958836D01*
X1350334D01*
X1352000Y960502D01*
Y963834D01*
X1350334Y965500D01*
X1342003Y955503D02*
X1352000D01*
X1348668Y952171D01*
X1352000Y948839D01*
X1342003D01*
X1352000Y945506D02*
Y942174D01*
Y943840D01*
X1342003D01*
X1343669Y945506D01*
X1431169Y958335D02*
X1429503Y960002D01*
Y963334D01*
X1431169Y965000D01*
X1432836D01*
X1434502Y963334D01*
Y960002D01*
X1436168Y958335D01*
X1437834D01*
X1439500Y960002D01*
Y963334D01*
X1437834Y965000D01*
X1429503Y955003D02*
X1439500D01*
X1436168Y951671D01*
X1439500Y948339D01*
X1429503D01*
X1439500Y945006D02*
Y941674D01*
Y943340D01*
X1429503D01*
X1431169Y945006D01*
X1481169Y961336D02*
X1479503Y963002D01*
Y966334D01*
X1481169Y968000D01*
X1482836D01*
X1484502Y966334D01*
Y963002D01*
X1486168Y961336D01*
X1487834D01*
X1489500Y963002D01*
Y966334D01*
X1487834Y968000D01*
X1479503Y958003D02*
X1489500D01*
X1486168Y954671D01*
X1489500Y951339D01*
X1479503D01*
X1489500Y941342D02*
Y948006D01*
X1482836Y941342D01*
X1481169D01*
X1479503Y943008D01*
Y946340D01*
X1481169Y948006D01*
X1394169Y960335D02*
X1392503Y962002D01*
Y965334D01*
X1394169Y967000D01*
X1395836D01*
X1397502Y965334D01*
Y962002D01*
X1399168Y960335D01*
X1400834D01*
X1402500Y962002D01*
Y965334D01*
X1400834Y967000D01*
X1392503Y957003D02*
X1402500D01*
X1399168Y953671D01*
X1402500Y950339D01*
X1392503D01*
X1402500Y940342D02*
Y947006D01*
X1395836Y940342D01*
X1394169D01*
X1392503Y942008D01*
Y945340D01*
X1394169Y947006D01*
X1306669Y960335D02*
X1305003Y962002D01*
Y965334D01*
X1306669Y967000D01*
X1308336D01*
X1310002Y965334D01*
Y962002D01*
X1311668Y960335D01*
X1313334D01*
X1315000Y962002D01*
Y965334D01*
X1313334Y967000D01*
X1305003Y957003D02*
X1315000D01*
X1311668Y953671D01*
X1315000Y950339D01*
X1305003D01*
X1315000Y940342D02*
Y947006D01*
X1308336Y940342D01*
X1306669D01*
X1305003Y942008D01*
Y945340D01*
X1306669Y947006D01*
X1224669Y960835D02*
X1223003Y962502D01*
Y965834D01*
X1224669Y967500D01*
X1226336D01*
X1228002Y965834D01*
Y962502D01*
X1229668Y960835D01*
X1231334D01*
X1233000Y962502D01*
Y965834D01*
X1231334Y967500D01*
X1223003Y957503D02*
X1233000D01*
X1229668Y954171D01*
X1233000Y950839D01*
X1223003D01*
X1233000Y940842D02*
Y947506D01*
X1226336Y940842D01*
X1224669D01*
X1223003Y942508D01*
Y945840D01*
X1224669Y947506D01*
X1110503Y964500D02*
X1120500D01*
X1117168D01*
X1110503Y957835D01*
X1115502Y962834D01*
X1120500Y957835D01*
X1110503Y947839D02*
Y954503D01*
X1115502D01*
X1113836Y951171D01*
Y949505D01*
X1115502Y947839D01*
X1118834D01*
X1120500Y949505D01*
Y952837D01*
X1118834Y954503D01*
X1083503Y965500D02*
X1093500D01*
X1090168D01*
X1083503Y958836D01*
X1088502Y963834D01*
X1093500Y958836D01*
X1083503Y948839D02*
X1085169Y952171D01*
X1088502Y955503D01*
X1091834D01*
X1093500Y953837D01*
Y950505D01*
X1091834Y948839D01*
X1090168D01*
X1088502Y950505D01*
Y955503D01*
X1020503Y965500D02*
X1030500D01*
X1027168D01*
X1020503Y958836D01*
X1025502Y963834D01*
X1030500Y958836D01*
X1020503Y955503D02*
Y948839D01*
X1022169D01*
X1028834Y955503D01*
X1030500D01*
X995503Y965500D02*
X1005500D01*
X1002168D01*
X995503Y958836D01*
X1000502Y963834D01*
X1005500Y958836D01*
X997169Y955503D02*
X995503Y953837D01*
Y950505D01*
X997169Y948839D01*
X998836D01*
X1000502Y950505D01*
X1002168Y948839D01*
X1003834D01*
X1005500Y950505D01*
Y953837D01*
X1003834Y955503D01*
X1002168D01*
X1000502Y953837D01*
X998836Y955503D01*
X997169D01*
X1000502Y953837D02*
Y950505D01*
X723500Y960000D02*
X713503D01*
Y955002D01*
X715169Y953335D01*
X718502D01*
X720168Y955002D01*
Y960000D01*
X713503Y950003D02*
X723500D01*
X720168Y946671D01*
X723500Y943339D01*
X713503D01*
X723500Y940006D02*
X713503D01*
X716835Y936674D01*
X713503Y933342D01*
X723500D01*
X689669Y953335D02*
X688003Y955002D01*
Y958334D01*
X689669Y960000D01*
X696334D01*
X698000Y958334D01*
Y955002D01*
X696334Y953335D01*
X693002D01*
Y956668D01*
X698000Y950003D02*
X688003D01*
X698000Y943339D01*
X688003D01*
Y940006D02*
X698000D01*
Y935008D01*
X696334Y933342D01*
X689669D01*
X688003Y935008D01*
Y940006D01*
X741169Y961000D02*
X739503Y959334D01*
Y956002D01*
X741169Y954335D01*
X742835D01*
X744502Y956002D01*
Y957668D01*
Y956002D01*
X746168Y954335D01*
X747834D01*
X749500Y956002D01*
Y959334D01*
X747834Y961000D01*
X739503Y951003D02*
X746168D01*
X749500Y947671D01*
X746168Y944339D01*
X739503D01*
X741169Y941006D02*
X739503Y939340D01*
Y936008D01*
X741169Y934342D01*
X742835D01*
X744502Y936008D01*
Y937674D01*
Y936008D01*
X746168Y934342D01*
X747834D01*
X749500Y936008D01*
Y939340D01*
X747834Y941006D01*
D125*
X1131000Y609979D02*
Y510000D01*
X1064348Y609979D02*
X1131000Y543326D01*
X1107196Y567131D02*
X1064348Y510000D01*
X1041971Y609979D02*
Y538565D01*
X1037211Y524283D01*
X1027689Y514761D01*
X1013406Y510000D01*
X1003884D01*
X989602Y514761D01*
X980080Y524283D01*
X975319Y538565D01*
Y609979D01*
X869151D02*
Y510000D01*
X812021D01*
X801071Y548087D02*
X743940D01*
Y557609D01*
X748701Y567131D01*
X753462Y571892D01*
X762984Y576652D01*
X777266D01*
X786788Y571892D01*
X796310Y562370D01*
X801071Y548087D01*
Y538565D01*
X796310Y524283D01*
X786788Y514761D01*
X777266Y510000D01*
X762984D01*
X753462Y514761D01*
X743940Y524283D01*
X722516Y576652D02*
Y529044D01*
X717755Y514761D01*
X708233Y510000D01*
X693951D01*
X684429Y514761D01*
X670146Y529044D01*
Y576652D02*
Y510000D01*
X643961Y576652D02*
X615396Y510000D01*
X586831Y576652D02*
X615396Y510000D01*
X570644Y548087D02*
X513513D01*
Y557609D01*
X518274Y567131D01*
X523035Y571892D01*
X532557Y576652D01*
X546839D01*
X556361Y571892D01*
X565883Y562370D01*
X570644Y548087D01*
Y538565D01*
X565883Y524283D01*
X556361Y514761D01*
X546839Y510000D01*
X532557D01*
X523035Y514761D01*
X513513Y524283D01*
X492089Y576652D02*
Y510000D01*
Y557609D02*
X477807Y571892D01*
X468285Y576652D01*
X454002D01*
X444480Y571892D01*
X439720Y557609D01*
Y510000D01*
M02*
