G04 Layer_Color=8421504*
%FSLAX44Y44*%
%MOMM*%
G71*
G01*
G75*
%ADD10R,1.3000X0.7000*%
%ADD11R,0.7600X1.2500*%
%ADD12R,0.8000X0.9000*%
%ADD13R,0.7000X1.3000*%
%ADD14R,0.9500X1.0000*%
%ADD15R,2.5000X1.6000*%
%ADD16R,3.7000X2.4500*%
%ADD17R,2.1000X2.1000*%
%ADD18O,0.8000X0.2500*%
%ADD19O,0.2500X0.8000*%
%ADD20R,1.0000X0.9500*%
%ADD21R,0.8000X0.8000*%
%ADD22R,1.6000X2.8000*%
%ADD23O,1.5000X0.5500*%
%ADD24O,0.5500X1.5000*%
%ADD25R,1.4000X1.7000*%
%ADD26R,0.8000X1.0000*%
%ADD27R,2.9500X1.4000*%
%ADD28C,1.1000*%
%ADD29R,2.4000X1.5000*%
%ADD30R,3.4000X5.0000*%
%ADD31R,1.5000X0.4500*%
G04:AMPARAMS|DCode=32|XSize=0.45mm|YSize=1.5mm|CornerRadius=0.1125mm|HoleSize=0mm|Usage=FLASHONLY|Rotation=270.000|XOffset=0mm|YOffset=0mm|HoleType=Round|Shape=RoundedRectangle|*
%AMROUNDEDRECTD32*
21,1,0.4500,1.2750,0,0,270.0*
21,1,0.2250,1.5000,0,0,270.0*
1,1,0.2250,-0.6375,-0.1125*
1,1,0.2250,-0.6375,0.1125*
1,1,0.2250,0.6375,0.1125*
1,1,0.2250,0.6375,-0.1125*
%
%ADD32ROUNDEDRECTD32*%
%ADD33R,8.3800X10.4900*%
%ADD34R,3.5040X1.0160*%
%ADD35R,2.5000X1.7000*%
%ADD36R,0.8000X0.8000*%
%ADD37R,1.7000X1.4000*%
%ADD38R,0.4000X1.4000*%
%ADD39R,1.8000X1.9000*%
%ADD40R,2.3000X1.9000*%
%ADD41R,1.9800X0.5300*%
%ADD42O,1.9800X0.5300*%
%ADD43R,0.7800X0.2000*%
%ADD44R,0.2000X0.7800*%
%ADD45R,5.6000X4.8000*%
%ADD46R,2.4000X3.1000*%
%ADD47C,1.0000*%
%ADD48R,2.3000X1.4000*%
%ADD49R,1.3000X1.0000*%
%ADD50R,3.2000X1.5000*%
%ADD51R,0.6000X1.2000*%
G36*
X298500Y239500D02*
X305200Y239500D01*
Y217200D01*
X298600D01*
Y214500D01*
X297400D01*
Y207200D01*
X282100D01*
Y214500D01*
X276600D01*
Y243400D01*
X298500D01*
Y239500D01*
D02*
G37*
G36*
X797160Y239500D02*
X803860Y239500D01*
Y217200D01*
X797260D01*
Y214500D01*
X796060D01*
Y207200D01*
X780760D01*
Y214500D01*
X775260D01*
Y243400D01*
X797160D01*
Y239500D01*
D02*
G37*
G36*
X267200Y207100D02*
X254600D01*
Y220100D01*
X267200D01*
Y207100D01*
D02*
G37*
G36*
X216800Y214500D02*
X211300D01*
Y207200D01*
X196000D01*
Y214500D01*
X194800D01*
Y217200D01*
X188200Y217200D01*
Y239500D01*
X194900Y239500D01*
Y243400D01*
X216800D01*
Y214500D01*
D02*
G37*
G36*
X715460Y214500D02*
X709960D01*
Y207200D01*
X694660D01*
Y214500D01*
X693460D01*
Y217200D01*
X686860Y217200D01*
Y239500D01*
X693560Y239500D01*
Y243400D01*
X715460D01*
Y214500D01*
D02*
G37*
G36*
X1212460Y214000D02*
X1206960D01*
Y206700D01*
X1191660D01*
Y214000D01*
X1190460D01*
Y216700D01*
X1183860Y216700D01*
Y239000D01*
X1190560Y239000D01*
Y242900D01*
X1212460D01*
Y214000D01*
D02*
G37*
G36*
X1294160Y239000D02*
X1300860Y239000D01*
Y216700D01*
X1294260D01*
Y214000D01*
X1293060D01*
Y206700D01*
X1277760D01*
Y214000D01*
X1272260D01*
Y242900D01*
X1294160D01*
Y239000D01*
D02*
G37*
G36*
X1262860Y206600D02*
X1250260D01*
Y219600D01*
X1262860D01*
Y206600D01*
D02*
G37*
G36*
X1234460D02*
X1221860D01*
Y219600D01*
X1234460D01*
Y206600D01*
D02*
G37*
G36*
X238800Y207100D02*
X226200D01*
Y220100D01*
X238800D01*
Y207100D01*
D02*
G37*
G36*
X765860Y207100D02*
X753260D01*
Y220100D01*
X765860D01*
Y207100D01*
D02*
G37*
G36*
X737460D02*
X724860D01*
Y220100D01*
X737460D01*
Y207100D01*
D02*
G37*
G36*
X737460Y342900D02*
X724860D01*
Y355900D01*
X737460D01*
Y342900D01*
D02*
G37*
G36*
X1262860Y342400D02*
X1250260D01*
Y355400D01*
X1262860D01*
Y342400D01*
D02*
G37*
G36*
X1234460Y342400D02*
X1221860D01*
Y355400D01*
X1234460D01*
Y342400D01*
D02*
G37*
G36*
X267200Y342900D02*
X254600D01*
Y355900D01*
X267200D01*
Y342900D01*
D02*
G37*
G36*
X765860Y342900D02*
X753260D01*
Y355900D01*
X765860D01*
Y342900D01*
D02*
G37*
G36*
X238800D02*
X226200D01*
Y355900D01*
X238800D01*
Y342900D01*
D02*
G37*
G36*
X709960Y348500D02*
X715460D01*
Y319600D01*
X693560D01*
Y323500D01*
X686860Y323500D01*
Y345800D01*
X693460D01*
Y348500D01*
X694660D01*
Y355800D01*
X709960D01*
Y348500D01*
D02*
G37*
G36*
X1293060Y348000D02*
X1294260D01*
Y345300D01*
X1300860D01*
Y323000D01*
X1294160D01*
Y319100D01*
X1272260D01*
Y348000D01*
X1277760D01*
Y355300D01*
X1293060D01*
Y348000D01*
D02*
G37*
G36*
X1206960D02*
X1212460D01*
Y319100D01*
X1190560D01*
Y323000D01*
X1183860Y323000D01*
Y345300D01*
X1190460D01*
Y348000D01*
X1191660D01*
Y355300D01*
X1206960D01*
Y348000D01*
D02*
G37*
G36*
X297400Y348500D02*
X298600D01*
Y345800D01*
X305200D01*
Y323500D01*
X298500D01*
Y319600D01*
X276600D01*
Y348500D01*
X282100D01*
Y355800D01*
X297400D01*
Y348500D01*
D02*
G37*
G36*
X211300D02*
X216800D01*
Y319600D01*
X194900D01*
Y323500D01*
X188200Y323500D01*
Y345800D01*
X194800D01*
Y348500D01*
X196000D01*
Y355800D01*
X211300D01*
Y348500D01*
D02*
G37*
G36*
X796060Y348500D02*
X797260D01*
Y345800D01*
X803860D01*
Y323500D01*
X797160D01*
Y319600D01*
X775260D01*
Y348500D01*
X780760D01*
Y355800D01*
X796060D01*
Y348500D01*
D02*
G37*
D10*
X1385460Y267000D02*
D03*
X1385460Y248000D02*
D03*
X1367460Y267000D02*
D03*
Y248000D02*
D03*
X1335460Y253000D02*
D03*
Y272000D02*
D03*
X1119460Y404500D02*
D03*
X1119460Y385500D02*
D03*
Y373500D02*
D03*
Y354500D02*
D03*
Y324500D02*
D03*
Y343500D02*
D03*
X1285460Y172000D02*
D03*
X1285460Y191000D02*
D03*
X1200460Y172000D02*
D03*
X1200460Y191000D02*
D03*
X1285460Y389000D02*
D03*
Y370000D02*
D03*
X1199460Y388000D02*
D03*
X1199460Y369000D02*
D03*
X702460Y388500D02*
D03*
Y369500D02*
D03*
X788460Y389500D02*
D03*
Y370500D02*
D03*
X888460Y267500D02*
D03*
X888460Y248500D02*
D03*
X870460Y267500D02*
D03*
X870460Y248500D02*
D03*
X838460Y253500D02*
D03*
Y272500D02*
D03*
X788460Y172500D02*
D03*
Y191500D02*
D03*
X703460Y172500D02*
D03*
Y191500D02*
D03*
X622460Y325000D02*
D03*
Y344000D02*
D03*
Y374000D02*
D03*
Y355000D02*
D03*
Y405000D02*
D03*
Y386000D02*
D03*
X289800Y389500D02*
D03*
X289800Y370500D02*
D03*
X203800Y388500D02*
D03*
Y369500D02*
D03*
X390000Y267500D02*
D03*
Y248500D02*
D03*
X371800Y267500D02*
D03*
Y248500D02*
D03*
X339800Y253500D02*
D03*
Y272500D02*
D03*
X289800Y172500D02*
D03*
Y191500D02*
D03*
X204800Y172500D02*
D03*
X204800Y191500D02*
D03*
X123800Y325000D02*
D03*
Y344000D02*
D03*
X123800Y405000D02*
D03*
Y386000D02*
D03*
Y374000D02*
D03*
Y355000D02*
D03*
X1448500Y816000D02*
D03*
Y835000D02*
D03*
X1362500Y816000D02*
D03*
Y835000D02*
D03*
X1274000Y816000D02*
D03*
Y835000D02*
D03*
X1190000Y815500D02*
D03*
Y834500D02*
D03*
X468000Y685000D02*
D03*
Y704000D02*
D03*
D11*
X880510Y997300D02*
D03*
X893210D02*
D03*
X905910D02*
D03*
X918610D02*
D03*
Y935800D02*
D03*
X905910D02*
D03*
X893210D02*
D03*
X880510D02*
D03*
D12*
X1073460Y328000D02*
D03*
X1091460D02*
D03*
X1082460Y308000D02*
D03*
X576460Y328500D02*
D03*
X594460D02*
D03*
X585460Y308500D02*
D03*
X77800Y328500D02*
D03*
X95800D02*
D03*
X86800Y308500D02*
D03*
D13*
X1091960Y345000D02*
D03*
X1072960D02*
D03*
X1126960Y307000D02*
D03*
X1107960Y307000D02*
D03*
X1126960Y289000D02*
D03*
X1107960D02*
D03*
X1126960Y271000D02*
D03*
X1107960D02*
D03*
X1112960Y231000D02*
D03*
X1093960Y231000D02*
D03*
X615960Y231500D02*
D03*
X596960D02*
D03*
X629960Y307500D02*
D03*
X610960D02*
D03*
X629960Y289500D02*
D03*
X610960D02*
D03*
X629960Y271500D02*
D03*
X610960Y271500D02*
D03*
X117300Y231500D02*
D03*
X98300Y231500D02*
D03*
X131300Y271500D02*
D03*
X112300D02*
D03*
X131300Y289500D02*
D03*
X112300D02*
D03*
X131300Y307500D02*
D03*
X112300Y307500D02*
D03*
X96300Y345500D02*
D03*
X77300D02*
D03*
X1073000Y935000D02*
D03*
X1092000D02*
D03*
X594960Y345500D02*
D03*
X575960D02*
D03*
D14*
X1131460Y224000D02*
D03*
X1147460D02*
D03*
X634460Y224500D02*
D03*
X650460D02*
D03*
X135800D02*
D03*
X151800D02*
D03*
X1291000Y750000D02*
D03*
X1275000D02*
D03*
X1274000Y609000D02*
D03*
X1290000D02*
D03*
X1291000Y682000D02*
D03*
X1275000D02*
D03*
X1463000Y632000D02*
D03*
X1447000D02*
D03*
X1388000Y633000D02*
D03*
X1372000D02*
D03*
X1384000Y704000D02*
D03*
X1368000D02*
D03*
X1464000D02*
D03*
X1448000D02*
D03*
X1387000Y776000D02*
D03*
X1371000Y776000D02*
D03*
X1464000Y777000D02*
D03*
X1448000D02*
D03*
X874000Y613000D02*
D03*
X858000D02*
D03*
Y573000D02*
D03*
X842000D02*
D03*
X805000Y491000D02*
D03*
X821000D02*
D03*
X695000Y527000D02*
D03*
X711000D02*
D03*
X711000Y513000D02*
D03*
X695000D02*
D03*
X685599Y555000D02*
D03*
X669599D02*
D03*
X682000Y597000D02*
D03*
X666000D02*
D03*
X687000Y637000D02*
D03*
X671000D02*
D03*
X768340Y691540D02*
D03*
X752340D02*
D03*
X729000Y750000D02*
D03*
X745000D02*
D03*
X756650Y809510D02*
D03*
X740650Y809510D02*
D03*
X803640Y832370D02*
D03*
X787640D02*
D03*
X740650Y832370D02*
D03*
X756650D02*
D03*
X403000Y752000D02*
D03*
X387000D02*
D03*
X387000Y765500D02*
D03*
X403000D02*
D03*
X357500Y752000D02*
D03*
X373500D02*
D03*
X891560Y856060D02*
D03*
X907560D02*
D03*
X906800Y873840D02*
D03*
X922800D02*
D03*
X877590D02*
D03*
X893590D02*
D03*
X616000Y928000D02*
D03*
X632000D02*
D03*
X569000D02*
D03*
X553000D02*
D03*
X1428660Y266000D02*
D03*
X1412660D02*
D03*
X931660Y266500D02*
D03*
X915660D02*
D03*
X433000Y266500D02*
D03*
X417000D02*
D03*
X842000Y560000D02*
D03*
X858000D02*
D03*
X573000Y578000D02*
D03*
X557000D02*
D03*
D15*
X1103460Y196000D02*
D03*
X1065460D02*
D03*
X606460Y196500D02*
D03*
X568460D02*
D03*
X107800D02*
D03*
X69800Y196500D02*
D03*
D16*
X1242460Y123750D02*
D03*
Y175250D02*
D03*
X745460Y124250D02*
D03*
Y175750D02*
D03*
X246800Y124250D02*
D03*
Y175750D02*
D03*
X1241960Y436250D02*
D03*
Y384750D02*
D03*
X744960Y436750D02*
D03*
Y385250D02*
D03*
X246300Y436750D02*
D03*
Y385250D02*
D03*
D17*
X1105500Y885000D02*
D03*
D18*
X1086000Y875000D02*
D03*
Y880000D02*
D03*
Y885000D02*
D03*
Y890000D02*
D03*
Y895000D02*
D03*
X1125000D02*
D03*
Y890000D02*
D03*
Y885000D02*
D03*
Y880000D02*
D03*
Y875000D02*
D03*
D19*
X1095500Y904500D02*
D03*
X1100500D02*
D03*
X1105500D02*
D03*
X1110500D02*
D03*
X1115500D02*
D03*
Y865500D02*
D03*
X1110500D02*
D03*
X1105500D02*
D03*
X1100500D02*
D03*
X1095500D02*
D03*
D20*
X1497000Y857000D02*
D03*
Y841000D02*
D03*
X1411000Y857000D02*
D03*
Y841000D02*
D03*
X1326000Y857000D02*
D03*
Y841000D02*
D03*
X1240000Y857000D02*
D03*
Y841000D02*
D03*
X1061000Y915000D02*
D03*
Y899000D02*
D03*
X840000Y657000D02*
D03*
Y673000D02*
D03*
X854000Y657000D02*
D03*
Y673000D02*
D03*
X868000Y657000D02*
D03*
Y673000D02*
D03*
X790000Y525000D02*
D03*
Y509000D02*
D03*
X805000Y525000D02*
D03*
Y509000D02*
D03*
X819000Y509000D02*
D03*
Y525000D02*
D03*
X789000Y707000D02*
D03*
Y691000D02*
D03*
X769000Y727000D02*
D03*
Y711000D02*
D03*
X706000Y727000D02*
D03*
Y711000D02*
D03*
X718000Y865000D02*
D03*
Y849000D02*
D03*
X691500Y788000D02*
D03*
Y772000D02*
D03*
X353000Y732000D02*
D03*
Y716000D02*
D03*
X468000Y738000D02*
D03*
Y722000D02*
D03*
X454000Y746000D02*
D03*
Y730000D02*
D03*
X1012500Y891000D02*
D03*
Y875000D02*
D03*
X633500Y581180D02*
D03*
Y597180D02*
D03*
X860190Y858220D02*
D03*
Y874220D02*
D03*
X879240Y908510D02*
D03*
Y892510D02*
D03*
X893210Y908510D02*
D03*
Y892510D02*
D03*
X907180Y908510D02*
D03*
Y892510D02*
D03*
X921150Y908510D02*
D03*
X921150Y892510D02*
D03*
X602500Y869500D02*
D03*
Y885500D02*
D03*
X583500Y869500D02*
D03*
Y885500D02*
D03*
X530000Y965000D02*
D03*
Y949000D02*
D03*
X958000Y523000D02*
D03*
Y507000D02*
D03*
X943500D02*
D03*
Y523000D02*
D03*
X972500Y523000D02*
D03*
Y507000D02*
D03*
X914000Y765500D02*
D03*
Y781500D02*
D03*
D21*
X1483250Y835000D02*
D03*
X1466750D02*
D03*
X1397250D02*
D03*
X1380750D02*
D03*
X1312250D02*
D03*
X1295750D02*
D03*
X1226250D02*
D03*
X1209750D02*
D03*
X711250Y499000D02*
D03*
X694750D02*
D03*
D22*
X919000Y603000D02*
D03*
Y647000D02*
D03*
D23*
X822920Y565180D02*
D03*
Y573180D02*
D03*
Y581180D02*
D03*
Y589180D02*
D03*
Y597180D02*
D03*
Y605180D02*
D03*
Y613180D02*
D03*
Y621180D02*
D03*
Y629180D02*
D03*
Y637180D02*
D03*
Y645180D02*
D03*
X707920Y645180D02*
D03*
Y637180D02*
D03*
Y629180D02*
D03*
Y621180D02*
D03*
Y613180D02*
D03*
Y605180D02*
D03*
Y597180D02*
D03*
Y589180D02*
D03*
Y581180D02*
D03*
Y573180D02*
D03*
Y565180D02*
D03*
D24*
X805420Y662680D02*
D03*
X797420D02*
D03*
X789420D02*
D03*
X781420D02*
D03*
X773420D02*
D03*
X765420D02*
D03*
X757420D02*
D03*
X749420D02*
D03*
X741420D02*
D03*
X733420D02*
D03*
X725420D02*
D03*
X725420Y547680D02*
D03*
X733420D02*
D03*
X741420D02*
D03*
X749420Y547680D02*
D03*
X757420D02*
D03*
X765420Y547680D02*
D03*
X773420D02*
D03*
X781420D02*
D03*
X789420Y547680D02*
D03*
X797420D02*
D03*
X805420D02*
D03*
D25*
X762750Y780300D02*
D03*
X732010D02*
D03*
D26*
X526000Y713000D02*
D03*
X536000D02*
D03*
D27*
X496000Y656000D02*
D03*
Y626000D02*
D03*
D28*
X495000Y592500D02*
D03*
X1072500Y295500D02*
D03*
X1124072Y255000D02*
D03*
X1110000Y161000D02*
D03*
X631000Y159000D02*
D03*
X138000Y169000D02*
D03*
X77500Y295500D02*
D03*
X134500Y255500D02*
D03*
X575500Y295500D02*
D03*
X630000Y255500D02*
D03*
D29*
X439000Y606000D02*
D03*
Y669000D02*
D03*
D30*
X402500Y717000D02*
D03*
D31*
X373500Y726750D02*
D03*
Y694250D02*
D03*
Y700750D02*
D03*
Y707250D02*
D03*
Y713750D02*
D03*
Y720250D02*
D03*
Y733250D02*
D03*
Y739750D02*
D03*
X431500D02*
D03*
Y733250D02*
D03*
Y726750D02*
D03*
Y720250D02*
D03*
Y713750D02*
D03*
Y707250D02*
D03*
Y700750D02*
D03*
D32*
Y694250D02*
D03*
D33*
X149000Y528000D02*
D03*
D34*
X46870Y553400D02*
D03*
Y502600D02*
D03*
D35*
X152500Y622000D02*
D03*
X192500D02*
D03*
D36*
X1448660Y248250D02*
D03*
Y264750D02*
D03*
X951660Y248750D02*
D03*
Y265250D02*
D03*
X453000Y248750D02*
D03*
Y265250D02*
D03*
X943500Y553250D02*
D03*
Y536750D02*
D03*
D37*
X1036000Y930370D02*
D03*
Y899630D02*
D03*
D38*
X593500Y956250D02*
D03*
X587000Y956250D02*
D03*
X600000Y956250D02*
D03*
X606500D02*
D03*
X580500D02*
D03*
D39*
X606500Y984750D02*
D03*
X580500D02*
D03*
D40*
X632500D02*
D03*
X554500D02*
D03*
D41*
X557350Y596950D02*
D03*
Y609650D02*
D03*
Y622350D02*
D03*
Y635050D02*
D03*
X606650D02*
D03*
Y622350D02*
D03*
Y609650D02*
D03*
D42*
Y596950D02*
D03*
D43*
X1187360Y289000D02*
D03*
Y313700D02*
D03*
Y307500D02*
D03*
Y300300D02*
D03*
Y296400D02*
D03*
Y248300D02*
D03*
Y254500D02*
D03*
Y258500D02*
D03*
Y262500D02*
D03*
Y281000D02*
D03*
X1187560Y269700D02*
D03*
X1187360Y285000D02*
D03*
Y277000D02*
D03*
X1297360Y313700D02*
D03*
Y307500D02*
D03*
Y303000D02*
D03*
Y299000D02*
D03*
Y295000D02*
D03*
Y291000D02*
D03*
Y254500D02*
D03*
Y259000D02*
D03*
Y263000D02*
D03*
Y267000D02*
D03*
Y271000D02*
D03*
Y275000D02*
D03*
Y279000D02*
D03*
Y287000D02*
D03*
Y283000D02*
D03*
Y248300D02*
D03*
X800360Y248800D02*
D03*
Y283500D02*
D03*
Y287500D02*
D03*
Y279500D02*
D03*
Y275500D02*
D03*
Y271500D02*
D03*
Y267500D02*
D03*
Y263500D02*
D03*
Y259500D02*
D03*
Y255000D02*
D03*
Y291500D02*
D03*
Y295500D02*
D03*
Y299500D02*
D03*
Y303500D02*
D03*
Y308000D02*
D03*
Y314200D02*
D03*
X690360Y277500D02*
D03*
Y285500D02*
D03*
X690560Y270200D02*
D03*
X690360Y281500D02*
D03*
Y263000D02*
D03*
Y259000D02*
D03*
Y255000D02*
D03*
Y248800D02*
D03*
Y296900D02*
D03*
Y300800D02*
D03*
Y308000D02*
D03*
Y314200D02*
D03*
Y289500D02*
D03*
X191700Y289500D02*
D03*
Y314200D02*
D03*
Y308000D02*
D03*
Y300800D02*
D03*
Y296900D02*
D03*
Y248800D02*
D03*
Y255000D02*
D03*
Y259000D02*
D03*
Y263000D02*
D03*
Y281500D02*
D03*
X191900Y270200D02*
D03*
X191700Y285500D02*
D03*
Y277500D02*
D03*
X301700Y314200D02*
D03*
Y308000D02*
D03*
Y303500D02*
D03*
Y299500D02*
D03*
Y295500D02*
D03*
Y291500D02*
D03*
Y255000D02*
D03*
Y259500D02*
D03*
Y263500D02*
D03*
Y267500D02*
D03*
Y271500D02*
D03*
Y275500D02*
D03*
Y279500D02*
D03*
Y287500D02*
D03*
Y283500D02*
D03*
Y248800D02*
D03*
D44*
X1267460Y211000D02*
D03*
X1245460D02*
D03*
X1239260D02*
D03*
X1217160D02*
D03*
X1217260Y351000D02*
D03*
X1239160D02*
D03*
X1245560D02*
D03*
X1267460D02*
D03*
X1260360Y211000D02*
D03*
X1256460D02*
D03*
X1252460D02*
D03*
X1232160D02*
D03*
X1228160D02*
D03*
X1224160D02*
D03*
Y351000D02*
D03*
X1228160D02*
D03*
X1232160D02*
D03*
X1252460D02*
D03*
X1256560D02*
D03*
X1260560D02*
D03*
X763560Y351500D02*
D03*
X759560D02*
D03*
X755460D02*
D03*
X735160D02*
D03*
X731160D02*
D03*
X727160D02*
D03*
Y211500D02*
D03*
X731160D02*
D03*
X735160D02*
D03*
X755460D02*
D03*
X759460D02*
D03*
X763360D02*
D03*
X770460Y351500D02*
D03*
X748560D02*
D03*
X742160D02*
D03*
X720260D02*
D03*
X720160Y211500D02*
D03*
X742260D02*
D03*
X748460D02*
D03*
X770460D02*
D03*
X271800Y211500D02*
D03*
X249800D02*
D03*
X243600D02*
D03*
X221500D02*
D03*
X221600Y351500D02*
D03*
X243500D02*
D03*
X249900D02*
D03*
X271800D02*
D03*
X264700Y211500D02*
D03*
X260800D02*
D03*
X256800D02*
D03*
X236500D02*
D03*
X232500D02*
D03*
X228500D02*
D03*
Y351500D02*
D03*
X232500D02*
D03*
X236500D02*
D03*
X256800D02*
D03*
X260900D02*
D03*
X264900D02*
D03*
D45*
X1242360Y281000D02*
D03*
X745360Y281500D02*
D03*
X246700Y281500D02*
D03*
D46*
X1256160Y323700D02*
D03*
X1228560D02*
D03*
X1256160Y238300D02*
D03*
X1228560D02*
D03*
X731560Y238800D02*
D03*
X759160D02*
D03*
X731560Y324200D02*
D03*
X759160D02*
D03*
X260500Y324200D02*
D03*
X232900D02*
D03*
X260500Y238800D02*
D03*
X232900D02*
D03*
D47*
X1283360Y228000D02*
D03*
X1282360Y336000D02*
D03*
X1201360Y334000D02*
D03*
X1202360Y228000D02*
D03*
X705360Y228500D02*
D03*
X704360Y334500D02*
D03*
X785360Y336500D02*
D03*
X786360Y228500D02*
D03*
X287700Y228500D02*
D03*
X286700Y336500D02*
D03*
X205700Y334500D02*
D03*
X206700Y228500D02*
D03*
X117500Y914000D02*
D03*
X1441000Y40000D02*
D03*
D48*
X804280Y864440D02*
D03*
X741280Y864440D02*
D03*
X741280Y904440D02*
D03*
X804280Y904440D02*
D03*
D49*
X748480Y728480D02*
D03*
X726480D02*
D03*
Y710480D02*
D03*
X748480D02*
D03*
D50*
X674500Y903500D02*
D03*
X674500Y945500D02*
D03*
D51*
X583500Y904500D02*
D03*
X593000D02*
D03*
X602500D02*
D03*
Y927500D02*
D03*
X593000D02*
D03*
X583500D02*
D03*
M02*
