G04 Layer_Color=16711935*
%FSLAX44Y44*%
%MOMM*%
G71*
G01*
G75*
%ADD115C,2.0032*%
%ADD116C,2.4032*%
%ADD117C,2.7032*%
%ADD118C,0.2032*%
%ADD119C,1.7032*%
%ADD120C,2.2032*%
%ADD121C,1.0032*%
%ADD122C,0.8032*%
D115*
X365500Y86800D02*
D03*
Y112200D02*
D03*
X864500Y85800D02*
D03*
Y111200D02*
D03*
X1363500Y84300D02*
D03*
Y109700D02*
D03*
X717000Y809500D02*
D03*
X691600D02*
D03*
X1149300Y387500D02*
D03*
X1174700D02*
D03*
X651800Y388000D02*
D03*
X677200D02*
D03*
X152800Y387000D02*
D03*
X178200D02*
D03*
X47000Y664600D02*
D03*
Y715400D02*
D03*
D116*
X221500Y683500D02*
D03*
Y758500D02*
D03*
D117*
X429000Y198000D02*
D03*
Y148000D02*
D03*
X921460Y148500D02*
D03*
Y198500D02*
D03*
X1418460Y198500D02*
D03*
Y148500D02*
D03*
D118*
X898900Y722090D02*
D03*
X888740Y772890D02*
D03*
X909060D02*
D03*
D119*
X1482000Y751000D02*
D03*
Y725600D02*
D03*
X1333000Y750400D02*
D03*
Y725000D02*
D03*
X1482000Y608400D02*
D03*
Y583000D02*
D03*
X1407000Y608400D02*
D03*
Y583000D02*
D03*
X1332000Y609400D02*
D03*
X1332000Y584000D02*
D03*
X1407000Y750400D02*
D03*
Y725000D02*
D03*
X1482000Y680400D02*
D03*
Y655000D02*
D03*
X1407000Y681000D02*
D03*
Y655600D02*
D03*
X1332000Y681400D02*
D03*
X1332000Y656000D02*
D03*
X1026310Y980550D02*
D03*
X1000910D02*
D03*
X1051710D02*
D03*
X1115210D02*
D03*
X1089810D02*
D03*
X1140610D02*
D03*
X778000Y962000D02*
D03*
X803400D02*
D03*
X719000Y980000D02*
D03*
X693600D02*
D03*
X744400D02*
D03*
X1459380Y980550D02*
D03*
X1433980D02*
D03*
X1484780D02*
D03*
X1373020D02*
D03*
X1347620D02*
D03*
X1398420D02*
D03*
X1286660D02*
D03*
X1261260D02*
D03*
X1312060D02*
D03*
X1202840D02*
D03*
X1177440D02*
D03*
X1228240D02*
D03*
D120*
X300500Y81000D02*
D03*
X265500D02*
D03*
X230500D02*
D03*
X195500D02*
D03*
X798500Y80000D02*
D03*
X763500D02*
D03*
X728500D02*
D03*
X693500D02*
D03*
X1295500Y79000D02*
D03*
X1260500D02*
D03*
X1225500D02*
D03*
X1190500D02*
D03*
D121*
X1479700Y856970D02*
D03*
Y888970D02*
D03*
X1428900D02*
D03*
Y856970D02*
D03*
X1479700Y910970D02*
D03*
Y932970D02*
D03*
X1428900D02*
D03*
Y910970D02*
D03*
X1342540D02*
D03*
Y932970D02*
D03*
X1393340D02*
D03*
Y910970D02*
D03*
X1342540Y856970D02*
D03*
Y888970D02*
D03*
X1393340D02*
D03*
Y856970D02*
D03*
X1308250D02*
D03*
Y888970D02*
D03*
X1257450D02*
D03*
Y856970D02*
D03*
X1308250Y910970D02*
D03*
Y932970D02*
D03*
X1257450D02*
D03*
Y910970D02*
D03*
X1172360D02*
D03*
Y932970D02*
D03*
X1223160D02*
D03*
Y910970D02*
D03*
X1172360Y856970D02*
D03*
Y888970D02*
D03*
X1223160D02*
D03*
Y856970D02*
D03*
X87000Y95500D02*
D03*
X569500Y61500D02*
D03*
X1083500Y64000D02*
D03*
X1454000Y310500D02*
D03*
X954500Y312500D02*
D03*
X454000Y316500D02*
D03*
X46000Y357000D02*
D03*
X1039000Y345000D02*
D03*
X544000Y347500D02*
D03*
X623000Y143000D02*
D03*
X127000Y144500D02*
D03*
X1120000Y136500D02*
D03*
X107000Y497500D02*
D03*
X106500Y513500D02*
D03*
X107000Y532500D02*
D03*
Y548500D02*
D03*
X106500Y564500D02*
D03*
X192500Y515000D02*
D03*
X192065Y548900D02*
D03*
Y532000D02*
D03*
X192000Y498500D02*
D03*
X192065Y564576D02*
D03*
X1159000Y857000D02*
D03*
X403500Y698000D02*
D03*
X394000D02*
D03*
Y707500D02*
D03*
X403500D02*
D03*
X413000D02*
D03*
Y698000D02*
D03*
Y717000D02*
D03*
X403500D02*
D03*
X394000D02*
D03*
Y726500D02*
D03*
X403500D02*
D03*
Y736000D02*
D03*
X394000D02*
D03*
X413000Y726500D02*
D03*
Y736000D02*
D03*
X1069000Y414000D02*
D03*
X572000D02*
D03*
X73540Y414000D02*
D03*
X1151000Y846000D02*
D03*
X1139000D02*
D03*
X1120000Y834000D02*
D03*
X1107000Y825000D02*
D03*
D122*
X1307500Y254000D02*
D03*
X1301500Y184500D02*
D03*
X853000Y329500D02*
D03*
X810500Y254500D02*
D03*
X799500Y183000D02*
D03*
X254500Y330400D02*
D03*
X267000Y330500D02*
D03*
X266900Y318000D02*
D03*
X226800Y330500D02*
D03*
X240000Y331100D02*
D03*
X226500Y317000D02*
D03*
X227000Y249000D02*
D03*
X238900Y233000D02*
D03*
X227000Y232500D02*
D03*
X267500Y230500D02*
D03*
X254000Y231000D02*
D03*
X266500Y249500D02*
D03*
X312000Y255000D02*
D03*
X290499Y180500D02*
D03*
X357500Y338500D02*
D03*
X1445027Y447783D02*
D03*
X1435460Y451000D02*
D03*
X1399604Y381000D02*
D03*
X1411391Y385311D02*
D03*
X1100500Y919000D02*
D03*
X1385460Y385000D02*
D03*
X1375000Y390540D02*
D03*
X901000Y382000D02*
D03*
X892460Y389000D02*
D03*
X880000Y392540D02*
D03*
X420000Y363000D02*
D03*
X410000Y377000D02*
D03*
X401000Y378000D02*
D03*
X390000Y386000D02*
D03*
X380000Y391500D02*
D03*
X1262000Y776000D02*
D03*
X990000Y954000D02*
D03*
X802000Y712000D02*
D03*
X775000Y759000D02*
D03*
X672000Y576000D02*
D03*
X557000Y563000D02*
D03*
X716000Y543000D02*
D03*
X629000Y524000D02*
D03*
X734000Y501000D02*
D03*
X668000Y674000D02*
D03*
X854000Y706000D02*
D03*
X826000Y761000D02*
D03*
X819000Y745000D02*
D03*
X870000Y735000D02*
D03*
X954433Y655783D02*
D03*
X809000Y687000D02*
D03*
X758000Y629000D02*
D03*
X1130000Y616000D02*
D03*
X428000Y451000D02*
D03*
X436000Y466000D02*
D03*
X445000Y449000D02*
D03*
X457000Y442000D02*
D03*
X705000Y777000D02*
D03*
X801000Y776000D02*
D03*
X828000Y717000D02*
D03*
X844000Y932000D02*
D03*
X958000Y945000D02*
D03*
X1109000Y728000D02*
D03*
X1164000Y779000D02*
D03*
X955000Y791000D02*
D03*
X512000Y804000D02*
D03*
X1016000Y684000D02*
D03*
X734000Y579000D02*
D03*
X725000Y647000D02*
D03*
X750000D02*
D03*
X758000D02*
D03*
X807000Y589000D02*
D03*
X805000Y613000D02*
D03*
X725000Y605000D02*
D03*
X977000Y555000D02*
D03*
Y680000D02*
D03*
X925000Y845000D02*
D03*
X1100000Y609000D02*
D03*
X1127000Y606000D02*
D03*
X1155000Y647000D02*
D03*
X1134000Y639000D02*
D03*
X1127000Y631000D02*
D03*
X805000Y581000D02*
D03*
X1107000Y882000D02*
D03*
X1097000D02*
D03*
X1107000Y872000D02*
D03*
X868000Y692000D02*
D03*
X840000D02*
D03*
X1360460Y332000D02*
D03*
X1270460Y382000D02*
D03*
X1367460Y279120D02*
D03*
X1385460Y279000D02*
D03*
X1360460Y222000D02*
D03*
X1420460Y370000D02*
D03*
X1368460Y229000D02*
D03*
X1376460Y237000D02*
D03*
X1225460Y264500D02*
D03*
X1260460D02*
D03*
X1242460D02*
D03*
X1225460Y280500D02*
D03*
X1242290Y281120D02*
D03*
X1242460Y297500D02*
D03*
X1260460Y281500D02*
D03*
X1225460Y297500D02*
D03*
X1260460D02*
D03*
X1250460Y314000D02*
D03*
Y334000D02*
D03*
X1262460Y314000D02*
D03*
Y334000D02*
D03*
X1221460Y313500D02*
D03*
Y334500D02*
D03*
X1235460Y313500D02*
D03*
Y334500D02*
D03*
X1249460Y227500D02*
D03*
Y249500D02*
D03*
X1263460Y227500D02*
D03*
Y249500D02*
D03*
X1234460Y228500D02*
D03*
X1222460D02*
D03*
Y249000D02*
D03*
X1234460D02*
D03*
X773460Y382000D02*
D03*
X870460Y279120D02*
D03*
X888460Y279000D02*
D03*
X863460Y222000D02*
D03*
X923460Y370000D02*
D03*
X871460Y229000D02*
D03*
X913460Y382000D02*
D03*
X879460Y237000D02*
D03*
X728460Y264500D02*
D03*
X763460D02*
D03*
X745460D02*
D03*
X728460Y280500D02*
D03*
X745290Y281120D02*
D03*
X728460Y297500D02*
D03*
X763460Y281500D02*
D03*
X745460Y297500D02*
D03*
X763460D02*
D03*
X753460Y314000D02*
D03*
Y334000D02*
D03*
X765460Y314000D02*
D03*
Y334000D02*
D03*
X724460Y313500D02*
D03*
Y334500D02*
D03*
X738460Y313500D02*
D03*
Y334500D02*
D03*
X752460Y227500D02*
D03*
Y249500D02*
D03*
X766460Y227500D02*
D03*
Y249500D02*
D03*
X737460Y228500D02*
D03*
X725460D02*
D03*
Y249000D02*
D03*
X737460D02*
D03*
X275000Y382000D02*
D03*
X372000Y279120D02*
D03*
X390000Y279000D02*
D03*
X365000Y222000D02*
D03*
X373000Y229000D02*
D03*
X381000Y237000D02*
D03*
X230000Y264500D02*
D03*
X265000D02*
D03*
X247000D02*
D03*
X230000Y280500D02*
D03*
X246830Y281120D02*
D03*
X230000Y297500D02*
D03*
X265000Y281500D02*
D03*
X247000Y297500D02*
D03*
X265000D02*
D03*
X255000Y314000D02*
D03*
X240000Y313500D02*
D03*
X254000Y249500D02*
D03*
X239000Y249000D02*
D03*
X741000Y565000D02*
D03*
X749000D02*
D03*
X733000Y676000D02*
D03*
X741000Y677000D02*
D03*
X1468000Y434000D02*
D03*
X1452460Y440000D02*
D03*
X774820Y621180D02*
D03*
X782000Y558000D02*
D03*
X758000Y565000D02*
D03*
X465000Y432000D02*
D03*
X1097000Y892000D02*
D03*
X1107000D02*
D03*
X1116000D02*
D03*
Y882000D02*
D03*
X1097000Y872000D02*
D03*
X1116000D02*
D03*
X1053000Y672000D02*
D03*
X533000Y635000D02*
D03*
X454000Y461000D02*
D03*
X966500Y434000D02*
D03*
X958000Y440000D02*
D03*
X948500Y444000D02*
D03*
X940500Y449000D02*
D03*
X932498Y454999D02*
D03*
X917500Y469000D02*
D03*
X923357Y461857D02*
D03*
X1419000Y461500D02*
D03*
X892000Y698500D02*
D03*
X1427500Y461000D02*
D03*
X1409000Y469000D02*
D03*
X668000Y653000D02*
D03*
X664000Y665000D02*
D03*
X674500Y888000D02*
D03*
X800000Y680500D02*
D03*
X635000Y907000D02*
D03*
X583500Y848000D02*
D03*
X602500Y847500D02*
D03*
M02*
