G04 Layer_Color=255*
%FSLAX44Y44*%
%MOMM*%
G71*
G01*
G75*
%ADD59C,2.2000*%
%ADD60C,1.5000*%
%ADD61C,0.8000*%
%ADD62C,1.8000*%
%ADD63C,2.0000*%
%ADD64C,2.5000*%
%ADD65C,8.0000*%
D59*
X47000Y665100D02*
D03*
Y715900D02*
D03*
X216500Y770000D02*
D03*
Y695000D02*
D03*
D60*
X719000Y980000D02*
D03*
X693600D02*
D03*
X744400D02*
D03*
X1459380Y980550D02*
D03*
X1433980D02*
D03*
X1484780D02*
D03*
X1373020D02*
D03*
X1347620D02*
D03*
X1398420D02*
D03*
X1286660D02*
D03*
X1261260D02*
D03*
X1312060D02*
D03*
X1202840D02*
D03*
X1177440D02*
D03*
X1228240D02*
D03*
X1026310D02*
D03*
X1000910D02*
D03*
X1051710D02*
D03*
X1115210D02*
D03*
X1089810D02*
D03*
X1140610D02*
D03*
X778000Y962000D02*
D03*
X803400D02*
D03*
X1332000Y609400D02*
D03*
X1332000Y584000D02*
D03*
X1332000Y681400D02*
D03*
X1332000Y656000D02*
D03*
X1407000Y608400D02*
D03*
Y583000D02*
D03*
Y681000D02*
D03*
Y655600D02*
D03*
X1482000Y608400D02*
D03*
Y583000D02*
D03*
Y680400D02*
D03*
Y655000D02*
D03*
X1333000Y750400D02*
D03*
Y725000D02*
D03*
X1407000Y750400D02*
D03*
Y725000D02*
D03*
X1482000Y751000D02*
D03*
Y725600D02*
D03*
X1002900Y725300D02*
D03*
X952100D02*
D03*
X977500Y725300D02*
D03*
Y750700D02*
D03*
X952100Y750700D02*
D03*
X1002900D02*
D03*
X1072000Y748200D02*
D03*
Y697400D02*
D03*
Y722800D02*
D03*
Y773600D02*
D03*
Y799000D02*
D03*
D61*
X1479700Y856970D02*
D03*
Y888970D02*
D03*
X1428900D02*
D03*
Y856970D02*
D03*
X1479700Y910970D02*
D03*
Y932970D02*
D03*
X1428900D02*
D03*
Y910970D02*
D03*
X1342540D02*
D03*
Y932970D02*
D03*
X1393340D02*
D03*
Y910970D02*
D03*
X1342540Y856970D02*
D03*
Y888970D02*
D03*
X1393340D02*
D03*
Y856970D02*
D03*
X1308250D02*
D03*
Y888970D02*
D03*
X1257450D02*
D03*
Y856970D02*
D03*
X1308250Y910970D02*
D03*
Y932970D02*
D03*
X1257450D02*
D03*
Y910970D02*
D03*
X1172360D02*
D03*
Y932970D02*
D03*
X1223160D02*
D03*
Y910970D02*
D03*
X1172360Y856970D02*
D03*
Y888970D02*
D03*
X1223160D02*
D03*
Y856970D02*
D03*
D62*
X717000Y809500D02*
D03*
X691600D02*
D03*
X534500Y792200D02*
D03*
Y766800D02*
D03*
D63*
X299000Y79500D02*
D03*
X264000D02*
D03*
X229000D02*
D03*
X194000D02*
D03*
X798500Y80000D02*
D03*
X763500D02*
D03*
X728500D02*
D03*
X693500D02*
D03*
X1295500Y79000D02*
D03*
X1260500D02*
D03*
X1225500D02*
D03*
X1190500D02*
D03*
D64*
X428800Y198000D02*
D03*
Y148000D02*
D03*
X927460Y148000D02*
D03*
Y198000D02*
D03*
X1424460Y197500D02*
D03*
Y147500D02*
D03*
D65*
X49730Y50270D02*
D03*
X49000Y963500D02*
D03*
X1541500Y46000D02*
D03*
X1542000Y965000D02*
D03*
M02*
