M48
;Layer_Color=9474304
;FILE_FORMAT=4:4
METRIC,LZ
;TYPE=PLATED
T1F00S00C0.3000
T2F00S00C0.4500
T3F00S00C0.5000
T4F00S00C1.0000
T5F00S00C1.1000
T6F00S00C1.3000
T7F00S00C1.4000
;TYPE=NON_PLATED
T8F00S00C0.9910
%
T01
X0136046Y00222
X0136846Y00229
X0137646Y00237
X0138546Y00279
X0136746Y0027912
X0136046Y00332
X01375Y0039054
X0138546Y00385
X01399604Y00381
X01411391Y00385311
X0142046Y0037
X01419Y004615
X014275Y00461
X0143546Y00451
X01445027Y00447783
X0145246Y0044
X01468Y00434
X01409Y00469
X0127046Y00382
X0126246Y00334
X0125046
X0123546Y003345
X0122146
Y003135
X0123546
X0125046Y00314
X0126246
X0126046Y002975
Y002815
Y002645
X0124246
X0124229Y0028112
X0124246Y002975
X0122546
Y002805
Y002645
X0122246Y00249
X0123446
X0124946Y002495
X0126346
Y002275
X0124946
X0123446Y002285
X0122246
X013075Y00254
X013015Y001845
X009665Y00434
X00958Y0044
X009485Y00444
X009405Y00449
X00932498Y00454999
X00923357Y00461857
X009175Y00469
X0091346Y00382
X00901Y00382
X0089246Y00389
X0088Y0039254
X0092346Y0037
X00853Y003295
X0087046Y0027912
X0088846Y00279
X0087946Y00237
X0087146Y00229
X0086346Y00222
X008105Y002545
X0076646Y002495
X0075246
X0073746Y00249
X0072546
X0072846Y002645
Y002805
Y002975
X0074546
X0074529Y0028112
X0074546Y002645
X0076346
Y002815
Y002975
X0076546Y00314
X0075346
X0073846Y003135
X0072446
Y003345
X0073846
X0075346Y00334
X0076546
X0077346Y00382
X00734Y00501
X00629Y00524
X0072546Y002285
X0073746
X0075246Y002275
X0076646
X007995Y00183
X00373Y00229
X00365Y00222
X00381Y00237
X0039Y00279
X00372Y0027912
X003575Y003385
X0038Y003915
X0039Y00386
X00401Y00378
X0041Y00377
X0042Y00363
X00428Y00451
X00445Y00449
X00457Y00442
X00465Y00432
X00454Y00461
X00436Y00466
X00275Y00382
X00267Y003305
X002545Y003304
X0024Y003311
X002268Y003305
X002265Y00317
X0024Y003135
X00255Y00314
X002669Y00318
X00265Y002975
Y002815
Y002645
X002665Y002495
X00254
X00239Y00249
X00227
Y002325
X002389Y00233
X00254Y00231
X002675Y002305
X00247Y002645
X0024683Y0028112
X00247Y002975
X0023
Y002805
Y002645
X00312Y00255
X00290499Y001805
X00394Y00698
Y007075
X004035
Y00698
X00413
Y007075
Y00717
Y007265
Y00736
X004035
Y007265
X00394
Y00736
Y00717
X004035
X00512Y00804
X00533Y00635
X00557Y00563
X00672Y00576
X00734Y00579
X00741Y00565
X00749
X00758
X00782Y00558
X00805Y00581
X00807Y00589
X00805Y00613
X0077482Y0062118
X00758Y00629
Y00647
X0075
X00725
X00733Y00676
X00741Y00677
X008Y006805
X00809Y00687
X00802Y00712
X00828Y00717
X00854Y00706
X00868Y00692
X0084
X00892Y006985
X0087Y00735
X00819Y00745
X00826Y00761
X00801Y00776
X00775Y00759
X00705Y00777
X00668Y00674
X00664Y00665
X00668Y00653
X00725Y00605
X00716Y00543
X006745Y00888
X00635Y00907
X006025Y008475
X005835Y00848
X00844Y00932
X00925Y00845
X00955Y00791
X00977Y0068
X01016Y00684
X01053Y00672
X011Y00609
X01127Y00606
X0113Y00616
X01127Y00631
X01134Y00639
X01155Y00647
X01109Y00728
X01164Y00779
X01262Y00776
X01116Y00872
X01107
X01097
Y00882
X01107
X01116
Y00892
X01107
X01097
X011005Y00919
X00954433Y00655783
X00977Y00555
X00958Y00945
X0099Y00954
T02
X0117236Y0085697
Y0088897
Y0091097
Y0093297
X0122316
Y0091097
Y0088897
Y0085697
X0125745
Y0088897
Y0091097
Y0093297
X0130825
Y0091097
Y0088897
Y0085697
X0134254
Y0088897
Y0091097
Y0093297
X0139334
Y0091097
Y0088897
Y0085697
X014289
Y0088897
Y0091097
Y0093297
X014797
Y0091097
Y0088897
Y0085697
T03
X00087Y000955
X005695Y000615
X010835Y00064
X0112Y001365
X01454Y003105
X01039Y00345
X01069Y00414
X009545Y003125
X00544Y003475
X00572Y00414
X00623Y00143
X00454Y003165
X00192Y004985
X001925Y00515
X00192065Y00532
X00107Y005325
X001065Y005135
X00107Y004975
X0007354Y00414
X00046Y00357
X00127Y001445
X00107Y005485
X001065Y005645
X00192065Y00564576
Y005489
X01107Y00825
X0112Y00834
X01139Y00846
X01151
X01159Y00857
T04
X01332Y00584
X01332Y006094
X01332Y00656
X01332Y006814
X01333Y00725
Y007504
X01407
Y00725
Y00681
Y006556
Y006084
Y00583
X01482Y00583
Y006084
Y00655
Y006804
Y007256
Y00751
X0143398Y0098055
X0134762
X0126126
X0117744
X0108981
X0100091
X008034Y00962
X00778
X006936Y0098
T05
X003655Y000868
Y001122
X008645Y001112
Y000858
X013635Y000843
Y001097
X011747Y003875
X011493
X006772Y00388
X006518
X001782Y00387
X001528
X006916Y008095
X00717
X0137302Y0098055
X0139842
X0145938
X0148478
X0131206
X0128666
X0122824
X0120284
X0114061
X0111521
X0105171
X0102631
X007444Y0098
X00719
T06
X002215Y006835
Y007585
T07
X001955Y00081
X002305
X002655
X003005
X006935Y0008
X007285
X007635
X007985
X011905Y00079
X012255
X012605
X012955
X0141846Y001485
Y001985
X0092146Y001985
Y001485
X00429Y00148
Y00198
X00047Y006646
Y007154
T08
X008989Y0072209
X0088874Y0077289
X0090906
M30
