M48
;Layer_Color=9474304
;FILE_FORMAT=4:4
METRIC,LZ
;TYPE=PLATED
T1F00S00C0.3000
T2F00S00C0.4500
T3F00S00C0.5000
T4F00S00C1.0000
T5F00S00C1.1000
T6F00S00C1.3000
T7F00S00C1.4000
T8F00S00C3.3000
%
T01
X01353771Y00215851
X01363Y00223
X01374058Y00231442
X01413Y00235
X0138566Y002765
X0138546Y00379851
X0139646Y003775
X0140546Y0038146
X014135Y00361
X01423Y004665
X01432Y004585
X01441Y004515
X01452Y00445
X014595Y00438
X01518Y00531
X0128786Y00341
Y00325
X0127736Y003335
X0126186Y003325
X0124936
X0123436
X0122236
X0120686Y00334
X0119636Y003265
Y003425
X0122286Y003145
X0123486
X0124986
X0126186
X0126286Y002985
Y00281
Y002645
X0126186Y002475
X0125086
X0123436
X0122336Y00247
X0122286Y002295
X0123436
X0125086Y0023
X0126186
X0127786Y00228
X0128836Y002355
Y002195
X01285959Y0018
X0130746Y002545
X0124236Y002645
Y00281
Y002985
X0122136Y00298
X0122186Y00281
Y002645
X0120786Y00228
X0119736Y002205
Y002365
X011275Y001965
X009585Y004385
X009415Y004525
X009705Y00459
X00973Y00534
X009315Y00507
X009265Y004665
X00934Y0046
X00918Y004455
X0090846Y00377
X0089946Y00378
X008885Y00383
X0091846Y00363
X0088866Y00277
X0088246Y00222852
X0087Y00215
X008695Y002335
X00917Y002385
X0081046Y00255
X0079136Y00236
Y0022
X0078086Y002285
X0076486Y002305
X0075386
X0073736Y0023
X0072586
X0071086Y002285
X0070036Y00221
Y00237
X0072636Y002475
X0073736Y00248
X0075386
X0076486
X0076586Y00265
Y002815
Y00299
X0076486Y00315
X0075286
X0073786
X0072586
X0072436Y002985
X0072486Y002815
Y00265
X0074536
Y002815
Y00299
X0075236Y00333
X0076486
X0078036Y00334
X0079086Y003415
Y003255
X0073736Y00333
X0072536
X0070986Y003345
X0069936Y00327
Y00343
X00734Y00501
X007255Y005325
X00629Y00524
X008595Y005085
X00788959Y001805
X0063Y00195
X00418Y002375
X003755Y00231
X003655Y00224
X003595Y00212988
X002927Y0022
Y00236
X002822Y002285
X002662Y002305
X002552
X002387Y0023
X002272
X002122Y002285
X002017Y00221
Y00237
X002277Y002475
X002387Y00248
X002552
X002662
X002672Y00265
Y002815
Y00299
X002662Y00315
X002542
X002392
X002272
X002257Y002985
X002262Y002815
Y00265
X002467
Y002815
Y00299
X002537Y00333
X002662
X002817Y00334
X002922Y003415
Y003255
X002387Y00333
X002267
X002112Y003345
X002007Y00327
Y00343
X003118Y00255
X00290299Y001805
X0039Y00277
X003898Y00380351
X004008Y00378
X004105Y00379
X00419Y003615
X00428Y004565
X00446Y004525
X00457Y00445
X004655Y00438
X0048Y0046
X001335Y001965
X003935Y00698
Y007075
X00403
Y00698
X004125
Y007075
Y00717
Y007265
Y00736
X00403
Y007265
X003935
Y00736
Y00717
X00403
X00512Y00804
X00584Y00829
X006025Y008475
X00635Y00907
X006745Y00888
X00705Y00777
X007Y00694
X00733Y00676
X007425Y00678
X0074942Y0064758
X00758Y00647
Y00629
X0077482Y0062118
X00805Y00613
X0080768Y0058918
X00803243Y0058154
X00782Y00558
X0076Y005635
X00749Y00565
X00739998Y00564999
X00734Y00579
X007225Y00581
X00725Y00605
Y00647
X00668Y00653
X00664Y00665
X00668Y00674
X008Y006805
X00809Y00687
X00802Y00712
X00828Y00717
X008195Y007405
X00801Y00776
X00854Y00706
X008685Y00698
X008405Y0069
X00880519Y00586456
X0062218Y0058118
X00557Y00563
X00925Y00845
X00844Y00932
X00955Y00791
X00977Y0068
X01016Y00684
X01053Y00672
X011Y00609
X01127Y00606
X0113Y00616
X01127Y00631
X01134Y00639
X01155Y00647
X01109Y00728
X01164Y00779
X01275Y00762
X012745Y006705
X01274Y00622
X00954433Y00655783
X00977Y00555
X011Y008795
Y008905
X01111
Y008795
X01099998Y00919498
X013575Y00776
X01357Y007045
X013585Y006325
X01434
X014355Y00704
X01435Y007765
X01538Y007255
X00958Y00945
X00919Y00981
T02
X0117236Y0085697
Y0088897
Y0091097
Y0093297
X0122316
Y0091097
Y0088897
Y0085697
X0125745
Y0088897
Y0091097
Y0093297
X0130825
Y0091097
Y0088897
Y0085697
X0134254
Y0088897
Y0091097
Y0093297
X0139334
Y0091097
Y0088897
Y0085697
X014289
Y0088897
Y0091097
Y0093297
X014797
Y0091097
Y0088897
Y0085697
T03
X0002973Y0003027
X0004973Y0002027
X0006973Y0003027
X0007973Y0005027
X0006973Y0007027
X0004973Y0008027
X0002973Y0007027
X0001973Y0005027
X000868Y000955
X005695Y000615
X010835Y00064
X0112Y001365
X015215Y00066
X015415Y00076
X015615Y00066
X015715Y00046
X015615Y00026
X015415Y00016
X015215Y00026
X015115Y00046
X01454Y003105
X01039Y00345
X01069Y004135
X009545Y003125
X00544Y003475
X00572Y00414
X00623Y00143
X004538Y003165
X00192Y004985
X001925Y00515
X00192065Y00532
X00107Y005325
X001065Y005135
X00107Y004975
X0007334Y00414
X000458Y00357
X001268Y001445
X00107Y005485
X001065Y005645
X00049Y009335
X00192065Y00564576
Y005489
X005345Y00815
X01105Y008255
X01114Y00834
X01139Y00846
X01151
X01159Y00857
X01542Y00935
X01562Y00945
X01572Y00965
X01562Y00985
X01542Y00995
X01522Y00985
X01512Y00965
X01522Y00945
X00069Y009435
X00079Y009635
X00069Y009835
X00049Y009935
X00029Y009835
X00019Y009635
X00029Y009435
T04
X01332Y00584
X01332Y006094
X01332Y00656
X01332Y006814
X01333Y00725
Y007504
X01407
Y00725
Y00681
Y006556
Y006084
Y00583
X01482Y00583
Y006084
Y00655
Y006804
Y007256
Y00751
X0143398Y0098055
X0134762
X0126126
X0117744
X0108981
X0100091
X008034Y00962
X00778
X006936Y0098
T05
X005345Y007668
Y007922
X006916Y008095
X00717
X009521Y007507
Y007253
X009775Y007253
Y007507
X010029Y007507
Y007253
X01072Y007228
Y007482
Y007736
Y00799
Y006974
X0137302Y0098055
X0139842
X0145938
X0148478
X0131206
X0128666
X0122824
X0120284
X0114061
X0111521
X0105171
X0102631
X007444Y0098
X00719
T06
X002165Y00695
Y0077
T07
X00194Y000795
X00229
X00264
X00299
X006935Y0008
X007285
X007635
X007985
X011905Y00079
X012255
X012605
X012955
X0142446Y001475
Y001975
X0092746Y00198
Y00148
X004288Y00148
Y00198
X00047Y006651
Y007159
T08
X0004973Y0005027
X015415Y00046
X01542Y00965
X00049Y009635
M30
