G04 Layer_Color=8388736*
%FSLAX44Y44*%
%MOMM*%
G71*
G01*
G75*
%ADD10C,1.1000*%
%ADD12C,1.0000*%
%ADD74R,0.8032X1.4032*%
%ADD75C,2.0000*%
%ADD76R,1.1532X1.2032*%
%ADD77R,0.9032X1.5032*%
%ADD78R,3.4032X1.7032*%
%ADD79R,1.5032X1.2032*%
%ADD80R,3.9032X2.6532*%
%ADD81R,2.5032X1.6032*%
%ADD82R,2.6032X3.3032*%
%ADD83R,5.8032X5.0032*%
%ADD84R,0.4032X0.9832*%
%ADD85R,0.9832X0.4032*%
%ADD86O,2.1832X0.7332*%
%ADD87R,2.1832X0.7332*%
%ADD88R,2.5032X2.1032*%
%ADD89R,2.0032X2.1032*%
%ADD90R,0.6032X1.6032*%
%ADD91R,1.2032X1.1532*%
%ADD92R,1.0032X1.0032*%
%ADD93R,1.9032X1.6032*%
%ADD94R,2.7032X1.9032*%
%ADD95R,3.7072X1.2192*%
%ADD96R,8.5832X10.6932*%
G04:AMPARAMS|DCode=97|XSize=0.6532mm|YSize=1.7032mm|CornerRadius=0.2141mm|HoleSize=0mm|Usage=FLASHONLY|Rotation=270.000|XOffset=0mm|YOffset=0mm|HoleType=Round|Shape=RoundedRectangle|*
%AMROUNDEDRECTD97*
21,1,0.6532,1.2750,0,0,270.0*
21,1,0.2250,1.7032,0,0,270.0*
1,1,0.4282,-0.6375,-0.1125*
1,1,0.4282,-0.6375,0.1125*
1,1,0.4282,0.6375,0.1125*
1,1,0.4282,0.6375,-0.1125*
%
%ADD97ROUNDEDRECTD97*%
%ADD98R,1.7032X0.6532*%
%ADD99R,2.1000X3.7000*%
%ADD100R,2.6032X1.7032*%
%ADD101R,3.1532X1.6032*%
%ADD102R,1.5032X0.9032*%
%ADD103R,1.0032X1.2032*%
%ADD104R,1.6032X1.9032*%
%ADD105O,0.7532X1.7032*%
%ADD106O,1.7032X0.7532*%
%ADD107R,1.0032X1.0032*%
%ADD108R,1.8032X3.0032*%
%ADD109O,0.4532X1.0032*%
%ADD110O,1.0032X0.4532*%
%ADD111R,2.3032X2.3032*%
%ADD112R,1.0032X1.1032*%
%ADD113R,1.0532X1.4032*%
%ADD114R,1.9052X1.1172*%
%ADD115R,2.7032X1.8032*%
%ADD116R,0.9632X1.4532*%
%ADD117C,2.4032*%
%ADD118C,1.7032*%
%ADD119C,1.0032*%
%ADD120C,2.0032*%
%ADD121C,2.2032*%
%ADD122C,2.7032*%
%ADD123C,8.2032*%
%ADD124C,0.8032*%
G36*
X298633Y244410D02*
X298764Y244384D01*
X298890Y244341D01*
X299009Y244282D01*
X299120Y244208D01*
X299220Y244120D01*
X299308Y244020D01*
X299382Y243909D01*
X299441Y243790D01*
X299483Y243664D01*
X299509Y243533D01*
X299518Y243400D01*
Y240518D01*
X305200Y240518D01*
X305333Y240509D01*
X305464Y240483D01*
X305590Y240441D01*
X305709Y240382D01*
X305820Y240308D01*
X305920Y240220D01*
X306008Y240120D01*
X306082Y240009D01*
X306141Y239890D01*
X306183Y239764D01*
X306209Y239633D01*
X306218Y239500D01*
Y217200D01*
X306209Y217067D01*
X306183Y216936D01*
X306141Y216810D01*
X306082Y216691D01*
X306008Y216580D01*
X305920Y216480D01*
X305820Y216392D01*
X305709Y216318D01*
X305590Y216259D01*
X305464Y216217D01*
X305333Y216191D01*
X305200Y216182D01*
X299618D01*
Y214500D01*
X299609Y214367D01*
X299583Y214237D01*
X299541Y214110D01*
X299482Y213991D01*
X299408Y213880D01*
X299320Y213780D01*
X299220Y213692D01*
X299109Y213618D01*
X298990Y213559D01*
X298864Y213517D01*
X298733Y213491D01*
X298600Y213482D01*
X298418D01*
Y207200D01*
X298409Y207067D01*
X298384Y206936D01*
X298341Y206810D01*
X298282Y206691D01*
X298208Y206580D01*
X298120Y206480D01*
X298020Y206392D01*
X297909Y206318D01*
X297790Y206259D01*
X297663Y206217D01*
X297533Y206190D01*
X297400Y206182D01*
X282100D01*
X281967Y206190D01*
X281836Y206217D01*
X281710Y206259D01*
X281591Y206318D01*
X281480Y206392D01*
X281380Y206480D01*
X281292Y206580D01*
X281218Y206691D01*
X281159Y206810D01*
X281117Y206936D01*
X281091Y207067D01*
X281082Y207200D01*
Y213482D01*
X276600D01*
X276467Y213491D01*
X276336Y213517D01*
X276210Y213559D01*
X276091Y213618D01*
X275980Y213692D01*
X275880Y213780D01*
X275792Y213880D01*
X275718Y213991D01*
X275659Y214110D01*
X275616Y214237D01*
X275590Y214367D01*
X275582Y214500D01*
Y243400D01*
X275590Y243533D01*
X275616Y243664D01*
X275659Y243790D01*
X275718Y243909D01*
X275792Y244020D01*
X275880Y244120D01*
X275980Y244208D01*
X276091Y244282D01*
X276210Y244341D01*
X276336Y244384D01*
X276467Y244410D01*
X276600Y244418D01*
X298500D01*
X298633Y244410D01*
D02*
G37*
G36*
X797293Y244410D02*
X797423Y244384D01*
X797550Y244341D01*
X797669Y244282D01*
X797780Y244208D01*
X797880Y244120D01*
X797968Y244020D01*
X798042Y243909D01*
X798101Y243790D01*
X798143Y243664D01*
X798169Y243533D01*
X798178Y243400D01*
Y240518D01*
X803860Y240518D01*
X803993Y240509D01*
X804124Y240483D01*
X804250Y240441D01*
X804369Y240382D01*
X804480Y240308D01*
X804580Y240220D01*
X804668Y240120D01*
X804742Y240009D01*
X804801Y239890D01*
X804843Y239764D01*
X804869Y239633D01*
X804878Y239500D01*
Y217200D01*
X804869Y217067D01*
X804843Y216936D01*
X804801Y216810D01*
X804742Y216691D01*
X804668Y216580D01*
X804580Y216480D01*
X804480Y216392D01*
X804369Y216318D01*
X804250Y216259D01*
X804124Y216217D01*
X803993Y216190D01*
X803860Y216182D01*
X798278D01*
Y214500D01*
X798269Y214367D01*
X798243Y214237D01*
X798201Y214110D01*
X798142Y213991D01*
X798068Y213880D01*
X797980Y213780D01*
X797880Y213692D01*
X797769Y213618D01*
X797650Y213559D01*
X797523Y213517D01*
X797393Y213491D01*
X797260Y213482D01*
X797078D01*
Y207200D01*
X797069Y207067D01*
X797043Y206936D01*
X797001Y206810D01*
X796942Y206691D01*
X796868Y206580D01*
X796780Y206480D01*
X796680Y206392D01*
X796569Y206318D01*
X796450Y206259D01*
X796323Y206217D01*
X796193Y206190D01*
X796060Y206182D01*
X780760D01*
X780627Y206190D01*
X780496Y206217D01*
X780370Y206259D01*
X780251Y206318D01*
X780140Y206392D01*
X780040Y206480D01*
X779952Y206580D01*
X779878Y206691D01*
X779819Y206810D01*
X779777Y206936D01*
X779751Y207067D01*
X779742Y207200D01*
Y213482D01*
X775260D01*
X775127Y213491D01*
X774996Y213517D01*
X774870Y213559D01*
X774751Y213618D01*
X774640Y213692D01*
X774540Y213780D01*
X774452Y213880D01*
X774378Y213991D01*
X774319Y214110D01*
X774277Y214237D01*
X774250Y214367D01*
X774242Y214500D01*
Y243400D01*
X774250Y243533D01*
X774277Y243664D01*
X774319Y243790D01*
X774378Y243909D01*
X774452Y244020D01*
X774540Y244120D01*
X774640Y244208D01*
X774751Y244282D01*
X774870Y244341D01*
X774996Y244384D01*
X775127Y244410D01*
X775260Y244418D01*
X797160D01*
X797293Y244410D01*
D02*
G37*
G36*
X267333Y221110D02*
X267463Y221084D01*
X267590Y221041D01*
X267709Y220982D01*
X267820Y220908D01*
X267920Y220820D01*
X268008Y220720D01*
X268082Y220609D01*
X268141Y220490D01*
X268183Y220364D01*
X268209Y220233D01*
X268218Y220100D01*
Y207100D01*
X268209Y206967D01*
X268183Y206836D01*
X268141Y206710D01*
X268082Y206591D01*
X268008Y206480D01*
X267920Y206380D01*
X267820Y206292D01*
X267709Y206218D01*
X267590Y206159D01*
X267463Y206117D01*
X267333Y206091D01*
X267200Y206082D01*
X254600D01*
X254467Y206091D01*
X254336Y206117D01*
X254210Y206159D01*
X254091Y206218D01*
X253980Y206292D01*
X253880Y206380D01*
X253792Y206480D01*
X253718Y206591D01*
X253659Y206710D01*
X253617Y206836D01*
X253591Y206967D01*
X253582Y207100D01*
Y220100D01*
X253591Y220233D01*
X253617Y220364D01*
X253659Y220490D01*
X253718Y220609D01*
X253792Y220720D01*
X253880Y220820D01*
X253980Y220908D01*
X254091Y220982D01*
X254210Y221041D01*
X254336Y221084D01*
X254467Y221110D01*
X254600Y221118D01*
X267200D01*
X267333Y221110D01*
D02*
G37*
G36*
X216933Y244410D02*
X217064Y244384D01*
X217190Y244341D01*
X217309Y244282D01*
X217420Y244208D01*
X217520Y244120D01*
X217608Y244020D01*
X217682Y243909D01*
X217741Y243790D01*
X217784Y243664D01*
X217810Y243533D01*
X217818Y243400D01*
Y214500D01*
X217810Y214367D01*
X217784Y214237D01*
X217741Y214110D01*
X217682Y213991D01*
X217608Y213880D01*
X217520Y213780D01*
X217420Y213692D01*
X217309Y213618D01*
X217190Y213559D01*
X217064Y213517D01*
X216933Y213491D01*
X216800Y213482D01*
X212318D01*
Y207200D01*
X212309Y207067D01*
X212283Y206936D01*
X212241Y206810D01*
X212182Y206691D01*
X212108Y206580D01*
X212020Y206480D01*
X211920Y206392D01*
X211809Y206318D01*
X211690Y206259D01*
X211563Y206217D01*
X211433Y206190D01*
X211300Y206182D01*
X196000D01*
X195867Y206190D01*
X195737Y206217D01*
X195610Y206259D01*
X195491Y206318D01*
X195380Y206392D01*
X195280Y206480D01*
X195192Y206580D01*
X195118Y206691D01*
X195059Y206810D01*
X195016Y206936D01*
X194991Y207067D01*
X194982Y207200D01*
Y213482D01*
X194800D01*
X194667Y213491D01*
X194536Y213517D01*
X194410Y213559D01*
X194291Y213618D01*
X194180Y213692D01*
X194080Y213780D01*
X193992Y213880D01*
X193918Y213991D01*
X193859Y214110D01*
X193817Y214237D01*
X193790Y214367D01*
X193782Y214500D01*
Y216182D01*
X188200Y216182D01*
X188067Y216191D01*
X187936Y216217D01*
X187810Y216259D01*
X187691Y216318D01*
X187580Y216392D01*
X187480Y216480D01*
X187392Y216580D01*
X187318Y216691D01*
X187259Y216810D01*
X187216Y216936D01*
X187190Y217067D01*
X187182Y217200D01*
Y239500D01*
X187190Y239633D01*
X187216Y239764D01*
X187259Y239890D01*
X187318Y240009D01*
X187392Y240120D01*
X187480Y240220D01*
X187580Y240308D01*
X187691Y240382D01*
X187810Y240441D01*
X187936Y240484D01*
X188067Y240510D01*
X188200Y240518D01*
X193882Y240518D01*
Y243400D01*
X193890Y243533D01*
X193916Y243664D01*
X193959Y243790D01*
X194018Y243909D01*
X194092Y244020D01*
X194180Y244120D01*
X194280Y244208D01*
X194391Y244282D01*
X194510Y244341D01*
X194636Y244384D01*
X194767Y244410D01*
X194900Y244418D01*
X216800D01*
X216933Y244410D01*
D02*
G37*
G36*
X715593Y244410D02*
X715723Y244384D01*
X715850Y244341D01*
X715969Y244282D01*
X716080Y244208D01*
X716180Y244120D01*
X716268Y244020D01*
X716342Y243909D01*
X716401Y243790D01*
X716443Y243664D01*
X716469Y243533D01*
X716478Y243400D01*
Y214500D01*
X716469Y214367D01*
X716443Y214237D01*
X716401Y214110D01*
X716342Y213991D01*
X716268Y213880D01*
X716180Y213780D01*
X716080Y213692D01*
X715969Y213618D01*
X715850Y213559D01*
X715723Y213517D01*
X715593Y213491D01*
X715460Y213482D01*
X710978D01*
Y207200D01*
X710969Y207067D01*
X710944Y206936D01*
X710901Y206810D01*
X710842Y206691D01*
X710768Y206580D01*
X710680Y206480D01*
X710580Y206392D01*
X710469Y206318D01*
X710350Y206259D01*
X710223Y206217D01*
X710093Y206190D01*
X709960Y206182D01*
X694660D01*
X694527Y206190D01*
X694397Y206217D01*
X694270Y206259D01*
X694151Y206318D01*
X694040Y206392D01*
X693940Y206480D01*
X693852Y206580D01*
X693778Y206691D01*
X693719Y206810D01*
X693677Y206936D01*
X693651Y207067D01*
X693642Y207200D01*
Y213482D01*
X693460D01*
X693327Y213491D01*
X693196Y213517D01*
X693070Y213559D01*
X692951Y213618D01*
X692840Y213692D01*
X692740Y213780D01*
X692652Y213880D01*
X692578Y213991D01*
X692519Y214110D01*
X692477Y214237D01*
X692450Y214367D01*
X692442Y214500D01*
Y216182D01*
X686860Y216182D01*
X686727Y216191D01*
X686596Y216217D01*
X686470Y216259D01*
X686351Y216318D01*
X686240Y216392D01*
X686140Y216480D01*
X686052Y216580D01*
X685978Y216691D01*
X685919Y216810D01*
X685876Y216936D01*
X685851Y217067D01*
X685842Y217200D01*
Y239500D01*
X685851Y239633D01*
X685876Y239764D01*
X685919Y239890D01*
X685978Y240009D01*
X686052Y240120D01*
X686140Y240220D01*
X686240Y240308D01*
X686351Y240382D01*
X686470Y240441D01*
X686596Y240484D01*
X686727Y240510D01*
X686860Y240518D01*
X692542Y240518D01*
Y243400D01*
X692551Y243533D01*
X692577Y243664D01*
X692619Y243790D01*
X692678Y243909D01*
X692752Y244020D01*
X692840Y244120D01*
X692940Y244208D01*
X693051Y244282D01*
X693170Y244341D01*
X693297Y244384D01*
X693427Y244410D01*
X693560Y244418D01*
X715460D01*
X715593Y244410D01*
D02*
G37*
G36*
X1212593Y243909D02*
X1212723Y243883D01*
X1212850Y243841D01*
X1212969Y243782D01*
X1213080Y243708D01*
X1213180Y243620D01*
X1213268Y243520D01*
X1213342Y243409D01*
X1213401Y243290D01*
X1213444Y243164D01*
X1213469Y243033D01*
X1213478Y242900D01*
Y214000D01*
X1213469Y213867D01*
X1213444Y213736D01*
X1213401Y213610D01*
X1213342Y213491D01*
X1213268Y213380D01*
X1213180Y213280D01*
X1213080Y213192D01*
X1212969Y213118D01*
X1212850Y213059D01*
X1212723Y213016D01*
X1212593Y212990D01*
X1212460Y212982D01*
X1207978D01*
Y206700D01*
X1207970Y206567D01*
X1207943Y206437D01*
X1207901Y206310D01*
X1207842Y206191D01*
X1207768Y206080D01*
X1207680Y205980D01*
X1207580Y205892D01*
X1207469Y205818D01*
X1207350Y205759D01*
X1207224Y205716D01*
X1207093Y205690D01*
X1206960Y205682D01*
X1191660D01*
X1191527Y205690D01*
X1191396Y205716D01*
X1191270Y205759D01*
X1191151Y205818D01*
X1191040Y205892D01*
X1190940Y205980D01*
X1190852Y206080D01*
X1190778Y206191D01*
X1190719Y206310D01*
X1190676Y206437D01*
X1190650Y206567D01*
X1190642Y206700D01*
Y212982D01*
X1190460D01*
X1190327Y212990D01*
X1190197Y213016D01*
X1190070Y213059D01*
X1189951Y213118D01*
X1189840Y213192D01*
X1189740Y213280D01*
X1189652Y213380D01*
X1189578Y213491D01*
X1189519Y213610D01*
X1189476Y213736D01*
X1189451Y213867D01*
X1189442Y214000D01*
Y215682D01*
X1183860Y215682D01*
X1183727Y215691D01*
X1183596Y215717D01*
X1183470Y215759D01*
X1183351Y215818D01*
X1183240Y215892D01*
X1183140Y215980D01*
X1183052Y216080D01*
X1182978Y216191D01*
X1182919Y216310D01*
X1182877Y216437D01*
X1182850Y216567D01*
X1182842Y216700D01*
Y239000D01*
X1182850Y239133D01*
X1182877Y239264D01*
X1182919Y239390D01*
X1182978Y239509D01*
X1183052Y239620D01*
X1183140Y239720D01*
X1183240Y239808D01*
X1183351Y239882D01*
X1183470Y239941D01*
X1183596Y239984D01*
X1183727Y240010D01*
X1183860Y240018D01*
X1189542Y240018D01*
Y242900D01*
X1189550Y243033D01*
X1189576Y243164D01*
X1189619Y243290D01*
X1189678Y243409D01*
X1189752Y243520D01*
X1189840Y243620D01*
X1189940Y243708D01*
X1190051Y243782D01*
X1190170Y243841D01*
X1190296Y243883D01*
X1190427Y243909D01*
X1190560Y243918D01*
X1212460D01*
X1212593Y243909D01*
D02*
G37*
G36*
X1294293D02*
X1294424Y243883D01*
X1294550Y243841D01*
X1294669Y243782D01*
X1294780Y243708D01*
X1294880Y243620D01*
X1294968Y243520D01*
X1295042Y243409D01*
X1295101Y243290D01*
X1295143Y243164D01*
X1295169Y243033D01*
X1295178Y242900D01*
Y240018D01*
X1300860Y240018D01*
X1300993Y240009D01*
X1301124Y239984D01*
X1301250Y239941D01*
X1301369Y239882D01*
X1301480Y239808D01*
X1301580Y239720D01*
X1301668Y239620D01*
X1301742Y239509D01*
X1301801Y239390D01*
X1301843Y239264D01*
X1301869Y239133D01*
X1301878Y239000D01*
Y216700D01*
X1301869Y216567D01*
X1301843Y216437D01*
X1301801Y216310D01*
X1301742Y216191D01*
X1301668Y216080D01*
X1301580Y215980D01*
X1301480Y215892D01*
X1301369Y215818D01*
X1301250Y215759D01*
X1301124Y215716D01*
X1300993Y215690D01*
X1300860Y215682D01*
X1295278D01*
Y214000D01*
X1295269Y213867D01*
X1295243Y213736D01*
X1295201Y213610D01*
X1295142Y213491D01*
X1295068Y213380D01*
X1294980Y213280D01*
X1294880Y213192D01*
X1294769Y213118D01*
X1294650Y213059D01*
X1294523Y213016D01*
X1294393Y212990D01*
X1294260Y212982D01*
X1294078D01*
Y206700D01*
X1294069Y206567D01*
X1294043Y206437D01*
X1294001Y206310D01*
X1293942Y206191D01*
X1293868Y206080D01*
X1293780Y205980D01*
X1293680Y205892D01*
X1293569Y205818D01*
X1293450Y205759D01*
X1293324Y205716D01*
X1293193Y205690D01*
X1293060Y205682D01*
X1277760D01*
X1277627Y205690D01*
X1277496Y205716D01*
X1277370Y205759D01*
X1277251Y205818D01*
X1277140Y205892D01*
X1277040Y205980D01*
X1276952Y206080D01*
X1276878Y206191D01*
X1276819Y206310D01*
X1276777Y206437D01*
X1276750Y206567D01*
X1276742Y206700D01*
Y212982D01*
X1272260D01*
X1272127Y212990D01*
X1271996Y213016D01*
X1271870Y213059D01*
X1271751Y213118D01*
X1271640Y213192D01*
X1271540Y213280D01*
X1271452Y213380D01*
X1271378Y213491D01*
X1271319Y213610D01*
X1271276Y213736D01*
X1271251Y213867D01*
X1271242Y214000D01*
Y242900D01*
X1271251Y243033D01*
X1271276Y243164D01*
X1271319Y243290D01*
X1271378Y243409D01*
X1271452Y243520D01*
X1271540Y243620D01*
X1271640Y243708D01*
X1271751Y243782D01*
X1271870Y243841D01*
X1271996Y243883D01*
X1272127Y243909D01*
X1272260Y243918D01*
X1294160D01*
X1294293Y243909D01*
D02*
G37*
G36*
X1262993Y220609D02*
X1263123Y220583D01*
X1263250Y220541D01*
X1263369Y220482D01*
X1263480Y220408D01*
X1263580Y220320D01*
X1263668Y220220D01*
X1263742Y220109D01*
X1263801Y219990D01*
X1263843Y219863D01*
X1263869Y219733D01*
X1263878Y219600D01*
Y206600D01*
X1263869Y206467D01*
X1263843Y206336D01*
X1263801Y206210D01*
X1263742Y206091D01*
X1263668Y205980D01*
X1263580Y205880D01*
X1263480Y205792D01*
X1263369Y205718D01*
X1263250Y205659D01*
X1263123Y205616D01*
X1262993Y205590D01*
X1262860Y205582D01*
X1250260D01*
X1250127Y205590D01*
X1249996Y205616D01*
X1249870Y205659D01*
X1249751Y205718D01*
X1249640Y205792D01*
X1249540Y205880D01*
X1249452Y205980D01*
X1249378Y206091D01*
X1249319Y206210D01*
X1249277Y206336D01*
X1249250Y206467D01*
X1249242Y206600D01*
Y219600D01*
X1249250Y219733D01*
X1249277Y219863D01*
X1249319Y219990D01*
X1249378Y220109D01*
X1249452Y220220D01*
X1249540Y220320D01*
X1249640Y220408D01*
X1249751Y220482D01*
X1249870Y220541D01*
X1249996Y220583D01*
X1250127Y220609D01*
X1250260Y220618D01*
X1262860D01*
X1262993Y220609D01*
D02*
G37*
G36*
X1234593D02*
X1234724Y220583D01*
X1234850Y220541D01*
X1234969Y220482D01*
X1235080Y220408D01*
X1235180Y220320D01*
X1235268Y220220D01*
X1235342Y220109D01*
X1235401Y219990D01*
X1235443Y219863D01*
X1235469Y219733D01*
X1235478Y219600D01*
Y206600D01*
X1235469Y206467D01*
X1235443Y206336D01*
X1235401Y206210D01*
X1235342Y206091D01*
X1235268Y205980D01*
X1235180Y205880D01*
X1235080Y205792D01*
X1234969Y205718D01*
X1234850Y205659D01*
X1234724Y205616D01*
X1234593Y205590D01*
X1234460Y205582D01*
X1221860D01*
X1221727Y205590D01*
X1221597Y205616D01*
X1221470Y205659D01*
X1221351Y205718D01*
X1221240Y205792D01*
X1221140Y205880D01*
X1221052Y205980D01*
X1220978Y206091D01*
X1220919Y206210D01*
X1220876Y206336D01*
X1220851Y206467D01*
X1220842Y206600D01*
Y219600D01*
X1220851Y219733D01*
X1220876Y219863D01*
X1220919Y219990D01*
X1220978Y220109D01*
X1221052Y220220D01*
X1221140Y220320D01*
X1221240Y220408D01*
X1221351Y220482D01*
X1221470Y220541D01*
X1221597Y220583D01*
X1221727Y220609D01*
X1221860Y220618D01*
X1234460D01*
X1234593Y220609D01*
D02*
G37*
G36*
X238933Y221110D02*
X239063Y221084D01*
X239190Y221041D01*
X239309Y220982D01*
X239420Y220908D01*
X239520Y220820D01*
X239608Y220720D01*
X239682Y220609D01*
X239741Y220490D01*
X239783Y220364D01*
X239809Y220233D01*
X239818Y220100D01*
Y207100D01*
X239809Y206967D01*
X239783Y206836D01*
X239741Y206710D01*
X239682Y206591D01*
X239608Y206480D01*
X239520Y206380D01*
X239420Y206292D01*
X239309Y206218D01*
X239190Y206159D01*
X239063Y206117D01*
X238933Y206091D01*
X238800Y206082D01*
X226200D01*
X226067Y206091D01*
X225937Y206117D01*
X225810Y206159D01*
X225691Y206218D01*
X225580Y206292D01*
X225480Y206380D01*
X225392Y206480D01*
X225318Y206591D01*
X225259Y206710D01*
X225217Y206836D01*
X225191Y206967D01*
X225182Y207100D01*
Y220100D01*
X225191Y220233D01*
X225217Y220364D01*
X225259Y220490D01*
X225318Y220609D01*
X225392Y220720D01*
X225480Y220820D01*
X225580Y220908D01*
X225691Y220982D01*
X225810Y221041D01*
X225937Y221084D01*
X226067Y221110D01*
X226200Y221118D01*
X238800D01*
X238933Y221110D01*
D02*
G37*
G36*
X765993Y221110D02*
X766124Y221084D01*
X766250Y221041D01*
X766369Y220982D01*
X766480Y220908D01*
X766580Y220820D01*
X766668Y220720D01*
X766742Y220609D01*
X766801Y220490D01*
X766843Y220364D01*
X766869Y220233D01*
X766878Y220100D01*
Y207100D01*
X766869Y206967D01*
X766843Y206836D01*
X766801Y206710D01*
X766742Y206591D01*
X766668Y206480D01*
X766580Y206380D01*
X766480Y206292D01*
X766369Y206218D01*
X766250Y206159D01*
X766124Y206117D01*
X765993Y206091D01*
X765860Y206082D01*
X753260D01*
X753127Y206091D01*
X752997Y206117D01*
X752870Y206159D01*
X752751Y206218D01*
X752640Y206292D01*
X752540Y206380D01*
X752452Y206480D01*
X752378Y206591D01*
X752319Y206710D01*
X752277Y206836D01*
X752251Y206967D01*
X752242Y207100D01*
Y220100D01*
X752251Y220233D01*
X752277Y220364D01*
X752319Y220490D01*
X752378Y220609D01*
X752452Y220720D01*
X752540Y220820D01*
X752640Y220908D01*
X752751Y220982D01*
X752870Y221041D01*
X752997Y221084D01*
X753127Y221110D01*
X753260Y221118D01*
X765860D01*
X765993Y221110D01*
D02*
G37*
G36*
X737593D02*
X737723Y221084D01*
X737850Y221041D01*
X737969Y220982D01*
X738080Y220908D01*
X738180Y220820D01*
X738268Y220720D01*
X738342Y220609D01*
X738401Y220490D01*
X738444Y220364D01*
X738469Y220233D01*
X738478Y220100D01*
Y207100D01*
X738469Y206967D01*
X738444Y206836D01*
X738401Y206710D01*
X738342Y206591D01*
X738268Y206480D01*
X738180Y206380D01*
X738080Y206292D01*
X737969Y206218D01*
X737850Y206159D01*
X737723Y206117D01*
X737593Y206091D01*
X737460Y206082D01*
X724860D01*
X724727Y206091D01*
X724596Y206117D01*
X724470Y206159D01*
X724351Y206218D01*
X724240Y206292D01*
X724140Y206380D01*
X724052Y206480D01*
X723978Y206591D01*
X723919Y206710D01*
X723876Y206836D01*
X723850Y206967D01*
X723842Y207100D01*
Y220100D01*
X723850Y220233D01*
X723876Y220364D01*
X723919Y220490D01*
X723978Y220609D01*
X724052Y220720D01*
X724140Y220820D01*
X724240Y220908D01*
X724351Y220982D01*
X724470Y221041D01*
X724596Y221084D01*
X724727Y221110D01*
X724860Y221118D01*
X737460D01*
X737593Y221110D01*
D02*
G37*
G36*
X737593Y356909D02*
X737723Y356884D01*
X737850Y356841D01*
X737969Y356782D01*
X738080Y356708D01*
X738180Y356620D01*
X738268Y356520D01*
X738342Y356409D01*
X738401Y356290D01*
X738443Y356163D01*
X738469Y356033D01*
X738478Y355900D01*
Y342900D01*
X738469Y342767D01*
X738443Y342636D01*
X738401Y342510D01*
X738342Y342391D01*
X738268Y342280D01*
X738180Y342180D01*
X738080Y342092D01*
X737969Y342018D01*
X737850Y341959D01*
X737723Y341917D01*
X737593Y341890D01*
X737460Y341882D01*
X724860D01*
X724727Y341890D01*
X724596Y341917D01*
X724470Y341959D01*
X724351Y342018D01*
X724240Y342092D01*
X724140Y342180D01*
X724052Y342280D01*
X723978Y342391D01*
X723919Y342510D01*
X723876Y342636D01*
X723850Y342767D01*
X723842Y342900D01*
Y355900D01*
X723850Y356033D01*
X723876Y356163D01*
X723919Y356290D01*
X723978Y356409D01*
X724052Y356520D01*
X724140Y356620D01*
X724240Y356708D01*
X724351Y356782D01*
X724470Y356841D01*
X724596Y356884D01*
X724727Y356909D01*
X724860Y356918D01*
X737460D01*
X737593Y356909D01*
D02*
G37*
G36*
X1262993Y356409D02*
X1263123Y356384D01*
X1263250Y356341D01*
X1263369Y356282D01*
X1263480Y356208D01*
X1263580Y356120D01*
X1263668Y356020D01*
X1263742Y355909D01*
X1263801Y355790D01*
X1263843Y355663D01*
X1263869Y355533D01*
X1263878Y355400D01*
Y342400D01*
X1263869Y342267D01*
X1263843Y342136D01*
X1263801Y342010D01*
X1263742Y341891D01*
X1263668Y341780D01*
X1263580Y341680D01*
X1263480Y341592D01*
X1263369Y341518D01*
X1263250Y341459D01*
X1263123Y341417D01*
X1262993Y341390D01*
X1262860Y341382D01*
X1250260D01*
X1250127Y341390D01*
X1249996Y341417D01*
X1249870Y341459D01*
X1249751Y341518D01*
X1249640Y341592D01*
X1249540Y341680D01*
X1249452Y341780D01*
X1249378Y341891D01*
X1249319Y342010D01*
X1249277Y342136D01*
X1249250Y342267D01*
X1249242Y342400D01*
Y355400D01*
X1249250Y355533D01*
X1249277Y355663D01*
X1249319Y355790D01*
X1249378Y355909D01*
X1249452Y356020D01*
X1249540Y356120D01*
X1249640Y356208D01*
X1249751Y356282D01*
X1249870Y356341D01*
X1249996Y356384D01*
X1250127Y356409D01*
X1250260Y356418D01*
X1262860D01*
X1262993Y356409D01*
D02*
G37*
G36*
X1234593Y356409D02*
X1234724Y356384D01*
X1234850Y356341D01*
X1234969Y356282D01*
X1235080Y356208D01*
X1235180Y356120D01*
X1235268Y356020D01*
X1235342Y355909D01*
X1235401Y355790D01*
X1235443Y355663D01*
X1235469Y355533D01*
X1235478Y355400D01*
Y342400D01*
X1235469Y342267D01*
X1235443Y342136D01*
X1235401Y342010D01*
X1235342Y341891D01*
X1235268Y341780D01*
X1235180Y341680D01*
X1235080Y341592D01*
X1234969Y341518D01*
X1234850Y341459D01*
X1234724Y341417D01*
X1234593Y341390D01*
X1234460Y341382D01*
X1221860D01*
X1221727Y341390D01*
X1221596Y341417D01*
X1221470Y341459D01*
X1221351Y341518D01*
X1221240Y341592D01*
X1221140Y341680D01*
X1221052Y341780D01*
X1220978Y341891D01*
X1220919Y342010D01*
X1220876Y342136D01*
X1220851Y342267D01*
X1220842Y342400D01*
Y355400D01*
X1220851Y355533D01*
X1220876Y355663D01*
X1220919Y355790D01*
X1220978Y355909D01*
X1221052Y356020D01*
X1221140Y356120D01*
X1221240Y356208D01*
X1221351Y356282D01*
X1221470Y356341D01*
X1221596Y356384D01*
X1221727Y356409D01*
X1221860Y356418D01*
X1234460D01*
X1234593Y356409D01*
D02*
G37*
G36*
X267333Y356909D02*
X267463Y356884D01*
X267590Y356841D01*
X267709Y356782D01*
X267820Y356708D01*
X267920Y356620D01*
X268008Y356520D01*
X268082Y356409D01*
X268141Y356290D01*
X268183Y356163D01*
X268209Y356033D01*
X268218Y355900D01*
Y342900D01*
X268209Y342767D01*
X268183Y342636D01*
X268141Y342510D01*
X268082Y342391D01*
X268008Y342280D01*
X267920Y342180D01*
X267820Y342092D01*
X267709Y342018D01*
X267590Y341959D01*
X267463Y341917D01*
X267333Y341891D01*
X267200Y341882D01*
X254600D01*
X254467Y341891D01*
X254336Y341917D01*
X254210Y341959D01*
X254091Y342018D01*
X253980Y342092D01*
X253880Y342180D01*
X253792Y342280D01*
X253718Y342391D01*
X253659Y342510D01*
X253617Y342636D01*
X253591Y342767D01*
X253582Y342900D01*
Y355900D01*
X253591Y356033D01*
X253617Y356163D01*
X253659Y356290D01*
X253718Y356409D01*
X253792Y356520D01*
X253880Y356620D01*
X253980Y356708D01*
X254091Y356782D01*
X254210Y356841D01*
X254336Y356884D01*
X254467Y356909D01*
X254600Y356918D01*
X267200D01*
X267333Y356909D01*
D02*
G37*
G36*
X765993Y356909D02*
X766124Y356884D01*
X766250Y356841D01*
X766369Y356782D01*
X766480Y356708D01*
X766580Y356620D01*
X766668Y356520D01*
X766742Y356409D01*
X766801Y356290D01*
X766843Y356163D01*
X766869Y356033D01*
X766878Y355900D01*
Y342900D01*
X766869Y342767D01*
X766843Y342636D01*
X766801Y342510D01*
X766742Y342391D01*
X766668Y342280D01*
X766580Y342180D01*
X766480Y342092D01*
X766369Y342018D01*
X766250Y341959D01*
X766124Y341917D01*
X765993Y341890D01*
X765860Y341882D01*
X753260D01*
X753127Y341890D01*
X752997Y341917D01*
X752870Y341959D01*
X752751Y342018D01*
X752640Y342092D01*
X752540Y342180D01*
X752452Y342280D01*
X752378Y342391D01*
X752319Y342510D01*
X752277Y342636D01*
X752251Y342767D01*
X752242Y342900D01*
Y355900D01*
X752251Y356033D01*
X752277Y356163D01*
X752319Y356290D01*
X752378Y356409D01*
X752452Y356520D01*
X752540Y356620D01*
X752640Y356708D01*
X752751Y356782D01*
X752870Y356841D01*
X752997Y356884D01*
X753127Y356909D01*
X753260Y356918D01*
X765860D01*
X765993Y356909D01*
D02*
G37*
G36*
X238933D02*
X239063Y356884D01*
X239190Y356841D01*
X239309Y356782D01*
X239420Y356708D01*
X239520Y356620D01*
X239608Y356520D01*
X239682Y356409D01*
X239741Y356290D01*
X239783Y356163D01*
X239809Y356033D01*
X239818Y355900D01*
Y342900D01*
X239809Y342767D01*
X239783Y342636D01*
X239741Y342510D01*
X239682Y342391D01*
X239608Y342280D01*
X239520Y342180D01*
X239420Y342092D01*
X239309Y342018D01*
X239190Y341959D01*
X239063Y341917D01*
X238933Y341890D01*
X238800Y341882D01*
X226200D01*
X226067Y341890D01*
X225937Y341917D01*
X225810Y341959D01*
X225691Y342018D01*
X225580Y342092D01*
X225480Y342180D01*
X225392Y342280D01*
X225318Y342391D01*
X225259Y342510D01*
X225217Y342636D01*
X225191Y342767D01*
X225182Y342900D01*
Y355900D01*
X225191Y356033D01*
X225217Y356163D01*
X225259Y356290D01*
X225318Y356409D01*
X225392Y356520D01*
X225480Y356620D01*
X225580Y356708D01*
X225691Y356782D01*
X225810Y356841D01*
X225937Y356884D01*
X226067Y356909D01*
X226200Y356918D01*
X238800D01*
X238933Y356909D01*
D02*
G37*
G36*
X710093Y356810D02*
X710223Y356783D01*
X710350Y356741D01*
X710469Y356682D01*
X710580Y356608D01*
X710680Y356520D01*
X710768Y356420D01*
X710842Y356309D01*
X710901Y356190D01*
X710944Y356063D01*
X710969Y355933D01*
X710978Y355800D01*
Y349518D01*
X715460D01*
X715593Y349510D01*
X715723Y349483D01*
X715850Y349441D01*
X715969Y349382D01*
X716080Y349308D01*
X716180Y349220D01*
X716268Y349120D01*
X716342Y349009D01*
X716401Y348890D01*
X716443Y348764D01*
X716469Y348633D01*
X716478Y348500D01*
Y319600D01*
X716469Y319467D01*
X716443Y319336D01*
X716401Y319210D01*
X716342Y319091D01*
X716268Y318980D01*
X716180Y318880D01*
X716080Y318792D01*
X715969Y318718D01*
X715850Y318659D01*
X715723Y318617D01*
X715593Y318591D01*
X715460Y318582D01*
X693560D01*
X693427Y318591D01*
X693297Y318617D01*
X693170Y318659D01*
X693051Y318718D01*
X692940Y318792D01*
X692840Y318880D01*
X692752Y318980D01*
X692678Y319091D01*
X692619Y319210D01*
X692577Y319336D01*
X692551Y319467D01*
X692542Y319600D01*
Y322482D01*
X686860Y322482D01*
X686727Y322491D01*
X686597Y322517D01*
X686470Y322559D01*
X686351Y322618D01*
X686240Y322692D01*
X686140Y322780D01*
X686052Y322880D01*
X685978Y322991D01*
X685919Y323110D01*
X685876Y323236D01*
X685851Y323367D01*
X685842Y323500D01*
Y345800D01*
X685851Y345933D01*
X685876Y346063D01*
X685919Y346190D01*
X685978Y346309D01*
X686052Y346420D01*
X686140Y346520D01*
X686240Y346608D01*
X686351Y346682D01*
X686470Y346741D01*
X686597Y346783D01*
X686727Y346810D01*
X686860Y346818D01*
X692442D01*
Y348500D01*
X692450Y348633D01*
X692477Y348764D01*
X692519Y348890D01*
X692578Y349009D01*
X692652Y349120D01*
X692740Y349220D01*
X692840Y349308D01*
X692951Y349382D01*
X693070Y349441D01*
X693196Y349483D01*
X693327Y349510D01*
X693460Y349518D01*
X693642D01*
Y355800D01*
X693651Y355933D01*
X693677Y356063D01*
X693719Y356190D01*
X693778Y356309D01*
X693852Y356420D01*
X693940Y356520D01*
X694040Y356608D01*
X694151Y356682D01*
X694270Y356741D01*
X694397Y356783D01*
X694527Y356810D01*
X694660Y356818D01*
X709960D01*
X710093Y356810D01*
D02*
G37*
G36*
X1293193Y356310D02*
X1293324Y356283D01*
X1293450Y356241D01*
X1293569Y356182D01*
X1293680Y356108D01*
X1293780Y356020D01*
X1293868Y355920D01*
X1293942Y355809D01*
X1294001Y355690D01*
X1294043Y355564D01*
X1294069Y355433D01*
X1294078Y355300D01*
Y349018D01*
X1294260D01*
X1294393Y349010D01*
X1294523Y348983D01*
X1294650Y348941D01*
X1294769Y348882D01*
X1294880Y348808D01*
X1294980Y348720D01*
X1295068Y348620D01*
X1295142Y348509D01*
X1295201Y348390D01*
X1295243Y348264D01*
X1295269Y348133D01*
X1295278Y348000D01*
Y346318D01*
X1300860D01*
X1300993Y346310D01*
X1301124Y346283D01*
X1301250Y346241D01*
X1301369Y346182D01*
X1301480Y346108D01*
X1301580Y346020D01*
X1301668Y345920D01*
X1301742Y345809D01*
X1301801Y345690D01*
X1301843Y345564D01*
X1301869Y345433D01*
X1301878Y345300D01*
Y323000D01*
X1301869Y322867D01*
X1301843Y322737D01*
X1301801Y322610D01*
X1301742Y322491D01*
X1301668Y322380D01*
X1301580Y322280D01*
X1301480Y322192D01*
X1301369Y322118D01*
X1301250Y322059D01*
X1301124Y322016D01*
X1300993Y321991D01*
X1300860Y321982D01*
X1295178D01*
Y319100D01*
X1295169Y318967D01*
X1295143Y318836D01*
X1295101Y318710D01*
X1295042Y318591D01*
X1294968Y318480D01*
X1294880Y318380D01*
X1294780Y318292D01*
X1294669Y318218D01*
X1294550Y318159D01*
X1294424Y318116D01*
X1294293Y318090D01*
X1294160Y318082D01*
X1272260D01*
X1272127Y318090D01*
X1271996Y318116D01*
X1271870Y318159D01*
X1271751Y318218D01*
X1271640Y318292D01*
X1271540Y318380D01*
X1271452Y318480D01*
X1271378Y318591D01*
X1271319Y318710D01*
X1271276Y318836D01*
X1271251Y318967D01*
X1271242Y319100D01*
Y348000D01*
X1271251Y348133D01*
X1271276Y348264D01*
X1271319Y348390D01*
X1271378Y348509D01*
X1271452Y348620D01*
X1271540Y348720D01*
X1271640Y348808D01*
X1271751Y348882D01*
X1271870Y348941D01*
X1271996Y348983D01*
X1272127Y349010D01*
X1272260Y349018D01*
X1276742D01*
Y355300D01*
X1276750Y355433D01*
X1276777Y355564D01*
X1276819Y355690D01*
X1276878Y355809D01*
X1276952Y355920D01*
X1277040Y356020D01*
X1277140Y356108D01*
X1277251Y356182D01*
X1277370Y356241D01*
X1277496Y356283D01*
X1277627Y356310D01*
X1277760Y356318D01*
X1293060D01*
X1293193Y356310D01*
D02*
G37*
G36*
X1207093D02*
X1207224Y356283D01*
X1207350Y356241D01*
X1207469Y356182D01*
X1207580Y356108D01*
X1207680Y356020D01*
X1207768Y355920D01*
X1207842Y355809D01*
X1207901Y355690D01*
X1207943Y355564D01*
X1207970Y355433D01*
X1207978Y355300D01*
Y349018D01*
X1212460D01*
X1212593Y349010D01*
X1212723Y348983D01*
X1212850Y348941D01*
X1212969Y348882D01*
X1213080Y348808D01*
X1213180Y348720D01*
X1213268Y348620D01*
X1213342Y348509D01*
X1213401Y348390D01*
X1213444Y348264D01*
X1213469Y348133D01*
X1213478Y348000D01*
Y319100D01*
X1213469Y318967D01*
X1213444Y318836D01*
X1213401Y318710D01*
X1213342Y318591D01*
X1213268Y318480D01*
X1213180Y318380D01*
X1213080Y318292D01*
X1212969Y318218D01*
X1212850Y318159D01*
X1212723Y318116D01*
X1212593Y318090D01*
X1212460Y318082D01*
X1190560D01*
X1190427Y318090D01*
X1190296Y318116D01*
X1190170Y318159D01*
X1190051Y318218D01*
X1189940Y318292D01*
X1189840Y318380D01*
X1189752Y318480D01*
X1189678Y318591D01*
X1189619Y318710D01*
X1189576Y318836D01*
X1189550Y318967D01*
X1189542Y319100D01*
Y321982D01*
X1183860Y321982D01*
X1183727Y321991D01*
X1183596Y322016D01*
X1183470Y322059D01*
X1183351Y322118D01*
X1183240Y322192D01*
X1183140Y322280D01*
X1183052Y322380D01*
X1182978Y322491D01*
X1182919Y322610D01*
X1182877Y322736D01*
X1182850Y322867D01*
X1182842Y323000D01*
Y345300D01*
X1182850Y345433D01*
X1182877Y345564D01*
X1182919Y345690D01*
X1182978Y345809D01*
X1183052Y345920D01*
X1183140Y346020D01*
X1183240Y346108D01*
X1183351Y346182D01*
X1183470Y346241D01*
X1183596Y346283D01*
X1183727Y346310D01*
X1183860Y346318D01*
X1189442D01*
Y348000D01*
X1189451Y348133D01*
X1189476Y348264D01*
X1189519Y348390D01*
X1189578Y348509D01*
X1189652Y348620D01*
X1189740Y348720D01*
X1189840Y348808D01*
X1189951Y348882D01*
X1190070Y348941D01*
X1190197Y348983D01*
X1190327Y349010D01*
X1190460Y349018D01*
X1190642D01*
Y355300D01*
X1190650Y355433D01*
X1190676Y355564D01*
X1190719Y355690D01*
X1190778Y355809D01*
X1190852Y355920D01*
X1190940Y356020D01*
X1191040Y356108D01*
X1191151Y356182D01*
X1191270Y356241D01*
X1191396Y356283D01*
X1191527Y356310D01*
X1191660Y356318D01*
X1206960D01*
X1207093Y356310D01*
D02*
G37*
G36*
X297533Y356810D02*
X297663Y356783D01*
X297790Y356741D01*
X297909Y356682D01*
X298020Y356608D01*
X298120Y356520D01*
X298208Y356420D01*
X298282Y356309D01*
X298341Y356190D01*
X298384Y356064D01*
X298409Y355933D01*
X298418Y355800D01*
Y349518D01*
X298600D01*
X298733Y349510D01*
X298864Y349483D01*
X298990Y349441D01*
X299109Y349382D01*
X299220Y349308D01*
X299320Y349220D01*
X299408Y349120D01*
X299482Y349009D01*
X299541Y348890D01*
X299583Y348764D01*
X299609Y348633D01*
X299618Y348500D01*
Y346818D01*
X305200D01*
X305333Y346810D01*
X305464Y346783D01*
X305590Y346741D01*
X305709Y346682D01*
X305820Y346608D01*
X305920Y346520D01*
X306008Y346420D01*
X306082Y346309D01*
X306141Y346190D01*
X306183Y346063D01*
X306209Y345933D01*
X306218Y345800D01*
Y323500D01*
X306209Y323367D01*
X306183Y323237D01*
X306141Y323110D01*
X306082Y322991D01*
X306008Y322880D01*
X305920Y322780D01*
X305820Y322692D01*
X305709Y322618D01*
X305590Y322559D01*
X305464Y322517D01*
X305333Y322491D01*
X305200Y322482D01*
X299518D01*
Y319600D01*
X299509Y319467D01*
X299483Y319336D01*
X299441Y319210D01*
X299382Y319091D01*
X299308Y318980D01*
X299220Y318880D01*
X299120Y318792D01*
X299009Y318718D01*
X298890Y318659D01*
X298764Y318617D01*
X298633Y318591D01*
X298500Y318582D01*
X276600D01*
X276467Y318591D01*
X276336Y318617D01*
X276210Y318659D01*
X276091Y318718D01*
X275980Y318792D01*
X275880Y318880D01*
X275792Y318980D01*
X275718Y319091D01*
X275659Y319210D01*
X275616Y319336D01*
X275590Y319467D01*
X275582Y319600D01*
Y348500D01*
X275590Y348633D01*
X275616Y348764D01*
X275659Y348890D01*
X275718Y349009D01*
X275792Y349120D01*
X275880Y349220D01*
X275980Y349308D01*
X276091Y349382D01*
X276210Y349441D01*
X276336Y349483D01*
X276467Y349510D01*
X276600Y349518D01*
X281082D01*
Y355800D01*
X281091Y355933D01*
X281117Y356064D01*
X281159Y356190D01*
X281218Y356309D01*
X281292Y356420D01*
X281380Y356520D01*
X281480Y356608D01*
X281591Y356682D01*
X281710Y356741D01*
X281836Y356783D01*
X281967Y356810D01*
X282100Y356818D01*
X297400D01*
X297533Y356810D01*
D02*
G37*
G36*
X211433D02*
X211563Y356783D01*
X211690Y356741D01*
X211809Y356682D01*
X211920Y356608D01*
X212020Y356520D01*
X212108Y356420D01*
X212182Y356309D01*
X212241Y356190D01*
X212283Y356064D01*
X212309Y355933D01*
X212318Y355800D01*
Y349518D01*
X216800D01*
X216933Y349510D01*
X217064Y349483D01*
X217190Y349441D01*
X217309Y349382D01*
X217420Y349308D01*
X217520Y349220D01*
X217608Y349120D01*
X217682Y349009D01*
X217741Y348890D01*
X217784Y348764D01*
X217810Y348633D01*
X217818Y348500D01*
Y319600D01*
X217810Y319467D01*
X217784Y319336D01*
X217741Y319210D01*
X217682Y319091D01*
X217608Y318980D01*
X217520Y318880D01*
X217420Y318792D01*
X217309Y318718D01*
X217190Y318659D01*
X217064Y318617D01*
X216933Y318591D01*
X216800Y318582D01*
X194900D01*
X194767Y318591D01*
X194636Y318617D01*
X194510Y318659D01*
X194391Y318718D01*
X194280Y318792D01*
X194180Y318880D01*
X194092Y318980D01*
X194018Y319091D01*
X193959Y319210D01*
X193916Y319336D01*
X193890Y319467D01*
X193882Y319600D01*
Y322482D01*
X188200Y322482D01*
X188067Y322491D01*
X187936Y322517D01*
X187810Y322559D01*
X187691Y322618D01*
X187580Y322692D01*
X187480Y322780D01*
X187392Y322880D01*
X187318Y322991D01*
X187259Y323110D01*
X187216Y323237D01*
X187190Y323367D01*
X187182Y323500D01*
Y345800D01*
X187190Y345933D01*
X187216Y346063D01*
X187259Y346190D01*
X187318Y346309D01*
X187392Y346420D01*
X187480Y346520D01*
X187580Y346608D01*
X187691Y346682D01*
X187810Y346741D01*
X187936Y346783D01*
X188067Y346810D01*
X188200Y346818D01*
X193782D01*
Y348500D01*
X193790Y348633D01*
X193817Y348764D01*
X193859Y348890D01*
X193918Y349009D01*
X193992Y349120D01*
X194080Y349220D01*
X194180Y349308D01*
X194291Y349382D01*
X194410Y349441D01*
X194536Y349483D01*
X194667Y349510D01*
X194800Y349518D01*
X194982D01*
Y355800D01*
X194991Y355933D01*
X195016Y356064D01*
X195059Y356190D01*
X195118Y356309D01*
X195192Y356420D01*
X195280Y356520D01*
X195380Y356608D01*
X195491Y356682D01*
X195610Y356741D01*
X195737Y356783D01*
X195867Y356810D01*
X196000Y356818D01*
X211300D01*
X211433Y356810D01*
D02*
G37*
G36*
X796193Y356810D02*
X796323Y356783D01*
X796450Y356741D01*
X796569Y356682D01*
X796680Y356608D01*
X796780Y356520D01*
X796868Y356420D01*
X796942Y356309D01*
X797001Y356190D01*
X797043Y356063D01*
X797069Y355933D01*
X797078Y355800D01*
Y349518D01*
X797260D01*
X797393Y349510D01*
X797523Y349483D01*
X797650Y349441D01*
X797769Y349382D01*
X797880Y349308D01*
X797980Y349220D01*
X798068Y349120D01*
X798142Y349009D01*
X798201Y348890D01*
X798243Y348764D01*
X798269Y348633D01*
X798278Y348500D01*
Y346818D01*
X803860D01*
X803993Y346810D01*
X804124Y346783D01*
X804250Y346741D01*
X804369Y346682D01*
X804480Y346608D01*
X804580Y346520D01*
X804668Y346420D01*
X804742Y346309D01*
X804801Y346190D01*
X804843Y346063D01*
X804869Y345933D01*
X804878Y345800D01*
Y323500D01*
X804869Y323367D01*
X804843Y323237D01*
X804801Y323110D01*
X804742Y322991D01*
X804668Y322880D01*
X804580Y322780D01*
X804480Y322692D01*
X804369Y322618D01*
X804250Y322559D01*
X804124Y322517D01*
X803993Y322491D01*
X803860Y322482D01*
X798178D01*
Y319600D01*
X798169Y319467D01*
X798143Y319336D01*
X798101Y319210D01*
X798042Y319091D01*
X797968Y318980D01*
X797880Y318880D01*
X797780Y318792D01*
X797669Y318718D01*
X797550Y318659D01*
X797423Y318617D01*
X797293Y318591D01*
X797160Y318582D01*
X775260D01*
X775127Y318591D01*
X774996Y318617D01*
X774870Y318659D01*
X774751Y318718D01*
X774640Y318792D01*
X774540Y318880D01*
X774452Y318980D01*
X774378Y319091D01*
X774319Y319210D01*
X774277Y319336D01*
X774250Y319467D01*
X774242Y319600D01*
Y348500D01*
X774250Y348633D01*
X774277Y348764D01*
X774319Y348890D01*
X774378Y349009D01*
X774452Y349120D01*
X774540Y349220D01*
X774640Y349308D01*
X774751Y349382D01*
X774870Y349441D01*
X774996Y349483D01*
X775127Y349510D01*
X775260Y349518D01*
X779742D01*
Y355800D01*
X779751Y355933D01*
X779777Y356063D01*
X779819Y356190D01*
X779878Y356309D01*
X779952Y356420D01*
X780040Y356520D01*
X780140Y356608D01*
X780251Y356682D01*
X780370Y356741D01*
X780496Y356783D01*
X780627Y356810D01*
X780760Y356818D01*
X796060D01*
X796193Y356810D01*
D02*
G37*
D10*
X630000Y255500D02*
D03*
X575500Y295500D02*
D03*
X134500Y255500D02*
D03*
X77500Y295500D02*
D03*
X138000Y169000D02*
D03*
X631000Y159000D02*
D03*
X1110000Y161000D02*
D03*
X1124072Y255000D02*
D03*
X1072500Y295500D02*
D03*
X495000Y592500D02*
D03*
D12*
X206700Y228500D02*
D03*
X205700Y334500D02*
D03*
X286700Y336500D02*
D03*
X287700Y228500D02*
D03*
X786360Y228500D02*
D03*
X785360Y336500D02*
D03*
X704360Y334500D02*
D03*
X705360Y228500D02*
D03*
X1202360Y228000D02*
D03*
X1201360Y334000D02*
D03*
X1282360Y336000D02*
D03*
X1283360Y228000D02*
D03*
D74*
X583500Y927500D02*
D03*
X593000D02*
D03*
X602500D02*
D03*
Y904500D02*
D03*
X593000D02*
D03*
X583500D02*
D03*
D75*
X1441000Y40000D02*
D03*
X117500Y914000D02*
D03*
D76*
X557000Y578000D02*
D03*
X573000D02*
D03*
X858000Y560000D02*
D03*
X842000D02*
D03*
X417000Y266500D02*
D03*
X433000D02*
D03*
X915660Y266500D02*
D03*
X931660D02*
D03*
X1412660Y266000D02*
D03*
X1428660D02*
D03*
X553000Y928000D02*
D03*
X569000D02*
D03*
X632000D02*
D03*
X616000D02*
D03*
X893590Y873840D02*
D03*
X877590D02*
D03*
X922800D02*
D03*
X906800D02*
D03*
X907560Y856060D02*
D03*
X891560D02*
D03*
X373500Y752000D02*
D03*
X357500D02*
D03*
X403000Y765500D02*
D03*
X387000D02*
D03*
X387000Y752000D02*
D03*
X403000D02*
D03*
X756650Y832370D02*
D03*
X740650D02*
D03*
X787640Y832370D02*
D03*
X803640D02*
D03*
X740650Y809510D02*
D03*
X756650Y809510D02*
D03*
X745000Y750000D02*
D03*
X729000D02*
D03*
X752340Y691540D02*
D03*
X768340D02*
D03*
X671000Y637000D02*
D03*
X687000D02*
D03*
X666000Y597000D02*
D03*
X682000D02*
D03*
X669599Y555000D02*
D03*
X685599D02*
D03*
X695000Y513000D02*
D03*
X711000D02*
D03*
X711000Y527000D02*
D03*
X695000D02*
D03*
X821000Y491000D02*
D03*
X805000D02*
D03*
X842000Y573000D02*
D03*
X858000D02*
D03*
Y613000D02*
D03*
X874000D02*
D03*
X1448000Y777000D02*
D03*
X1464000D02*
D03*
X1371000Y776000D02*
D03*
X1387000Y776000D02*
D03*
X1448000Y704000D02*
D03*
X1464000D02*
D03*
X1368000D02*
D03*
X1384000D02*
D03*
X1372000Y633000D02*
D03*
X1388000D02*
D03*
X1447000Y632000D02*
D03*
X1463000D02*
D03*
X1275000Y682000D02*
D03*
X1291000D02*
D03*
X1290000Y609000D02*
D03*
X1274000D02*
D03*
X1275000Y750000D02*
D03*
X1291000D02*
D03*
X151800Y224500D02*
D03*
X135800D02*
D03*
X650460D02*
D03*
X634460D02*
D03*
X1147460Y224000D02*
D03*
X1131460D02*
D03*
D77*
X575960Y345500D02*
D03*
X594960D02*
D03*
X1092000Y935000D02*
D03*
X1073000D02*
D03*
X77300Y345500D02*
D03*
X96300D02*
D03*
X112300Y307500D02*
D03*
X131300Y307500D02*
D03*
X112300Y289500D02*
D03*
X131300D02*
D03*
X112300Y271500D02*
D03*
X131300D02*
D03*
X98300Y231500D02*
D03*
X117300Y231500D02*
D03*
X610960Y271500D02*
D03*
X629960Y271500D02*
D03*
X610960Y289500D02*
D03*
X629960D02*
D03*
X610960Y307500D02*
D03*
X629960D02*
D03*
X596960Y231500D02*
D03*
X615960D02*
D03*
X1093960Y231000D02*
D03*
X1112960Y231000D02*
D03*
X1107960Y271000D02*
D03*
X1126960D02*
D03*
X1107960Y289000D02*
D03*
X1126960D02*
D03*
X1107960Y307000D02*
D03*
X1126960Y307000D02*
D03*
X1072960Y345000D02*
D03*
X1091960D02*
D03*
D78*
X674500Y945500D02*
D03*
X674500Y903500D02*
D03*
D79*
X748480Y710480D02*
D03*
X726480D02*
D03*
Y728480D02*
D03*
X748480D02*
D03*
D80*
X246300Y385250D02*
D03*
Y436750D02*
D03*
X744960Y385250D02*
D03*
Y436750D02*
D03*
X1241960Y384750D02*
D03*
Y436250D02*
D03*
X246800Y175750D02*
D03*
Y124250D02*
D03*
X745460Y175750D02*
D03*
Y124250D02*
D03*
X1242460Y175250D02*
D03*
Y123750D02*
D03*
D81*
X804280Y904440D02*
D03*
X741280Y904440D02*
D03*
X741280Y864440D02*
D03*
X804280Y864440D02*
D03*
D82*
X232900Y238800D02*
D03*
X260500D02*
D03*
X232900Y324200D02*
D03*
X260500D02*
D03*
X759160Y324200D02*
D03*
X731560D02*
D03*
X759160Y238800D02*
D03*
X731560D02*
D03*
X1228560Y238300D02*
D03*
X1256160D02*
D03*
X1228560Y323700D02*
D03*
X1256160D02*
D03*
D83*
X246700Y281500D02*
D03*
X745360Y281500D02*
D03*
X1242360Y281000D02*
D03*
D84*
X264900Y351500D02*
D03*
X260900D02*
D03*
X256800D02*
D03*
X236500D02*
D03*
X232500D02*
D03*
X228500D02*
D03*
Y211500D02*
D03*
X232500D02*
D03*
X236500D02*
D03*
X256800D02*
D03*
X260800D02*
D03*
X264700D02*
D03*
X271800Y351500D02*
D03*
X249900D02*
D03*
X243500D02*
D03*
X221600D02*
D03*
X221500Y211500D02*
D03*
X243600D02*
D03*
X249800D02*
D03*
X271800D02*
D03*
X770460Y211500D02*
D03*
X748460D02*
D03*
X742260D02*
D03*
X720160D02*
D03*
X720260Y351500D02*
D03*
X742160D02*
D03*
X748560D02*
D03*
X770460D02*
D03*
X763360Y211500D02*
D03*
X759460D02*
D03*
X755460D02*
D03*
X735160D02*
D03*
X731160D02*
D03*
X727160D02*
D03*
Y351500D02*
D03*
X731160D02*
D03*
X735160D02*
D03*
X755460D02*
D03*
X759560D02*
D03*
X763560D02*
D03*
X1260560Y351000D02*
D03*
X1256560D02*
D03*
X1252460D02*
D03*
X1232160D02*
D03*
X1228160D02*
D03*
X1224160D02*
D03*
Y211000D02*
D03*
X1228160D02*
D03*
X1232160D02*
D03*
X1252460D02*
D03*
X1256460D02*
D03*
X1260360D02*
D03*
X1267460Y351000D02*
D03*
X1245560D02*
D03*
X1239160D02*
D03*
X1217260D02*
D03*
X1217160Y211000D02*
D03*
X1239260D02*
D03*
X1245460D02*
D03*
X1267460D02*
D03*
D85*
X301700Y248800D02*
D03*
Y283500D02*
D03*
Y287500D02*
D03*
Y279500D02*
D03*
Y275500D02*
D03*
Y271500D02*
D03*
Y267500D02*
D03*
Y263500D02*
D03*
Y259500D02*
D03*
Y255000D02*
D03*
Y291500D02*
D03*
Y295500D02*
D03*
Y299500D02*
D03*
Y303500D02*
D03*
Y308000D02*
D03*
Y314200D02*
D03*
X191700Y277500D02*
D03*
Y285500D02*
D03*
X191900Y270200D02*
D03*
X191700Y281500D02*
D03*
Y263000D02*
D03*
Y259000D02*
D03*
Y255000D02*
D03*
Y248800D02*
D03*
Y296900D02*
D03*
Y300800D02*
D03*
Y308000D02*
D03*
Y314200D02*
D03*
Y289500D02*
D03*
X690360Y289500D02*
D03*
Y314200D02*
D03*
Y308000D02*
D03*
Y300800D02*
D03*
Y296900D02*
D03*
Y248800D02*
D03*
Y255000D02*
D03*
Y259000D02*
D03*
Y263000D02*
D03*
Y281500D02*
D03*
X690560Y270200D02*
D03*
X690360Y285500D02*
D03*
Y277500D02*
D03*
X800360Y314200D02*
D03*
Y308000D02*
D03*
Y303500D02*
D03*
Y299500D02*
D03*
Y295500D02*
D03*
Y291500D02*
D03*
Y255000D02*
D03*
Y259500D02*
D03*
Y263500D02*
D03*
Y267500D02*
D03*
Y271500D02*
D03*
Y275500D02*
D03*
Y279500D02*
D03*
Y287500D02*
D03*
Y283500D02*
D03*
Y248800D02*
D03*
X1297360Y248300D02*
D03*
Y283000D02*
D03*
Y287000D02*
D03*
Y279000D02*
D03*
Y275000D02*
D03*
Y271000D02*
D03*
Y267000D02*
D03*
Y263000D02*
D03*
Y259000D02*
D03*
Y254500D02*
D03*
Y291000D02*
D03*
Y295000D02*
D03*
Y299000D02*
D03*
Y303000D02*
D03*
Y307500D02*
D03*
Y313700D02*
D03*
X1187360Y277000D02*
D03*
Y285000D02*
D03*
X1187560Y269700D02*
D03*
X1187360Y281000D02*
D03*
Y262500D02*
D03*
Y258500D02*
D03*
Y254500D02*
D03*
Y248300D02*
D03*
Y296400D02*
D03*
Y300300D02*
D03*
Y307500D02*
D03*
Y313700D02*
D03*
Y289000D02*
D03*
D86*
X606650Y596950D02*
D03*
D87*
Y609650D02*
D03*
Y622350D02*
D03*
Y635050D02*
D03*
X557350D02*
D03*
Y622350D02*
D03*
Y609650D02*
D03*
Y596950D02*
D03*
D88*
X554500Y984750D02*
D03*
X632500D02*
D03*
D89*
X580500D02*
D03*
X606500D02*
D03*
D90*
X580500Y956250D02*
D03*
X606500D02*
D03*
X600000D02*
D03*
X587000Y956250D02*
D03*
X593500Y956250D02*
D03*
D91*
X914000Y781500D02*
D03*
Y765500D02*
D03*
X972500Y507000D02*
D03*
Y523000D02*
D03*
X943500Y523000D02*
D03*
Y507000D02*
D03*
X958000D02*
D03*
Y523000D02*
D03*
X530000Y949000D02*
D03*
Y965000D02*
D03*
X583500Y885500D02*
D03*
Y869500D02*
D03*
X602500Y885500D02*
D03*
Y869500D02*
D03*
X921150Y892510D02*
D03*
X921150Y908510D02*
D03*
X907180Y892510D02*
D03*
Y908510D02*
D03*
X893210Y892510D02*
D03*
Y908510D02*
D03*
X879240Y892510D02*
D03*
Y908510D02*
D03*
X860190Y874220D02*
D03*
Y858220D02*
D03*
X633500Y597180D02*
D03*
Y581180D02*
D03*
X1012500Y875000D02*
D03*
Y891000D02*
D03*
X454000Y730000D02*
D03*
Y746000D02*
D03*
X468000Y722000D02*
D03*
Y738000D02*
D03*
X353000Y716000D02*
D03*
Y732000D02*
D03*
X691500Y772000D02*
D03*
Y788000D02*
D03*
X718000Y849000D02*
D03*
Y865000D02*
D03*
X706000Y711000D02*
D03*
Y727000D02*
D03*
X769000Y711000D02*
D03*
Y727000D02*
D03*
X789000Y691000D02*
D03*
Y707000D02*
D03*
X819000Y525000D02*
D03*
Y509000D02*
D03*
X805000Y509000D02*
D03*
Y525000D02*
D03*
X790000Y509000D02*
D03*
Y525000D02*
D03*
X868000Y673000D02*
D03*
Y657000D02*
D03*
X854000Y673000D02*
D03*
Y657000D02*
D03*
X840000Y673000D02*
D03*
Y657000D02*
D03*
X1061000Y899000D02*
D03*
Y915000D02*
D03*
X1240000Y841000D02*
D03*
Y857000D02*
D03*
X1326000Y841000D02*
D03*
Y857000D02*
D03*
X1411000Y841000D02*
D03*
Y857000D02*
D03*
X1497000Y841000D02*
D03*
Y857000D02*
D03*
D92*
X943500Y536750D02*
D03*
Y553250D02*
D03*
X453000Y265250D02*
D03*
Y248750D02*
D03*
X951660Y265250D02*
D03*
Y248750D02*
D03*
X1448660Y264750D02*
D03*
Y248250D02*
D03*
D93*
X1036000Y899630D02*
D03*
Y930370D02*
D03*
D94*
X192500Y622000D02*
D03*
X152500D02*
D03*
D95*
X46870Y502600D02*
D03*
Y553400D02*
D03*
D96*
X149000Y528000D02*
D03*
D97*
X431500Y694250D02*
D03*
D98*
Y700750D02*
D03*
Y707250D02*
D03*
Y713750D02*
D03*
Y720250D02*
D03*
Y726750D02*
D03*
Y733250D02*
D03*
Y739750D02*
D03*
X373500D02*
D03*
Y733250D02*
D03*
Y720250D02*
D03*
Y713750D02*
D03*
Y707250D02*
D03*
Y700750D02*
D03*
Y694250D02*
D03*
Y726750D02*
D03*
D99*
X402500Y717000D02*
D03*
D100*
X439000Y669000D02*
D03*
Y606000D02*
D03*
D101*
X496000Y626000D02*
D03*
Y656000D02*
D03*
D102*
X468000Y704000D02*
D03*
Y685000D02*
D03*
X1190000Y834500D02*
D03*
Y815500D02*
D03*
X1274000Y835000D02*
D03*
Y816000D02*
D03*
X1362500Y835000D02*
D03*
Y816000D02*
D03*
X1448500Y835000D02*
D03*
Y816000D02*
D03*
X123800Y355000D02*
D03*
Y374000D02*
D03*
Y386000D02*
D03*
Y405000D02*
D03*
X123800Y344000D02*
D03*
Y325000D02*
D03*
X204800Y191500D02*
D03*
X204800Y172500D02*
D03*
X289800Y191500D02*
D03*
Y172500D02*
D03*
X339800Y272500D02*
D03*
Y253500D02*
D03*
X371800Y248500D02*
D03*
Y267500D02*
D03*
X390000Y248500D02*
D03*
Y267500D02*
D03*
X203800Y369500D02*
D03*
Y388500D02*
D03*
X289800Y370500D02*
D03*
X289800Y389500D02*
D03*
X622460Y386000D02*
D03*
Y405000D02*
D03*
Y355000D02*
D03*
Y374000D02*
D03*
Y344000D02*
D03*
Y325000D02*
D03*
X703460Y191500D02*
D03*
Y172500D02*
D03*
X788460Y191500D02*
D03*
Y172500D02*
D03*
X838460Y272500D02*
D03*
Y253500D02*
D03*
X870460Y248500D02*
D03*
X870460Y267500D02*
D03*
X888460Y248500D02*
D03*
X888460Y267500D02*
D03*
X788460Y370500D02*
D03*
Y389500D02*
D03*
X702460Y369500D02*
D03*
Y388500D02*
D03*
X1199460Y369000D02*
D03*
X1199460Y388000D02*
D03*
X1285460Y370000D02*
D03*
Y389000D02*
D03*
X1200460Y191000D02*
D03*
X1200460Y172000D02*
D03*
X1285460Y191000D02*
D03*
X1285460Y172000D02*
D03*
X1119460Y343500D02*
D03*
Y324500D02*
D03*
Y354500D02*
D03*
Y373500D02*
D03*
Y385500D02*
D03*
X1119460Y404500D02*
D03*
X1335460Y272000D02*
D03*
Y253000D02*
D03*
X1367460Y248000D02*
D03*
Y267000D02*
D03*
X1385460Y248000D02*
D03*
X1385460Y267000D02*
D03*
D103*
X536000Y713000D02*
D03*
X526000D02*
D03*
D104*
X732010Y780300D02*
D03*
X762750D02*
D03*
D105*
X805420Y547680D02*
D03*
X797420D02*
D03*
X789420D02*
D03*
X781420Y547680D02*
D03*
X773420D02*
D03*
X765420D02*
D03*
X757420Y547680D02*
D03*
X749420D02*
D03*
X741420Y547680D02*
D03*
X733420D02*
D03*
X725420D02*
D03*
X725420Y662680D02*
D03*
X733420D02*
D03*
X741420D02*
D03*
X749420D02*
D03*
X757420D02*
D03*
X765420D02*
D03*
X773420D02*
D03*
X781420D02*
D03*
X789420D02*
D03*
X797420D02*
D03*
X805420D02*
D03*
D106*
X707920Y565180D02*
D03*
Y573180D02*
D03*
Y581180D02*
D03*
Y589180D02*
D03*
Y597180D02*
D03*
Y605180D02*
D03*
Y613180D02*
D03*
Y621180D02*
D03*
Y629180D02*
D03*
Y637180D02*
D03*
Y645180D02*
D03*
X822920Y645180D02*
D03*
Y637180D02*
D03*
Y629180D02*
D03*
Y621180D02*
D03*
Y613180D02*
D03*
Y605180D02*
D03*
Y597180D02*
D03*
Y589180D02*
D03*
Y581180D02*
D03*
Y573180D02*
D03*
Y565180D02*
D03*
D107*
X694750Y499000D02*
D03*
X711250D02*
D03*
X1209750Y835000D02*
D03*
X1226250D02*
D03*
X1295750D02*
D03*
X1312250D02*
D03*
X1380750D02*
D03*
X1397250D02*
D03*
X1466750D02*
D03*
X1483250D02*
D03*
D108*
X919000Y647000D02*
D03*
Y603000D02*
D03*
D109*
X1095500Y865500D02*
D03*
X1100500D02*
D03*
X1105500D02*
D03*
X1110500D02*
D03*
X1115500D02*
D03*
Y904500D02*
D03*
X1110500D02*
D03*
X1105500D02*
D03*
X1100500D02*
D03*
X1095500D02*
D03*
D110*
X1125000Y875000D02*
D03*
Y880000D02*
D03*
Y885000D02*
D03*
Y890000D02*
D03*
Y895000D02*
D03*
X1086000D02*
D03*
Y890000D02*
D03*
Y885000D02*
D03*
Y880000D02*
D03*
Y875000D02*
D03*
D111*
X1105500Y885000D02*
D03*
D112*
X86800Y308500D02*
D03*
X95800Y328500D02*
D03*
X77800D02*
D03*
X585460Y308500D02*
D03*
X594460Y328500D02*
D03*
X576460D02*
D03*
X1082460Y308000D02*
D03*
X1091460Y328000D02*
D03*
X1073460D02*
D03*
D113*
X70050Y252500D02*
D03*
X39550D02*
D03*
X568710D02*
D03*
X538210D02*
D03*
X1065710Y252000D02*
D03*
X1035210D02*
D03*
D114*
X93800Y252130D02*
D03*
Y282870D02*
D03*
X1089460Y251630D02*
D03*
Y282370D02*
D03*
X592460Y252130D02*
D03*
Y282870D02*
D03*
D115*
X69800Y196500D02*
D03*
X107800Y196500D02*
D03*
X568460D02*
D03*
X606460D02*
D03*
X1065460Y196000D02*
D03*
X1103460D02*
D03*
D116*
X880510Y935800D02*
D03*
X893210D02*
D03*
X905910D02*
D03*
X918610D02*
D03*
Y997300D02*
D03*
X905910D02*
D03*
X893210D02*
D03*
X880510D02*
D03*
D117*
X47000Y665100D02*
D03*
Y715900D02*
D03*
X216500Y770000D02*
D03*
Y695000D02*
D03*
D118*
X719000Y980000D02*
D03*
X693600D02*
D03*
X744400D02*
D03*
X1459380Y980550D02*
D03*
X1433980D02*
D03*
X1484780D02*
D03*
X1373020D02*
D03*
X1347620D02*
D03*
X1398420D02*
D03*
X1286660D02*
D03*
X1261260D02*
D03*
X1312060D02*
D03*
X1202840D02*
D03*
X1177440D02*
D03*
X1228240D02*
D03*
X1026310D02*
D03*
X1000910D02*
D03*
X1051710D02*
D03*
X1115210D02*
D03*
X1089810D02*
D03*
X1140610D02*
D03*
X778000Y962000D02*
D03*
X803400D02*
D03*
X1332000Y609400D02*
D03*
X1332000Y584000D02*
D03*
X1332000Y681400D02*
D03*
X1332000Y656000D02*
D03*
X1407000Y608400D02*
D03*
Y583000D02*
D03*
Y681000D02*
D03*
Y655600D02*
D03*
X1482000Y608400D02*
D03*
Y583000D02*
D03*
Y680400D02*
D03*
Y655000D02*
D03*
X1333000Y750400D02*
D03*
Y725000D02*
D03*
X1407000Y750400D02*
D03*
Y725000D02*
D03*
X1482000Y751000D02*
D03*
Y725600D02*
D03*
X1002900Y725300D02*
D03*
X952100D02*
D03*
X977500Y725300D02*
D03*
Y750700D02*
D03*
X952100Y750700D02*
D03*
X1002900D02*
D03*
X1072000Y748200D02*
D03*
Y697400D02*
D03*
Y722800D02*
D03*
Y773600D02*
D03*
Y799000D02*
D03*
D119*
X1479700Y856970D02*
D03*
Y888970D02*
D03*
X1428900D02*
D03*
Y856970D02*
D03*
X1479700Y910970D02*
D03*
Y932970D02*
D03*
X1428900D02*
D03*
Y910970D02*
D03*
X1342540D02*
D03*
Y932970D02*
D03*
X1393340D02*
D03*
Y910970D02*
D03*
X1342540Y856970D02*
D03*
Y888970D02*
D03*
X1393340D02*
D03*
Y856970D02*
D03*
X1308250D02*
D03*
Y888970D02*
D03*
X1257450D02*
D03*
Y856970D02*
D03*
X1308250Y910970D02*
D03*
Y932970D02*
D03*
X1257450D02*
D03*
Y910970D02*
D03*
X1172360D02*
D03*
Y932970D02*
D03*
X1223160D02*
D03*
Y910970D02*
D03*
X1172360Y856970D02*
D03*
Y888970D02*
D03*
X1223160D02*
D03*
Y856970D02*
D03*
X403000Y698000D02*
D03*
X393500D02*
D03*
Y707500D02*
D03*
X403000D02*
D03*
X412500D02*
D03*
Y698000D02*
D03*
Y717000D02*
D03*
X403000D02*
D03*
X393500D02*
D03*
Y726500D02*
D03*
X403000D02*
D03*
Y736000D02*
D03*
X393500D02*
D03*
X412500Y726500D02*
D03*
Y736000D02*
D03*
X49730Y80270D02*
D03*
Y20270D02*
D03*
X79730Y50270D02*
D03*
X19730D02*
D03*
X29730Y70270D02*
D03*
X69730D02*
D03*
Y30270D02*
D03*
X29730D02*
D03*
X49000Y993500D02*
D03*
Y933500D02*
D03*
X79000Y963500D02*
D03*
X19000D02*
D03*
X29000Y983500D02*
D03*
X69000D02*
D03*
Y943500D02*
D03*
X29000D02*
D03*
X1541500Y76000D02*
D03*
Y16000D02*
D03*
X1571500Y46000D02*
D03*
X1511500D02*
D03*
X1521500Y66000D02*
D03*
X1561500D02*
D03*
Y26000D02*
D03*
X1521500D02*
D03*
X1542000Y995000D02*
D03*
Y935000D02*
D03*
X1572000Y965000D02*
D03*
X1512000D02*
D03*
X1522000Y985000D02*
D03*
X1562000D02*
D03*
Y945000D02*
D03*
X1522000D02*
D03*
D120*
X717000Y809500D02*
D03*
X691600D02*
D03*
X534500Y792200D02*
D03*
Y766800D02*
D03*
D121*
X299000Y79500D02*
D03*
X264000D02*
D03*
X229000D02*
D03*
X194000D02*
D03*
X798500Y80000D02*
D03*
X763500D02*
D03*
X728500D02*
D03*
X693500D02*
D03*
X1295500Y79000D02*
D03*
X1260500D02*
D03*
X1225500D02*
D03*
X1190500D02*
D03*
D122*
X428800Y198000D02*
D03*
Y148000D02*
D03*
X927460Y148000D02*
D03*
Y198000D02*
D03*
X1424460Y197500D02*
D03*
Y147500D02*
D03*
D123*
X49730Y50270D02*
D03*
X49000Y963500D02*
D03*
X1541500Y46000D02*
D03*
X1542000Y965000D02*
D03*
D124*
X1249860Y314500D02*
D03*
X1242360Y281000D02*
D03*
X1262860D02*
D03*
Y298500D02*
D03*
X1250860Y247500D02*
D03*
X1234360D02*
D03*
X1261860D02*
D03*
X1223360Y247000D02*
D03*
X1242360Y264500D02*
D03*
Y298500D02*
D03*
X1234360Y332500D02*
D03*
X1222360D02*
D03*
X1249360D02*
D03*
X1222860Y314500D02*
D03*
X1221360Y298000D02*
D03*
X1221860Y281000D02*
D03*
X1234860Y314500D02*
D03*
X1221860Y264500D02*
D03*
X1261860Y230000D02*
D03*
X1250860D02*
D03*
X1262860Y264500D02*
D03*
X255200Y248000D02*
D03*
X266200Y230500D02*
D03*
X267200Y281500D02*
D03*
Y265000D02*
D03*
X266200Y248000D02*
D03*
X255200Y230500D02*
D03*
X266200Y333000D02*
D03*
X292700Y220000D02*
D03*
Y236000D02*
D03*
X282200Y228500D02*
D03*
X201700Y237000D02*
D03*
Y221000D02*
D03*
X212200Y228500D02*
D03*
X200700Y343000D02*
D03*
Y327000D02*
D03*
X211200Y334500D02*
D03*
X281700Y334000D02*
D03*
X292200Y341500D02*
D03*
Y325500D02*
D03*
X227200Y315000D02*
D03*
X254200D02*
D03*
X266200D02*
D03*
X238700Y248000D02*
D03*
X227700Y247500D02*
D03*
X227200Y230000D02*
D03*
X238700D02*
D03*
X225700Y298500D02*
D03*
X246700Y299000D02*
D03*
X267200D02*
D03*
X226200Y281500D02*
D03*
Y265000D02*
D03*
X246700D02*
D03*
Y281500D02*
D03*
X765860Y265000D02*
D03*
X745360Y281500D02*
D03*
Y265000D02*
D03*
X724860D02*
D03*
Y281500D02*
D03*
X765860D02*
D03*
Y299000D02*
D03*
X745360D02*
D03*
X724360Y298500D02*
D03*
X737360Y230000D02*
D03*
X725860D02*
D03*
X726360Y247500D02*
D03*
X737360Y248000D02*
D03*
X753860D02*
D03*
Y230500D02*
D03*
X764860D02*
D03*
Y248000D02*
D03*
Y315000D02*
D03*
X752860D02*
D03*
X752360Y333000D02*
D03*
X764860D02*
D03*
X737360D02*
D03*
X725360D02*
D03*
X725860Y315000D02*
D03*
X737860D02*
D03*
X790860Y325500D02*
D03*
Y341500D02*
D03*
X780360Y334000D02*
D03*
X709860Y334500D02*
D03*
X699360Y327000D02*
D03*
Y343000D02*
D03*
X710860Y228500D02*
D03*
X700360Y221000D02*
D03*
Y237000D02*
D03*
X780860Y228500D02*
D03*
X791360Y236000D02*
D03*
Y220000D02*
D03*
X1288360Y219500D02*
D03*
Y235500D02*
D03*
X1277860Y228000D02*
D03*
X1197360Y236500D02*
D03*
Y220500D02*
D03*
X1207860Y228000D02*
D03*
X1196360Y342500D02*
D03*
Y326500D02*
D03*
X1206860Y334000D02*
D03*
X1277360Y333500D02*
D03*
X1287860Y341000D02*
D03*
Y325000D02*
D03*
X1261860Y332500D02*
D03*
Y314500D02*
D03*
X1222860Y229500D02*
D03*
X1234360D02*
D03*
X226700Y333000D02*
D03*
X239200Y315000D02*
D03*
X238700Y333000D02*
D03*
X253700D02*
D03*
X1100000Y879500D02*
D03*
Y890500D02*
D03*
X1111000Y879500D02*
D03*
Y890500D02*
D03*
M02*
