G04 Layer_Color=255*
%FSLAX44Y44*%
%MOMM*%
G71*
G01*
G75*
%ADD10C,1.1000*%
%ADD11R,0.6000X1.2000*%
%ADD12C,1.0000*%
%ADD13R,0.9500X1.0000*%
%ADD14R,0.7000X1.3000*%
%ADD15R,3.2000X1.5000*%
%ADD16R,1.3000X1.0000*%
%ADD17R,3.7000X2.4500*%
%ADD18R,2.3000X1.4000*%
%ADD19R,2.4000X3.1000*%
%ADD20R,5.6000X4.8000*%
%ADD21R,0.2000X0.7800*%
%ADD22R,0.7800X0.2000*%
%ADD23O,1.9800X0.5300*%
%ADD24R,1.9800X0.5300*%
%ADD25R,2.3000X1.9000*%
%ADD26R,1.8000X1.9000*%
%ADD27R,0.4000X1.4000*%
%ADD28R,1.0000X0.9500*%
%ADD29R,0.8000X0.8000*%
%ADD30R,1.7000X1.4000*%
%ADD31R,2.5000X1.7000*%
%ADD32R,3.5040X1.0160*%
%ADD33R,8.3800X10.4900*%
G04:AMPARAMS|DCode=34|XSize=0.45mm|YSize=1.5mm|CornerRadius=0.1125mm|HoleSize=0mm|Usage=FLASHONLY|Rotation=270.000|XOffset=0mm|YOffset=0mm|HoleType=Round|Shape=RoundedRectangle|*
%AMROUNDEDRECTD34*
21,1,0.4500,1.2750,0,0,270.0*
21,1,0.2250,1.5000,0,0,270.0*
1,1,0.2250,-0.6375,-0.1125*
1,1,0.2250,-0.6375,0.1125*
1,1,0.2250,0.6375,0.1125*
1,1,0.2250,0.6375,-0.1125*
%
%ADD34ROUNDEDRECTD34*%
%ADD35R,1.5000X0.4500*%
%ADD36R,3.4000X5.0000*%
%ADD37R,2.4000X1.5000*%
%ADD38R,2.9500X1.4000*%
%ADD39R,1.3000X0.7000*%
%ADD40R,0.8000X1.0000*%
%ADD41R,1.4000X1.7000*%
%ADD42O,0.5500X1.5000*%
%ADD43O,1.5000X0.5500*%
%ADD44R,0.8000X0.8000*%
%ADD45R,1.6000X2.8000*%
%ADD46O,0.2500X0.8000*%
%ADD47O,0.8000X0.2500*%
%ADD48R,2.1000X2.1000*%
%ADD49R,0.8000X0.9000*%
%ADD50R,0.8500X1.2000*%
%ADD51R,1.7020X0.9140*%
%ADD52R,2.5000X1.6000*%
%ADD53R,0.7600X1.2500*%
%ADD59C,2.2000*%
%ADD60C,1.5000*%
%ADD61C,0.8000*%
%ADD62C,1.8000*%
%ADD63C,2.0000*%
%ADD64C,2.5000*%
%ADD65C,8.0000*%
D10*
X630000Y255500D02*
D03*
X575500Y295500D02*
D03*
X134500Y255500D02*
D03*
X77500Y295500D02*
D03*
X138000Y169000D02*
D03*
X631000Y159000D02*
D03*
X1110000Y161000D02*
D03*
X1124072Y255000D02*
D03*
X1072500Y295500D02*
D03*
X495000Y592500D02*
D03*
D11*
X583500Y927500D02*
D03*
X593000D02*
D03*
X602500D02*
D03*
Y904500D02*
D03*
X593000D02*
D03*
X583500D02*
D03*
D12*
X1441000Y40000D02*
D03*
X117500Y914000D02*
D03*
X206700Y228500D02*
D03*
X205700Y334500D02*
D03*
X286700Y336500D02*
D03*
X287700Y228500D02*
D03*
X786360Y228500D02*
D03*
X785360Y336500D02*
D03*
X704360Y334500D02*
D03*
X705360Y228500D02*
D03*
X1202360Y228000D02*
D03*
X1201360Y334000D02*
D03*
X1282360Y336000D02*
D03*
X1283360Y228000D02*
D03*
D13*
X557000Y578000D02*
D03*
X573000D02*
D03*
X858000Y560000D02*
D03*
X842000D02*
D03*
X417000Y266500D02*
D03*
X433000D02*
D03*
X915660Y266500D02*
D03*
X931660D02*
D03*
X1412660Y266000D02*
D03*
X1428660D02*
D03*
X553000Y928000D02*
D03*
X569000D02*
D03*
X632000D02*
D03*
X616000D02*
D03*
X893590Y873840D02*
D03*
X877590D02*
D03*
X922800D02*
D03*
X906800D02*
D03*
X907560Y856060D02*
D03*
X891560D02*
D03*
X373500Y752000D02*
D03*
X357500D02*
D03*
X403000Y765500D02*
D03*
X387000D02*
D03*
X387000Y752000D02*
D03*
X403000D02*
D03*
X756650Y832370D02*
D03*
X740650D02*
D03*
X787640Y832370D02*
D03*
X803640D02*
D03*
X740650Y809510D02*
D03*
X756650Y809510D02*
D03*
X745000Y750000D02*
D03*
X729000D02*
D03*
X752340Y691540D02*
D03*
X768340D02*
D03*
X671000Y637000D02*
D03*
X687000D02*
D03*
X666000Y597000D02*
D03*
X682000D02*
D03*
X669599Y555000D02*
D03*
X685599D02*
D03*
X695000Y513000D02*
D03*
X711000D02*
D03*
X711000Y527000D02*
D03*
X695000D02*
D03*
X821000Y491000D02*
D03*
X805000D02*
D03*
X842000Y573000D02*
D03*
X858000D02*
D03*
Y613000D02*
D03*
X874000D02*
D03*
X1448000Y777000D02*
D03*
X1464000D02*
D03*
X1371000Y776000D02*
D03*
X1387000Y776000D02*
D03*
X1448000Y704000D02*
D03*
X1464000D02*
D03*
X1368000D02*
D03*
X1384000D02*
D03*
X1372000Y633000D02*
D03*
X1388000D02*
D03*
X1447000Y632000D02*
D03*
X1463000D02*
D03*
X1275000Y682000D02*
D03*
X1291000D02*
D03*
X1290000Y609000D02*
D03*
X1274000D02*
D03*
X1275000Y750000D02*
D03*
X1291000D02*
D03*
X151800Y224500D02*
D03*
X135800D02*
D03*
X650460D02*
D03*
X634460D02*
D03*
X1147460Y224000D02*
D03*
X1131460D02*
D03*
D14*
X575960Y345500D02*
D03*
X594960D02*
D03*
X1092000Y935000D02*
D03*
X1073000D02*
D03*
X77300Y345500D02*
D03*
X96300D02*
D03*
X112300Y307500D02*
D03*
X131300Y307500D02*
D03*
X112300Y289500D02*
D03*
X131300D02*
D03*
X112300Y271500D02*
D03*
X131300D02*
D03*
X98300Y231500D02*
D03*
X117300Y231500D02*
D03*
X610960Y271500D02*
D03*
X629960Y271500D02*
D03*
X610960Y289500D02*
D03*
X629960D02*
D03*
X610960Y307500D02*
D03*
X629960D02*
D03*
X596960Y231500D02*
D03*
X615960D02*
D03*
X1093960Y231000D02*
D03*
X1112960Y231000D02*
D03*
X1107960Y271000D02*
D03*
X1126960D02*
D03*
X1107960Y289000D02*
D03*
X1126960D02*
D03*
X1107960Y307000D02*
D03*
X1126960Y307000D02*
D03*
X1072960Y345000D02*
D03*
X1091960D02*
D03*
D15*
X674500Y945500D02*
D03*
X674500Y903500D02*
D03*
D16*
X748480Y710480D02*
D03*
X726480D02*
D03*
Y728480D02*
D03*
X748480D02*
D03*
D17*
X246300Y385250D02*
D03*
Y436750D02*
D03*
X744960Y385250D02*
D03*
Y436750D02*
D03*
X1241960Y384750D02*
D03*
Y436250D02*
D03*
X246800Y175750D02*
D03*
Y124250D02*
D03*
X745460Y175750D02*
D03*
Y124250D02*
D03*
X1242460Y175250D02*
D03*
Y123750D02*
D03*
D18*
X804280Y904440D02*
D03*
X741280Y904440D02*
D03*
X741280Y864440D02*
D03*
X804280Y864440D02*
D03*
D19*
X232900Y238800D02*
D03*
X260500D02*
D03*
X232900Y324200D02*
D03*
X260500D02*
D03*
X759160Y324200D02*
D03*
X731560D02*
D03*
X759160Y238800D02*
D03*
X731560D02*
D03*
X1228560Y238300D02*
D03*
X1256160D02*
D03*
X1228560Y323700D02*
D03*
X1256160D02*
D03*
D20*
X246700Y281500D02*
D03*
X745360Y281500D02*
D03*
X1242360Y281000D02*
D03*
D21*
X264900Y351500D02*
D03*
X260900D02*
D03*
X256800D02*
D03*
X236500D02*
D03*
X232500D02*
D03*
X228500D02*
D03*
Y211500D02*
D03*
X232500D02*
D03*
X236500D02*
D03*
X256800D02*
D03*
X260800D02*
D03*
X264700D02*
D03*
X271800Y351500D02*
D03*
X249900D02*
D03*
X243500D02*
D03*
X221600D02*
D03*
X221500Y211500D02*
D03*
X243600D02*
D03*
X249800D02*
D03*
X271800D02*
D03*
X770460Y211500D02*
D03*
X748460D02*
D03*
X742260D02*
D03*
X720160D02*
D03*
X720260Y351500D02*
D03*
X742160D02*
D03*
X748560D02*
D03*
X770460D02*
D03*
X763360Y211500D02*
D03*
X759460D02*
D03*
X755460D02*
D03*
X735160D02*
D03*
X731160D02*
D03*
X727160D02*
D03*
Y351500D02*
D03*
X731160D02*
D03*
X735160D02*
D03*
X755460D02*
D03*
X759560D02*
D03*
X763560D02*
D03*
X1260560Y351000D02*
D03*
X1256560D02*
D03*
X1252460D02*
D03*
X1232160D02*
D03*
X1228160D02*
D03*
X1224160D02*
D03*
Y211000D02*
D03*
X1228160D02*
D03*
X1232160D02*
D03*
X1252460D02*
D03*
X1256460D02*
D03*
X1260360D02*
D03*
X1267460Y351000D02*
D03*
X1245560D02*
D03*
X1239160D02*
D03*
X1217260D02*
D03*
X1217160Y211000D02*
D03*
X1239260D02*
D03*
X1245460D02*
D03*
X1267460D02*
D03*
D22*
X301700Y248800D02*
D03*
Y283500D02*
D03*
Y287500D02*
D03*
Y279500D02*
D03*
Y275500D02*
D03*
Y271500D02*
D03*
Y267500D02*
D03*
Y263500D02*
D03*
Y259500D02*
D03*
Y255000D02*
D03*
Y291500D02*
D03*
Y295500D02*
D03*
Y299500D02*
D03*
Y303500D02*
D03*
Y308000D02*
D03*
Y314200D02*
D03*
X191700Y277500D02*
D03*
Y285500D02*
D03*
X191900Y270200D02*
D03*
X191700Y281500D02*
D03*
Y263000D02*
D03*
Y259000D02*
D03*
Y255000D02*
D03*
Y248800D02*
D03*
Y296900D02*
D03*
Y300800D02*
D03*
Y308000D02*
D03*
Y314200D02*
D03*
Y289500D02*
D03*
X690360Y289500D02*
D03*
Y314200D02*
D03*
Y308000D02*
D03*
Y300800D02*
D03*
Y296900D02*
D03*
Y248800D02*
D03*
Y255000D02*
D03*
Y259000D02*
D03*
Y263000D02*
D03*
Y281500D02*
D03*
X690560Y270200D02*
D03*
X690360Y285500D02*
D03*
Y277500D02*
D03*
X800360Y314200D02*
D03*
Y308000D02*
D03*
Y303500D02*
D03*
Y299500D02*
D03*
Y295500D02*
D03*
Y291500D02*
D03*
Y255000D02*
D03*
Y259500D02*
D03*
Y263500D02*
D03*
Y267500D02*
D03*
Y271500D02*
D03*
Y275500D02*
D03*
Y279500D02*
D03*
Y287500D02*
D03*
Y283500D02*
D03*
Y248800D02*
D03*
X1297360Y248300D02*
D03*
Y283000D02*
D03*
Y287000D02*
D03*
Y279000D02*
D03*
Y275000D02*
D03*
Y271000D02*
D03*
Y267000D02*
D03*
Y263000D02*
D03*
Y259000D02*
D03*
Y254500D02*
D03*
Y291000D02*
D03*
Y295000D02*
D03*
Y299000D02*
D03*
Y303000D02*
D03*
Y307500D02*
D03*
Y313700D02*
D03*
X1187360Y277000D02*
D03*
Y285000D02*
D03*
X1187560Y269700D02*
D03*
X1187360Y281000D02*
D03*
Y262500D02*
D03*
Y258500D02*
D03*
Y254500D02*
D03*
Y248300D02*
D03*
Y296400D02*
D03*
Y300300D02*
D03*
Y307500D02*
D03*
Y313700D02*
D03*
Y289000D02*
D03*
D23*
X606650Y596950D02*
D03*
D24*
Y609650D02*
D03*
Y622350D02*
D03*
Y635050D02*
D03*
X557350D02*
D03*
Y622350D02*
D03*
Y609650D02*
D03*
Y596950D02*
D03*
D25*
X554500Y984750D02*
D03*
X632500D02*
D03*
D26*
X580500D02*
D03*
X606500D02*
D03*
D27*
X580500Y956250D02*
D03*
X606500D02*
D03*
X600000D02*
D03*
X587000Y956250D02*
D03*
X593500Y956250D02*
D03*
D28*
X914000Y781500D02*
D03*
Y765500D02*
D03*
X972500Y507000D02*
D03*
Y523000D02*
D03*
X943500Y523000D02*
D03*
Y507000D02*
D03*
X958000D02*
D03*
Y523000D02*
D03*
X530000Y949000D02*
D03*
Y965000D02*
D03*
X583500Y885500D02*
D03*
Y869500D02*
D03*
X602500Y885500D02*
D03*
Y869500D02*
D03*
X921150Y892510D02*
D03*
X921150Y908510D02*
D03*
X907180Y892510D02*
D03*
Y908510D02*
D03*
X893210Y892510D02*
D03*
Y908510D02*
D03*
X879240Y892510D02*
D03*
Y908510D02*
D03*
X860190Y874220D02*
D03*
Y858220D02*
D03*
X633500Y597180D02*
D03*
Y581180D02*
D03*
X1012500Y875000D02*
D03*
Y891000D02*
D03*
X454000Y730000D02*
D03*
Y746000D02*
D03*
X468000Y722000D02*
D03*
Y738000D02*
D03*
X353000Y716000D02*
D03*
Y732000D02*
D03*
X691500Y772000D02*
D03*
Y788000D02*
D03*
X718000Y849000D02*
D03*
Y865000D02*
D03*
X706000Y711000D02*
D03*
Y727000D02*
D03*
X769000Y711000D02*
D03*
Y727000D02*
D03*
X789000Y691000D02*
D03*
Y707000D02*
D03*
X819000Y525000D02*
D03*
Y509000D02*
D03*
X805000Y509000D02*
D03*
Y525000D02*
D03*
X790000Y509000D02*
D03*
Y525000D02*
D03*
X868000Y673000D02*
D03*
Y657000D02*
D03*
X854000Y673000D02*
D03*
Y657000D02*
D03*
X840000Y673000D02*
D03*
Y657000D02*
D03*
X1061000Y899000D02*
D03*
Y915000D02*
D03*
X1240000Y841000D02*
D03*
Y857000D02*
D03*
X1326000Y841000D02*
D03*
Y857000D02*
D03*
X1411000Y841000D02*
D03*
Y857000D02*
D03*
X1497000Y841000D02*
D03*
Y857000D02*
D03*
D29*
X943500Y536750D02*
D03*
Y553250D02*
D03*
X453000Y265250D02*
D03*
Y248750D02*
D03*
X951660Y265250D02*
D03*
Y248750D02*
D03*
X1448660Y264750D02*
D03*
Y248250D02*
D03*
D30*
X1036000Y899630D02*
D03*
Y930370D02*
D03*
D31*
X192500Y622000D02*
D03*
X152500D02*
D03*
D32*
X46870Y502600D02*
D03*
Y553400D02*
D03*
D33*
X149000Y528000D02*
D03*
D34*
X431500Y694250D02*
D03*
D35*
Y700750D02*
D03*
Y707250D02*
D03*
Y713750D02*
D03*
Y720250D02*
D03*
Y726750D02*
D03*
Y733250D02*
D03*
Y739750D02*
D03*
X373500D02*
D03*
Y733250D02*
D03*
Y720250D02*
D03*
Y713750D02*
D03*
Y707250D02*
D03*
Y700750D02*
D03*
Y694250D02*
D03*
Y726750D02*
D03*
D36*
X402500Y717000D02*
D03*
D37*
X439000Y669000D02*
D03*
Y606000D02*
D03*
D38*
X496000Y626000D02*
D03*
Y656000D02*
D03*
D39*
X468000Y704000D02*
D03*
Y685000D02*
D03*
X1190000Y834500D02*
D03*
Y815500D02*
D03*
X1274000Y835000D02*
D03*
Y816000D02*
D03*
X1362500Y835000D02*
D03*
Y816000D02*
D03*
X1448500Y835000D02*
D03*
Y816000D02*
D03*
X123800Y355000D02*
D03*
Y374000D02*
D03*
Y386000D02*
D03*
Y405000D02*
D03*
X123800Y344000D02*
D03*
Y325000D02*
D03*
X204800Y191500D02*
D03*
X204800Y172500D02*
D03*
X289800Y191500D02*
D03*
Y172500D02*
D03*
X339800Y272500D02*
D03*
Y253500D02*
D03*
X371800Y248500D02*
D03*
Y267500D02*
D03*
X390000Y248500D02*
D03*
Y267500D02*
D03*
X203800Y369500D02*
D03*
Y388500D02*
D03*
X289800Y370500D02*
D03*
X289800Y389500D02*
D03*
X622460Y386000D02*
D03*
Y405000D02*
D03*
Y355000D02*
D03*
Y374000D02*
D03*
Y344000D02*
D03*
Y325000D02*
D03*
X703460Y191500D02*
D03*
Y172500D02*
D03*
X788460Y191500D02*
D03*
Y172500D02*
D03*
X838460Y272500D02*
D03*
Y253500D02*
D03*
X870460Y248500D02*
D03*
X870460Y267500D02*
D03*
X888460Y248500D02*
D03*
X888460Y267500D02*
D03*
X788460Y370500D02*
D03*
Y389500D02*
D03*
X702460Y369500D02*
D03*
Y388500D02*
D03*
X1199460Y369000D02*
D03*
X1199460Y388000D02*
D03*
X1285460Y370000D02*
D03*
Y389000D02*
D03*
X1200460Y191000D02*
D03*
X1200460Y172000D02*
D03*
X1285460Y191000D02*
D03*
X1285460Y172000D02*
D03*
X1119460Y343500D02*
D03*
Y324500D02*
D03*
Y354500D02*
D03*
Y373500D02*
D03*
Y385500D02*
D03*
X1119460Y404500D02*
D03*
X1335460Y272000D02*
D03*
Y253000D02*
D03*
X1367460Y248000D02*
D03*
Y267000D02*
D03*
X1385460Y248000D02*
D03*
X1385460Y267000D02*
D03*
D40*
X536000Y713000D02*
D03*
X526000D02*
D03*
D41*
X732010Y780300D02*
D03*
X762750D02*
D03*
D42*
X805420Y547680D02*
D03*
X797420D02*
D03*
X789420D02*
D03*
X781420Y547680D02*
D03*
X773420D02*
D03*
X765420D02*
D03*
X757420Y547680D02*
D03*
X749420D02*
D03*
X741420Y547680D02*
D03*
X733420D02*
D03*
X725420D02*
D03*
X725420Y662680D02*
D03*
X733420D02*
D03*
X741420D02*
D03*
X749420D02*
D03*
X757420D02*
D03*
X765420D02*
D03*
X773420D02*
D03*
X781420D02*
D03*
X789420D02*
D03*
X797420D02*
D03*
X805420D02*
D03*
D43*
X707920Y565180D02*
D03*
Y573180D02*
D03*
Y581180D02*
D03*
Y589180D02*
D03*
Y597180D02*
D03*
Y605180D02*
D03*
Y613180D02*
D03*
Y621180D02*
D03*
Y629180D02*
D03*
Y637180D02*
D03*
Y645180D02*
D03*
X822920Y645180D02*
D03*
Y637180D02*
D03*
Y629180D02*
D03*
Y621180D02*
D03*
Y613180D02*
D03*
Y605180D02*
D03*
Y597180D02*
D03*
Y589180D02*
D03*
Y581180D02*
D03*
Y573180D02*
D03*
Y565180D02*
D03*
D44*
X694750Y499000D02*
D03*
X711250D02*
D03*
X1209750Y835000D02*
D03*
X1226250D02*
D03*
X1295750D02*
D03*
X1312250D02*
D03*
X1380750D02*
D03*
X1397250D02*
D03*
X1466750D02*
D03*
X1483250D02*
D03*
D45*
X919000Y647000D02*
D03*
Y603000D02*
D03*
D46*
X1095500Y865500D02*
D03*
X1100500D02*
D03*
X1105500D02*
D03*
X1110500D02*
D03*
X1115500D02*
D03*
Y904500D02*
D03*
X1110500D02*
D03*
X1105500D02*
D03*
X1100500D02*
D03*
X1095500D02*
D03*
D47*
X1125000Y875000D02*
D03*
Y880000D02*
D03*
Y885000D02*
D03*
Y890000D02*
D03*
Y895000D02*
D03*
X1086000D02*
D03*
Y890000D02*
D03*
Y885000D02*
D03*
Y880000D02*
D03*
Y875000D02*
D03*
D48*
X1105500Y885000D02*
D03*
D49*
X86800Y308500D02*
D03*
X95800Y328500D02*
D03*
X77800D02*
D03*
X585460Y308500D02*
D03*
X594460Y328500D02*
D03*
X576460D02*
D03*
X1082460Y308000D02*
D03*
X1091460Y328000D02*
D03*
X1073460D02*
D03*
D50*
X70050Y252500D02*
D03*
X39550D02*
D03*
X568710D02*
D03*
X538210D02*
D03*
X1065710Y252000D02*
D03*
X1035210D02*
D03*
D51*
X93800Y252130D02*
D03*
Y282870D02*
D03*
X1089460Y251630D02*
D03*
Y282370D02*
D03*
X592460Y252130D02*
D03*
Y282870D02*
D03*
D52*
X69800Y196500D02*
D03*
X107800Y196500D02*
D03*
X568460D02*
D03*
X606460D02*
D03*
X1065460Y196000D02*
D03*
X1103460D02*
D03*
D53*
X880510Y935800D02*
D03*
X893210D02*
D03*
X905910D02*
D03*
X918610D02*
D03*
Y997300D02*
D03*
X905910D02*
D03*
X893210D02*
D03*
X880510D02*
D03*
D59*
X47000Y665100D02*
D03*
Y715900D02*
D03*
X216500Y770000D02*
D03*
Y695000D02*
D03*
D60*
X719000Y980000D02*
D03*
X693600D02*
D03*
X744400D02*
D03*
X1459380Y980550D02*
D03*
X1433980D02*
D03*
X1484780D02*
D03*
X1373020D02*
D03*
X1347620D02*
D03*
X1398420D02*
D03*
X1286660D02*
D03*
X1261260D02*
D03*
X1312060D02*
D03*
X1202840D02*
D03*
X1177440D02*
D03*
X1228240D02*
D03*
X1026310D02*
D03*
X1000910D02*
D03*
X1051710D02*
D03*
X1115210D02*
D03*
X1089810D02*
D03*
X1140610D02*
D03*
X778000Y962000D02*
D03*
X803400D02*
D03*
X1332000Y609400D02*
D03*
X1332000Y584000D02*
D03*
X1332000Y681400D02*
D03*
X1332000Y656000D02*
D03*
X1407000Y608400D02*
D03*
Y583000D02*
D03*
Y681000D02*
D03*
Y655600D02*
D03*
X1482000Y608400D02*
D03*
Y583000D02*
D03*
Y680400D02*
D03*
Y655000D02*
D03*
X1333000Y750400D02*
D03*
Y725000D02*
D03*
X1407000Y750400D02*
D03*
Y725000D02*
D03*
X1482000Y751000D02*
D03*
Y725600D02*
D03*
X1002900Y725300D02*
D03*
X952100D02*
D03*
X977500Y725300D02*
D03*
Y750700D02*
D03*
X952100Y750700D02*
D03*
X1002900D02*
D03*
X1072000Y748200D02*
D03*
Y697400D02*
D03*
Y722800D02*
D03*
Y773600D02*
D03*
Y799000D02*
D03*
D61*
X1479700Y856970D02*
D03*
Y888970D02*
D03*
X1428900D02*
D03*
Y856970D02*
D03*
X1479700Y910970D02*
D03*
Y932970D02*
D03*
X1428900D02*
D03*
Y910970D02*
D03*
X1342540D02*
D03*
Y932970D02*
D03*
X1393340D02*
D03*
Y910970D02*
D03*
X1342540Y856970D02*
D03*
Y888970D02*
D03*
X1393340D02*
D03*
Y856970D02*
D03*
X1308250D02*
D03*
Y888970D02*
D03*
X1257450D02*
D03*
Y856970D02*
D03*
X1308250Y910970D02*
D03*
Y932970D02*
D03*
X1257450D02*
D03*
Y910970D02*
D03*
X1172360D02*
D03*
Y932970D02*
D03*
X1223160D02*
D03*
Y910970D02*
D03*
X1172360Y856970D02*
D03*
Y888970D02*
D03*
X1223160D02*
D03*
Y856970D02*
D03*
D62*
X717000Y809500D02*
D03*
X691600D02*
D03*
X534500Y792200D02*
D03*
Y766800D02*
D03*
D63*
X299000Y79500D02*
D03*
X264000D02*
D03*
X229000D02*
D03*
X194000D02*
D03*
X798500Y80000D02*
D03*
X763500D02*
D03*
X728500D02*
D03*
X693500D02*
D03*
X1295500Y79000D02*
D03*
X1260500D02*
D03*
X1225500D02*
D03*
X1190500D02*
D03*
D64*
X428800Y198000D02*
D03*
Y148000D02*
D03*
X927460Y148000D02*
D03*
Y198000D02*
D03*
X1424460Y197500D02*
D03*
Y147500D02*
D03*
D65*
X49730Y50270D02*
D03*
X49000Y963500D02*
D03*
X1541500Y46000D02*
D03*
X1542000Y965000D02*
D03*
M02*
