G04 Layer_Color=8421504*
%FSLAX44Y44*%
%MOMM*%
G71*
G01*
G75*
%ADD10R,2.5000X1.7000*%
%ADD11R,0.7000X1.3000*%
%ADD12R,1.3000X0.7000*%
%ADD13R,1.7020X0.9140*%
%ADD14R,0.9140X1.7020*%
%ADD15R,2.8000X1.6000*%
%ADD16R,1.6000X2.8000*%
%ADD17R,1.6000X3.2000*%
%ADD18R,3.2000X1.6000*%
%ADD19R,1.6500X0.6000*%
%ADD20O,1.6500X0.6000*%
D10*
X461000Y485000D02*
D03*
X501000D02*
D03*
D11*
X527000Y304000D02*
D03*
X508000D02*
D03*
X485000D02*
D03*
X466000D02*
D03*
D12*
X278000Y343000D02*
D03*
Y362000D02*
D03*
X541000Y485000D02*
D03*
Y466000D02*
D03*
D13*
X145000Y478370D02*
D03*
Y447630D02*
D03*
X257000Y446630D02*
D03*
Y477370D02*
D03*
X145000Y406370D02*
D03*
Y375630D02*
D03*
X273000Y267370D02*
D03*
Y236630D02*
D03*
X288000Y477370D02*
D03*
Y446630D02*
D03*
Y392630D02*
D03*
Y423370D02*
D03*
X304000Y236630D02*
D03*
Y267370D02*
D03*
X424000Y334370D02*
D03*
Y303630D02*
D03*
D14*
X189370Y261000D02*
D03*
X158630D02*
D03*
X211630D02*
D03*
X242370D02*
D03*
X204370Y375000D02*
D03*
X173630D02*
D03*
X189370Y233000D02*
D03*
X158630D02*
D03*
X211630D02*
D03*
X242370D02*
D03*
D15*
X63000Y344000D02*
D03*
X107000D02*
D03*
X63000Y271000D02*
D03*
X107000D02*
D03*
D16*
X243000Y155000D02*
D03*
Y199000D02*
D03*
X163000Y155000D02*
D03*
Y199000D02*
D03*
X343000Y155000D02*
D03*
Y199000D02*
D03*
X423000Y155000D02*
D03*
Y199000D02*
D03*
D17*
X81000Y473000D02*
D03*
Y423000D02*
D03*
X203000Y428000D02*
D03*
Y478000D02*
D03*
X364000Y323000D02*
D03*
Y273000D02*
D03*
D18*
X483000Y421000D02*
D03*
X533000D02*
D03*
D19*
X248000Y303000D02*
D03*
Y316000D02*
D03*
Y328000D02*
D03*
Y341000D02*
D03*
X186000Y303000D02*
D03*
Y316000D02*
D03*
Y328000D02*
D03*
D20*
Y341000D02*
D03*
M02*
