G04 Layer_Color=16711935*
%FSLAX44Y44*%
%MOMM*%
G71*
G01*
G75*
%ADD37R,2.4020X1.6140*%
%ADD38R,1.6140X2.4020*%
%ADD45C,2.8000*%
G04:AMPARAMS|DCode=46|XSize=2.7mm|YSize=4.7mm|CornerRadius=0.85mm|HoleSize=0mm|Usage=FLASHONLY|Rotation=270.000|XOffset=0mm|YOffset=0mm|HoleType=Round|Shape=RoundedRectangle|*
%AMROUNDEDRECTD46*
21,1,2.7000,3.0000,0,0,270.0*
21,1,1.0000,4.7000,0,0,270.0*
1,1,1.7000,-1.5000,-0.5000*
1,1,1.7000,-1.5000,0.5000*
1,1,1.7000,1.5000,0.5000*
1,1,1.7000,1.5000,-0.5000*
%
%ADD46ROUNDEDRECTD46*%
G04:AMPARAMS|DCode=47|XSize=4.2mm|YSize=2.7mm|CornerRadius=0.85mm|HoleSize=0mm|Usage=FLASHONLY|Rotation=270.000|XOffset=0mm|YOffset=0mm|HoleType=Round|Shape=RoundedRectangle|*
%AMROUNDEDRECTD47*
21,1,4.2000,1.0000,0,0,270.0*
21,1,2.5000,2.7000,0,0,270.0*
1,1,1.7000,-0.5000,-1.2500*
1,1,1.7000,-0.5000,1.2500*
1,1,1.7000,0.5000,1.2500*
1,1,1.7000,0.5000,-1.2500*
%
%ADD47ROUNDEDRECTD47*%
G04:AMPARAMS|DCode=48|XSize=2.7mm|YSize=4.2mm|CornerRadius=0.85mm|HoleSize=0mm|Usage=FLASHONLY|Rotation=270.000|XOffset=0mm|YOffset=0mm|HoleType=Round|Shape=RoundedRectangle|*
%AMROUNDEDRECTD48*
21,1,2.7000,2.5000,0,0,270.0*
21,1,1.0000,4.2000,0,0,270.0*
1,1,1.7000,-1.2500,-0.5000*
1,1,1.7000,-1.2500,0.5000*
1,1,1.7000,1.2500,0.5000*
1,1,1.7000,1.2500,-0.5000*
%
%ADD48ROUNDEDRECTD48*%
%ADD49C,3.2000*%
D37*
X327000Y271630D02*
D03*
Y302370D02*
D03*
X327000Y211630D02*
D03*
Y242370D02*
D03*
X58000Y180630D02*
D03*
Y211370D02*
D03*
X92000Y180630D02*
D03*
Y211370D02*
D03*
X284000Y271630D02*
D03*
Y302370D02*
D03*
X284001Y211632D02*
D03*
Y242372D02*
D03*
D38*
X184000Y269000D02*
D03*
X153260D02*
D03*
X245000D02*
D03*
X214259D02*
D03*
X184000Y226000D02*
D03*
X153260D02*
D03*
X245000D02*
D03*
X214260D02*
D03*
D45*
X468000Y354000D02*
D03*
X493000D02*
D03*
X518000D02*
D03*
D46*
X382000Y380000D02*
D03*
D47*
X333000Y410000D02*
D03*
D48*
X382000Y440000D02*
D03*
D49*
X343000Y115500D02*
D03*
X163000D02*
D03*
X243000Y103000D02*
D03*
X423000D02*
D03*
X383000Y70500D02*
D03*
X203000D02*
D03*
M02*
