G04 Layer_Color=8388736*
%FSLAX44Y44*%
%MOMM*%
G71*
G01*
G75*
%ADD34R,3.2000X2.4000*%
%ADD35R,1.4000X2.0000*%
%ADD36R,2.0000X1.4000*%
%ADD37R,2.4020X1.6140*%
%ADD38R,1.6140X2.4020*%
%ADD39R,3.5000X2.3000*%
%ADD40R,2.3000X3.5000*%
%ADD41R,2.3000X3.9000*%
%ADD42R,3.9000X2.3000*%
%ADD43R,2.3500X1.3000*%
%ADD44O,2.3500X1.3000*%
%ADD45C,2.8000*%
G04:AMPARAMS|DCode=46|XSize=2.7mm|YSize=4.7mm|CornerRadius=0.85mm|HoleSize=0mm|Usage=FLASHONLY|Rotation=270.000|XOffset=0mm|YOffset=0mm|HoleType=Round|Shape=RoundedRectangle|*
%AMROUNDEDRECTD46*
21,1,2.7000,3.0000,0,0,270.0*
21,1,1.0000,4.7000,0,0,270.0*
1,1,1.7000,-1.5000,-0.5000*
1,1,1.7000,-1.5000,0.5000*
1,1,1.7000,1.5000,0.5000*
1,1,1.7000,1.5000,-0.5000*
%
%ADD46ROUNDEDRECTD46*%
G04:AMPARAMS|DCode=47|XSize=4.2mm|YSize=2.7mm|CornerRadius=0.85mm|HoleSize=0mm|Usage=FLASHONLY|Rotation=270.000|XOffset=0mm|YOffset=0mm|HoleType=Round|Shape=RoundedRectangle|*
%AMROUNDEDRECTD47*
21,1,4.2000,1.0000,0,0,270.0*
21,1,2.5000,2.7000,0,0,270.0*
1,1,1.7000,-0.5000,-1.2500*
1,1,1.7000,-0.5000,1.2500*
1,1,1.7000,0.5000,1.2500*
1,1,1.7000,0.5000,-1.2500*
%
%ADD47ROUNDEDRECTD47*%
G04:AMPARAMS|DCode=48|XSize=2.7mm|YSize=4.2mm|CornerRadius=0.85mm|HoleSize=0mm|Usage=FLASHONLY|Rotation=270.000|XOffset=0mm|YOffset=0mm|HoleType=Round|Shape=RoundedRectangle|*
%AMROUNDEDRECTD48*
21,1,2.7000,2.5000,0,0,270.0*
21,1,1.0000,4.2000,0,0,270.0*
1,1,1.7000,-1.2500,-0.5000*
1,1,1.7000,-1.2500,0.5000*
1,1,1.7000,1.2500,0.5000*
1,1,1.7000,1.2500,-0.5000*
%
%ADD48ROUNDEDRECTD48*%
%ADD49C,3.2000*%
D34*
X461000Y485000D02*
D03*
X501000D02*
D03*
D35*
X527000Y304000D02*
D03*
X508000D02*
D03*
X485000D02*
D03*
X466000D02*
D03*
D36*
X278000Y343000D02*
D03*
Y362000D02*
D03*
X541000Y485000D02*
D03*
Y466000D02*
D03*
D37*
X145000Y478370D02*
D03*
Y447630D02*
D03*
X257000Y446630D02*
D03*
Y477370D02*
D03*
X145000Y406370D02*
D03*
Y375630D02*
D03*
X273000Y267370D02*
D03*
Y236630D02*
D03*
X288000Y477370D02*
D03*
Y446630D02*
D03*
Y392630D02*
D03*
Y423370D02*
D03*
X304000Y236630D02*
D03*
Y267370D02*
D03*
X424000Y334370D02*
D03*
Y303630D02*
D03*
D38*
X189370Y261000D02*
D03*
X158630D02*
D03*
X211630D02*
D03*
X242370D02*
D03*
X204370Y375000D02*
D03*
X173630D02*
D03*
X189370Y233000D02*
D03*
X158630D02*
D03*
X211630D02*
D03*
X242370D02*
D03*
D39*
X63000Y344000D02*
D03*
X107000D02*
D03*
X63000Y271000D02*
D03*
X107000D02*
D03*
D40*
X243000Y155000D02*
D03*
Y199000D02*
D03*
X163000Y155000D02*
D03*
Y199000D02*
D03*
X343000Y155000D02*
D03*
Y199000D02*
D03*
X423000Y155000D02*
D03*
Y199000D02*
D03*
D41*
X81000Y473000D02*
D03*
Y423000D02*
D03*
X203000Y428000D02*
D03*
Y478000D02*
D03*
X364000Y323000D02*
D03*
Y273000D02*
D03*
D42*
X483000Y421000D02*
D03*
X533000D02*
D03*
D43*
X248000Y303000D02*
D03*
Y316000D02*
D03*
Y328000D02*
D03*
Y341000D02*
D03*
X186000Y303000D02*
D03*
Y316000D02*
D03*
Y328000D02*
D03*
D44*
Y341000D02*
D03*
D45*
X468000Y354000D02*
D03*
X493000D02*
D03*
X518000D02*
D03*
D46*
X382000Y380000D02*
D03*
D47*
X333000Y410000D02*
D03*
D48*
X382000Y440000D02*
D03*
D49*
X343000Y115500D02*
D03*
X163000D02*
D03*
X243000Y103000D02*
D03*
X423000D02*
D03*
X383000Y70500D02*
D03*
X203000D02*
D03*
M02*
