G04 Layer_Color=32896*
%FSLAX44Y44*%
%MOMM*%
G71*
G01*
G75*
%ADD21C,0.3000*%
%ADD23C,0.2540*%
%ADD33C,0.2000*%
D21*
X122000Y119500D02*
X142000D01*
X142000Y119500D01*
X440000D02*
X464000D01*
D23*
X122000Y500D02*
Y119500D01*
Y500D02*
X464000D01*
Y119500D01*
X162630Y262000D02*
X174630D01*
X162630Y276000D02*
X174630D01*
X223629Y262000D02*
X235630D01*
X223629Y276000D02*
X235630D01*
X320000Y281000D02*
Y293000D01*
X334000Y281000D02*
Y293000D01*
X320000Y221000D02*
Y233000D01*
X334000Y221000D02*
Y233000D01*
X51000Y190000D02*
Y202000D01*
X65000Y190000D02*
Y202000D01*
X162630Y219000D02*
X174630D01*
X162630Y233000D02*
X174630D01*
X223630Y219000D02*
X235630D01*
X223630Y233000D02*
X235630D01*
X85000Y190000D02*
Y202000D01*
X99000Y190000D02*
Y202000D01*
X277000Y281000D02*
Y293000D01*
X291000Y281000D02*
Y293000D01*
X277001Y221002D02*
Y233002D01*
X291001Y221002D02*
Y233002D01*
X555000Y146000D02*
Y161235D01*
X547383D01*
X544843Y158696D01*
Y153617D01*
X547383Y151078D01*
X555000D01*
X549922D02*
X544843Y146000D01*
X529608Y158696D02*
X532147Y161235D01*
X537226D01*
X539765Y158696D01*
Y156157D01*
X537226Y153617D01*
X532147D01*
X529608Y151078D01*
Y148539D01*
X532147Y146000D01*
X537226D01*
X539765Y148539D01*
X509295Y153617D02*
X499138D01*
X478825Y146000D02*
Y161235D01*
X471207D01*
X468668Y158696D01*
Y153617D01*
X471207Y151078D01*
X478825D01*
X473746D02*
X468668Y146000D01*
X463590Y161235D02*
X458511D01*
X461050D01*
Y146000D01*
X463590D01*
X458511D01*
X450894D02*
Y156157D01*
X445815Y161235D01*
X440737Y156157D01*
Y146000D01*
Y153617D01*
X450894D01*
X435659Y146000D02*
Y156157D01*
X430580Y161235D01*
X425502Y156157D01*
Y146000D01*
Y153617D01*
X435659D01*
X402649Y146000D02*
Y158696D01*
Y153617D01*
X405188D01*
X400110D01*
X402649D01*
Y158696D01*
X400110Y161235D01*
X392493Y146000D02*
X387414D01*
X389953D01*
Y156157D01*
X392493D01*
X379797Y146000D02*
X374718D01*
X377257D01*
Y161235D01*
X379797D01*
X364562Y158696D02*
Y156157D01*
X367101D01*
X362023D01*
X364562D01*
Y148539D01*
X362023Y146000D01*
X346787D02*
X351866D01*
X354405Y148539D01*
Y153617D01*
X351866Y156157D01*
X346787D01*
X344248Y153617D01*
Y151078D01*
X354405D01*
X339170Y156157D02*
Y146000D01*
Y151078D01*
X336631Y153617D01*
X334091Y156157D01*
X331552D01*
X558000Y64235D02*
Y49000D01*
X550382D01*
X547843Y51539D01*
Y54078D01*
X550382Y56617D01*
X558000D01*
X550382D01*
X547843Y59157D01*
Y61696D01*
X550382Y64235D01*
X558000D01*
X540226Y49000D02*
X535147D01*
X532608Y51539D01*
Y56617D01*
X535147Y59157D01*
X540226D01*
X542765Y56617D01*
Y51539D01*
X540226Y49000D01*
X524991Y61696D02*
Y59157D01*
X527530D01*
X522452D01*
X524991D01*
Y51539D01*
X522452Y49000D01*
X512295Y61696D02*
Y59157D01*
X514834D01*
X509756D01*
X512295D01*
Y51539D01*
X509756Y49000D01*
X499599D02*
X494521D01*
X491981Y51539D01*
Y56617D01*
X494521Y59157D01*
X499599D01*
X502138Y56617D01*
Y51539D01*
X499599Y49000D01*
X486903D02*
Y59157D01*
X484364D01*
X481825Y56617D01*
Y49000D01*
Y56617D01*
X479286Y59157D01*
X476746Y56617D01*
Y49000D01*
D33*
X293000Y189664D02*
Y183000D01*
Y186332D01*
X291334Y187998D01*
X289668Y189664D01*
X288002D01*
X283003Y183000D02*
X279671D01*
X281337D01*
Y192997D01*
X283003Y191331D01*
X269674Y183000D02*
Y192997D01*
X274673Y187998D01*
X268008D01*
X295148Y324926D02*
Y318262D01*
Y321594D01*
X293482Y323260D01*
X291816Y324926D01*
X290150D01*
X285151Y318262D02*
X281819D01*
X283485D01*
Y328259D01*
X285151Y326593D01*
X276821D02*
X275154Y328259D01*
X271822D01*
X270156Y326593D01*
Y324926D01*
X271822Y323260D01*
X273488D01*
X271822D01*
X270156Y321594D01*
Y319928D01*
X271822Y318262D01*
X275154D01*
X276821Y319928D01*
X119000Y158665D02*
Y152000D01*
Y155332D01*
X117334Y156998D01*
X115668Y158665D01*
X114002D01*
X109003Y152000D02*
X105671D01*
X107337D01*
Y161997D01*
X109003Y160331D01*
X94008Y152000D02*
X100673D01*
X94008Y158665D01*
Y160331D01*
X95674Y161997D01*
X99006D01*
X100673Y160331D01*
X241000Y202665D02*
Y196000D01*
Y199332D01*
X239334Y200998D01*
X237668Y202665D01*
X236002D01*
X231003Y205997D02*
X224339D01*
Y204331D01*
X231003Y197666D01*
Y196000D01*
X181000Y204664D02*
Y198000D01*
Y201332D01*
X179334Y202998D01*
X177668Y204664D01*
X176002D01*
X164339Y207997D02*
X167671Y206331D01*
X171003Y202998D01*
Y199666D01*
X169337Y198000D01*
X166005D01*
X164339Y199666D01*
Y201332D01*
X166005Y202998D01*
X171003D01*
X69342Y233995D02*
Y227330D01*
Y230662D01*
X67676Y232328D01*
X66010Y233995D01*
X64344D01*
X52681Y237327D02*
X59345D01*
Y232328D01*
X56013Y233995D01*
X54347D01*
X52681Y232328D01*
Y228996D01*
X54347Y227330D01*
X57679D01*
X59345Y228996D01*
X353665Y213664D02*
Y208666D01*
X351998Y207000D01*
X348666D01*
X347000Y208666D01*
Y213664D01*
Y216997D02*
Y220329D01*
Y218663D01*
X356997D01*
X355331Y216997D01*
Y225327D02*
X356997Y226994D01*
Y230326D01*
X355331Y231992D01*
X353665D01*
X351998Y230326D01*
Y228660D01*
Y230326D01*
X350332Y231992D01*
X348666D01*
X347000Y230326D01*
Y226994D01*
X348666Y225327D01*
X354664Y274662D02*
Y269664D01*
X352998Y267998D01*
X349665D01*
X347999Y269664D01*
Y274662D01*
Y277995D02*
Y281327D01*
Y279661D01*
X357996D01*
X356330Y277995D01*
X347999Y292990D02*
Y286325D01*
X354664Y292990D01*
X356330D01*
X357996Y291324D01*
Y287991D01*
X356330Y286325D01*
X245303Y295970D02*
X250302D01*
X251968Y294304D01*
Y290972D01*
X250302Y289306D01*
X245303D01*
X241971Y299303D02*
X235307D01*
Y297637D01*
X241971Y290972D01*
Y289306D01*
X184343Y295970D02*
X189342D01*
X191008Y294304D01*
Y290972D01*
X189342Y289306D01*
X184343D01*
X174347Y299303D02*
X177679Y297637D01*
X181011Y294304D01*
Y290972D01*
X179345Y289306D01*
X176013D01*
X174347Y290972D01*
Y292638D01*
X176013Y294304D01*
X181011D01*
M02*
