G04 Layer_Physical_Order=1*
G04 Layer_Color=255*
%FSLAX44Y44*%
%MOMM*%
G71*
G01*
G75*
%ADD10R,2.5000X1.7000*%
%ADD11R,0.7000X1.3000*%
%ADD12R,1.3000X0.7000*%
%ADD13R,1.7020X0.9140*%
%ADD14R,0.9140X1.7020*%
%ADD15R,2.8000X1.6000*%
%ADD16R,1.6000X2.8000*%
%ADD17R,1.6000X3.2000*%
%ADD18R,3.2000X1.6000*%
%ADD19R,1.6500X0.6000*%
%ADD20O,1.6500X0.6000*%
%ADD21C,0.3000*%
%ADD22C,0.7000*%
%ADD23C,0.2540*%
%ADD24C,2.1000*%
G04:AMPARAMS|DCode=25|XSize=2mm|YSize=4mm|CornerRadius=0.5mm|HoleSize=0mm|Usage=FLASHONLY|Rotation=270.000|XOffset=0mm|YOffset=0mm|HoleType=Round|Shape=RoundedRectangle|*
%AMROUNDEDRECTD25*
21,1,2.0000,3.0000,0,0,270.0*
21,1,1.0000,4.0000,0,0,270.0*
1,1,1.0000,-1.5000,-0.5000*
1,1,1.0000,-1.5000,0.5000*
1,1,1.0000,1.5000,0.5000*
1,1,1.0000,1.5000,-0.5000*
%
%ADD25ROUNDEDRECTD25*%
G04:AMPARAMS|DCode=26|XSize=3.5mm|YSize=2mm|CornerRadius=0.5mm|HoleSize=0mm|Usage=FLASHONLY|Rotation=270.000|XOffset=0mm|YOffset=0mm|HoleType=Round|Shape=RoundedRectangle|*
%AMROUNDEDRECTD26*
21,1,3.5000,1.0000,0,0,270.0*
21,1,2.5000,2.0000,0,0,270.0*
1,1,1.0000,-0.5000,-1.2500*
1,1,1.0000,-0.5000,1.2500*
1,1,1.0000,0.5000,1.2500*
1,1,1.0000,0.5000,-1.2500*
%
%ADD26ROUNDEDRECTD26*%
G04:AMPARAMS|DCode=27|XSize=2mm|YSize=3.5mm|CornerRadius=0.5mm|HoleSize=0mm|Usage=FLASHONLY|Rotation=270.000|XOffset=0mm|YOffset=0mm|HoleType=Round|Shape=RoundedRectangle|*
%AMROUNDEDRECTD27*
21,1,2.0000,2.5000,0,0,270.0*
21,1,1.0000,3.5000,0,0,270.0*
1,1,1.0000,-1.2500,-0.5000*
1,1,1.0000,-1.2500,0.5000*
1,1,1.0000,1.2500,0.5000*
1,1,1.0000,1.2500,-0.5000*
%
%ADD27ROUNDEDRECTD27*%
%ADD28C,2.5000*%
%ADD29C,0.8000*%
G36*
X576917Y3083D02*
X3083D01*
Y516917D01*
X576917D01*
Y3083D01*
D02*
G37*
%LPC*%
G36*
X61730Y281590D02*
X49000D01*
X48009Y281393D01*
X47169Y280831D01*
X46607Y279991D01*
X46410Y279000D01*
Y272270D01*
X61730D01*
Y281590D01*
D02*
G37*
G36*
X216200Y272100D02*
X212900D01*
Y262270D01*
X218790D01*
Y269510D01*
X218593Y270501D01*
X218031Y271341D01*
X217191Y271903D01*
X216200Y272100D01*
D02*
G37*
G36*
X210360D02*
X207060D01*
X206069Y271903D01*
X205229Y271341D01*
X204667Y270501D01*
X204470Y269510D01*
Y262270D01*
X210360D01*
Y272100D01*
D02*
G37*
G36*
X372000Y291590D02*
X365270D01*
Y274270D01*
X374590D01*
Y289000D01*
X374393Y289991D01*
X373831Y290831D01*
X372991Y291393D01*
X372000Y291590D01*
D02*
G37*
G36*
X362730D02*
X356000D01*
X355009Y291393D01*
X354169Y290831D01*
X353607Y289991D01*
X353410Y289000D01*
Y274270D01*
X362730D01*
Y291590D01*
D02*
G37*
G36*
X77000Y281590D02*
X64270D01*
Y272270D01*
X79590D01*
Y279000D01*
X79393Y279991D01*
X78831Y280831D01*
X77991Y281393D01*
X77000Y281590D01*
D02*
G37*
G36*
X61730Y269730D02*
X46410D01*
Y263000D01*
X46607Y262009D01*
X47169Y261169D01*
X48009Y260607D01*
X49000Y260410D01*
X61730D01*
Y269730D01*
D02*
G37*
G36*
X374590Y271730D02*
X365270D01*
Y254410D01*
X372000D01*
X372991Y254607D01*
X373831Y255169D01*
X374393Y256009D01*
X374590Y257000D01*
Y271730D01*
D02*
G37*
G36*
X362730D02*
X353410D01*
Y257000D01*
X353607Y256009D01*
X354169Y255169D01*
X355009Y254607D01*
X356000Y254410D01*
X362730D01*
Y271730D01*
D02*
G37*
G36*
X193940Y272100D02*
X190640D01*
Y262270D01*
X196530D01*
Y269510D01*
X196333Y270501D01*
X195771Y271341D01*
X194931Y271903D01*
X193940Y272100D01*
D02*
G37*
G36*
X188100D02*
X184800D01*
X183809Y271903D01*
X182969Y271341D01*
X182407Y270501D01*
X182210Y269510D01*
Y262270D01*
X188100D01*
Y272100D01*
D02*
G37*
G36*
X79590Y269730D02*
X64270D01*
Y260410D01*
X77000D01*
X77991Y260607D01*
X78831Y261169D01*
X79393Y262009D01*
X79590Y263000D01*
Y269730D01*
D02*
G37*
G36*
X197730Y284730D02*
X192571D01*
X192628Y284293D01*
X193287Y282702D01*
X194336Y281336D01*
X195702Y280287D01*
X197293Y279628D01*
X197730Y279571D01*
Y284730D01*
D02*
G37*
G36*
X514090Y302730D02*
X509270D01*
Y294910D01*
X511500D01*
X512491Y295107D01*
X513331Y295669D01*
X513893Y296509D01*
X514090Y297500D01*
Y302730D01*
D02*
G37*
G36*
X506730D02*
X501910D01*
Y297500D01*
X502107Y296509D01*
X502669Y295669D01*
X503509Y295107D01*
X504500Y294910D01*
X506730D01*
Y302730D01*
D02*
G37*
G36*
X491090D02*
X486270D01*
Y294910D01*
X488500D01*
X489491Y295107D01*
X490331Y295669D01*
X490893Y296509D01*
X491090Y297500D01*
Y302730D01*
D02*
G37*
G36*
X184730Y308590D02*
X177750D01*
X176759Y308393D01*
X175919Y307831D01*
X175357Y306991D01*
X175160Y306000D01*
Y304270D01*
X184730D01*
Y308590D01*
D02*
G37*
G36*
X196840Y301730D02*
X187270D01*
Y297410D01*
X194250D01*
X195241Y297607D01*
X196081Y298169D01*
X196643Y299009D01*
X196840Y300000D01*
Y301730D01*
D02*
G37*
G36*
X184730D02*
X175160D01*
Y300000D01*
X175357Y299009D01*
X175919Y298169D01*
X176759Y297607D01*
X177750Y297410D01*
X184730D01*
Y301730D01*
D02*
G37*
G36*
X197730Y292429D02*
X197293Y292372D01*
X195702Y291713D01*
X194336Y290664D01*
X193287Y289298D01*
X192628Y287707D01*
X192571Y287270D01*
X197730D01*
Y292429D01*
D02*
G37*
G36*
X175429Y289730D02*
X170270D01*
Y284571D01*
X170707Y284628D01*
X172298Y285287D01*
X173664Y286336D01*
X174713Y287702D01*
X175372Y289293D01*
X175429Y289730D01*
D02*
G37*
G36*
X205429Y284730D02*
X200270D01*
Y279571D01*
X200707Y279628D01*
X202298Y280287D01*
X203664Y281336D01*
X204713Y282702D01*
X205372Y284293D01*
X205429Y284730D01*
D02*
G37*
G36*
X483730Y302730D02*
X478910D01*
Y297500D01*
X479107Y296509D01*
X479669Y295669D01*
X480509Y295107D01*
X481500Y294910D01*
X483730D01*
Y302730D01*
D02*
G37*
G36*
X170270Y297429D02*
Y292270D01*
X175429D01*
X175372Y292707D01*
X174713Y294298D01*
X173664Y295664D01*
X172298Y296713D01*
X170707Y297372D01*
X170270Y297429D01*
D02*
G37*
G36*
X200270Y292429D02*
Y287270D01*
X205429D01*
X205372Y287707D01*
X204713Y289298D01*
X203664Y290664D01*
X202298Y291713D01*
X200707Y292372D01*
X200270Y292429D01*
D02*
G37*
G36*
X218790Y259730D02*
X212900D01*
Y249900D01*
X216200D01*
X217191Y250097D01*
X218031Y250659D01*
X218593Y251499D01*
X218790Y252490D01*
Y259730D01*
D02*
G37*
G36*
X384270Y85488D02*
Y71770D01*
X397988D01*
X397822Y73448D01*
X396962Y76283D01*
X395566Y78896D01*
X393686Y81186D01*
X391396Y83066D01*
X388783Y84462D01*
X385948Y85322D01*
X384270Y85488D01*
D02*
G37*
G36*
X381730D02*
X380052Y85322D01*
X377217Y84462D01*
X374604Y83066D01*
X372314Y81186D01*
X370434Y78896D01*
X369038Y76283D01*
X368178Y73448D01*
X368012Y71770D01*
X381730D01*
Y85488D01*
D02*
G37*
G36*
X204270D02*
Y71770D01*
X217988D01*
X217822Y73448D01*
X216962Y76283D01*
X215566Y78896D01*
X213686Y81186D01*
X211396Y83066D01*
X208783Y84462D01*
X205948Y85322D01*
X204270Y85488D01*
D02*
G37*
G36*
X171000Y171072D02*
X155000D01*
X154207Y170914D01*
X153535Y170465D01*
X153086Y169793D01*
X152928Y169000D01*
Y141000D01*
X153086Y140207D01*
X153535Y139535D01*
X154207Y139086D01*
X155000Y138928D01*
X159917D01*
Y129239D01*
X159339Y129163D01*
X155927Y127750D01*
X152998Y125502D01*
X150750Y122572D01*
X149337Y119161D01*
X148855Y115500D01*
X149337Y111839D01*
X150750Y108427D01*
X152998Y105498D01*
X155927Y103250D01*
X159339Y101837D01*
X163000Y101355D01*
X166661Y101837D01*
X170072Y103250D01*
X173002Y105498D01*
X175250Y108427D01*
X176663Y111839D01*
X177145Y115500D01*
X176663Y119161D01*
X175250Y122572D01*
X173002Y125502D01*
X170072Y127750D01*
X166661Y129163D01*
X166083Y129239D01*
Y138928D01*
X171000D01*
X171793Y139086D01*
X172465Y139535D01*
X172914Y140207D01*
X173072Y141000D01*
Y169000D01*
X172914Y169793D01*
X172465Y170465D01*
X171793Y170914D01*
X171000Y171072D01*
D02*
G37*
G36*
X431000D02*
X415000D01*
X414207Y170914D01*
X413535Y170465D01*
X413086Y169793D01*
X412928Y169000D01*
Y141000D01*
X413086Y140207D01*
X413535Y139535D01*
X414207Y139086D01*
X415000Y138928D01*
X419917D01*
Y116739D01*
X419339Y116663D01*
X415928Y115250D01*
X412998Y113002D01*
X410750Y110072D01*
X409337Y106661D01*
X408855Y103000D01*
X409337Y99339D01*
X410750Y95927D01*
X412998Y92998D01*
X415928Y90750D01*
X419339Y89337D01*
X423000Y88855D01*
X426661Y89337D01*
X430073Y90750D01*
X433002Y92998D01*
X435250Y95927D01*
X436663Y99339D01*
X437145Y103000D01*
X436663Y106661D01*
X435250Y110072D01*
X433002Y113002D01*
X430073Y115250D01*
X426661Y116663D01*
X426083Y116739D01*
Y138928D01*
X431000D01*
X431793Y139086D01*
X432465Y139535D01*
X432914Y140207D01*
X433072Y141000D01*
Y169000D01*
X432914Y169793D01*
X432465Y170465D01*
X431793Y170914D01*
X431000Y171072D01*
D02*
G37*
G36*
X251000D02*
X235000D01*
X234207Y170914D01*
X233535Y170465D01*
X233086Y169793D01*
X232928Y169000D01*
Y141000D01*
X233086Y140207D01*
X233535Y139535D01*
X234207Y139086D01*
X235000Y138928D01*
X239917D01*
Y116739D01*
X239339Y116663D01*
X235928Y115250D01*
X232998Y113002D01*
X230750Y110072D01*
X229337Y106661D01*
X228855Y103000D01*
X229337Y99339D01*
X230750Y95927D01*
X232998Y92998D01*
X235928Y90750D01*
X239339Y89337D01*
X243000Y88855D01*
X246661Y89337D01*
X250072Y90750D01*
X253002Y92998D01*
X255250Y95927D01*
X256663Y99339D01*
X257145Y103000D01*
X256663Y106661D01*
X255250Y110072D01*
X253002Y113002D01*
X250072Y115250D01*
X246661Y116663D01*
X246083Y116739D01*
Y138928D01*
X251000D01*
X251793Y139086D01*
X252465Y139535D01*
X252914Y140207D01*
X253072Y141000D01*
Y169000D01*
X252914Y169793D01*
X252465Y170465D01*
X251793Y170914D01*
X251000Y171072D01*
D02*
G37*
G36*
X217988Y69230D02*
X204270D01*
Y55512D01*
X205948Y55678D01*
X208783Y56538D01*
X211396Y57934D01*
X213686Y59814D01*
X215566Y62104D01*
X216962Y64717D01*
X217822Y67552D01*
X217988Y69230D01*
D02*
G37*
G36*
X201730D02*
X188012D01*
X188178Y67552D01*
X189038Y64717D01*
X190434Y62104D01*
X192314Y59814D01*
X194604Y57934D01*
X197217Y56538D01*
X200052Y55678D01*
X201730Y55512D01*
Y69230D01*
D02*
G37*
G36*
X85691Y61299D02*
X36936D01*
Y32858D01*
X85691D01*
Y61299D01*
D02*
G37*
G36*
X201730Y85488D02*
X200052Y85322D01*
X197217Y84462D01*
X194604Y83066D01*
X192314Y81186D01*
X190434Y78896D01*
X189038Y76283D01*
X188178Y73448D01*
X188012Y71770D01*
X201730D01*
Y85488D01*
D02*
G37*
G36*
X397988Y69230D02*
X384270D01*
Y55512D01*
X385948Y55678D01*
X388783Y56538D01*
X391396Y57934D01*
X393686Y59814D01*
X395566Y62104D01*
X396962Y64717D01*
X397822Y67552D01*
X397988Y69230D01*
D02*
G37*
G36*
X381730D02*
X368012D01*
X368178Y67552D01*
X369038Y64717D01*
X370434Y62104D01*
X372314Y59814D01*
X374604Y57934D01*
X377217Y56538D01*
X380052Y55678D01*
X381730Y55512D01*
Y69230D01*
D02*
G37*
G36*
X351000Y171072D02*
X335000D01*
X334207Y170914D01*
X333535Y170465D01*
X333086Y169793D01*
X332928Y169000D01*
Y141000D01*
X333086Y140207D01*
X333535Y139535D01*
X334207Y139086D01*
X335000Y138928D01*
X339917D01*
Y129239D01*
X339339Y129163D01*
X335928Y127750D01*
X332998Y125502D01*
X330750Y122572D01*
X329337Y119161D01*
X328855Y115500D01*
X329337Y111839D01*
X330750Y108427D01*
X332998Y105498D01*
X335928Y103250D01*
X339339Y101837D01*
X343000Y101355D01*
X346661Y101837D01*
X350073Y103250D01*
X353002Y105498D01*
X355250Y108427D01*
X356663Y111839D01*
X357145Y115500D01*
X356663Y119161D01*
X355250Y122572D01*
X353002Y125502D01*
X350073Y127750D01*
X346661Y129163D01*
X346083Y129239D01*
Y138928D01*
X351000D01*
X351793Y139086D01*
X352465Y139535D01*
X352914Y140207D01*
X353072Y141000D01*
Y169000D01*
X352914Y169793D01*
X352465Y170465D01*
X351793Y170914D01*
X351000Y171072D01*
D02*
G37*
G36*
X216200Y244100D02*
X212900D01*
Y234270D01*
X218790D01*
Y241510D01*
X218593Y242501D01*
X218031Y243341D01*
X217191Y243903D01*
X216200Y244100D01*
D02*
G37*
G36*
X193940D02*
X190640D01*
Y234270D01*
X196530D01*
Y241510D01*
X196333Y242501D01*
X195771Y243341D01*
X194931Y243903D01*
X193940Y244100D01*
D02*
G37*
G36*
X188100D02*
X184800D01*
X183809Y243903D01*
X182969Y243341D01*
X182407Y242501D01*
X182210Y241510D01*
Y234270D01*
X188100D01*
Y244100D01*
D02*
G37*
G36*
X210360Y259730D02*
X204470D01*
Y252490D01*
X204667Y251499D01*
X205229Y250659D01*
X206069Y250097D01*
X207060Y249900D01*
X210360D01*
Y259730D01*
D02*
G37*
G36*
X196530Y259730D02*
X190640D01*
Y249900D01*
X193940D01*
X194931Y250097D01*
X195771Y250659D01*
X196333Y251499D01*
X196530Y252490D01*
Y259730D01*
D02*
G37*
G36*
X188100D02*
X182210D01*
Y252490D01*
X182407Y251499D01*
X182969Y250659D01*
X183809Y250097D01*
X184800Y249900D01*
X188100D01*
Y259730D01*
D02*
G37*
G36*
X210360Y231730D02*
X204470D01*
Y224490D01*
X204667Y223499D01*
X205229Y222659D01*
X206069Y222097D01*
X207060Y221900D01*
X210360D01*
Y231730D01*
D02*
G37*
G36*
X196530D02*
X190640D01*
Y221900D01*
X193940D01*
X194931Y222097D01*
X195771Y222659D01*
X196333Y223499D01*
X196530Y224490D01*
Y231730D01*
D02*
G37*
G36*
X188100D02*
X182210D01*
Y224490D01*
X182407Y223499D01*
X182969Y222659D01*
X183809Y222097D01*
X184800Y221900D01*
X188100D01*
Y231730D01*
D02*
G37*
G36*
X210360Y244100D02*
X207060D01*
X206069Y243903D01*
X205229Y243341D01*
X204667Y242501D01*
X204470Y241510D01*
Y234270D01*
X210360D01*
Y244100D01*
D02*
G37*
G36*
X121000Y281072D02*
X93000D01*
X92207Y280914D01*
X91535Y280465D01*
X91086Y279793D01*
X90928Y279000D01*
Y263000D01*
X91086Y262207D01*
X91535Y261535D01*
X92207Y261086D01*
X93000Y260928D01*
X106917D01*
Y243584D01*
X106017Y242983D01*
X104796Y241155D01*
X104368Y239000D01*
X104796Y236845D01*
X106017Y235017D01*
X107845Y233797D01*
X110000Y233368D01*
X112155Y233797D01*
X113983Y235017D01*
X115204Y236845D01*
X115632Y239000D01*
X115204Y241155D01*
X113983Y242983D01*
X113083Y243584D01*
Y260928D01*
X121000D01*
X121793Y261086D01*
X122465Y261535D01*
X122914Y262207D01*
X123072Y263000D01*
Y279000D01*
X122914Y279793D01*
X122465Y280465D01*
X121793Y280914D01*
X121000Y281072D01*
D02*
G37*
G36*
X218790Y231730D02*
X212900D01*
Y221900D01*
X216200D01*
X217191Y222097D01*
X218031Y222659D01*
X218593Y223499D01*
X218790Y224490D01*
Y231730D01*
D02*
G37*
G36*
X255730Y453790D02*
X248490D01*
X247499Y453593D01*
X246659Y453031D01*
X246097Y452191D01*
X245900Y451200D01*
Y447900D01*
X255730D01*
Y453790D01*
D02*
G37*
G36*
X394500Y452605D02*
X383270D01*
Y441270D01*
X402105D01*
Y445000D01*
X401846Y446968D01*
X401086Y448803D01*
X399878Y450378D01*
X398302Y451586D01*
X396468Y452346D01*
X394500Y452605D01*
D02*
G37*
G36*
X380730D02*
X369500D01*
X367532Y452346D01*
X365698Y451586D01*
X364122Y450378D01*
X362914Y448803D01*
X362154Y446968D01*
X361895Y445000D01*
Y441270D01*
X380730D01*
Y452605D01*
D02*
G37*
G36*
X91590Y471730D02*
X82270D01*
Y454410D01*
X89000D01*
X89991Y454607D01*
X90831Y455169D01*
X91393Y456009D01*
X91590Y457000D01*
Y471730D01*
D02*
G37*
G36*
X79730D02*
X70410D01*
Y457000D01*
X70607Y456009D01*
X71169Y455169D01*
X72009Y454607D01*
X73000Y454410D01*
X79730D01*
Y471730D01*
D02*
G37*
G36*
X265510Y453790D02*
X258270D01*
Y447900D01*
X268100D01*
Y451200D01*
X267903Y452191D01*
X267341Y453031D01*
X266501Y453593D01*
X265510Y453790D01*
D02*
G37*
G36*
X268100Y445360D02*
X258270D01*
Y439470D01*
X265510D01*
X266501Y439667D01*
X267341Y440229D01*
X267903Y441069D01*
X268100Y442060D01*
Y445360D01*
D02*
G37*
G36*
X296510Y453272D02*
X279490D01*
X278697Y453114D01*
X278025Y452665D01*
X277576Y451993D01*
X277418Y451200D01*
Y442060D01*
X277576Y441267D01*
X278025Y440595D01*
X278697Y440146D01*
X279490Y439988D01*
X284917D01*
Y430012D01*
X279490D01*
X278697Y429854D01*
X278025Y429405D01*
X277576Y428733D01*
X277418Y427940D01*
Y426453D01*
X213072D01*
Y444000D01*
X212914Y444793D01*
X212465Y445465D01*
X211793Y445914D01*
X211000Y446072D01*
X195000D01*
X194207Y445914D01*
X193535Y445465D01*
X193086Y444793D01*
X192928Y444000D01*
Y412000D01*
X193086Y411207D01*
X193535Y410535D01*
X194207Y410086D01*
X195000Y409928D01*
X211000D01*
X211793Y410086D01*
X212465Y410535D01*
X212914Y411207D01*
X213072Y412000D01*
Y420287D01*
X277418D01*
Y418800D01*
X277576Y418007D01*
X278025Y417335D01*
X278697Y416886D01*
X279490Y416728D01*
X296510D01*
X297303Y416886D01*
X297975Y417335D01*
X298424Y418007D01*
X298582Y418800D01*
Y427940D01*
X298424Y428733D01*
X297975Y429405D01*
X297303Y429854D01*
X296510Y430012D01*
X291083D01*
Y439988D01*
X296510D01*
X297303Y440146D01*
X297975Y440595D01*
X298424Y441267D01*
X298582Y442060D01*
Y451200D01*
X298424Y451993D01*
X297975Y452665D01*
X297303Y453114D01*
X296510Y453272D01*
D02*
G37*
G36*
X499000Y431590D02*
X484270D01*
Y422270D01*
X501590D01*
Y429000D01*
X501393Y429991D01*
X500831Y430831D01*
X499991Y431393D01*
X499000Y431590D01*
D02*
G37*
G36*
X481730D02*
X467000D01*
X466009Y431393D01*
X465169Y430831D01*
X464607Y429991D01*
X464410Y429000D01*
Y422270D01*
X481730D01*
Y431590D01*
D02*
G37*
G36*
X255730Y445360D02*
X245900D01*
Y442060D01*
X246097Y441069D01*
X246659Y440229D01*
X247499Y439667D01*
X248490Y439470D01*
X255730D01*
Y445360D01*
D02*
G37*
G36*
X402105Y438730D02*
X383270D01*
Y427395D01*
X394500D01*
X396468Y427654D01*
X398302Y428414D01*
X399878Y429622D01*
X401086Y431198D01*
X401846Y433032D01*
X402105Y435000D01*
Y438730D01*
D02*
G37*
G36*
X380730D02*
X361895D01*
Y435000D01*
X362154Y433032D01*
X362914Y431198D01*
X364122Y429622D01*
X365698Y428414D01*
X367532Y427654D01*
X369500Y427395D01*
X380730D01*
Y438730D01*
D02*
G37*
G36*
X513500Y495572D02*
X488500D01*
X487707Y495414D01*
X487035Y494965D01*
X486586Y494293D01*
X486428Y493500D01*
Y476500D01*
X486586Y475707D01*
X487035Y475035D01*
X487707Y474586D01*
X488500Y474428D01*
X513500D01*
X514293Y474586D01*
X514965Y475035D01*
X515414Y475707D01*
X515572Y476500D01*
Y479878D01*
X533271D01*
X533707Y479586D01*
X534500Y479428D01*
X547500D01*
X548293Y479586D01*
X548965Y480035D01*
X549414Y480707D01*
X549572Y481500D01*
Y488500D01*
X549414Y489293D01*
X548965Y489965D01*
X548293Y490414D01*
X547500Y490572D01*
X534500D01*
X533707Y490414D01*
X533271Y490122D01*
X515572D01*
Y493500D01*
X515414Y494293D01*
X514965Y494965D01*
X514293Y495414D01*
X513500Y495572D01*
D02*
G37*
G36*
X211000Y496590D02*
X204270D01*
Y479270D01*
X213590D01*
Y494000D01*
X213393Y494991D01*
X212831Y495831D01*
X211991Y496393D01*
X211000Y496590D01*
D02*
G37*
G36*
X201730D02*
X195000D01*
X194009Y496393D01*
X193169Y495831D01*
X192607Y494991D01*
X192410Y494000D01*
Y479270D01*
X201730D01*
Y496590D01*
D02*
G37*
G36*
X296510Y484012D02*
X279490D01*
X278697Y483854D01*
X278025Y483405D01*
X277576Y482733D01*
X277418Y481940D01*
Y480453D01*
X267582D01*
Y481940D01*
X267424Y482733D01*
X266975Y483405D01*
X266303Y483854D01*
X265510Y484012D01*
X248490D01*
X247697Y483854D01*
X247025Y483405D01*
X246576Y482733D01*
X246418Y481940D01*
Y472800D01*
X246576Y472007D01*
X247025Y471335D01*
X247697Y470886D01*
X248490Y470728D01*
X265510D01*
X266303Y470886D01*
X266975Y471335D01*
X267424Y472007D01*
X267582Y472800D01*
Y474287D01*
X269917D01*
Y468277D01*
X266723Y465083D01*
X240000D01*
X240000Y465083D01*
X238820Y464849D01*
X237820Y464180D01*
X237820Y464180D01*
X228723Y455083D01*
X176000D01*
X176000Y455083D01*
X174820Y454849D01*
X173820Y454180D01*
X173820Y454180D01*
X166820Y447180D01*
X166152Y446180D01*
X165917Y445000D01*
X165917Y445000D01*
Y431277D01*
X163723Y429083D01*
X148083D01*
Y440988D01*
X153510D01*
X154303Y441146D01*
X154975Y441595D01*
X155424Y442267D01*
X155582Y443060D01*
Y452200D01*
X155424Y452993D01*
X154975Y453665D01*
X154303Y454114D01*
X153510Y454272D01*
X136490D01*
X135697Y454114D01*
X135025Y453665D01*
X134576Y452993D01*
X134418Y452200D01*
Y443060D01*
X134576Y442267D01*
X135025Y441595D01*
X135697Y441146D01*
X136490Y440988D01*
X141917D01*
Y426000D01*
Y413012D01*
X136490D01*
X135697Y412854D01*
X135025Y412405D01*
X134576Y411733D01*
X134418Y410940D01*
Y401800D01*
X134576Y401007D01*
X135025Y400335D01*
X135697Y399886D01*
X136490Y399728D01*
X153510D01*
X154303Y399886D01*
X154975Y400335D01*
X155424Y401007D01*
X155582Y401800D01*
Y410940D01*
X155424Y411733D01*
X154975Y412405D01*
X154303Y412854D01*
X153510Y413012D01*
X148083D01*
Y422917D01*
X165000D01*
X165000Y422917D01*
X166180Y423152D01*
X167180Y423820D01*
X171180Y427820D01*
X171180Y427820D01*
X171849Y428820D01*
X172083Y430000D01*
Y443723D01*
X177277Y448917D01*
X230000D01*
X230000Y448917D01*
X231180Y449151D01*
X232180Y449820D01*
X241277Y458917D01*
X268000D01*
X268000Y458917D01*
X269180Y459151D01*
X270180Y459820D01*
X275180Y464820D01*
X275180Y464820D01*
X275849Y465820D01*
X276083Y467000D01*
Y474287D01*
X277418D01*
Y472800D01*
X277576Y472007D01*
X278025Y471335D01*
X278697Y470886D01*
X279490Y470728D01*
X296510D01*
X297303Y470886D01*
X297975Y471335D01*
X298424Y472007D01*
X298582Y472800D01*
Y474287D01*
X305353D01*
X308917Y470723D01*
Y347083D01*
X286456D01*
X286414Y347293D01*
X285965Y347965D01*
X285293Y348414D01*
X284500Y348572D01*
X271500D01*
X270707Y348414D01*
X270035Y347965D01*
X269586Y347293D01*
X269428Y346500D01*
Y346083D01*
X266000D01*
X266000Y346083D01*
X264820Y345849D01*
X263820Y345180D01*
X262723Y344083D01*
X258305D01*
X258164Y344793D01*
X257715Y345465D01*
X257043Y345914D01*
X256250Y346072D01*
X239750D01*
X238957Y345914D01*
X238285Y345465D01*
X237836Y344793D01*
X237678Y344000D01*
Y338000D01*
X237836Y337207D01*
X238285Y336535D01*
X238957Y336086D01*
X239750Y335928D01*
X256250D01*
X257043Y336086D01*
X257715Y336535D01*
X258164Y337207D01*
X258305Y337917D01*
X264000D01*
X264000Y337917D01*
X265180Y338151D01*
X266180Y338820D01*
X267277Y339917D01*
X269428D01*
Y339500D01*
X269586Y338707D01*
X270035Y338035D01*
X270707Y337586D01*
X271500Y337428D01*
X284500D01*
X285293Y337586D01*
X285965Y338035D01*
X286414Y338707D01*
X286572Y339500D01*
Y340917D01*
X310723D01*
X330820Y320820D01*
X330820Y320820D01*
X331820Y320151D01*
X333000Y319917D01*
X353928D01*
Y307000D01*
X354086Y306207D01*
X354535Y305535D01*
X355207Y305086D01*
X356000Y304928D01*
X372000D01*
X372793Y305086D01*
X373465Y305535D01*
X373914Y306207D01*
X374072Y307000D01*
Y319917D01*
X379000D01*
X379000Y319917D01*
X380180Y320151D01*
X381180Y320820D01*
X391647Y331287D01*
X413418D01*
Y329800D01*
X413576Y329007D01*
X414025Y328335D01*
X414697Y327886D01*
X415490Y327728D01*
X432510D01*
X433303Y327886D01*
X433975Y328335D01*
X434424Y329007D01*
X434582Y329800D01*
Y338940D01*
X434424Y339733D01*
X433975Y340405D01*
X433303Y340854D01*
X432510Y341012D01*
X415490D01*
X414697Y340854D01*
X414025Y340405D01*
X413576Y339733D01*
X413418Y338940D01*
Y337453D01*
X390370D01*
X390370Y337453D01*
X389190Y337219D01*
X388190Y336550D01*
X388190Y336550D01*
X377723Y326083D01*
X374072D01*
Y339000D01*
X373914Y339793D01*
X373465Y340465D01*
X372793Y340914D01*
X372000Y341072D01*
X356000D01*
X355207Y340914D01*
X354535Y340465D01*
X354086Y339793D01*
X353928Y339000D01*
Y326083D01*
X334277D01*
X315083Y345277D01*
Y472000D01*
X314848Y473180D01*
X314180Y474180D01*
X314180Y474180D01*
X308810Y479550D01*
X307810Y480219D01*
X306630Y480453D01*
X306630Y480453D01*
X298582D01*
Y481940D01*
X298424Y482733D01*
X297975Y483405D01*
X297303Y483854D01*
X296510Y484012D01*
D02*
G37*
G36*
X153510Y485530D02*
X146270D01*
Y479640D01*
X156100D01*
Y482940D01*
X155903Y483931D01*
X155341Y484771D01*
X154501Y485333D01*
X153510Y485530D01*
D02*
G37*
G36*
X143730D02*
X136490D01*
X135499Y485333D01*
X134659Y484771D01*
X134097Y483931D01*
X133900Y482940D01*
Y479640D01*
X143730D01*
Y485530D01*
D02*
G37*
G36*
X473500Y495572D02*
X448500D01*
X447707Y495414D01*
X447035Y494965D01*
X446586Y494293D01*
X446428Y493500D01*
Y490122D01*
X442000D01*
X440040Y489733D01*
X438378Y488622D01*
X424378Y474622D01*
X423268Y472960D01*
X422878Y471000D01*
Y389122D01*
X418878Y385122D01*
X403564D01*
X403356Y386703D01*
X402699Y388290D01*
X401653Y389653D01*
X400290Y390699D01*
X398703Y391356D01*
X397000Y391580D01*
X367000D01*
X365297Y391356D01*
X363710Y390699D01*
X362347Y389653D01*
X361301Y388290D01*
X360644Y386703D01*
X360420Y385000D01*
Y375000D01*
X360644Y373297D01*
X361301Y371710D01*
X362347Y370347D01*
X363710Y369301D01*
X365297Y368644D01*
X367000Y368420D01*
X397000D01*
X398703Y368644D01*
X400290Y369301D01*
X401653Y370347D01*
X402699Y371710D01*
X403356Y373297D01*
X403564Y374878D01*
X421000D01*
X422960Y375267D01*
X424622Y376378D01*
X431622Y383378D01*
X432733Y385040D01*
X433122Y387000D01*
Y468878D01*
X444122Y479878D01*
X446428D01*
Y476500D01*
X446586Y475707D01*
X447035Y475035D01*
X447707Y474586D01*
X448500Y474428D01*
X473500D01*
X474293Y474586D01*
X474965Y475035D01*
X475414Y475707D01*
X475572Y476500D01*
Y493500D01*
X475414Y494293D01*
X474965Y494965D01*
X474293Y495414D01*
X473500Y495572D01*
D02*
G37*
G36*
X143730Y477100D02*
X133900D01*
Y473800D01*
X134097Y472809D01*
X134659Y471969D01*
X135499Y471407D01*
X136490Y471210D01*
X143730D01*
Y477100D01*
D02*
G37*
G36*
X213590Y476730D02*
X204270D01*
Y459410D01*
X211000D01*
X211991Y459607D01*
X212831Y460169D01*
X213393Y461009D01*
X213590Y462000D01*
Y476730D01*
D02*
G37*
G36*
X201730D02*
X192410D01*
Y462000D01*
X192607Y461009D01*
X193169Y460169D01*
X194009Y459607D01*
X195000Y459410D01*
X201730D01*
Y476730D01*
D02*
G37*
G36*
X89000Y491590D02*
X82270D01*
Y474270D01*
X91590D01*
Y489000D01*
X91393Y489991D01*
X90831Y490831D01*
X89991Y491393D01*
X89000Y491590D01*
D02*
G37*
G36*
X79730D02*
X73000D01*
X72009Y491393D01*
X71169Y490831D01*
X70607Y489991D01*
X70410Y489000D01*
Y474270D01*
X79730D01*
Y491590D01*
D02*
G37*
G36*
X156100Y477100D02*
X146270D01*
Y471210D01*
X153510D01*
X154501Y471407D01*
X155341Y471969D01*
X155903Y472809D01*
X156100Y473800D01*
Y477100D01*
D02*
G37*
G36*
X298000Y335083D02*
X298000Y335083D01*
X269000D01*
X269000Y335083D01*
X267820Y334849D01*
X266820Y334180D01*
X266820Y334180D01*
X263723Y331083D01*
X258305D01*
X258164Y331793D01*
X257715Y332465D01*
X257043Y332914D01*
X256250Y333072D01*
X239750D01*
X238957Y332914D01*
X238285Y332465D01*
X237836Y331793D01*
X237678Y331000D01*
Y325000D01*
X237836Y324207D01*
X238285Y323535D01*
X238957Y323086D01*
X239750Y322928D01*
X256250D01*
X257043Y323086D01*
X257715Y323535D01*
X258164Y324207D01*
X258305Y324917D01*
X265000D01*
X265000Y324917D01*
X266180Y325151D01*
X267180Y325820D01*
X270277Y328917D01*
X296723D01*
X300917Y324723D01*
Y284000D01*
Y274012D01*
X295490D01*
X294697Y273854D01*
X294025Y273405D01*
X293576Y272733D01*
X293418Y271940D01*
Y262800D01*
X293576Y262007D01*
X294025Y261335D01*
X294697Y260886D01*
X295490Y260728D01*
X312510D01*
X313303Y260886D01*
X313975Y261335D01*
X314424Y262007D01*
X314582Y262800D01*
Y271940D01*
X314424Y272733D01*
X313975Y273405D01*
X313303Y273854D01*
X312510Y274012D01*
X307083D01*
Y280917D01*
X336723D01*
X341917Y275723D01*
Y254000D01*
X341917Y254000D01*
X342151Y252820D01*
X342820Y251820D01*
X352917Y241723D01*
Y231000D01*
X352917Y231000D01*
X353152Y229820D01*
X353820Y228820D01*
X359820Y222820D01*
X359820Y222820D01*
X360820Y222152D01*
X362000Y221917D01*
X362000Y221917D01*
X413723D01*
X419298Y216342D01*
X418772Y215072D01*
X415000D01*
X414207Y214914D01*
X413535Y214465D01*
X413086Y213793D01*
X412928Y213000D01*
Y185000D01*
X413086Y184207D01*
X413535Y183535D01*
X414207Y183086D01*
X415000Y182928D01*
X431000D01*
X431793Y183086D01*
X432465Y183535D01*
X432914Y184207D01*
X433072Y185000D01*
Y213000D01*
X432914Y213793D01*
X432465Y214465D01*
X431793Y214914D01*
X431000Y215072D01*
X426083D01*
Y217000D01*
X426083Y217000D01*
X425849Y218180D01*
X425180Y219180D01*
X425180Y219180D01*
X417180Y227180D01*
X416180Y227848D01*
X415000Y228083D01*
X415000Y228083D01*
X363277D01*
X359083Y232277D01*
Y243000D01*
X359083Y243000D01*
X358848Y244180D01*
X358180Y245180D01*
X358180Y245180D01*
X348083Y255277D01*
Y277000D01*
X348083Y277000D01*
X347849Y278180D01*
X347180Y279180D01*
X347180Y279180D01*
X340180Y286180D01*
X339180Y286849D01*
X338000Y287083D01*
X338000Y287083D01*
X307083D01*
Y326000D01*
X307083Y326000D01*
X306849Y327180D01*
X306180Y328180D01*
X300180Y334180D01*
X299180Y334849D01*
X298000Y335083D01*
D02*
G37*
G36*
X79590Y342730D02*
X64270D01*
Y333410D01*
X77000D01*
X77991Y333607D01*
X78831Y334169D01*
X79393Y335009D01*
X79590Y336000D01*
Y342730D01*
D02*
G37*
G36*
X61730D02*
X46410D01*
Y336000D01*
X46607Y335009D01*
X47169Y334169D01*
X48009Y333607D01*
X49000Y333410D01*
X61730D01*
Y342730D01*
D02*
G37*
G36*
X276730Y360730D02*
X268910D01*
Y358500D01*
X269107Y357509D01*
X269669Y356669D01*
X270509Y356107D01*
X271500Y355910D01*
X276730D01*
Y360730D01*
D02*
G37*
G36*
X77000Y354590D02*
X64270D01*
Y345270D01*
X79590D01*
Y352000D01*
X79393Y352991D01*
X78831Y353831D01*
X77991Y354393D01*
X77000Y354590D01*
D02*
G37*
G36*
X61730D02*
X49000D01*
X48009Y354393D01*
X47169Y353831D01*
X46607Y352991D01*
X46410Y352000D01*
Y345270D01*
X61730D01*
Y354590D01*
D02*
G37*
G36*
X279000Y327632D02*
X276845Y327203D01*
X275017Y325983D01*
X273797Y324155D01*
X273368Y322000D01*
X273579Y320939D01*
X271723Y319083D01*
X258305D01*
X258164Y319793D01*
X257715Y320465D01*
X257043Y320914D01*
X256250Y321072D01*
X239750D01*
X238957Y320914D01*
X238285Y320465D01*
X237836Y319793D01*
X237678Y319000D01*
Y313000D01*
X237836Y312207D01*
X238285Y311535D01*
X238957Y311086D01*
X239750Y310928D01*
X256250D01*
X257043Y311086D01*
X257715Y311535D01*
X258164Y312207D01*
X258305Y312917D01*
X273000D01*
X273000Y312917D01*
X274180Y313151D01*
X275180Y313820D01*
X277939Y316579D01*
X279000Y316368D01*
X281155Y316796D01*
X282983Y318017D01*
X284203Y319845D01*
X284632Y322000D01*
X284203Y324155D01*
X282983Y325983D01*
X281155Y327203D01*
X279000Y327632D01*
D02*
G37*
G36*
X506730Y313090D02*
X504500D01*
X503509Y312893D01*
X502669Y312331D01*
X502107Y311491D01*
X501910Y310500D01*
Y305270D01*
X506730D01*
Y313090D01*
D02*
G37*
G36*
X483730D02*
X481500D01*
X480509Y312893D01*
X479669Y312331D01*
X479107Y311491D01*
X478910Y310500D01*
Y305270D01*
X483730D01*
Y313090D01*
D02*
G37*
G36*
X194250Y308590D02*
X187270D01*
Y304270D01*
X196840D01*
Y306000D01*
X196643Y306991D01*
X196081Y307831D01*
X195241Y308393D01*
X194250Y308590D01*
D02*
G37*
G36*
X121000Y354072D02*
X93000D01*
X92207Y353914D01*
X91535Y353465D01*
X91086Y352793D01*
X90928Y352000D01*
Y336000D01*
X91086Y335207D01*
X91535Y334535D01*
X92207Y334086D01*
X93000Y333928D01*
X103917D01*
Y319583D01*
X103017Y318983D01*
X101797Y317155D01*
X101368Y315000D01*
X101797Y312845D01*
X103017Y311017D01*
X104845Y309797D01*
X107000Y309368D01*
X109155Y309797D01*
X110983Y311017D01*
X112204Y312845D01*
X112632Y315000D01*
X112204Y317155D01*
X110983Y318983D01*
X110083Y319583D01*
Y333928D01*
X121000D01*
X121793Y334086D01*
X122465Y334535D01*
X122914Y335207D01*
X123072Y336000D01*
Y352000D01*
X122914Y352793D01*
X122465Y353465D01*
X121793Y353914D01*
X121000Y354072D01*
D02*
G37*
G36*
X511500Y313090D02*
X509270D01*
Y305270D01*
X514090D01*
Y310500D01*
X513893Y311491D01*
X513331Y312331D01*
X512491Y312893D01*
X511500Y313090D01*
D02*
G37*
G36*
X488500D02*
X486270D01*
Y305270D01*
X491090D01*
Y310500D01*
X490893Y311491D01*
X490331Y312331D01*
X489491Y312893D01*
X488500Y313090D01*
D02*
G37*
G36*
X481730Y419730D02*
X464410D01*
Y413000D01*
X464607Y412009D01*
X465169Y411169D01*
X466009Y410607D01*
X467000Y410410D01*
X481730D01*
Y419730D01*
D02*
G37*
G36*
X345605Y408730D02*
X334270D01*
Y389895D01*
X338000D01*
X339968Y390154D01*
X341802Y390914D01*
X343378Y392122D01*
X344586Y393698D01*
X345346Y395532D01*
X345605Y397500D01*
Y408730D01*
D02*
G37*
G36*
X331730D02*
X320395D01*
Y397500D01*
X320654Y395532D01*
X321414Y393698D01*
X322622Y392122D01*
X324197Y390914D01*
X326032Y390154D01*
X328000Y389895D01*
X331730D01*
Y408730D01*
D02*
G37*
G36*
X338000Y430105D02*
X334270D01*
Y411270D01*
X345605D01*
Y422500D01*
X345346Y424468D01*
X344586Y426303D01*
X343378Y427878D01*
X341802Y429086D01*
X339968Y429846D01*
X338000Y430105D01*
D02*
G37*
G36*
X331730D02*
X328000D01*
X326032Y429846D01*
X324197Y429086D01*
X322622Y427878D01*
X321414Y426303D01*
X320654Y424468D01*
X320395Y422500D01*
Y411270D01*
X331730D01*
Y430105D01*
D02*
G37*
G36*
X501590Y419730D02*
X484270D01*
Y410410D01*
X499000D01*
X499991Y410607D01*
X500831Y411169D01*
X501393Y412009D01*
X501590Y413000D01*
Y419730D01*
D02*
G37*
G36*
X296510Y399272D02*
X279490D01*
X278697Y399114D01*
X278025Y398665D01*
X277576Y397993D01*
X277418Y397200D01*
Y395713D01*
X270630D01*
X269450Y395479D01*
X268450Y394810D01*
X268450Y394810D01*
X260820Y387180D01*
X260152Y386180D01*
X259917Y385000D01*
X259917Y385000D01*
Y365277D01*
X253723Y359083D01*
X239000D01*
X239000Y359083D01*
X237820Y358848D01*
X236820Y358180D01*
X236820Y358180D01*
X230723Y352083D01*
X201240D01*
X200714Y353353D01*
X206550Y359190D01*
X206550Y359190D01*
X207219Y360190D01*
X207453Y361370D01*
X207453Y361370D01*
Y364418D01*
X208940D01*
X209733Y364576D01*
X210405Y365025D01*
X210854Y365697D01*
X211012Y366490D01*
Y383510D01*
X210854Y384303D01*
X210405Y384975D01*
X209733Y385424D01*
X208940Y385582D01*
X199800D01*
X199007Y385424D01*
X198335Y384975D01*
X197886Y384303D01*
X197728Y383510D01*
Y366490D01*
X197886Y365697D01*
X198335Y365025D01*
X199007Y364576D01*
X199800Y364418D01*
X201287D01*
Y362647D01*
X196723Y358083D01*
X169000D01*
X169000Y358083D01*
X167820Y357849D01*
X166820Y357180D01*
X166820Y357180D01*
X159820Y350180D01*
X159151Y349180D01*
X158917Y348000D01*
X158917Y348000D01*
Y325000D01*
X158917Y325000D01*
X159151Y323820D01*
X159820Y322820D01*
X166640Y316000D01*
X156450Y305810D01*
X155781Y304810D01*
X155547Y303630D01*
X155547Y303630D01*
Y271582D01*
X154060D01*
X153267Y271424D01*
X152595Y270975D01*
X152146Y270303D01*
X151988Y269510D01*
Y252490D01*
X152146Y251697D01*
X152595Y251025D01*
X153267Y250576D01*
X154060Y250418D01*
X155547D01*
Y243582D01*
X154060D01*
X153267Y243424D01*
X152595Y242975D01*
X152146Y242303D01*
X151988Y241510D01*
Y224490D01*
X152146Y223697D01*
X152595Y223025D01*
X153267Y222576D01*
X154060Y222418D01*
X155547D01*
Y219370D01*
X155547Y219370D01*
X155781Y218190D01*
X156450Y217190D01*
X157395Y216245D01*
X156909Y215072D01*
X155000D01*
X154207Y214914D01*
X153535Y214465D01*
X153086Y213793D01*
X152928Y213000D01*
Y185000D01*
X153086Y184207D01*
X153535Y183535D01*
X154207Y183086D01*
X155000Y182928D01*
X171000D01*
X171793Y183086D01*
X172465Y183535D01*
X172914Y184207D01*
X173072Y185000D01*
Y213000D01*
X172914Y213793D01*
X172465Y214465D01*
X171793Y214914D01*
X171000Y215072D01*
X166069D01*
X165849Y216180D01*
X165180Y217180D01*
X165180Y217180D01*
X161713Y220647D01*
Y222418D01*
X163200D01*
X163993Y222576D01*
X164665Y223025D01*
X165114Y223697D01*
X165272Y224490D01*
Y241510D01*
X165114Y242303D01*
X164665Y242975D01*
X163993Y243424D01*
X163200Y243582D01*
X161713D01*
Y250418D01*
X163200D01*
X163993Y250576D01*
X164665Y251025D01*
X165114Y251697D01*
X165272Y252490D01*
Y269510D01*
X165114Y270303D01*
X164665Y270975D01*
X163993Y271424D01*
X163200Y271582D01*
X161713D01*
Y288183D01*
X162983Y288436D01*
X163287Y287702D01*
X164336Y286336D01*
X165702Y285287D01*
X167293Y284628D01*
X167730Y284571D01*
Y291000D01*
Y297429D01*
X167293Y297372D01*
X165702Y296713D01*
X164336Y295664D01*
X163287Y294298D01*
X162983Y293564D01*
X161713Y293817D01*
Y302353D01*
X172277Y312917D01*
X175695D01*
X175836Y312207D01*
X176285Y311535D01*
X176957Y311086D01*
X177750Y310928D01*
X194250D01*
X195043Y311086D01*
X195715Y311535D01*
X196164Y312207D01*
X196322Y313000D01*
Y319000D01*
X196164Y319793D01*
X195715Y320465D01*
X195043Y320914D01*
X194250Y321072D01*
X177750D01*
X176957Y320914D01*
X176285Y320465D01*
X175836Y319793D01*
X175695Y319083D01*
X172277D01*
X165083Y326277D01*
Y335176D01*
X166353Y335518D01*
X166820Y334820D01*
X168820Y332820D01*
X168820Y332820D01*
X169820Y332151D01*
X171000Y331917D01*
X171000Y331917D01*
X172903D01*
X173024Y331893D01*
X174561D01*
X175678Y331000D01*
Y325000D01*
X175836Y324207D01*
X176285Y323535D01*
X176957Y323086D01*
X177750Y322928D01*
X194250D01*
X195043Y323086D01*
X195715Y323535D01*
X196164Y324207D01*
X196305Y324917D01*
X204417D01*
X205017Y324017D01*
X206845Y322797D01*
X209000Y322368D01*
X211155Y322797D01*
X212983Y324017D01*
X213647Y325011D01*
X214917Y324626D01*
Y285370D01*
X214917Y285370D01*
X215152Y284190D01*
X215820Y283190D01*
X235728Y263281D01*
Y252490D01*
X235886Y251697D01*
X236335Y251025D01*
X237007Y250576D01*
X237800Y250418D01*
X239287D01*
Y243582D01*
X237800D01*
X237007Y243424D01*
X236335Y242975D01*
X235886Y242303D01*
X235728Y241510D01*
Y224490D01*
X235886Y223697D01*
X236335Y223025D01*
X237007Y222576D01*
X237800Y222418D01*
X239917D01*
Y215072D01*
X235000D01*
X234207Y214914D01*
X233535Y214465D01*
X233086Y213793D01*
X232928Y213000D01*
Y185000D01*
X233086Y184207D01*
X233535Y183535D01*
X234207Y183086D01*
X235000Y182928D01*
X251000D01*
X251793Y183086D01*
X252465Y183535D01*
X252914Y184207D01*
X253072Y185000D01*
Y213000D01*
X252914Y213793D01*
X252465Y214465D01*
X251793Y214914D01*
X251000Y215072D01*
X246083D01*
Y222418D01*
X246940D01*
X247733Y222576D01*
X248405Y223025D01*
X248854Y223697D01*
X249012Y224490D01*
Y241510D01*
X248854Y242303D01*
X248405Y242975D01*
X247733Y243424D01*
X246940Y243582D01*
X245453D01*
Y250418D01*
X246940D01*
X247733Y250576D01*
X248405Y251025D01*
X248854Y251697D01*
X249012Y252490D01*
Y269510D01*
X248854Y270303D01*
X248405Y270975D01*
X247733Y271424D01*
X246940Y271582D01*
X237800D01*
X237007Y271424D01*
X236587Y271143D01*
X221083Y286647D01*
Y331000D01*
X220849Y332180D01*
X220180Y333180D01*
X220180Y333180D01*
X216714Y336647D01*
X217240Y337917D01*
X218723D01*
X222917Y333723D01*
Y288000D01*
X222917Y288000D01*
X223151Y286820D01*
X223820Y285820D01*
X225820Y283820D01*
X225820Y283820D01*
X226820Y283151D01*
X228000Y282917D01*
X270450D01*
X278181Y275185D01*
X277695Y274012D01*
X264490D01*
X263697Y273854D01*
X263025Y273405D01*
X262576Y272733D01*
X262418Y271940D01*
Y262800D01*
X262576Y262007D01*
X262857Y261587D01*
X255820Y254550D01*
X255152Y253550D01*
X254917Y252370D01*
X254917Y252370D01*
Y210000D01*
X254917Y210000D01*
X255152Y208820D01*
X255820Y207820D01*
X272579Y191061D01*
X272368Y190000D01*
X272796Y187845D01*
X274017Y186017D01*
X275845Y184797D01*
X278000Y184368D01*
X280155Y184797D01*
X281983Y186017D01*
X283204Y187845D01*
X283632Y190000D01*
X283204Y192155D01*
X281983Y193983D01*
X280155Y195203D01*
X278000Y195632D01*
X276939Y195421D01*
X261083Y211277D01*
Y251093D01*
X270718Y260728D01*
X281451D01*
Y252466D01*
X281451Y252466D01*
X281686Y251286D01*
X282354Y250286D01*
X286640Y246000D01*
X283275Y242635D01*
X282975Y242665D01*
X282303Y243114D01*
X281510Y243272D01*
X264490D01*
X263697Y243114D01*
X263025Y242665D01*
X262576Y241993D01*
X262418Y241200D01*
Y232060D01*
X262576Y231267D01*
X263025Y230595D01*
X263697Y230146D01*
X264490Y229988D01*
X281510D01*
X282303Y230146D01*
X282975Y230595D01*
X283424Y231267D01*
X283582Y232060D01*
Y234297D01*
X283810Y234450D01*
X291653Y242292D01*
X291997Y242384D01*
X292519Y242280D01*
X293418Y241200D01*
Y232060D01*
X293576Y231267D01*
X294025Y230595D01*
X294697Y230146D01*
X295490Y229988D01*
X300917D01*
Y204832D01*
X299797Y203155D01*
X299368Y201000D01*
X299797Y198845D01*
X301017Y197017D01*
X302845Y195797D01*
X305000Y195368D01*
X307155Y195797D01*
X308983Y197017D01*
X310203Y198845D01*
X310632Y201000D01*
X310203Y203155D01*
X308983Y204983D01*
X307155Y206203D01*
X307083Y206218D01*
Y229988D01*
X312510D01*
X313303Y230146D01*
X313975Y230595D01*
X314424Y231267D01*
X314582Y232060D01*
Y241200D01*
X314493Y241647D01*
X315058Y242636D01*
X315334Y242917D01*
X327723D01*
X339917Y230723D01*
Y215072D01*
X335000D01*
X334207Y214914D01*
X333535Y214465D01*
X333086Y213793D01*
X332928Y213000D01*
Y185000D01*
X333086Y184207D01*
X333535Y183535D01*
X334207Y183086D01*
X335000Y182928D01*
X351000D01*
X351793Y183086D01*
X352465Y183535D01*
X352914Y184207D01*
X353072Y185000D01*
Y213000D01*
X352914Y213793D01*
X352465Y214465D01*
X351793Y214914D01*
X351000Y215072D01*
X346083D01*
Y232000D01*
X346083Y232000D01*
X345849Y233180D01*
X345180Y234180D01*
X345180Y234180D01*
X331180Y248180D01*
X330180Y248848D01*
X329000Y249083D01*
X329000Y249083D01*
X292277D01*
X287617Y253743D01*
Y273193D01*
X287617Y273193D01*
X287383Y274373D01*
X286714Y275373D01*
X273907Y288180D01*
X272906Y288848D01*
X271727Y289083D01*
X271726Y289083D01*
X229277D01*
X229083Y289277D01*
Y304760D01*
X230353Y305286D01*
X234820Y300820D01*
X235820Y300152D01*
X237000Y299917D01*
X237836Y299207D01*
X238285Y298535D01*
X238957Y298086D01*
X239750Y297928D01*
X256250D01*
X257043Y298086D01*
X257715Y298535D01*
X258164Y299207D01*
X258322Y300000D01*
Y306000D01*
X258164Y306793D01*
X257715Y307465D01*
X257043Y307914D01*
X256250Y308072D01*
X239750D01*
X238957Y307914D01*
X238285Y307465D01*
X236813Y307548D01*
X235083Y309277D01*
Y347723D01*
X240277Y352917D01*
X255000D01*
X255000Y352917D01*
X256180Y353152D01*
X257180Y353820D01*
X265180Y361820D01*
X265180Y361820D01*
X265849Y362820D01*
X266083Y364000D01*
X266083Y364000D01*
Y383723D01*
X271907Y389547D01*
X277418D01*
Y388060D01*
X277576Y387267D01*
X278025Y386595D01*
X278697Y386146D01*
X279490Y385988D01*
X296510D01*
X297303Y386146D01*
X297975Y386595D01*
X298424Y387267D01*
X298582Y388060D01*
Y397200D01*
X298424Y397993D01*
X297975Y398665D01*
X297303Y399114D01*
X296510Y399272D01*
D02*
G37*
G36*
X276730Y368090D02*
X271500D01*
X270509Y367893D01*
X269669Y367331D01*
X269107Y366491D01*
X268910Y365500D01*
Y363270D01*
X276730D01*
Y368090D01*
D02*
G37*
G36*
X491730Y366985D02*
X489596Y366704D01*
X486424Y365390D01*
X483700Y363300D01*
X481610Y360576D01*
X480638Y358229D01*
X479263D01*
X478503Y360064D01*
X476576Y362576D01*
X474064Y364503D01*
X471139Y365714D01*
X468000Y366128D01*
X464861Y365714D01*
X461936Y364503D01*
X459424Y362576D01*
X457497Y360064D01*
X456286Y357139D01*
X455872Y354000D01*
X456286Y350861D01*
X457497Y347936D01*
X459424Y345424D01*
X461936Y343497D01*
X462917Y343091D01*
Y312572D01*
X462500D01*
X461707Y312414D01*
X461035Y311965D01*
X460586Y311293D01*
X460428Y310500D01*
Y307083D01*
X447000D01*
X445820Y306849D01*
X445618Y306713D01*
X434582D01*
Y308200D01*
X434424Y308993D01*
X433975Y309665D01*
X433303Y310114D01*
X432510Y310272D01*
X415490D01*
X414697Y310114D01*
X414025Y309665D01*
X413576Y308993D01*
X413418Y308200D01*
Y299060D01*
X413576Y298267D01*
X414025Y297595D01*
X414697Y297146D01*
X415490Y296988D01*
X432510D01*
X433303Y297146D01*
X433975Y297595D01*
X434424Y298267D01*
X434582Y299060D01*
Y300547D01*
X446630D01*
X446630Y300547D01*
X447810Y300781D01*
X448012Y300917D01*
X460428D01*
Y297500D01*
X460586Y296707D01*
X461035Y296035D01*
X461707Y295586D01*
X462500Y295428D01*
X469500D01*
X470293Y295586D01*
X470965Y296035D01*
X471414Y296707D01*
X471572Y297500D01*
Y310500D01*
X471414Y311293D01*
X470965Y311965D01*
X470293Y312414D01*
X469500Y312572D01*
X469083D01*
Y342015D01*
X471139Y342285D01*
X474064Y343497D01*
X476576Y345424D01*
X478503Y347936D01*
X479263Y349771D01*
X480638D01*
X481610Y347424D01*
X483700Y344700D01*
X486424Y342610D01*
X489596Y341296D01*
X491730Y341015D01*
Y354000D01*
Y366985D01*
D02*
G37*
G36*
X287090Y360730D02*
X279270D01*
Y355910D01*
X284500D01*
X285491Y356107D01*
X286331Y356669D01*
X286893Y357509D01*
X287090Y358500D01*
Y360730D01*
D02*
G37*
G36*
X547500Y471572D02*
X534500D01*
X533707Y471414D01*
X533035Y470965D01*
X532586Y470293D01*
X532428Y469500D01*
Y462500D01*
X532586Y461707D01*
X533035Y461035D01*
X533707Y460586D01*
X534500Y460428D01*
X535878D01*
Y431072D01*
X517000D01*
X516207Y430914D01*
X515535Y430465D01*
X515086Y429793D01*
X514928Y429000D01*
Y413000D01*
X515086Y412207D01*
X515535Y411535D01*
X516207Y411086D01*
X517000Y410928D01*
X535878D01*
Y379122D01*
X522080Y365325D01*
X521139Y365714D01*
X518000Y366128D01*
X514861Y365714D01*
X511936Y364503D01*
X509424Y362576D01*
X507497Y360064D01*
X506737Y358229D01*
X505363D01*
X504390Y360576D01*
X502300Y363300D01*
X499576Y365390D01*
X496404Y366704D01*
X494270Y366985D01*
Y354000D01*
Y341015D01*
X496404Y341296D01*
X499576Y342610D01*
X502300Y344700D01*
X504390Y347424D01*
X505363Y349771D01*
X506737D01*
X507497Y347936D01*
X509424Y345424D01*
X511936Y343497D01*
X514861Y342285D01*
X514917Y342278D01*
Y329000D01*
X514917Y329000D01*
X515151Y327820D01*
X515820Y326820D01*
X523917Y318723D01*
Y312572D01*
X523500D01*
X522707Y312414D01*
X522035Y311965D01*
X521586Y311293D01*
X521428Y310500D01*
Y297500D01*
X521586Y296707D01*
X522035Y296035D01*
X522707Y295586D01*
X523500Y295428D01*
X530500D01*
X531293Y295586D01*
X531965Y296035D01*
X532414Y296707D01*
X532572Y297500D01*
Y310500D01*
X532414Y311293D01*
X531965Y311965D01*
X531293Y312414D01*
X530500Y312572D01*
X530083D01*
Y320000D01*
X529849Y321180D01*
X529180Y322180D01*
X529180Y322180D01*
X521083Y330277D01*
Y342278D01*
X521139Y342285D01*
X524064Y343497D01*
X526576Y345424D01*
X528503Y347936D01*
X529715Y350861D01*
X530128Y354000D01*
X529715Y357139D01*
X529325Y358080D01*
X544622Y373378D01*
X545732Y375040D01*
X546122Y377000D01*
Y410928D01*
X549000D01*
X549793Y411086D01*
X550465Y411535D01*
X550914Y412207D01*
X551072Y413000D01*
Y429000D01*
X550914Y429793D01*
X550465Y430465D01*
X549793Y430914D01*
X549000Y431072D01*
X546122D01*
Y460428D01*
X547500D01*
X548293Y460586D01*
X548965Y461035D01*
X549414Y461707D01*
X549572Y462500D01*
Y469500D01*
X549414Y470293D01*
X548965Y470965D01*
X548293Y471414D01*
X547500Y471572D01*
D02*
G37*
G36*
X89000Y441072D02*
X73000D01*
X72207Y440914D01*
X71535Y440465D01*
X71086Y439793D01*
X70928Y439000D01*
Y407000D01*
X71086Y406207D01*
X71535Y405535D01*
X72207Y405086D01*
X73000Y404928D01*
X89000D01*
X89793Y405086D01*
X90465Y405535D01*
X90914Y406207D01*
X91072Y407000D01*
Y420151D01*
X115820D01*
X121151Y414820D01*
Y382000D01*
X121151Y382000D01*
X121368Y380910D01*
X121986Y379986D01*
X128356Y373616D01*
X129280Y372998D01*
X130370Y372781D01*
X130370Y372781D01*
X134418D01*
Y371060D01*
X134576Y370267D01*
X135025Y369595D01*
X135697Y369146D01*
X136490Y368988D01*
X153510D01*
X154303Y369146D01*
X154975Y369595D01*
X155424Y370267D01*
X155582Y371060D01*
Y372151D01*
X166988D01*
Y366490D01*
X167146Y365697D01*
X167595Y365025D01*
X168267Y364576D01*
X169060Y364418D01*
X178200D01*
X178993Y364576D01*
X179665Y365025D01*
X180114Y365697D01*
X180272Y366490D01*
Y383510D01*
X180114Y384303D01*
X179665Y384975D01*
X178993Y385424D01*
X178200Y385582D01*
X169060D01*
X168267Y385424D01*
X167595Y384975D01*
X167146Y384303D01*
X166988Y383510D01*
Y377849D01*
X155582D01*
Y380200D01*
X155424Y380993D01*
X154975Y381665D01*
X154303Y382114D01*
X153510Y382272D01*
X136490D01*
X135697Y382114D01*
X135025Y381665D01*
X134576Y380993D01*
X134418Y380200D01*
Y378479D01*
X131550D01*
X126849Y383180D01*
Y416000D01*
X126849Y416000D01*
X126632Y417090D01*
X126014Y418014D01*
X126014Y418014D01*
X119014Y425014D01*
X118090Y425632D01*
X117000Y425849D01*
X117000Y425849D01*
X91072D01*
Y439000D01*
X90914Y439793D01*
X90465Y440465D01*
X89793Y440914D01*
X89000Y441072D01*
D02*
G37*
G36*
X284500Y368090D02*
X279270D01*
Y363270D01*
X287090D01*
Y365500D01*
X286893Y366491D01*
X286331Y367331D01*
X285491Y367893D01*
X284500Y368090D01*
D02*
G37*
%LPD*%
D10*
X461000Y485000D02*
D03*
X501000D02*
D03*
D11*
X527000Y304000D02*
D03*
X508000D02*
D03*
X485000D02*
D03*
X466000D02*
D03*
D12*
X278000Y343000D02*
D03*
Y362000D02*
D03*
X541000Y485000D02*
D03*
Y466000D02*
D03*
D13*
X145000Y478370D02*
D03*
Y447630D02*
D03*
X257000Y446630D02*
D03*
Y477370D02*
D03*
X145000Y406370D02*
D03*
Y375630D02*
D03*
X273000Y267370D02*
D03*
Y236630D02*
D03*
X288000Y477370D02*
D03*
Y446630D02*
D03*
Y392630D02*
D03*
Y423370D02*
D03*
X304000Y236630D02*
D03*
Y267370D02*
D03*
X424000Y334370D02*
D03*
Y303630D02*
D03*
D14*
X189370Y261000D02*
D03*
X158630D02*
D03*
X211630D02*
D03*
X242370D02*
D03*
X204370Y375000D02*
D03*
X173630D02*
D03*
X189370Y233000D02*
D03*
X158630D02*
D03*
X211630D02*
D03*
X242370D02*
D03*
D15*
X63000Y344000D02*
D03*
X107000D02*
D03*
X63000Y271000D02*
D03*
X107000D02*
D03*
D16*
X243000Y155000D02*
D03*
Y199000D02*
D03*
X163000Y155000D02*
D03*
Y199000D02*
D03*
X343000Y155000D02*
D03*
Y199000D02*
D03*
X423000Y155000D02*
D03*
Y199000D02*
D03*
D17*
X81000Y473000D02*
D03*
Y423000D02*
D03*
X203000Y428000D02*
D03*
Y478000D02*
D03*
X364000Y323000D02*
D03*
Y273000D02*
D03*
D18*
X483000Y421000D02*
D03*
X533000D02*
D03*
D19*
X248000Y303000D02*
D03*
Y316000D02*
D03*
Y328000D02*
D03*
Y341000D02*
D03*
X186000Y303000D02*
D03*
Y316000D02*
D03*
Y328000D02*
D03*
D20*
Y341000D02*
D03*
D21*
X466000Y304000D02*
Y352000D01*
Y303000D02*
Y304000D01*
Y352000D02*
X468000Y354000D01*
X447000Y304000D02*
X466000D01*
X446630Y303630D02*
X447000Y304000D01*
X304000Y202000D02*
X305000Y201000D01*
X304000Y202000D02*
Y236630D01*
X258000Y210000D02*
X278000Y190000D01*
X258000Y210000D02*
Y252370D01*
X243000Y199000D02*
Y232370D01*
Y103000D02*
Y155000D01*
X107000Y271000D02*
X110000Y268000D01*
Y239000D02*
Y268000D01*
X107000Y315000D02*
X107000Y315000D01*
Y344000D01*
X158630Y233000D02*
Y261000D01*
X145000Y426000D02*
Y447630D01*
Y406370D02*
Y426000D01*
X165000D01*
X169000Y430000D01*
Y445000D01*
X518000Y329000D02*
Y354000D01*
Y329000D02*
X527000Y320000D01*
Y304000D02*
Y320000D01*
X424000Y303630D02*
X446630D01*
X390370Y334370D02*
X424000D01*
X379000Y323000D02*
X390370Y334370D01*
X288000Y477370D02*
X288000Y477370D01*
X306630D01*
X312000Y472000D01*
Y344000D02*
Y472000D01*
X169000Y445000D02*
X176000Y452000D01*
X230000D01*
X240000Y462000D01*
X268000D01*
X273000Y467000D01*
Y477370D01*
X257000D02*
X273000D01*
X288000D01*
X278000Y343000D02*
X278000Y343000D01*
X248000Y341000D02*
X264000D01*
X266000Y343000D01*
X278000D01*
X248000Y316000D02*
X273000D01*
X279000Y322000D01*
X232000Y349000D02*
X239000Y356000D01*
X255000D01*
X263000Y364000D01*
Y385000D01*
X270630Y392630D01*
X288000D01*
Y423370D02*
Y446630D01*
X207630Y423370D02*
X288000D01*
X203000Y428000D02*
X207630Y423370D01*
X248000Y328000D02*
X265000D01*
X304000Y284000D02*
X338000D01*
X345000Y277000D01*
Y254000D02*
Y277000D01*
Y254000D02*
X356000Y243000D01*
Y231000D02*
Y243000D01*
X304000Y267370D02*
Y284000D01*
Y326000D01*
X423000Y199000D02*
Y217000D01*
X415000Y225000D02*
X423000Y217000D01*
X362000Y225000D02*
X415000D01*
X356000Y231000D02*
X362000Y225000D01*
X242370Y233000D02*
X243000Y232370D01*
X343000Y115500D02*
Y155000D01*
X343000Y155000D01*
X163000Y115500D02*
Y155000D01*
X163000Y155000D02*
X163000Y155000D01*
X158630Y303630D02*
X171000Y316000D01*
X186000D01*
Y328000D02*
X209000D01*
X209000Y328000D01*
X232000Y308000D02*
X237000Y303000D01*
X248000D01*
X162000Y348000D02*
X169000Y355000D01*
X198000D01*
X204370Y361370D01*
Y375000D01*
X162000Y325000D02*
Y348000D01*
Y325000D02*
X171000Y316000D01*
X343000Y199000D02*
Y232000D01*
X329000Y246000D02*
X343000Y232000D01*
X291000Y246000D02*
X329000D01*
X284534Y252466D02*
X291000Y246000D01*
X273000Y236630D02*
X281630D01*
X291000Y246000D01*
X298000Y332000D02*
X304000Y326000D01*
X265000Y328000D02*
X269000Y332000D01*
X298000D01*
X284534Y252466D02*
Y273193D01*
X228000Y286000D02*
X271727D01*
X284534Y273193D01*
X197226Y334976D02*
X197274Y335024D01*
X226000Y288000D02*
X228000Y286000D01*
X186000Y341000D02*
X220000D01*
X226000Y335000D01*
Y288000D02*
Y335000D01*
X218000Y285370D02*
X242370Y261000D01*
X197274Y335024D02*
X213976D01*
X218000Y331000D01*
Y285370D02*
Y331000D01*
X232000Y308000D02*
Y349000D01*
X172000D02*
X232000D01*
X169000Y337000D02*
Y346000D01*
X172000Y349000D01*
X173024Y334976D02*
X197226D01*
X173000Y335000D02*
X173024Y334976D01*
X171000Y335000D02*
X173000D01*
X169000Y337000D02*
X171000Y335000D01*
X312000Y344000D02*
X333000Y323000D01*
X278000Y343000D02*
X279000Y344000D01*
X312000D01*
X423000Y103000D02*
Y155000D01*
X242370Y233000D02*
Y261000D01*
X364000Y323000D02*
X379000D01*
X333000D02*
X364000D01*
X258000Y252370D02*
X273000Y267370D01*
X163000Y199000D02*
Y215000D01*
X158630Y219370D02*
X163000Y215000D01*
X158630Y219370D02*
Y233000D01*
Y261000D02*
Y303630D01*
D22*
X518000Y354000D02*
X541000Y377000D01*
X535000Y420000D02*
X541000Y426000D01*
Y466000D01*
X501000Y485000D02*
X541000D01*
X442000D02*
X461000D01*
X428000Y471000D02*
X442000Y485000D01*
X428000Y387000D02*
Y471000D01*
X421000Y380000D02*
X428000Y387000D01*
X382000Y380000D02*
X421000D01*
X541000Y377000D02*
Y426000D01*
D23*
X81000Y423000D02*
X117000D01*
X124000Y416000D01*
Y382000D02*
Y416000D01*
Y382000D02*
X130370Y375630D01*
X145000D01*
X145630Y375000D02*
X173630D01*
X145000Y375630D02*
X145630Y375000D01*
X41000Y57235D02*
X51157D01*
X46078D01*
Y42000D01*
X58774D02*
X63853D01*
X66392Y44539D01*
Y49618D01*
X63853Y52157D01*
X58774D01*
X56235Y49618D01*
Y44539D01*
X58774Y42000D01*
X71470Y36922D02*
Y52157D01*
X79088D01*
X81627Y49618D01*
Y44539D01*
X79088Y42000D01*
X71470D01*
D24*
X468000Y354000D02*
D03*
X493000D02*
D03*
X518000D02*
D03*
D25*
X382000Y380000D02*
D03*
D26*
X333000Y410000D02*
D03*
D27*
X382000Y440000D02*
D03*
D28*
X343000Y115500D02*
D03*
X163000D02*
D03*
X243000Y103000D02*
D03*
X423000D02*
D03*
X383000Y70500D02*
D03*
X203000D02*
D03*
D29*
X199000Y286000D02*
D03*
X169000Y291000D02*
D03*
X305000Y201000D02*
D03*
X278000Y190000D02*
D03*
X107000Y315000D02*
D03*
X279000Y322000D02*
D03*
X209000Y328000D02*
D03*
X110000Y239000D02*
D03*
M02*
