G04 Layer_Physical_Order=2*
G04 Layer_Color=16711680*
%FSLAX44Y44*%
%MOMM*%
G71*
G01*
G75*
%ADD13R,1.7020X0.9140*%
%ADD14R,0.9140X1.7020*%
%ADD21C,0.3000*%
%ADD23C,0.2540*%
%ADD24C,2.1000*%
G04:AMPARAMS|DCode=25|XSize=2mm|YSize=4mm|CornerRadius=0.5mm|HoleSize=0mm|Usage=FLASHONLY|Rotation=270.000|XOffset=0mm|YOffset=0mm|HoleType=Round|Shape=RoundedRectangle|*
%AMROUNDEDRECTD25*
21,1,2.0000,3.0000,0,0,270.0*
21,1,1.0000,4.0000,0,0,270.0*
1,1,1.0000,-1.5000,-0.5000*
1,1,1.0000,-1.5000,0.5000*
1,1,1.0000,1.5000,0.5000*
1,1,1.0000,1.5000,-0.5000*
%
%ADD25ROUNDEDRECTD25*%
G04:AMPARAMS|DCode=26|XSize=3.5mm|YSize=2mm|CornerRadius=0.5mm|HoleSize=0mm|Usage=FLASHONLY|Rotation=270.000|XOffset=0mm|YOffset=0mm|HoleType=Round|Shape=RoundedRectangle|*
%AMROUNDEDRECTD26*
21,1,3.5000,1.0000,0,0,270.0*
21,1,2.5000,2.0000,0,0,270.0*
1,1,1.0000,-0.5000,-1.2500*
1,1,1.0000,-0.5000,1.2500*
1,1,1.0000,0.5000,1.2500*
1,1,1.0000,0.5000,-1.2500*
%
%ADD26ROUNDEDRECTD26*%
G04:AMPARAMS|DCode=27|XSize=2mm|YSize=3.5mm|CornerRadius=0.5mm|HoleSize=0mm|Usage=FLASHONLY|Rotation=270.000|XOffset=0mm|YOffset=0mm|HoleType=Round|Shape=RoundedRectangle|*
%AMROUNDEDRECTD27*
21,1,2.0000,2.5000,0,0,270.0*
21,1,1.0000,3.5000,0,0,270.0*
1,1,1.0000,-1.2500,-0.5000*
1,1,1.0000,-1.2500,0.5000*
1,1,1.0000,1.2500,0.5000*
1,1,1.0000,1.2500,-0.5000*
%
%ADD27ROUNDEDRECTD27*%
%ADD28C,2.5000*%
%ADD29C,0.8000*%
G36*
X576917Y3083D02*
X3083D01*
Y516917D01*
X576917D01*
Y3083D01*
D02*
G37*
%LPC*%
G36*
X559064Y165299D02*
X327488D01*
Y141936D01*
X559064D01*
Y165299D01*
D02*
G37*
G36*
X249569Y279582D02*
X240429D01*
X239637Y279424D01*
X238965Y278975D01*
X238515Y278303D01*
X238358Y277510D01*
Y260490D01*
X238515Y259697D01*
X238965Y259025D01*
X239637Y258576D01*
X240429Y258418D01*
X241916D01*
Y236582D01*
X240430D01*
X239637Y236424D01*
X238965Y235975D01*
X238516Y235303D01*
X238358Y234510D01*
Y217490D01*
X238516Y216697D01*
X238965Y216025D01*
X239637Y215576D01*
X240430Y215418D01*
X241917D01*
Y213000D01*
X241917Y213000D01*
X242151Y211820D01*
X242820Y210820D01*
X247820Y205820D01*
X247820Y205820D01*
X248820Y205152D01*
X250000Y204917D01*
X250000Y204917D01*
X260723D01*
X273072Y192568D01*
X272796Y192155D01*
X272368Y190000D01*
X272796Y187845D01*
X274017Y186017D01*
X275845Y184797D01*
X278000Y184368D01*
X280155Y184797D01*
X281983Y186017D01*
X283204Y187845D01*
X283632Y190000D01*
X283204Y192155D01*
X281983Y193983D01*
X280155Y195203D01*
X278909Y195451D01*
X264180Y210180D01*
X263180Y210849D01*
X262000Y211083D01*
X262000Y211083D01*
X251277D01*
X248212Y214148D01*
X248395Y215418D01*
X249570D01*
X250363Y215576D01*
X251035Y216025D01*
X251484Y216697D01*
X251642Y217490D01*
Y234510D01*
X251484Y235303D01*
X251035Y235975D01*
X250363Y236424D01*
X249570Y236582D01*
X248083D01*
Y258418D01*
X249569D01*
X250362Y258576D01*
X251035Y259025D01*
X251484Y259697D01*
X251641Y260490D01*
Y277510D01*
X251484Y278303D01*
X251035Y278975D01*
X250362Y279424D01*
X249569Y279582D01*
D02*
G37*
G36*
X343000Y129645D02*
X339339Y129163D01*
X335928Y127750D01*
X332998Y125502D01*
X330750Y122572D01*
X329337Y119161D01*
X328855Y115500D01*
X329337Y111839D01*
X330750Y108427D01*
X332998Y105498D01*
X335928Y103250D01*
X339339Y101837D01*
X343000Y101355D01*
X346661Y101837D01*
X350073Y103250D01*
X353002Y105498D01*
X355250Y108427D01*
X356663Y111839D01*
X357145Y115500D01*
X356663Y119161D01*
X355250Y122572D01*
X353002Y125502D01*
X350073Y127750D01*
X346661Y129163D01*
X343000Y129645D01*
D02*
G37*
G36*
X423000Y117145D02*
X419339Y116663D01*
X415928Y115250D01*
X412998Y113002D01*
X410750Y110072D01*
X409337Y106661D01*
X408855Y103000D01*
X409337Y99339D01*
X410750Y95927D01*
X412998Y92998D01*
X415928Y90750D01*
X419339Y89337D01*
X423000Y88855D01*
X426661Y89337D01*
X430073Y90750D01*
X433002Y92998D01*
X435250Y95927D01*
X436663Y99339D01*
X437145Y103000D01*
X436663Y106661D01*
X435250Y110072D01*
X433002Y113002D01*
X430073Y115250D01*
X426661Y116663D01*
X423000Y117145D01*
D02*
G37*
G36*
X163000Y129645D02*
X159339Y129163D01*
X155927Y127750D01*
X152998Y125502D01*
X150750Y122572D01*
X149337Y119161D01*
X148855Y115500D01*
X149337Y111839D01*
X150750Y108427D01*
X152998Y105498D01*
X155927Y103250D01*
X159339Y101837D01*
X163000Y101355D01*
X166661Y101837D01*
X170072Y103250D01*
X173002Y105498D01*
X175250Y108427D01*
X176663Y111839D01*
X177145Y115500D01*
X176663Y119161D01*
X175250Y122572D01*
X173002Y125502D01*
X170072Y127750D01*
X166661Y129163D01*
X163000Y129645D01*
D02*
G37*
G36*
X218829Y279582D02*
X209690D01*
X208897Y279424D01*
X208225Y278975D01*
X207775Y278303D01*
X207618Y277510D01*
Y272083D01*
X190641D01*
Y277510D01*
X190484Y278303D01*
X190035Y278975D01*
X189363Y279424D01*
X188570Y279582D01*
X179430D01*
X178637Y279424D01*
X177965Y278975D01*
X177516Y278303D01*
X177358Y277510D01*
Y260490D01*
X177516Y259697D01*
X177965Y259025D01*
X178637Y258576D01*
X179430Y258418D01*
X188570D01*
X189363Y258576D01*
X190035Y259025D01*
X190484Y259697D01*
X190641Y260490D01*
Y265917D01*
X196917D01*
Y229083D01*
X190642D01*
Y234510D01*
X190484Y235303D01*
X190035Y235975D01*
X189363Y236424D01*
X188570Y236582D01*
X179430D01*
X178637Y236424D01*
X177965Y235975D01*
X177516Y235303D01*
X177358Y234510D01*
Y217490D01*
X177516Y216697D01*
X177965Y216025D01*
X178637Y215576D01*
X179430Y215418D01*
X188570D01*
X189363Y215576D01*
X190035Y216025D01*
X190484Y216697D01*
X190642Y217490D01*
Y222917D01*
X207618D01*
Y217490D01*
X207776Y216697D01*
X208225Y216025D01*
X208897Y215576D01*
X209690Y215418D01*
X218830D01*
X219623Y215576D01*
X220295Y216025D01*
X220744Y216697D01*
X220902Y217490D01*
Y234510D01*
X220744Y235303D01*
X220295Y235975D01*
X219623Y236424D01*
X218830Y236582D01*
X209690D01*
X208897Y236424D01*
X208225Y235975D01*
X207776Y235303D01*
X207618Y234510D01*
Y229083D01*
X203083D01*
Y265917D01*
X207618D01*
Y260490D01*
X207775Y259697D01*
X208225Y259025D01*
X208897Y258576D01*
X209690Y258418D01*
X218829D01*
X219622Y258576D01*
X220294Y259025D01*
X220744Y259697D01*
X220901Y260490D01*
Y277510D01*
X220744Y278303D01*
X220294Y278975D01*
X219622Y279424D01*
X218829Y279582D01*
D02*
G37*
G36*
X197730Y284730D02*
X192571D01*
X192628Y284293D01*
X193287Y282702D01*
X194336Y281336D01*
X195702Y280287D01*
X197293Y279628D01*
X197730Y279571D01*
Y284730D01*
D02*
G37*
G36*
X335510Y278272D02*
X318490D01*
X317697Y278114D01*
X317025Y277665D01*
X316576Y276993D01*
X316418Y276200D01*
Y267060D01*
X316576Y266267D01*
X317025Y265595D01*
X317697Y265146D01*
X318490Y264988D01*
X323917D01*
Y261584D01*
X287084D01*
Y264988D01*
X292510D01*
X293303Y265146D01*
X293975Y265595D01*
X294424Y266267D01*
X294582Y267060D01*
Y276200D01*
X294424Y276993D01*
X293975Y277665D01*
X293303Y278114D01*
X292510Y278272D01*
X275490D01*
X274697Y278114D01*
X274025Y277665D01*
X273576Y276993D01*
X273418Y276200D01*
Y267060D01*
X273576Y266267D01*
X274025Y265595D01*
X274697Y265146D01*
X275490Y264988D01*
X280917D01*
Y258501D01*
Y249014D01*
X275491D01*
X274698Y248856D01*
X274026Y248407D01*
X273577Y247735D01*
X273419Y246942D01*
Y237802D01*
X273577Y237009D01*
X274026Y236337D01*
X274698Y235888D01*
X275491Y235730D01*
X292511D01*
X293304Y235888D01*
X293976Y236337D01*
X294425Y237009D01*
X294582Y237802D01*
Y246942D01*
X294425Y247735D01*
X293976Y248407D01*
X293304Y248856D01*
X292511Y249014D01*
X287084D01*
Y255417D01*
X323917D01*
Y249012D01*
X318490D01*
X317697Y248854D01*
X317025Y248405D01*
X316576Y247733D01*
X316418Y246940D01*
Y237800D01*
X316576Y237007D01*
X317025Y236335D01*
X317697Y235886D01*
X318490Y235728D01*
X335510D01*
X336303Y235886D01*
X336975Y236335D01*
X337424Y237007D01*
X337582Y237800D01*
Y246940D01*
X337424Y247733D01*
X336975Y248405D01*
X336303Y248854D01*
X335510Y249012D01*
X330083D01*
Y259000D01*
Y264988D01*
X335510D01*
X336303Y265146D01*
X336975Y265595D01*
X337424Y266267D01*
X337582Y267060D01*
Y276200D01*
X337424Y276993D01*
X336975Y277665D01*
X336303Y278114D01*
X335510Y278272D01*
D02*
G37*
G36*
X292511Y218274D02*
X275491D01*
X274698Y218116D01*
X274026Y217667D01*
X273577Y216995D01*
X273419Y216202D01*
Y207062D01*
X273577Y206269D01*
X274026Y205597D01*
X274698Y205148D01*
X275491Y204990D01*
X292511D01*
X293304Y205148D01*
X293976Y205597D01*
X294425Y206269D01*
X294582Y207062D01*
Y208549D01*
X301917D01*
Y205583D01*
X301017Y204983D01*
X299797Y203155D01*
X299368Y201000D01*
X299797Y198845D01*
X301017Y197017D01*
X302845Y195797D01*
X305000Y195368D01*
X307155Y195797D01*
X308983Y197017D01*
X310203Y198845D01*
X310632Y201000D01*
X310203Y203155D01*
X308983Y204983D01*
X308083Y205583D01*
Y208549D01*
X316418D01*
Y207060D01*
X316576Y206267D01*
X317025Y205595D01*
X317697Y205146D01*
X318490Y204988D01*
X335510D01*
X336303Y205146D01*
X336975Y205595D01*
X337424Y206267D01*
X337582Y207060D01*
Y216200D01*
X337424Y216993D01*
X336975Y217665D01*
X336303Y218114D01*
X335510Y218272D01*
X318490D01*
X317697Y218114D01*
X317025Y217665D01*
X316576Y216993D01*
X316418Y216200D01*
Y214715D01*
X294582D01*
Y216202D01*
X294425Y216995D01*
X293976Y217667D01*
X293304Y218116D01*
X292511Y218274D01*
D02*
G37*
G36*
X110000Y244632D02*
X107845Y244203D01*
X106017Y242983D01*
X104796Y241155D01*
X104368Y239000D01*
X104796Y236845D01*
X106017Y235017D01*
X106917Y234417D01*
Y218277D01*
X103852Y215212D01*
X102582Y215738D01*
Y215940D01*
X102424Y216733D01*
X101975Y217405D01*
X101303Y217854D01*
X100510Y218012D01*
X83490D01*
X82697Y217854D01*
X82025Y217405D01*
X81576Y216733D01*
X81418Y215940D01*
Y206800D01*
X81576Y206007D01*
X82025Y205335D01*
X82697Y204886D01*
X83490Y204728D01*
X100510D01*
X101303Y204886D01*
X101975Y205335D01*
X102424Y206007D01*
X102582Y206800D01*
Y208287D01*
X104370D01*
X104370Y208287D01*
X105550Y208521D01*
X106550Y209190D01*
X112180Y214820D01*
X112849Y215820D01*
X113083Y217000D01*
X113083Y217000D01*
Y234417D01*
X113983Y235017D01*
X115204Y236845D01*
X115632Y239000D01*
X115204Y241155D01*
X113983Y242983D01*
X112155Y244203D01*
X110000Y244632D01*
D02*
G37*
G36*
X381730Y69230D02*
X368012D01*
X368178Y67552D01*
X369038Y64717D01*
X370434Y62104D01*
X372314Y59814D01*
X374604Y57934D01*
X377217Y56538D01*
X380052Y55678D01*
X381730Y55512D01*
Y69230D01*
D02*
G37*
G36*
X397988D02*
X384270D01*
Y55512D01*
X385948Y55678D01*
X388783Y56538D01*
X391396Y57934D01*
X393686Y59814D01*
X395566Y62104D01*
X396962Y64717D01*
X397822Y67552D01*
X397988Y69230D01*
D02*
G37*
G36*
X217988D02*
X204270D01*
Y55512D01*
X205948Y55678D01*
X208783Y56538D01*
X211396Y57934D01*
X213686Y59814D01*
X215566Y62104D01*
X216962Y64717D01*
X217822Y67552D01*
X217988Y69230D01*
D02*
G37*
G36*
X562064Y68299D02*
X472682D01*
Y44936D01*
X562064D01*
Y68299D01*
D02*
G37*
G36*
X201730Y69230D02*
X188012D01*
X188178Y67552D01*
X189038Y64717D01*
X190434Y62104D01*
X192314Y59814D01*
X194604Y57934D01*
X197217Y56538D01*
X200052Y55678D01*
X201730Y55512D01*
Y69230D01*
D02*
G37*
G36*
X384270Y85488D02*
Y71770D01*
X397988D01*
X397822Y73448D01*
X396962Y76283D01*
X395566Y78896D01*
X393686Y81186D01*
X391396Y83066D01*
X388783Y84462D01*
X385948Y85322D01*
X384270Y85488D01*
D02*
G37*
G36*
X243000Y117145D02*
X239339Y116663D01*
X235928Y115250D01*
X232998Y113002D01*
X230750Y110072D01*
X229337Y106661D01*
X228855Y103000D01*
X229337Y99339D01*
X230750Y95927D01*
X232998Y92998D01*
X235928Y90750D01*
X239339Y89337D01*
X243000Y88855D01*
X246661Y89337D01*
X250072Y90750D01*
X253002Y92998D01*
X255250Y95927D01*
X256663Y99339D01*
X257145Y103000D01*
X256663Y106661D01*
X255250Y110072D01*
X253002Y113002D01*
X250072Y115250D01*
X246661Y116663D01*
X243000Y117145D01*
D02*
G37*
G36*
X381730Y85488D02*
X380052Y85322D01*
X377217Y84462D01*
X374604Y83066D01*
X372314Y81186D01*
X370434Y78896D01*
X369038Y76283D01*
X368178Y73448D01*
X368012Y71770D01*
X381730D01*
Y85488D01*
D02*
G37*
G36*
X201730D02*
X200052Y85322D01*
X197217Y84462D01*
X194604Y83066D01*
X192314Y81186D01*
X190434Y78896D01*
X189038Y76283D01*
X188178Y73448D01*
X188012Y71770D01*
X201730D01*
Y85488D01*
D02*
G37*
G36*
X204270D02*
Y71770D01*
X217988D01*
X217822Y73448D01*
X216962Y76283D01*
X215566Y78896D01*
X213686Y81186D01*
X211396Y83066D01*
X208783Y84462D01*
X205948Y85322D01*
X204270Y85488D01*
D02*
G37*
G36*
X345605Y408730D02*
X334270D01*
Y389895D01*
X338000D01*
X339968Y390154D01*
X341802Y390914D01*
X343378Y392122D01*
X344586Y393698D01*
X345346Y395532D01*
X345605Y397500D01*
Y408730D01*
D02*
G37*
G36*
X331730Y430105D02*
X328000D01*
X326032Y429846D01*
X324197Y429086D01*
X322622Y427878D01*
X321414Y426303D01*
X320654Y424468D01*
X320395Y422500D01*
Y411270D01*
X331730D01*
Y430105D01*
D02*
G37*
G36*
Y408730D02*
X320395D01*
Y397500D01*
X320654Y395532D01*
X321414Y393698D01*
X322622Y392122D01*
X324197Y390914D01*
X326032Y390154D01*
X328000Y389895D01*
X331730D01*
Y408730D01*
D02*
G37*
G36*
X491730Y366985D02*
X489596Y366704D01*
X486424Y365390D01*
X483700Y363300D01*
X481610Y360576D01*
X480638Y358229D01*
X479263D01*
X478503Y360064D01*
X476576Y362576D01*
X474064Y364503D01*
X471139Y365714D01*
X468000Y366128D01*
X464861Y365714D01*
X461936Y364503D01*
X459424Y362576D01*
X457497Y360064D01*
X456286Y357139D01*
X455872Y354000D01*
X456286Y350861D01*
X457497Y347936D01*
X459424Y345424D01*
X461936Y343497D01*
X464861Y342285D01*
X468000Y341872D01*
X471139Y342285D01*
X474064Y343497D01*
X476576Y345424D01*
X478503Y347936D01*
X479263Y349771D01*
X480638D01*
X481610Y347424D01*
X483700Y344700D01*
X486424Y342610D01*
X489596Y341296D01*
X491730Y341015D01*
Y354000D01*
Y366985D01*
D02*
G37*
G36*
X397000Y391580D02*
X367000D01*
X365297Y391356D01*
X363710Y390699D01*
X362347Y389653D01*
X361301Y388290D01*
X360644Y386703D01*
X360420Y385000D01*
Y375000D01*
X360644Y373297D01*
X361301Y371710D01*
X362347Y370347D01*
X363710Y369301D01*
X365297Y368644D01*
X367000Y368420D01*
X397000D01*
X398703Y368644D01*
X400290Y369301D01*
X401653Y370347D01*
X402699Y371710D01*
X403356Y373297D01*
X403580Y375000D01*
Y385000D01*
X403356Y386703D01*
X402699Y388290D01*
X401653Y389653D01*
X400290Y390699D01*
X398703Y391356D01*
X397000Y391580D01*
D02*
G37*
G36*
X380730Y452605D02*
X369500D01*
X367532Y452346D01*
X365698Y451586D01*
X364122Y450378D01*
X362914Y448803D01*
X362154Y446968D01*
X361895Y445000D01*
Y441270D01*
X380730D01*
Y452605D01*
D02*
G37*
G36*
X394500D02*
X383270D01*
Y441270D01*
X402105D01*
Y445000D01*
X401846Y446968D01*
X401086Y448803D01*
X399878Y450378D01*
X398302Y451586D01*
X396468Y452346D01*
X394500Y452605D01*
D02*
G37*
G36*
X402105Y438730D02*
X383270D01*
Y427395D01*
X394500D01*
X396468Y427654D01*
X398302Y428414D01*
X399878Y429622D01*
X401086Y431198D01*
X401846Y433032D01*
X402105Y435000D01*
Y438730D01*
D02*
G37*
G36*
X338000Y430105D02*
X334270D01*
Y411270D01*
X345605D01*
Y422500D01*
X345346Y424468D01*
X344586Y426303D01*
X343378Y427878D01*
X341802Y429086D01*
X339968Y429846D01*
X338000Y430105D01*
D02*
G37*
G36*
X380730Y438730D02*
X361895D01*
Y435000D01*
X362154Y433032D01*
X362914Y431198D01*
X364122Y429622D01*
X365698Y428414D01*
X367532Y427654D01*
X369500Y427395D01*
X380730D01*
Y438730D01*
D02*
G37*
G36*
X494270Y366985D02*
Y354000D01*
Y341015D01*
X496404Y341296D01*
X499576Y342610D01*
X502300Y344700D01*
X504390Y347424D01*
X505363Y349771D01*
X506737D01*
X507497Y347936D01*
X509424Y345424D01*
X511936Y343497D01*
X514861Y342285D01*
X518000Y341872D01*
X521139Y342285D01*
X524064Y343497D01*
X526576Y345424D01*
X528503Y347936D01*
X529715Y350861D01*
X530128Y354000D01*
X529715Y357139D01*
X528503Y360064D01*
X526576Y362576D01*
X524064Y364503D01*
X521139Y365714D01*
X518000Y366128D01*
X514861Y365714D01*
X511936Y364503D01*
X509424Y362576D01*
X507497Y360064D01*
X506737Y358229D01*
X505363D01*
X504390Y360576D01*
X502300Y363300D01*
X499576Y365390D01*
X496404Y366704D01*
X494270Y366985D01*
D02*
G37*
G36*
X197730Y292429D02*
X197293Y292372D01*
X195702Y291713D01*
X194336Y290664D01*
X193287Y289298D01*
X192628Y287707D01*
X192571Y287270D01*
X197730D01*
Y292429D01*
D02*
G37*
G36*
X200270D02*
Y287270D01*
X205429D01*
X205372Y287707D01*
X204713Y289298D01*
X203664Y290664D01*
X202298Y291713D01*
X200707Y292372D01*
X200270Y292429D01*
D02*
G37*
G36*
X175429Y289730D02*
X170270D01*
Y284571D01*
X170707Y284628D01*
X172298Y285287D01*
X173664Y286336D01*
X174713Y287702D01*
X175372Y289293D01*
X175429Y289730D01*
D02*
G37*
G36*
X205429Y284730D02*
X200270D01*
Y279571D01*
X200707Y279628D01*
X202298Y280287D01*
X203664Y281336D01*
X204713Y282702D01*
X205372Y284293D01*
X205429Y284730D01*
D02*
G37*
G36*
X167730Y289730D02*
X162571D01*
X162628Y289293D01*
X163287Y287702D01*
X164336Y286336D01*
X165702Y285287D01*
X167293Y284628D01*
X167730Y284571D01*
Y289730D01*
D02*
G37*
G36*
X209000Y333632D02*
X206845Y333204D01*
X205017Y331983D01*
X203797Y330155D01*
X203368Y328000D01*
X203797Y325845D01*
X205017Y324017D01*
X205917Y323416D01*
Y320277D01*
X199723Y314083D01*
X161000D01*
X161000Y314083D01*
X159820Y313848D01*
X158820Y313180D01*
X158820Y313180D01*
X151080Y305440D01*
X150411Y304440D01*
X150176Y303260D01*
X150176Y303260D01*
Y279582D01*
X148690D01*
X147897Y279424D01*
X147225Y278975D01*
X146776Y278303D01*
X146618Y277510D01*
Y260490D01*
X146776Y259697D01*
X147225Y259025D01*
X147897Y258576D01*
X148690Y258418D01*
X150177D01*
Y250583D01*
X142500D01*
X141320Y250348D01*
X140320Y249680D01*
X140320Y249680D01*
X134820Y244180D01*
X134151Y243180D01*
X133917Y242000D01*
X133917Y242000D01*
Y202277D01*
X130723Y199083D01*
X73370D01*
X72190Y198848D01*
X71190Y198180D01*
X71190Y198180D01*
X60281Y187272D01*
X49490D01*
X48697Y187114D01*
X48025Y186665D01*
X47576Y185993D01*
X47418Y185200D01*
Y176060D01*
X47576Y175267D01*
X48025Y174595D01*
X48697Y174146D01*
X49490Y173988D01*
X66510D01*
X67303Y174146D01*
X67975Y174595D01*
X68424Y175267D01*
X68582Y176060D01*
Y185200D01*
X68424Y185993D01*
X68143Y186413D01*
X74647Y192917D01*
X132000D01*
X132000Y192917D01*
X133180Y193151D01*
X134180Y193820D01*
X139180Y198820D01*
X139180Y198820D01*
X139848Y199820D01*
X140083Y201000D01*
Y240723D01*
X143777Y244417D01*
X150177D01*
Y236582D01*
X148690D01*
X147897Y236424D01*
X147225Y235975D01*
X146776Y235303D01*
X146618Y234510D01*
Y217490D01*
X146776Y216697D01*
X147225Y216025D01*
X147897Y215576D01*
X148690Y215418D01*
X157830D01*
X158623Y215576D01*
X159295Y216025D01*
X159744Y216697D01*
X159902Y217490D01*
Y234510D01*
X159744Y235303D01*
X159295Y235975D01*
X158623Y236424D01*
X157830Y236582D01*
X156343D01*
Y247500D01*
Y258418D01*
X157830D01*
X158623Y258576D01*
X159295Y259025D01*
X159744Y259697D01*
X159901Y260490D01*
Y277510D01*
X159744Y278303D01*
X159295Y278975D01*
X158623Y279424D01*
X157830Y279582D01*
X156343D01*
Y301982D01*
X162277Y307917D01*
X201000D01*
X201000Y307917D01*
X202180Y308151D01*
X203180Y308820D01*
X211180Y316820D01*
X211180Y316820D01*
X211849Y317820D01*
X212083Y319000D01*
X212083Y319000D01*
Y323416D01*
X212983Y324017D01*
X214203Y325845D01*
X214632Y328000D01*
X214203Y330155D01*
X212983Y331983D01*
X211155Y333204D01*
X209000Y333632D01*
D02*
G37*
G36*
X107000Y320632D02*
X104845Y320204D01*
X103017Y318983D01*
X102416Y318083D01*
X81000D01*
X81000Y318083D01*
X79820Y317848D01*
X78820Y317180D01*
X55820Y294180D01*
X55152Y293180D01*
X54917Y292000D01*
X54917Y292000D01*
Y218012D01*
X49490D01*
X48697Y217854D01*
X48025Y217405D01*
X47576Y216733D01*
X47418Y215940D01*
Y206800D01*
X47576Y206007D01*
X48025Y205335D01*
X48697Y204886D01*
X49490Y204728D01*
X66510D01*
X67303Y204886D01*
X67975Y205335D01*
X68424Y206007D01*
X68582Y206800D01*
Y215940D01*
X68424Y216733D01*
X67975Y217405D01*
X67303Y217854D01*
X66510Y218012D01*
X61083D01*
Y290723D01*
X82277Y311917D01*
X102416D01*
X103017Y311017D01*
X104845Y309797D01*
X107000Y309368D01*
X109155Y309797D01*
X110983Y311017D01*
X112204Y312845D01*
X112632Y315000D01*
X112204Y317155D01*
X110983Y318983D01*
X109155Y320204D01*
X107000Y320632D01*
D02*
G37*
G36*
X279000Y327632D02*
X276845Y327203D01*
X275017Y325983D01*
X273797Y324155D01*
X273368Y322000D01*
X273797Y319845D01*
X275017Y318017D01*
X276845Y316796D01*
X279000Y316368D01*
X280061Y316579D01*
X280917Y315723D01*
Y309012D01*
X275490D01*
X274697Y308854D01*
X274025Y308405D01*
X273576Y307733D01*
X273418Y306940D01*
Y297800D01*
X273576Y297007D01*
X274025Y296335D01*
X274697Y295886D01*
X275490Y295728D01*
X292510D01*
X293303Y295886D01*
X293975Y296335D01*
X294424Y297007D01*
X294582Y297800D01*
Y299287D01*
X301917D01*
Y297277D01*
X294723Y290083D01*
X232000D01*
X232000Y290083D01*
X230820Y289848D01*
X229820Y289180D01*
X229820Y289180D01*
X227820Y287180D01*
X227152Y286180D01*
X226917Y285000D01*
X226917Y285000D01*
Y212277D01*
X198353Y183713D01*
X102582D01*
Y185200D01*
X102424Y185993D01*
X101975Y186665D01*
X101303Y187114D01*
X100510Y187272D01*
X83490D01*
X82697Y187114D01*
X82025Y186665D01*
X81576Y185993D01*
X81418Y185200D01*
Y176060D01*
X81576Y175267D01*
X82025Y174595D01*
X82697Y174146D01*
X83490Y173988D01*
X100510D01*
X101303Y174146D01*
X101975Y174595D01*
X102424Y175267D01*
X102582Y176060D01*
Y177547D01*
X199630D01*
X199630Y177547D01*
X200810Y177781D01*
X201810Y178450D01*
X232180Y208820D01*
X232180Y208820D01*
X232848Y209820D01*
X233083Y211000D01*
X233083Y211000D01*
Y283723D01*
X233277Y283917D01*
X296000D01*
X296000Y283917D01*
X297180Y284151D01*
X298180Y284820D01*
X307180Y293820D01*
X307180Y293820D01*
X307848Y294820D01*
X308083Y296000D01*
Y299287D01*
X316418D01*
Y297800D01*
X316576Y297007D01*
X317025Y296335D01*
X317697Y295886D01*
X318490Y295728D01*
X335510D01*
X336303Y295886D01*
X336975Y296335D01*
X337424Y297007D01*
X337582Y297800D01*
Y306940D01*
X337424Y307733D01*
X336975Y308405D01*
X336303Y308854D01*
X335510Y309012D01*
X318490D01*
X317697Y308854D01*
X317025Y308405D01*
X316576Y307733D01*
X316418Y306940D01*
Y305453D01*
X294582D01*
Y306940D01*
X294424Y307733D01*
X293975Y308405D01*
X293303Y308854D01*
X292510Y309012D01*
X287083D01*
Y317000D01*
X287083Y317000D01*
X286849Y318180D01*
X286180Y319180D01*
X284421Y320939D01*
X284632Y322000D01*
X284203Y324155D01*
X282983Y325983D01*
X281155Y327203D01*
X279000Y327632D01*
D02*
G37*
G36*
X167730Y297429D02*
X167293Y297372D01*
X165702Y296713D01*
X164336Y295664D01*
X163287Y294298D01*
X162628Y292707D01*
X162571Y292270D01*
X167730D01*
Y297429D01*
D02*
G37*
G36*
X170270D02*
Y292270D01*
X175429D01*
X175372Y292707D01*
X174713Y294298D01*
X173664Y295664D01*
X172298Y296713D01*
X170707Y297372D01*
X170270Y297429D01*
D02*
G37*
%LPD*%
D13*
X327000Y271630D02*
D03*
Y302370D02*
D03*
X327000Y211630D02*
D03*
Y242370D02*
D03*
X58000Y180630D02*
D03*
Y211370D02*
D03*
X92000Y180630D02*
D03*
Y211370D02*
D03*
X284000Y271630D02*
D03*
Y302370D02*
D03*
X284001Y211632D02*
D03*
Y242372D02*
D03*
D14*
X184000Y269000D02*
D03*
X153260D02*
D03*
X245000D02*
D03*
X214259D02*
D03*
X184000Y226000D02*
D03*
X153260D02*
D03*
X245000D02*
D03*
X214260D02*
D03*
D21*
X305000Y211632D02*
X326998D01*
X284001D02*
X305000D01*
Y201000D02*
Y211632D01*
X326998D02*
X327000Y211630D01*
X278000Y190000D02*
Y192000D01*
X250000Y208000D02*
X262000D01*
X278000Y192000D01*
X92000Y211370D02*
X104370D01*
X110000Y217000D01*
Y239000D01*
X81000Y315000D02*
X107000D01*
X58000Y292000D02*
X81000Y315000D01*
X284000Y305370D02*
Y317000D01*
X279000Y322000D02*
X284000Y317000D01*
X284001Y242372D02*
X284002Y242370D01*
X245000Y213000D02*
X250000Y208000D01*
X245000Y213000D02*
Y226000D01*
X209000Y319000D02*
Y328000D01*
X201000Y311000D02*
X209000Y319000D01*
X161000Y311000D02*
X201000D01*
X153260Y303260D02*
X161000Y311000D01*
X153260Y269000D02*
Y303260D01*
Y269000D02*
X153260Y269000D01*
X214259Y269000D02*
X214260Y269000D01*
X245000Y226000D02*
Y269000D01*
Y226000D02*
X245000Y226000D01*
X58000Y211370D02*
Y292000D01*
X92000Y180630D02*
X199630D01*
X230000Y211000D01*
X58000Y180630D02*
X73370Y196000D01*
X132000D01*
X137000Y201000D01*
Y242000D01*
X142500Y247500D01*
X153260D01*
Y226000D02*
Y247500D01*
Y269000D01*
X296000Y287000D02*
X305000Y296000D01*
X230000Y211000D02*
Y285000D01*
X232000Y287000D02*
X296000D01*
X230000Y285000D02*
X232000Y287000D01*
X305000Y296000D02*
Y302370D01*
X284000D02*
X305000D01*
X326000D01*
X284000Y274630D02*
X284001Y274629D01*
X200000Y226000D02*
Y269000D01*
X184000Y226000D02*
X200000D01*
X214260D01*
X184000Y269000D02*
X200000D01*
X214259D01*
X284001Y258501D02*
X326501D01*
X327000Y259000D01*
X284001Y242372D02*
Y258501D01*
X327000Y242370D02*
Y259000D01*
Y270630D01*
X284001Y258501D02*
Y274629D01*
X326000Y302370D02*
X327000Y301370D01*
D23*
X558000Y64235D02*
Y49000D01*
X550382D01*
X547843Y51539D01*
Y54078D01*
X550382Y56617D01*
X558000D01*
X550382D01*
X547843Y59157D01*
Y61696D01*
X550382Y64235D01*
X558000D01*
X540226Y49000D02*
X535147D01*
X532608Y51539D01*
Y56617D01*
X535147Y59157D01*
X540226D01*
X542765Y56617D01*
Y51539D01*
X540226Y49000D01*
X524991Y61696D02*
Y59157D01*
X527530D01*
X522452D01*
X524991D01*
Y51539D01*
X522452Y49000D01*
X512295Y61696D02*
Y59157D01*
X514834D01*
X509756D01*
X512295D01*
Y51539D01*
X509756Y49000D01*
X499599D02*
X494521D01*
X491981Y51539D01*
Y56617D01*
X494521Y59157D01*
X499599D01*
X502138Y56617D01*
Y51539D01*
X499599Y49000D01*
X486903D02*
Y59157D01*
X484364D01*
X481825Y56617D01*
Y49000D01*
Y56617D01*
X479286Y59157D01*
X476746Y56617D01*
Y49000D01*
X555000Y146000D02*
Y161235D01*
X547383D01*
X544843Y158696D01*
Y153617D01*
X547383Y151078D01*
X555000D01*
X549922D02*
X544843Y146000D01*
X529608Y158696D02*
X532147Y161235D01*
X537226D01*
X539765Y158696D01*
Y156157D01*
X537226Y153617D01*
X532147D01*
X529608Y151078D01*
Y148539D01*
X532147Y146000D01*
X537226D01*
X539765Y148539D01*
X509295Y153617D02*
X499138D01*
X478825Y146000D02*
Y161235D01*
X471207D01*
X468668Y158696D01*
Y153617D01*
X471207Y151078D01*
X478825D01*
X473746D02*
X468668Y146000D01*
X463590Y161235D02*
X458511D01*
X461050D01*
Y146000D01*
X463590D01*
X458511D01*
X450894D02*
Y156157D01*
X445815Y161235D01*
X440737Y156157D01*
Y146000D01*
Y153617D01*
X450894D01*
X435659Y146000D02*
Y156157D01*
X430580Y161235D01*
X425502Y156157D01*
Y146000D01*
Y153617D01*
X435659D01*
X402649Y146000D02*
Y158696D01*
Y153617D01*
X405188D01*
X400110D01*
X402649D01*
Y158696D01*
X400110Y161235D01*
X392493Y146000D02*
X387414D01*
X389953D01*
Y156157D01*
X392493D01*
X379797Y146000D02*
X374718D01*
X377257D01*
Y161235D01*
X379797D01*
X364562Y158696D02*
Y156157D01*
X367101D01*
X362023D01*
X364562D01*
Y148539D01*
X362023Y146000D01*
X346787D02*
X351866D01*
X354405Y148539D01*
Y153617D01*
X351866Y156157D01*
X346787D01*
X344248Y153617D01*
Y151078D01*
X354405D01*
X339170Y156157D02*
Y146000D01*
Y151078D01*
X336631Y153617D01*
X334091Y156157D01*
X331552D01*
D24*
X468000Y354000D02*
D03*
X493000D02*
D03*
X518000D02*
D03*
D25*
X382000Y380000D02*
D03*
D26*
X333000Y410000D02*
D03*
D27*
X382000Y440000D02*
D03*
D28*
X343000Y115500D02*
D03*
X163000D02*
D03*
X243000Y103000D02*
D03*
X423000D02*
D03*
X383000Y70500D02*
D03*
X203000D02*
D03*
D29*
X199000Y286000D02*
D03*
X169000Y291000D02*
D03*
X305000Y201000D02*
D03*
X278000Y190000D02*
D03*
X107000Y315000D02*
D03*
X279000Y322000D02*
D03*
X209000Y328000D02*
D03*
X110000Y239000D02*
D03*
M02*
